<?xml version="1.0" encoding="UTF-8"?>
<svg width="1851pt" height="1963pt" version="1.1" viewBox="0 0 1851 1963" xmlns="http://www.w3.org/2000/svg">
 <path d="m888.56 1963c3.84-11.12 6.02-25.05 13.72-33.64-3.28 11.47-7.41 22.97-12.78 33.64h-0.94zm-115.2-43.78c2.35-0.92 3.26 2.48 2.05 4.02-6.66 9.04-13.92 17.65-20.91 26.46-1.69 2.3-7.62 2.39-6.34-1.27 10.62-7.68 16.01-20.22 25.2-29.21zm-54.99-0.11c4.36 3.25-5.36 12.31-6.44 15.79-1.72-4.42 2.91-11.83 6.44-15.79zm-45.97-5.02c1.98-0.52 3.11 0.59 2.49 2.6-5.5 14.15-14.52 26.83-18.49 41.59-0.29 3.3-8.51 4.05-3.93-1.68 4.98-14.78 12.91-28.64 19.93-42.51zm-56-0.83c2.57-0.86 1.27 2.45 0.67 3.68-7.31 11.87-17.11 22.04-24.08 34.16-0.85 1.86-5.2 0.51-3.35-1.5 6.74-13.47 17.27-24.85 26.76-36.34zm254.17-2.97c7.7-1.53-1.2 7.77-5.34 6.69-0.12-3.12 2.88-5.33 5.34-6.69zm114.83-15.02c2.36 6.64-5.3 23.41-10.52 30.46 1.64-10.65 7.13-20.29 10.52-30.46zm-89.93-7.87c-1.94 17.93-19.1 41.33-23.04 63.04-5.91 2.68-2.43-6.64-1.81-9.77 7.97-17.76 13.92-37.25 24.85-53.27zm-468.25-10.04c0.75 3.49-12.29 13.1-18.06 15.74 4.89-6.09 11.64-11.2 18.06-15.74zm-255.74-15.99c1.56 5.67-13.33 16.02-18.42 22.26-1.09-8.89 12.58-15.71 18.42-22.26zm540.85-12.98c17.01-0.43-4.01 10.23-9.44 2.29 0.82-3.98 6.61-0.64 9.44-2.29zm-337.79-0.96c3.49 0.48-6.34 12.14-7.33 10.81 1.85-3.95 4.46-7.58 7.33-10.81zm584-9.95c-2.44 12.59-11.64 28.68-16.38 42.67 0.15 2.73-4.61 4.08-2.55 0.54 6.84-14.06 9.14-30.84 18.93-43.21zm-474.11-3.04c1.76 0.42-3.3 5.14-4.68 6.32-17.64 11.56-28.4 32.05-46.81 41.99 2.63-6.53 10.75-10.14 13.95-16.84-6.49 1.49-12.07 12.04-17.7 10.22 17.24-14.63 36.8-28.06 55.24-41.69zm-255.93-6.01c2.45-1.39 1.55 2.76-0.29 2.66-13.29 6.44-14.37 25.52-25.77 32.47 4.5-13.48 12.64-28.47 26.06-35.13zm896.75-3.22c4.73 3.07-2.66 13.5-2.83 18.2-8.44 21.5-14.47 46.64-21.25 67.24-0.44-29.47 12.64-58.56 24.08-85.44zm20.12-1.84c-3.31 14.66-13.31 36.06-20.01 49.15 4.42-16.53 11.4-34.37 20.01-49.15zm-704.86-5.01c1.2-0.49 2.87-0.63 2.31 1.21-8.64 8.37-14.34 19.5-20.8 29.38 4.13 1.55 11.39-15.21 15.8-10.39-14.95 14.8-28.02 31.7-43.71 45.54 19.21-19.2 26.5-47.31 46.4-65.74zm-252.11-0.99c-2.97 8.5-15.07 18.5-22.14 26.88-0.57 1.2-5.92 6.73-4.83 3.25 8.16-10.68 16.94-21.3 26.97-30.13zm-33.92 0.13c-9.95 15.8-31.48 30.15-43.29 47.7-0.92 2.99-4.57 0.78-2.44-1.43 12.54-17.84 30.36-31.05 45.73-46.27zm941.58 22.18c1.07-9.1 5.39-17.93 9.98-25.87-2.51 7.95-3.77 21.14-9.98 25.87zm-785.52-26.3c2.56 3.68-9.13 13.86-14.4 16.49 2.56-6.74 8.56-12.29 14.4-16.49zm97.01-1.03c-2.91 8.28-15.04 26.29-23.58 35.51 5.77-13 13.59-25.34 23.58-35.51zm-100.13-0.94c2.57 3.03-6.54 6.53-8.7 8.23-23.26 21.74-44.92 45.57-69.74 65.19 21.11-24.36 47.46-45 69.1-68.85 3.41-0.95 5.87-3.89 9.34-4.57zm861.98-2.28c-3.23 14.68-11.47 33.68-19.74 47.59 3.53-14.51 11.52-33.39 19.74-47.59zm-171.94-1.81c1.29-0.33 3.01-0.72 2.46 1.3-11.18 6.43-14.38 20.1-20.88 30.35-0.59 2.72-3.98 6.85-6.87 4.04 7.1-12.37 10.84-29.84 25.29-35.69zm-624.09-0.23c-3.33 10.19-10.59 24.03-16.56 33.69 0.96-10.36 8.97-24.55 16.56-33.69zm-17.87-0.65c1.27-0.32-0.88 3.98-1.86 5.06-14.13 14.43-21.26 35.18-34.66 49.37 9.08-19.87 21.21-38.91 36.52-54.43zm722.39 28.36c4.69-9.77 1.91-23.37 8.07-31.7 2.38 3.75-2.7 12.16 4.29 9.24-9.58 35.39-29.14 67.37-42.16 101.62-3.86 4.51-3.13 12.78-8.83 15.27 10.6-32.33 24.99-63.29 38.63-94.43zm-144.52-40.75c0.88 14.8-14.71 33.69-20.24 49.98-0.67 2.68-5.66 11.82-5.95 5.26 7.64-18.88 17.1-37.1 26.19-55.24zm-663.77-3.57c-8.46 9.33-22.63 25.47-34.33 34.65 10.28-12.32 18.48-28.71 34.33-34.65zm-162.11 0.01c-4.71 8.16-17.4 19.02-27.29 25.59 6.59-10.63 18.03-17.41 27.29-25.59zm977.98-1.15c-1.39 4.78-1.83 20.34-9.3 21.44 0.64-7.66 3.31-16.39 9.3-21.44zm-773.94-4.93c2.19-1.35 1.49 1.53 0.26 2.24-27.38 18.36-51.92 40.68-79.6 58.65-1.21 0.68-3.06 1.1-4.17 0.05 29.09-18.63 53.59-43.97 83.51-60.94zm-129.97-5.01c-2.63 6.8-17.8 21.05-26.56 28.43 7.25-10.49 16.82-20.04 26.56-28.43zm565-2.89c-2.41 5.71-9.7 20.46-18.23 23.4 4.47-8.35 11.6-16.27 18.23-23.4zm69.97-7.37c4.05-1.05 1.89 4.11 0.78 6.01-6.36 9.96-13.79 21.14-20.4 29.65-0.16-12.29 13.37-24.08 19.62-35.66zm67.86-2.06c-0.3 9.61-7.03 23.75-14.31 30.84 3.47-10.7 7.44-21.85 14.31-30.84zm201.57 36.02c0.91-13.23 7.17-29.16 11.56-38.72-2.43 12.01-3.79 29.97-11.56 38.72zm-51.43-38.69c-0.38 3.74-11.49 16.11-18.62 20.34 3.67-8.41 12.9-13.43 18.62-20.34zm40.83-1.34c4.1 0.75 0.45 7.91-0.29 10.94-14.2 32.21-28.68 66.75-49.92 93.87 15.74-35.26 35.69-68.92 50.21-104.81zm-215.81 0.17c5.77-0.53-1.22 8.08-1.53 10.72-4.5 4.85-4.63 15.57-11.69 17.18 2.89-9.91 7.61-19.3 13.22-27.9zm17.91-5.94c-1.29 4.57-9.11 23.34-16.22 27.52 1.97-10.3 8.46-20.77 16.22-27.52zm-505.04-3.06c5.16 3.19-5.95 9.37-6.51 14.59-3.29 4.18-1.08 16.29-8.34 13.5-1.03-10.85 6.11-22.09 14.85-28.09zm-64.95-2.92c-0.3 5.76-11.73 22.99-21.12 27.38 5.59-9.5 12.43-19.91 21.12-27.38zm825.93-4.33c4.81 6.94-4.39 16.91-4.92 25.39-7.76 12.91-8.06 34.97-22.38 41.41 9.33-22.02 18.77-44.34 27.3-66.8zm-890.89-9.64c2.24-1.22 1.21 1.45 0.57 2.52-17.85 23.04-30.35 49.54-42.17 76.01-1.35 1.81-5.14 1.35-3.49-1.4 11.64-27.39 27.61-53.41 45.09-77.13zm605.02-1.08c5.42-0.92-0.86 5.1-2.53 6.71-6.98 11.47-14.75 22.61-20.05 35.06-0.24 3.25-5.24 2.25-3.54-0.65 5.38-15.16 14.4-30.54 26.12-41.12zm221.94-2.04c2.4-1.04 1.07 1.57 0.77 2.83-9.5 19.86-23.64 37.44-30.57 58.52-16.69 25.82-33.77 51.33-46.8 79.24-3.19-8.1-8.55 11.14-9.67 2.48 11.77-21.92 27.71-41.68 36.75-65.09 3.92 1.78 1.53-5.19 5.2-5.08-0.15 1.69-2.41 7.96 0.39 4.21 15.71-24.9 25.9-53.51 43.93-77.11zm-52.15-1.1c1.71-0.58 3.19 0.97 2.62 2.68-3.9 11.6-7.29 23.41-9.84 35.39-1.61-0.24-4.55 0.44-3.99-2.13 2.22-12.39 6.62-24.26 11.21-35.94zm-667.94-1.75c1.28 4.89-7.28 12.63-9.38 18.5-6.43 7.83-7.17 20.35-16.76 25.25 7.44-15.11 12.19-33.36 26.14-43.75zm737.15-8.95c-7.41 12.89-14.55 34.3-24.62 47.34 7.27-15.86 11.27-35.61 24.62-47.34zm-781.5-9.05c2.84 0.92-1.29 4.49-2.97 5.64-12.66 15.31-19.94 36.07-35.91 48.02 13.05-17.57 19.42-42.35 38.88-53.66zm623.21-1.34c3.06 0.63 1.49 4.76 0.73 6.77-16.97 38-35.8 75.33-49.72 114.62-5.01 1.93-6.21 0.62-3.6-3.92 14.66-40.35 32.78-79.46 52.59-117.47zm-297.71-0.73c2.57 3.92-9.08 12.91-12.12 19.02-5.07 4.46-6.04 14.67-13.04 15.58 5.92-12.72 15.82-24 25.16-34.6zm102.32-2.54c3.55-2.69 0.75 2.53 0.31 4.29-7.92 8.22-14.26 17.88-20.86 27.17-1.09 1.55-5.42 2.37-3.45-0.55 7.97-10.29 14.4-21.99 24-30.91zm-77.41-1.61c4.34 6.3-9.94 18.99-14.28 23.56 1.67-9.11 9.58-15.88 14.28-23.56zm77.72 5.9c3.72-3.26 5.14-9.28 9.86-11.02-3.48 10.79-10.39 20.17-16.15 29.84-4.99-5.14 5.16-12.69 6.29-18.82zm53.31-14.68c-8.41 14.69-27.29 29.14-35.61 46.56-5.12-3.32 2.34-9.75 4.24-12.97 10.63-10.88 18.05-25.73 31.37-33.59zm43-3.07c0.36-0.12 1.07-0.36 1.43-0.49-5.74 12.89-10.71 26.28-18.17 38.26-4.07-3.49 3.3-11 4.34-16.09 4.51-6.73 4.44-17.93 12.4-21.68zm234.53 0.54c0.82-2.26 5.28-2.7 3.52 0.48-21.23 35.06-46.95 68.45-68.5 102.64-5.81-8.9 7.98-18.9 11.08-27.77 18.66-24.48 36.08-50.17 53.9-75.35zm-349.63-1.49c2.48-0.78 0.98 2.3 0.7 3.56-6.95 12.4-14.05 24.75-21.21 37.04-4.78 0.24-0.87-5.26-0.85-7.85-5.94 2.75-6.05 20.17-12.81 18.67 4.1-6.41 5.78-25.98 15.28-21.49 5.79-10.28 12.34-20.13 18.89-29.93zm271.72-0.98c1.6-0.4-0.15 3.67-0.72 4.84-14.6 22.78-33.51 42.42-47.97 65.09-3.27 4.13-11.88 17.16-11.85 6.25 3.61-5.81 7.48-26.16 15.72-19.47 14.58-19.12 27.35-40.28 44.82-56.71zm-66.6-4.25c4.42-0.95 1.59 4.61 0.21 6.44-7.3 7.62-12.31 17.02-13.73 27.14 0.36 4.46-9.47 2.26-4.98-2.73 1.82-11.95 11.64-21.43 18.5-30.85zm-219.13-0.07c-3.89 18.48-21.59 35.56-31.43 52.76-0.84 3.58-9.05 10.72-6.28 2.93 12.07-18.82 25.5-36.97 37.71-55.69zm164.17-2.12c6.14 1.01-0.9 17.56-5.64 20.93-0.94-5.96 1.56-15.07 5.64-20.93zm216.38-4.91c0.77 7.07 3.69-4.6 8.1-1.87 4.72 5.68-4.53 16.86-10.99 11-6.08 5.68-7.84 17.99-13.94 22.61 3.08-11.15 9.71-23.68 16.83-31.74zm-176.34-3.65c1.98 2.74-8.92 13.34-11.31 18.8-7.56 14.39-21.49 25.23-25.52 41.27-1.41 2.39-7.41 4.07-3.47-2.15 6.59-23.13 23.29-41.84 40.3-57.92zm-284.17-5.1c-1.14 11.33-7.67 26.56-12.67 38.46 2.23 2.13-4.32 7.94-3.57 3.46 5.52-13.84 6.69-30.18 16.24-41.92zm392.87-3.28c-10.93 29.41-29.42 60.31-42.8 90.4-2.32 7.7-9.31 15.33-5.86 23.24-5.49 5.39-5.68 15.99-13.41 18.49 16.36-45.68 37.15-90.24 62.07-132.13zm202.97-1.26c0.65 9.16 3.18 21.18-1.43 30.41-3.79-9.35 0.57-20.6 1.43-30.41zm-626.84-2.61c0.94 3.45-2.65 18.3-8.3 14.04-10.4 11.34-23.34 19.87-34.55 30.31-0.45 1.57-3.59 3.65-3.18 0.72 13.15-17.3 36.25-25.58 46.03-45.07zm-294.97-0.04c2.9-0.43 1.22 3.34 0.74 4.88-7.78 17.09-20.15 31.5-29.47 47.72-2.81 1.35-0.31-2.72 0.04-3.95 9.62-16.16 18.06-33.23 28.69-48.65zm400.07-2.9c4.51-1.41 0.72 4.13-0.3 5.95-17.45 26.79-31.63 56.08-53.56 79.62-3.5 0.65 0.89-4.55 1.41-5.75 18.91-25.63 35.9-52.75 52.45-79.82zm347.03-0.86c1.38-0.63 1.73-0.26 1.03 1.11-8 14.7-12.98 30.96-21.85 45.19-3.4 3.46-0.39-4.35 0.41-5.53 7.21-13.22 11.52-28.91 20.41-40.77zm-425.06-0.95c-0.03 4.18-4.86 15.29-9.6 19.34 2.83-6.44 5.48-13.75 9.6-19.34zm180.25-6.01c4.92-3.99 6.82 2.1 3.28 3.66-11.25 2.65-13.74 18.42-24.87 20.7 3.79-9.68 11.81-19.89 21.59-24.36zm-542.42-1.16c0.02 10.52-11.96 27.93-20.12 37.88 5.74-12.96 10.92-26.96 20.12-37.88zm842.87-0.17c4.65-7.9 2.03 1.74-0.04 2.98-5.96 7.65-8.35 19.49-16.22 25.01 3.87-9.94 10.87-18.69 16.26-27.99zm-549.66-4.52c-3.91 14.23-25.36 24.82-29.14 41.71-1.87 2.01-5.95-1.14-3.69-3.57 8.38-14.55 20.03-27.45 32.83-38.14zm262.7-2.3c8.86 3.92-4.47 13.75-6.33 18.72-4.55-5.59 2.72-13.49 6.33-18.72zm-595.98-2.27c4.5 2.3-2.02 7.49-3.13 10.07-8.16 10.25-12.3 26.71-20.42 34.46 2.85-16.08 12.07-32.31 23.55-44.53zm273.3-2.79c4.06-1.24 2.04 4.17 0.33 5.52-8.13 9.62-16.98 18.62-24.56 28.69-1.89 3.93-5.4-0.25-4.12-2.85 9.98-9.93 18.38-21.41 28.35-31.36zm-157.36-0.15c2.07 2.01 4.36 1.07 6.89-0.02-0.06 4.88-13.41 5.64-6.89 0.02zm345.21-16.7c4.11-1.08 5.21 6.53 9.57 1.55-5.67 12.12-11.51 26.04-19.08 35.99 0.59-11.12 10.61-24.4 9.51-37.54zm-29.06-1.08c-3.04 13.65-13.17 30.35-17.31 45.7-1.36 2.79-4.25 13.63-6.86 7.97 6.3-18.43 11-38.68 24.17-53.67zm-349.27 3.74c2.8-4.45 11.04-3.57 15.78-2.75-2.42 3.9-10.64 3.21-15.78 2.75zm286.53-5.76c6.07 0.45-1.7 7.31-3.77 9.59-4.46-1.85 2.25-7.42 3.77-9.59zm-271.4-2.06c3.08-0.39 17.02 17.2 8.32 10.44-2.64-3.6-8-5.56-8.32-10.44zm-184.83 0.04c5.92 0.74-2.01 8.95-3.76 12.3-5.71 4.99-6.5 14.41-12.65 18.23 2.7-11.43 9.4-21.34 16.41-30.53zm503.16-0.86c2.96-1.44-0.5 2.85-1.5 3.64-18.91 16-32.9 37.58-52.81 52.14 17.8-18.67 33.19-40.71 54.31-55.78zm171.06-4.11c2.7-1.07 5.87 0.81 3.17 3.44-5.68 6.6-3.48 17.06-9.81 22.29-3.15-9.21 2.07-18.16 6.64-25.73zm-33.1 0c3.54-0.22 0.28 4.82-1.58 5.73-6.56 19.44-11.97 39.07-18.41 58.53-8.04 2.46-1.99-8.77-1.44-12.47 6.58-17.32 8.19-38.13 21.43-51.79zm-666.12 0.15c3.46-2.15-1.21 3.64-1.25 3.7-9.23 11.3-15.1 24.95-23.46 36.76-3.96-1.22 0.96-7.48 1.9-10.4 7.05-10.24 10.5-24.9 22.81-30.06zm916.18-2.22c2.75-1.07 3.11 2.25 1.77 3.91-12.21 17.34-22.71 35.83-32.49 54.62-4.55-6.62 2.19-15.25 5.14-21.81 8.2-12.43 15.28-25.89 25.58-36.72zm56.04-2.94c6.41 2.72-12.22 10.97-7.9 17.28 2.5-1.33 6.09 0.72 2.89 3.01-9.69 5.64-10.68 19.68-20.38 24.37 10.09-13.97 9.66-34.85 25.39-44.66zm-351.1 0.19c1.33 2.16-4.04 8.44-5.36 11.61-7.77 10.55-8.48 27.35-19.22 34.76 6.51-16.07 11.73-34.05 24.58-46.37zm440.79-1.14c-13.66 22.28-40.97 41.48-55.22 65.74-0.73 9.6-9.09 1.51-3.84-3.82 15.82-23.81 37.36-43.75 59.06-61.92zm-576.14-0.16c-13.31 18.34-22.75 39.39-36.89 57.27-6.22 2.54 0.05-5.9 1.71-7.53 12.75-15.84 17.45-38.24 35.18-49.74zm-82.69 0.05c3.73 6.58-10.29 18.5-9.44 27.85-4.07-7.49 4.85-20.31 9.44-27.85zm-100.22-6.05c3.73 2.13-2.2 9.3-4.23 11.79-3.26-4.64 2.77-7.87 4.23-11.79zm-198.75-1.77c5.43-0.49-1 5.88-2.27 7.77-7.85 8.61-12.91 19.09-19.44 28.66-0.62 1.5-3.5 1.51-2.49-0.55 5.48-13.36 12.82-26.61 24.2-35.88zm220.97-0.9c-0.33 7.72-10 17.77-13.55 26.23-4.73-0.28-3.55-5.54-1.1-7.92 5.27-5.79 7.23-14.91 14.65-18.31zm116.12-2.15c3.11-1.57 1.93 1.35 0.86 3.04-19.31 28.4-32.65 60.21-46.63 91.44-1.29 0.32-2.79-0.17-2.72-1.7 14.89-31.43 27.6-64.91 48.49-92.78zm-364.05-1c1 7.77-12.82 22.24-19.38 28.47 3.58-10.61 11.84-20.18 19.38-28.47zm829.95-5.96c5.18 2.2-7.85 9.57-7.68 13.81-1.24 14.16-13.49 24.14-16.74 37.84 14.56-12.12 19.51-32.73 34.54-43.7 5.26-1.38 0.08 5.94-1.24 6.97-12.2 12.5-18.22 29.27-27.19 44.01-4.22-7.47-8.27 10.28-12.48 14.7-9.49-3.35 11.07-20.08 3.19-19.15-6.48-7.71 16.89-32.44 0.27-19.92 6.94-12.37 16.87-24.95 27.33-34.56zm61.09-2.02c3.31-1.54 1.92 2.67 1.99 4.59-13.7 18.11-28.69 35.94-39.64 55.99-7.95-5.95 5.46-16.5 2.53-23.81-6.79 3.3-8.05 14.66-15.13 15.67 1.76-7.61 8.75-18.71 16.96-18.81 3.58-6.91 5.62-17.99 13.46-20.61-1.93 7.6-7.99 14.18-8.67 22.37 10.73-9.86 19.48-23.34 28.5-35.39zm74-2.04c4.89-1.23-0.63 2.89-1.82 4.41-11.96 16.67-28.89 29.36-37.87 48.16-0.55 2.89-5.86 2.94-4.7-0.53 9.36-21.54 29.14-35.07 44.39-52.04zm-164.92-0.87c9.4-0.99-2 8.64-3.61 12.55-2.27 2.74-6.45 13.85-9.65 7.93 2.96-7.53 8.24-14.13 13.26-20.48zm-494.15-2.11c2.39-1.03 1.71 2.57 0.41 3.37-10.49 9.48-19.96 20.03-30.63 29.32-9.24 0.62-7.04 16.55-13.85 17.81-3.29-10.29 7.9-17.99 12.63-25.84 4.81-4.02 6.35-13.53 12.94-14.74 0.36 3.75-3.38 6.12-4.01 9.68 8.25-5.62 14.51-13.79 22.51-19.6zm-212.15-17.03c4.75-1.11 2.05 10.11 9.09 4.97 8.59-1.61 1.83 7.4-2.54 2.17-5.56 2.28-11.33 4.56-17.71 4.51-1.01-5.44 6.98-3.71 10.6-5.2 1.24-2.43-4.23-5.93 0.56-6.45zm202.23-0.99c3.38-1.49 2.12 2.44 0.9 4.03-11.26 14.02-23.34 27.38-36.19 39.98-2.22 2.15-4.08-1.88-2.94-3.7 12.25-13.93 25.53-26.89 38.23-40.31zm851.56 75.59c5.84-25.14 0.63-53.81 7.77-77.65 9.84 27.15 3.34 57.09-0.97 84.57-7.31 4.72-3.79-4.25-6.8-6.92zm-1053.6-78.9c14.62-2.68 0.71 9.17 0 0zm425.78-3.82c8.86-1.84 9.29 22.39 0.03 15.18-0.11-4.02-4.69-12.89-0.03-15.18zm374.66-2.44c13.97 3.78 10.06 32.9 0.18 33.91 0.55-11.3 2.51-22.66-0.18-33.91zm-969.59-0.74c-2.08 7.35-10.73 18.34-18.25 22.83 3.7-8.96 12.48-15.08 18.25-22.83zm347.11-2.86c1.25-0.26 2.9-0.5 2.24 1.37-13.99 17.4-27.44 35.52-41.29 52.88-2.64 1.6-2.89-3.05-1.48-4.4 13.07-16.96 26.59-33.68 40.53-49.85zm221.78-1.05c4.86 4.59 4.48 14.2 6.58 20.86-9.94 5.84-16.06-19.37-6.58-20.86zm-23.97 0.11c10.69 0.37 3.5 15.74 7.71 22.77-10.9 4.74-15.05-18.85-7.71-22.77zm492.29-0.95c1.32-0.32 3.77-0.92 3.31 1.31-12.61 9.23-23.74 21.9-32.57 33.92-9.7 3.64-11.81 20.94-22.89 21.19 1.63-11.58 17.6-17.11 19-29.17 11.08-1.82 19.81-21.89 33.15-27.25zm167.65-2.13c2.83 10.84-0.09 32.38-0.29 47.65-2.53-14.21-3.87-32.43 0.29-47.65zm-1043.3 0.39c13.09 1.58-9.09 7.6-11.9 2.53 3.79-1.56 7.89-1.93 11.9-2.53zm223.18-2.7c4.69 2.5-0.13 9.52-0.25 13.69-3.3-2.5-1.01-9.86 0.25-13.69zm257.22-5.67c0.94-0.94 2.06 1.61 1.31 2.25-10.8 15.32-18.57 32.86-33.11 45.18-4.77 1.25-0.48-4.99 1.17-6.07 12.58-11.97 15.78-31.81 30.63-41.36zm-329.31-0.01c-3.98 16.06-22.43 23.99-27.82 39.78-4.7 0.69-9.2 15.33-9.81 4.7 9.88-16.77 22.2-32.61 37.63-44.48zm214.5-9.9c2.74 3.86-9.21 14.87-11.73 21.33-2.9 2.27-7.13 15.43-10.71 10.3 7.89-10.09 12.25-23.67 22.44-31.63zm-392.33-1.62c5.61 5.73 16.54-3.61 18.38 4.16-3.7-0.42-5.28 1.79-3.57 5.13-3.8-7.31-13.17 2.09-14.81-9.29zm1050.8-0.83c14.43 21.28 11.31 51.54 18.72 75.78-0.23 41.25 6.96 83.21-1.73 124.09-9 11.74-1.9 27.88-0.22 40.92-1.85 5.18-7.72 0.3-8.53-3.17-4.72-19.26-7.69-43.61 1.94-58.83-1.24-33.43-6.79-66.98-17.52-98.68-2.88 9.06 6.49 25.92-4.53 30.55 2.35 30.63 4.17 61.33 4.87 92.03-15.05 2.02-2.98 24.67-7.73 36.4 3.16 6.13-6.15 9.42-6.99 2.31 1.86-27.1-6.62-58.21 4.85-82.67-0.18-16.13-2.88-32.26-1.19-48.36-2.05-1.97-3.34-6.53 0.9-4.37 0.65-19.51 2.73-38.03 5.36-55.87 3.07 6.32-0.99 18.3 7.13 22.71 7.01 15.13 12.92 31.22 16.14 47.68-2.14 5.23 2.24 5.43 2.31 2.16-3.52-31.67-5.33-64.22-11.59-95.79-2.3-8.6-4.96-18.25-2.19-26.89zm-947.59-5.62c4.1 6.15-12.56 15.58-14.57 23.46-8.28-7.53 10.57-17.69 14.57-23.46zm434.03-5.17c3.56 0.12 0.22 5.68-0.3 7.93-11.02 21.4-18.37 44.41-31.29 64.78-4.68 3.48-2.14-4.95-0.81-6.84 10.72-21.93 21.88-43.8 32.4-65.87zm-556.96 0.18c16.61 1.03-9.31 8.4 0 0zm496.01-2.9c-4.73 6.44-8.37 22.41-17.39 27.53 4.42-9.74 8.32-21.2 17.39-27.53zm-475.97-0.32c12.18 0.47-3.14 9.28 0 0zm-85.93-0.01c1.11-0.14 4.07-0.68 3.04 1.38-8.19 11.15-12.91 24.36-20.07 36.07 1.2 3.05-6.67 12.67-6.18 5.86 6.39-14.96 12-31.28 23.21-43.31zm452.98-1.75c1.22-0.47 2.97-0.78 2 1.11-9.04 13.47-18.29 27.29-25.19 41.82 5.32 6.9 20.39-3.4 26.81 3.52-9.05 6.63-21.21 0.93-31.44 2.69-1.83 2.07-6.49 7.38-4.9 1.27-12.16-1.82-24.26-3.77-36.25-6.37-1.91-2.77 0.25-6.35 3.52-6.24 12.04 2.7 24.12 6.31 36.51 6.67 10.92-13.55 15.03-33.42 28.94-44.47zm-72.14-0.15c4.47-0.34-0.26 7.62-1.39 8.66-12.72 15.46-27.5 29.72-35.87 48.24-0.35 3.54-7.35 4.39-3.69-1.52 7.22-22.24 25.67-38.54 40.95-55.38zm-426.32 0.06c1.74-0.84 2.1 0.86 1.65 2.21-12.35 11.33-19.97 26.57-28.5 40.74-0.98 2.78-6.37 1.73-2.81-2.55 8.78-13.73 14.43-32.55 29.66-40.4zm334.58-4.8c5.67 3.62-8.45 15.73-9.48 22.48 3.12 4.38-4.67 9.16-5.12 2.87 1.06-10 8.12-18.19 14.6-25.35zm-54.31-0.38c4.76 2.33-2.83 10.86-4.46 13.8-6.19 6.98-7.72 19.79-16.83 22.85 3.24-13.74 14.93-24.22 21.29-36.65zm922.72-2.09c1.96 9.74 1.34 24.01-0.99 34.1-3.45-11.74 1.05-22.65 0.99-34.1zm-69.84-1.15c3.95 16.19-1.36 34.2-7.47 49.17-5.32-15.46 4.91-33.06 7.47-49.17zm-491.8 0.59c-4.78 10.81-16.57 25.36-17.75 40.23-1.97 5.32-0.89 18.77-9.17 17.71-0.7-8.19 3.34-16.57 4.44-24.73-6.61 7.61-11.02 19.57-20.84 23.08 12.47-19.76 23.86-41.78 43.32-56.29zm-50.92-1.25c10.75 0.18-4.05 14.91-2.13 20.36-11.97 1.99-3.66-17.03 2.13-20.36zm-490.13 0.09c19.37-0.15-8.74 8 0 0zm882.04-1.16c4.14-1.02 1.9 4.02 0.56 5.79-12.22 18.01-25.96 34.96-37.74 53.35-1.09 1.61-4.19 0.02-2.63-1.76 9.25-21.56 26.36-38.51 39.81-57.38zm-1007.1 0c6.23 1.07-1.39 11.16-2.36 14.95-9.27 15.93-16.61 34.03-27.85 48.06 10.27-20.76 20.22-42.02 30.21-63.01zm1225.8-5.79c3.97-0.49 6.33 10.27 1.09 6.59-4.45-5.75-4.53 8.57-10.99 4.06-0.53-5.85 7.42-6.24 9.9-10.65zm-939.77-0.13c3.67 2.53-3.83 11.54-7.51 13.62 1.58-4.87 4.6-9.43 7.51-13.62zm317.07-3.04c3.41-1.18 2.08 2.62 1.27 4.45-12.83 19.62-17.27 43.21-27.02 64.18-3.36 4.23-2.8-5.32-1.31-6.26 7.8-21.14 11.63-45.21 27.06-62.37zm556.08-4.96c2.72 5.35-0.38 10.23-5.13 12.75-2.49-14.8-3.98 8.08-11.49 6.37-2.81-12.05 11.8-11.69 16.62-19.12zm-767.15-8.94c2.83-0.9 3.18 3.08 1.45 4.51-6.14 7.58-3.7 18.64-9.16 26.33 0.02-9.12 0.3-22.92 7.71-30.84zm-264.32-0.77c4.25-0.3 2.11 2.39-0.8 2.6 0.42 4.31 7.63 12.68-0.33 9.61 2.67-4.48-7.23-12.35 1.13-12.21zm-71.66-4.18c1.57 9.2-13.39 24.11-13.46 35.63-9.04-8.58 9.41-26.36 13.46-35.63zm902.1-2.03c1.78-0.61 4.21-0.17 3.33 2.25-8.14 7.74-11.64 18.97-19.01 27.35-2.67 3.12-4.21-2.66-4.77-4.72 5.75-8.95 10.91-19.48 20.45-24.88zm-749 0.05c4.26 0.93-5.77 11.12-8.8 14.46-5.12-3.98 6.42-10.82 8.8-14.46zm298.93-4.82c-7.49 14.87-28.74 28.63-44.61 38.26 12.04-14.84 30.43-25.08 44.61-38.26zm-95.99-0.14c-0.73 4.72-12.07 16.96-18.45 22.58 4.92-8.18 11.9-15.64 18.45-22.58zm-295.28-1c8.88 2.94-3.24 6.22-8.72 4.96-2.53-4.97 6.64-3.45 8.72-4.96zm510.48-0.96c3.75-2.06 3.8 2.7 1.06 4.25-6.86 4.58-7.26 15.91-15.64 18.28 2.76-8.53 9.17-15.51 14.58-22.53zm-520.3-6.56c5.99-3.17 3.34 6.63-2.54 3.92-5.58 0.05-0.37-4.13 2.54-3.92zm525.2-3.39c4.32-1.7 1.12 3.58-1.1 4.03-24.56 16.55-36.11 46.31-60.48 62.44-5.61-5.42 11.36-10.31 8.44-17.25-0.76-5.82-8-18.74 1.6-20.71 7.84 1.63 2 11.47 5.79 16.2 13.81-16.26 26.52-34.4 45.75-44.71zm-83.24-0.22c-5.99 16.18-24.11 30.04-34.67 45.4-8.56 8.34-15.11 19.79-26.55 24.35 22.27-21.09 41.49-46 61.22-69.75zm412.94-3.89c1.81-1.07 3 5.12-1.01 3.86-12.22 11.85-20.5 27.21-29.71 41.4-1.48 2.5-6.01 0.97-3.9-1.9 9.05-16.07 19.23-32.72 34.62-43.36zm-862.62-0.86c10.75-3.06 6.64 6.4-1.8 3.42-10.02 1.51-2.2-4.01 1.8-3.42zm209.88-2.16c7.33 1.3-4.38 9.91-7.05 12.2-5.8 2.92-7.16 12.36-13.21 13.41 1.61-11.53 13.21-17.49 20.26-25.61zm60.97-3.92c2.58 1.07-14.34 4.23-17.46 2.86 5.56-2.15 11.71-1.47 17.46-2.86zm-167.01-2.13c4.74-1.37 0.47 5.04-0.61 6.59-4.91 6.26-8.4 15-13.82 19.97-2.76-9.91 10.16-18.37 14.43-26.56zm187.92-1.88c4.83 2.79-6.35 1.82-9.21 3.59-4.33-3.94 7.99-1.94 9.21-3.59zm-130.94-2.23c2.81-1 2.94 2.07 1.63 3.77-10.74 12.25-22.22 23.91-33.35 35.77-0.63 3.06-7.06 6.99-6.48 1.78 11.36-14.87 25.62-27.46 38.2-41.32zm-162.15 0.17c9.53 4.98-12.63 4.63 0 0zm10.82-2.38c12.67 0.38 0.72 10.16 0 0zm-91.69-3.85c1.95 9.96-8.49 16.96-11.37 25.92-0.27 3.17-6.18 8.86-3.62 0.58 3.23-9.64 10.18-17.61 14.99-26.5zm-38.97 0.41c-6.65 11.13-19.94 27.66-31.57 38.4 8.49-14.08 20.19-26.62 31.57-38.4zm1147.8-2.39c8.07-1.64 5.05 11.04 3.84 16.02-6.79-1.86-7.89-11.33-3.84-16.02zm-940.87-12.84c5.91 5.58-10.75 15.57-8.74 25.51-11.23-3.05 2.68-20.85 8.74-25.51zm-140.1-4.3c3.65 9.33-11.61 20.5-15.08 30.3-1.18 2.13-6.75 14.15-8.23 6.79 6.02-13.21 15.14-25.07 23.31-37.09zm246.9-1.63c4.49 6.41-12.63 11.97-13.55 20.57-4.64-7.09 7.18-15.9 13.55-20.57zm-65.83-3.07c1.77 4.11-7.16 18.53-12.42 21.58-2.56-7.18 7.62-15.79 12.42-21.58zm131.05-2.78c2.57-1.47 1.03 2.12 0.29 3.16-11.81 8.17-25.41 13.33-38.54 18.93-6.97 3.59-7.4-3.03-2.07-4.57 13.75-5.11 26.78-11.97 40.32-17.52zm68.05-7.13c7.47-1.96-2.35 7.94-5.48 7.7-12.23 3.68-27.36 13.51-37.99 10.19 10.96-10.11 29.95-10.72 43.47-17.89zm172.9-11.19c6.41-1.57 6.61 8 6.05 12.36-6.21 2.69-11.14-9.32-6.05-12.36zm-583.88-8c1.25-0.4 2.97-0.87 1.77 1.01-10.05 18.2-25.49 32.77-36.97 50.03-3.34 1.75-1.87-4.04-0.66-5.56 11.93-15.16 23.89-30.42 35.86-45.48zm634.88-8.12c9.19-1.93 2.46 14.81 5.26 17.36 15.13-5.37 29.78-12.55 45.1-17.43 5.92 3.55-2.59 7.7-6.16 7.35-51.59 25.6-109.05 39.44-158.82 69.46-8.63-3.29-9.13 10.22-15.89 12.97 2.57-6.06 7.84-10.48 10.78-16.34-10.46-1.39-22.38 2.79-33.53 2.02-11.87 1.07-15.93 14.56-25.08 20.48-13.99 16.63-30.11 31.38-44.13 47.92-4.03-0.7 0.74-4.88 1.66-6.37 16.7-20.2 34.78-39.26 53.11-57.97 0.67-0.69-0.44-3.16-1.41-2.3-9.17 5.1-12.96 17.01-22.38 21.52 4.11-7.17 11.39-12.71 14.29-20.59-13.26-0.01-29.23 4.16-41.1 2.81 11.76-4.32 28.07-4.62 41.56-6.37 9.79-0.12 12.18-13.75 20.23-16.42 0.65 6.59-9.78 9.12-9.5 14.75 16.67-0.04 33.44-1.53 49.92-3.57 1.21-1.29 4.96-7.5 3.96-2.38 35.75-17.18 72.81-31.23 109.63-46.25-0.21-6.61-2.91-16.79 2.5-20.65zm-617.93-6.89c3.58 0.78-1.31 15.28-3.69 19.85-3.26-4.8-2.26-16.75 3.69-19.85zm1186.8-4.3c2.16 9.26-0.35 21.81 2.95 31.97 4.61 0.13 14.06-9.54 11.82 1.74-1.68 3.78-17.38 5.57-8.8 10.17 6.41 4.32-5.72 6.69-2.24 12.2-3.48 13.08 13.16-3.05 8.04 10.53-8.63 3.59-7.39 12.96-5.09 21.21 5.59-2.69 3.2 5.13 1.76 8.06-2.15 8.68 1.25 20.93-2.55 27.97-3.43-7.2-10.82 3.9-16.65 2.77-2.53-12.23 21.13-9.09 13.37-22.36 0.42-11.5-13.48 8.53-12.46-1.92-1.97-8.97 13.82-6 10.61-15.38-0.04-6.01 0.2-15.37-8.6-11.17-3.53-6.85 15.34-15.73 1.99-20.17 2.45-17.38 2.25-36.67 5.85-55.62zm-57.1 0.05c4.51 14.43-2.89 32.45 0.79 47.54-9.15 4.05 2.22 13.45 0.15 20.07-3.19 0.24-2.06-7.36-5.96-6.46-0.32 6.69-7.99 22.77 4.19 15.92 9.1 9.11-12.56 6.97-9.66 16.63-2.58 8.12 9.08-3.87 11.03 0.01 2.61 10.97-14.84 6.98-14.11 16.91-0.86 5.43-1.58 10.91-2.81 16.29-2.92-23.48 2.39-47.52 7.22-70.96 1.06-5.21-5.65 0.21-5.68-4.28-0.1-4.16 4.44-7.8 1.78-12.51 3.2-0.61 1.99 6.14 5.81 4.64 2.9-14.52 4.88-29.2 7.25-43.8zm-732.32-4.55c5.55-2.59 9.61 0.94 3.02 2.51-41.01 8.97-83.85 16.96-118.69 42.1-5.12 2.85-9.29 9.48-15.83 8.7-0.73-8.02 9.99-9.29 13.5-15.02 34.56-24.04 77.26-31.69 118-38.29zm258.77-4.95c2.61-1.62 11.54-0.83 8.88 4.01-58.53 6.4-110.74 35.38-164.24 58.8-0.48 6.02 7.27 13.7 1.54 18.54-6.9-0.18-4.81-10.62-8.96-13.78-6.96 0.8-12.28 8.97-19.49 8.55-0.75-7.82 10.79-9.39 15.65-13.7 52.98-26.55 107.08-55.02 166.62-62.42zm-126.25-0.29c3.26 4.84 23.93-3.53 13.6 2.61-17.17 2.24-3.5 23.29-8.13 34.06-7.01 1.03-3.99-13.19-11.18-10.37-21.38 8.8-43.93 14.14-65.47 22.54-18.65 18.4-50.35 22.69-70.59 36.65 14.84 0.29-18.86 7.36-7.74-0.04 17.6-10.54 37.29-18.05 55.89-26.94 0.5-1.37-1.81-1.32-2.64-1.58-18.72 9.97-41.66 11.79-58.23 25.77-7.58-0.43-4-8.88 1.58-9.58 48.25-18.4 96.31-37.83 146.79-50.06 6.86-0.21 2.5-9.22 1.85-13.21-53.3 13.25-107.14 23.55-159.27 41.66-5.85 3.41-13.36 4.82-17.24 10.91-2.59 3.92-8.92-1.15-5.69-4.7 7.45-7.74 18.29-10.4 28.02-14.14 42.65-12.92 86.15-22.46 129.26-33.71 9.27-3.57 22.78-3.34 29.19-9.87zm524.32-0.76c12.47-2.16-2.4 3.55-5.69 2.53-4.88-0.48 3.77-2.46 5.69-2.53zm-494.32-0.29c11.27-1.5 7.32 14.35 6.98 21.29-10.51 2.41-7.8-16.14-6.98-21.29zm-585.87-5.8c6.94-1.97 9.81 3.26 1.51 5.65-22.84 6.9-45.43 20.42-68.21 24.08 1.75-5.01 10.97-7.87 17.03-11.39 16.28-6.71 32.55-14.14 49.67-18.34zm45.02-13.08c2.53 3.21-5.28 16.32-12.31 17.83 3.68-6.22 7.04-12.79 12.31-17.83zm614.16-7.84c9.45-3.89 1.36 4.51-1.71 2.6-59.4 11.76-118.45 25.98-177.49 38.38-2.15-0.24-0.89-2.31-0.87-3.65-58.96 14.89-117 34.75-170.81 63.15-4.31 4.14-6.84-3.15-2.34-4.55 49.19-27.44 103.37-44.72 157.55-59.49 5.59-1.57 12.94-1.65 14.7-8.28 23-12.95 50-20.76 76.51-18.76 5.09 0.59 0.62 3.93-2.24 3.78-22.77-1.25-45.81 4.76-65.81 15.42 2.97 2.76 1.18 5.58-1.12 8.02 57.64-13.36 114.88-29.59 173.63-36.62zm-297.66-3.72c3.21 0.7 15.22-1.76 12.45 3.5-13.94 2.93-29.72 6.81-38.46 18.68 4.49 1.39 17.44-10.15 20.38-3.61-19.26 9.78-39.92 18.55-61.04 23.87-22.22 9.95-42.32 26.24-66.93 29.59-1.25-6.66-10.4 2.3-6.66-6.71 15.77-15.48 39.17-16.87 59.27-23.08 11.76-4.15 24.58-15.57 36.58-10.76 3.12-1.21 6.2-2.61 9.07-4.33 2.93-15.97 22.65-20.4 35.34-27.15m-99.48 50.63c-11.95 3.07-25.03 6.18-33.49 15.63 12.89-2.25 24.08-8.94 35.87-14.18 2.62-2.1-0.74-2.26-2.38-1.45zm743.84-56.13c1.49-0.26 3.48-0.78 2.49 1.51-24.84 4.5-50.12 6.06-74.99 10.23-1.61-0.05-4.32 0.69-3.92-1.83 25.26-4.59 50.96-6.61 76.42-9.91zm-948.7 0.11c2.29-0.21 12.95-1.59 10.75 2.98-45.34 13.99-89.17 33.55-135.16 44.88 1.37-5.6 4.3-1.12 6.84-5.91 38.65-15.07 77.94-29.61 117.57-41.95zm-25.28-6.07c14.6 0.39-11.23 6.88-14.63 7.42-7.87 1.8 8.75-0.53 3.19 4.14-8.44 4.16-19.29 2.54-27.27 8.16-5.96 1.5 1.33-7.79-3.84-5.42 8.84-12.26 28.68-9.86 42.55-14.3zm663.88-2.78c4.24-1.99 11.16 1.59 6.35 5.43-22.2-3.03-42.99 5.65-64.41 9.07 1.15-4.58 10.61-3.13 12.69-7.15-58.49 5.94-117.09 15.28-175.39 22.48-5.52 2.09-3.82 9.3 1.6 9.77-1.81 2.43-5.97 2.37-8.2 4.88-13.32-7.31-31-6.9-44.94-0.09-4.83-5.79 14.28-6.62 4.79-9.9 10.78-3.61 22.53-3.14 33.28-6 1.16-12.54 10.03-0.22 15.87-2.09 72.82-9.38 145.2-20.34 218.36-26.4m-236.66 31.88c-22.34 2.06 18.79 6.93 0 0zm550.85-38.07c2.77-1.72 1.56 3.13-0.55 2.65-27.88 4.59-56.03 9.58-83.09 18.72-1.39 0.81-3.58-3.76 0.11-2.73 26.7-10.68 55.56-13.49 83.53-18.64zm9.11-0.87c22.88-1.1-21.2 5.04 0 0zm-1015.2-0.8c3.55-0.89 0.64 4.24-1.53 4.51-13.89 5.02-27.2 11.96-41.8 14.85-0.4-1.24-0.64-2.51-0.68-3.78 15.74-1.59 28.78-12.05 44.01-15.58zm1036.1-2.01c5.03 0.94-11.37 4.73-12.43 2.64 3.28-2.14 8.37-1.59 12.43-2.64zm-398.73-5.95c0.63 1.12 7.6-2.58 6.06 1.29-118.37 17.73-236.54 44.87-346.74 91.21 4.83 3.42-2.43 6.4-5.16 7.92-10.32 7.16-23.43 9.15-33.23 17.08-3.75 0.45-1.74-6-5.87-2.28 8.55-14.46 26.17-21.03 40.99-27.94 56.29-25.17 116.31-38.97 175.03-57.05-14.83-0.29-35.68 8.89-50.73 7.55 52.74-12.95 106.96-24.25 160.38-30.66 4.18 3.05 10.47-6.68 15.49-0.7 1.28-5.85 6.25 0.52 9.8-1.05 11.18-2.68 22.91-2.19 33.98-5.37zm26.41-5.06c16.6 2.7-13.74 4.75-16.97 4.89 2.71-6.42 11.59-3.16 16.97-4.89zm-498.66-1.06c2.75-1.23 4.48 0 2.05 2.41-19.65 4.1-39.18 7.81-58.94 11.46-10.92 6.13-15.08 22.62-27.31 26.72 3.24-9.38 13.84-14.57 17.7-23.86-22.81 3.66-44.77 11.14-67.1 16.8-2.04 1.07-2.47-2.39-0.99-2.83 43.43-15.77 89.32-22.5 134.59-30.7zm-163.24-8.8c2.19-1.08 3.48 1.33 2.15 3.04-16.69 7.21-34.61 10.01-51.35 16.63 11.9-12.94 32.82-14.21 49.2-19.67zm-3.9-7.12c14.6 3.45-18.61 12.45-22.18 8.06 4.28-7.04 15.19-5.07 22.18-8.06zm659.76-2.59c7.03 0.48 15.66-1.29 21.52 1.07-21.49 2.76-43.51 0.33-64.91 3.08 11.93-4.83 29.49-2.84 43.39-4.15zm-489.92-7.32c6.08 2.38-12.94 5.18-14.12 2.82 4.69-1.02 9.53-1.3 14.12-2.82zm-52.6 0.06c9.32-2.64 3.45 2.34-0.55 1.95-44.75 13.43-91.7 19.81-135.61 36.04-7.99 4.5-18.73 9.08-27.43 7.56 50.89-23.7 108.06-34.06 163.59-45.55zm-130.54 9.71c19.04-6.71 45.54-11.67 66.22-10.07-20.64 3.62-46.5 8.41-66.22 10.07zm224-15.59c15.37-1.22-10.54 3.91-12.09 2.43 3.13-2.07 8.16-1.62 12.09-2.43zm-155.27 2.95c30.28-4.36 60.87-5.53 91.27-8.26 1.44-0.06 5.67-0.68 4.44 1.66-32.56 3.26-65.37 8.05-98.22 9.17-0.75-1.41 1.67-1.95 2.51-2.57zm-57.69-14.21c1.89 2.94 13.34 1.83 6.4 6.45-19.5 3.19-39.27 6.95-57.49 15.05-3.4-4.08 5.27-4.9 6.04-8.71 11.15-12.74 30.13-8.62 45.05-12.79zm601.44-1.75c12.84-1.77-1.81 2.05-5.26 1.77-37.3 7-75.85 8.46-111.97 18.37-0.51-7.44-4.32 6.29-3.91-0.8-40.87 4.6-81.53 12.13-121.91 19.53-15.99 6.6-35.87 5.56-49.54 17.01 11.79 1.39 24.66-3.09 36.88-3.25-10.37 10.38-36.99 6.32-52.68 13.79-6.08-2.98 2.22-6.51 5.53-7.22 4.21-9.78 16.71-11.08 25.15-15.86 44.25-9.08 88.65-19.32 133.65-24.23 1.65-0.56 6.15-0.41 5.36-2.77-24.03 0.56-47.79-1.12-71.71-2.95-0.94-4.31 7.42-1.11 9.11-2.87 25.58 2.54 53.25 0.81 77.42 5.5 41.07-6.2 82.5-11.43 123.88-16.02zm-21.81-16.76c4.83-1.02 11.19-2.55 14.91-0.86-3.28 2.69-10.31 1.9-14.91 0.86zm-110.33-1.4c9.83 0.52-11.39 5.25-14.31 3.96 3.87-3.13 9.63-2.77 14.31-3.96zm-293.46-1.08c6.12 3.28 15.38-0.48 20.97 1.51-58.8 7.5-118.57 8.31-177.86 12.06-4.95-1.64-17.04 3.35-16.4-2.38 57.63-6.19 115.68-5.14 173.29-11.19zm324.26-4.78c1.94 4.7-21.12 5.63-25.97 5.59 7.39-2.22 17.28-4.67 25.97-5.59zm26.07-4.16c8.4 2.42-15.73 5.74-17.14 3.75 4.56-1.77 11.57-1.79 17.14-3.75zm54-6.13c1.16 4.9-12.38 1.5-17.12 3.68 2.09-4.95 12.41-0.69 17.12-3.68zm427.1-0.84c4.27-2.26 2.68 4.81-2.2 1.6-10 2.31-20.39 2.04-30.32 4.93-2.88 1.3-1.97-4.01 0.46-2.59 10.73-0.97 21.28-2.8 32.06-3.94zm-460.02-13.18c1.73-0.88 0.23 2.91-0.86 2.46-22.41 5.09-45 9.68-67.34 15.33 0.01 4.28 6.4-0.65 7.84 2.43-8.57-0.21-17.76 3.83-26 1.5 27.42-11.03 56.97-17.67 86.36-21.72zm26.2-4.67c0.72 1.33 7.7-2.78 6.34 1.24-9.58 1.06-19.34 5.19-28.93 3.19 6.26-2.72 15.36-2.99 22.59-4.43zm-168.52 11.75c21.94-5.49 44.38-11.24 67.02-12.38-21.29 4.28-46.12 10.37-67.02 12.38zm199.1-15.66c15.77-1.32-12.23 6.16-15.13 2.48 5.04-0.83 10.35-0.41 15.13-2.48zm-132.08 3.28c8.91-2.26 23.37-5.3 32.8-4.04-10.97 1.47-21.55 5.68-32.8 4.04zm23.33-30.25c3.15 1.04 11.39-2.66 12.07 1.35-20.75 1.53-41.51 5.05-62.19 6.81 13.34-6.58 34.09-5.01 50.12-8.16zm310.63-67.82c2.35-0.16 2.85 2.15 3.57 3.87 10.71-4.48 10.29 9.54 13.37 15.98-9.64 1.43-1.64 22.11-9.45 10.8-2.2 4-12.86 5.92-8.48 13.28-4.24-3.67-1.58-8.9-1.53-13.35-8.24-3.59-0.35 13.04-10.44 8.57-0.17-4.49 3.45-8.27 2.77-12.79-6.65-1.59-2.95 9.31-7.68 10.91-5.66-5.14-2.33-13.43 1.93-18.3 0.48-5.91 1.72-14.62 7.12-16.62 5.82-0.78 2.39 30.11 12.24 21.38-0.89-7.65-1.85-15.96-3.42-23.73zm922.36-41.63c2.81-0.68 1.03 3.13 0.33 4.41-8.78 13.61-16.86 27.63-24.09 42.12-3.09 1-0.24-3.58-0.09-5.14 6.92-14.3 14.07-28.82 23.85-41.39zm-966.55-69.1c5.7 6.86 9.81 16.9 12.02 25.5-4.46-0.6-5.09-8.23-7.68-11.71-1.37-4.63-3.41-9.05-4.34-13.79zm19.04-21.82c5.72 5.05 11.16 17.45 9.03 24.63-6.23-3.61-6.72-16.65-9.03-24.63zm497.53-44.03c4.97-1.57 0.72 4.95 0.29 7.41-6.92 16.83-4.99 37.41-10.85 53.2-2.06-19.07 2.56-42.45 10.56-60.61zm-82.61 20.49c3.37-8.01-0.53-22.11 9.26-25.9-6.25 19.42-8.13 40.82-5.08 61.1 4.24-13.07 0.67-30.04 5.05-44.07 8.85-0.52-2.14 11.02 2.63 15.11 2.03-5.69 1.42-12.1 4.19-17.52-0.92 12.66-1.13 25.42-3.49 37.94-20.41 150.64-32.13 302.38-35.77 454.34 10.1-6.3 13.19 4.44 0.12 6.19-3.9 9.76 0.19 15.65 8.61 5.26 0.02 17.66-7.93 32.95-3.73 49.87-1.84-6.52-5.4-7.59-5.34 1.35-2.33 5.68 5.61-1.84 5.29 2.28 3.42 8.06-8.71 8.27-7.57 15.43-2.9 6.44 3.22 4.06 6.11 4.25 1.17 8.1-11.04 10.78-6.43 20.51-0.15 5.76-0.51 22.98 3.87 9.83-3.06 26.1-6.58 52.66-5.23 79.72 9.35-0.58 2.65 13.86 3.3 18.36-5.74-4.64-1.41 5.25-1.04 8.67 0.04 25.08-2.75 50.16-3.24 75.26 4.74 11.47 4.81 23.95 6.45 36.06 6.96 3.62 5.97 19.27-4.02 15.75-6.12-2.36-2.75-11.2-5.72-15.38-0.6 11.99-0.87 24.12-4.01 35.83-3.84 0.92-9.62 1.6-8.61 6.93-1.27 12.29 18.79 20.46 11.69 32.28-11.92 0.25-12.66-22.37-25.1-25.15 0.76 5.17 5.77 9.11 4.6 14.72-11.84 1.08-14.6-14.11-18.9-22.43-6.41-18.83-20.22-40-12.93-59.15-3.02-8.49-2.43-17.68-3.47-26.37-11.26 29.74-5.6 61.45-1.6 92.03 12.83-8.06 6.79 26.4-3.98 17.52-4.8-9.64-4.98-20.83-6.35-31.31-15.06-0.29 4.77 31.86-14.11 24.84 3.86-13.77-2.35-28.2 1.16-42.11 0.02-5.93 11.05 1.71 7.31-6.75-0.96-14.23 6.06-28.14 1.53-42.23-4.33-14.84-3.05-34.32-7-46.56-7.84 38.91-21.46 76.74-24.53 116.56 11.32-5.47-1.07 7.09-0.44 12.9-11.05 3.59-14.51 21.5-24.15 26.99 3.84-12.85 16.63-21.99 20.87-34.97 3.49-9.42-7.93 0.58-9.62-4.07-2.58-3.52 0.29-7.4 1.46-10.83 12.53-42.79 24.55-85.73 36.21-128.77 2.69-10.15 2.41-20.92 1.57-31.26-9.16 10.37-9.6 24.79-14.78 37.07-9.99 36.73-25.07 71.97-34.37 108.64-7.55 12.89-11.2 27.9-20.17 39.96-1.38 3.06-6.77 1.13-4.86-1.98 10.75-26.43 20.55-53.26 29.97-80.2-2.24 0.7-7.92 3.94-3.93-2.59 4.78-11.52 4.34-30.15 16.8-34.61 3.35-14.63 13.2-29.65 12.56-44.4 19.95-32.78 20.41-71.39 25.92-108.05 2.65 12.52-2.29 26.99-1.7 40.14 8.61-16.25 15.06-37.98 2.9-55.82-9.74 11.62-17.8 25.24-26.17 38.09-6.73-19.54 31.14-33.17 21.05-51.97-17.43 5.61-24.38 24.22-36.04 36.74-9.93 11.29-15.61 28.63-30.69 33.86 3.26-11.98 14.48-20.36 20.6-30.96 16.37-14.2 25.17-34.79 41-49.43-0.76-12.54-13.16 6.8-21.11 4.6-12.2 16.85-22.95 34.8-34.75 51.94-5.84-2.62-1.17-17.23 5.5-17.9 7.13-8.13 13.28-17.52 18.67-26.83-7.25-5.67 1.58-13-7.54-15.62-10.62 17.66-19.41 41.25-26.79 61.57-3.13-12.36 5.25-24.8 8.42-36.86-13.81 11.51-18.9 29.64-27.41 44.91-3.88-3.89 1.07-12.55 2.52-18.04-6.87 5.04-11.04 13.49-15.28 20.74-14.37 17.18-24.56 37.21-40.06 53.1-4.19-3.35 4.96-10.39 5.34-15.68-3.71 1.75-10.08 12.26-11.13 4.07 8.61-11.01 18.53-23.4 30.95-29.26 13.45-20.8 28.81-40.3 43.14-60.48 5.11 1.68 6.25-4.69 5.98-8.42-1.04-8.66 7.25-13.94 8.85-21.72-3.04 0.51-8.94 0.57-7.87-4.04 15.33-9.2 29.03-21.36 44.78-29.64-2.07-7.65-6-18.69-12.69-21.54-29.07 12.96-60.56 23.38-86.37 41.7-7.66-0.95-1.84-10.24 3.05-11.07 26.89-12.72 53.92-25.29 81.44-36.57 1.94-5.7-6.21-10.21-10.36-11.89-35.88 12.28-75.03 21.35-105.32 44.86 2.11 10.2-10.19 3.73-8.14-3.4-3.64 0.19-14.16 19.47-15.05 5.81 27.02-34.44 68.49-53.35 109.57-65.59 4.15-6.34-4.17-15.48-7.1-21.84-7.68 1.88-15.45 3.38-23.23 4.72 4.06-7.96 28.68-1.17 19.93-13.81-21.59 2.58-43.06 6.09-64.18 10.64-2.48 0.96-6.09 2.38-7.73-0.61 22.39-7.2 45.69-10.53 68.94-13.47 3.82-2.54-2.14-7.07-5.54-5.8 6.65-4.15 11.14-2.62 11.61 4.47 16.57-0.54 34.16-3.43 51.13-4.34-7.9 7.47-32.91-1.01-34.23 11.25 12.73-0.18 26.91-4.66 40.24-6.29-9.71 6.53-26.84 4.76-38.83 10.19 1.98 6.97 4.85 15.16 8.89 20.43 12.28 2.46 10.21-10.54 12.46-18.28 9.96-2.63 4.71 10.93 5.03 15.61 3.21 3.91 19.89-3.42 15.78 6.31 9.59-1.75 19.4-2.85 28.77-5.57-0.38-10.43-1.56-20.9-3.36-31.15-8.7-0.57-2.1-1.7 0.31-3.81-0.13-10.42-4.18-19.8-9.2-28.56 8.74 14.26 8.8-14.13-1.74-6.82 2.13 5.96-0.96 5.16-3.92 1.02-22.64-0.78-45.46 5.79-68.07 5.83 0.08-5.54 8.34 0.69 5.94-2.97-5.26-2.64 7.01-2.83 2.34 1.19 6.15-2.04 18.92-7.04 27.68-3.65 6.63-4.38 20.24-2.16 29.12-4.67-3.34-9.16-10.96-16.42-15.67-24.99-9.57-1.52-19.83 3.49-28.98 0.71 7.74-3.82 17.37-2.54 25.22-4.97-0.81-5.58-7.67-10.54-8.73-16.85 4.66 5.33 9.08 10.94 12.84 16.87 7.33 0.25 14.66-0.93 21.89-2.04-5.11-14.7-3.44-31.16-6.17-46.52-13.56-0.01-27.11 2.91-40.3 4.99 1 9.85 11.87 16.39 11.74 26.7-11.26-5.55-11.97-26.86-24.72-24.89 4.66 15.97 21.33 26.07 28.6 39.85-8.56 3.52-11.69-14.85-22.02-10.69-10.12-5.87-12.11-20.11-19.1-28.2-22.99 2.75-46.17 5.41-68.94 9.94 0.47-1.92 1.28-3.83 3.54-3.91 21.52-4.19 43.47-6.35 65.03-9.88 3.43-4.77-3.37-15.51 1.28-19.18 3.71 5.67 4.68 12.71 8.97 18.09 15.73-0.06-6.17-19.28 2.04-25.99 4.17 7.48 5.51 16.97 10.91 23.55 12.23 1.95 24.94-2.7 37.47-2.59 12.37 2.27 1.37-16.3 9.03-19.15 1.91 4.07 0.21 10.77 3.36 6.81-2.51 16.46 12.29 8.56 21.58 10.83-5.79 1.39-11.85 1.28-17.6 2.9 0.06 15.53 2.52 31.48 5.9 46.58 5.02-1.44 15.56 1.51 14.24-7.33-3.71-14.01 6.93-28.86 2.34-42.66-10.38 1.82 6.9-1.86 2.75-8.53 2.11-23.33 7.46-46.12 10.26-69.33-7.05-14.57-0.76-31.99 0.91-47.43 1.76-5.18 0.17-13.44 6.08-16.18-3.81 16.76-5.96 34.35-4.9 51.54 8.33-20.62 6.99-44.64 14.13-65.52 2.13-35.92-11.53-70.74-8.65-106.73 0.02-1.2 3.1-3.2 2.95-1.11 0.64 15.83 3.14 31.49 4.7 47.24 4.13-12.1-1.02-32.97 3.81-43.81 1.38 52.75-0.94 105.97 0.77 158.83 1.96-4.03 3.48-8.25 5.62-12.18 2.39 14.95-9.21 32.73-3.34 47.17 2.34-13.37 7.37-25.96 12.8-38.3 1.49-4.59-1.09-16.98 4.5-10.05-2.88-22.73-0.81-45.16-4.32-68.02-3.65 10.94 0.42 22.81 0.12 34.13-5.02 2.46-5.59-6.25-5.16-9.04 0.49-17.4 4.52-36.05 4.02-52.42 10.29 36.77 6.83 79.27 15.92 117.71-4.63 10.78-5.27-25.85-9.51-11.93 3.24 14.53 4.76 29.37 7.8 43.95 7.17-63.09 13.35-128.24 23.64-191.69-13.22-7.65-7.02-28.86-5.94-42.59m-50.73 152.69c0.07 19.09-6.53 37.32-8.22 56.25-1.2 3.31-0.13 12.58-6.04 9.65-2.27 24.47-7.78 48.76-8.61 73.33 3.81-0.94 6.42 4.49-0.74 2.64-1.32 6.59-1.14 14.28-0.85 20.6 24-18.3 18.86-49.78 26.95-75.62-2.2-28.37 1.48-60.19-2.49-86.85m22.05 45.68c-6.11 13.82-10.06 28.6-11.19 43.7-6.33 1.04-2.29-9.52-4.78-11.86-2.66 31.71 2.71 62.83-1.14 93.02-2.57-9.4-0.41-23.05-2.53-33.83-3.42 1.74-5.02 5.75-6.32 9.16-3.88 24.69-8.12 49.44-10.91 74.22 4.7-0.85 7.4 1.04-0.55 2-1.32 11.57-8.32 33.06-2.68 38.47-8.28 5.73-7.42 21.69 0.57 28.61 1.23 8.58-3.95-5.77-6.31-5.17-1.72 7.96-3.16 17.51-2.4 24.24-0.75-8.13 11.16-4.43 9.22 2.4-3.04 10.84 3.86 25.72-6.7 33.4-11.67-2.09-3.84 15.68-5.51 22.54-2.75 12.33 10.42-3.41 10.87 4.29 1.45 9.78-16.91 7.21-10.31 18.42 12.1-4.09 14.56-15.78 13.09-27.04 7.76 40.69-16 82.46-5.39 123.22 2.83-6.67 1.74-16.92 4.04-24.85 1.89 8.38-0.09 17.67 1.57 27.79 5.26 6.36 3.72-5.06 6.37-6.8-0.95 13.88-3.63 27.67-3.08 41.63-1.83 1.76-1.18-3.47-3.21-2.7-13.27 43.33-24.64 95.13-11.82 139.91 5.92-15.76 11.37-34.64 17.36-51.52 5.72-10.19-1.7-22.33-2.81-29.46 8.85-2.04-5.49-11.09 2.28-9.13 3.76-18.09 1.47-35.99 5.2-53.54 2.79 1.26 0.84 8.64 3.83 9.59 13.66-32.85 24.38-69.11 18.1-105.87-1.16 1.47-1.97 4.73-2.43 0.71 5.87-51.94 6.36-104.03 5.47-156.66-0.93-11.93-0.07-0.15-1.87 0.99-6.95-23.02 7.18-47.12 2.72-70.97 0.01-11.73 3.58-0.02 2.95 3.24 2.35-17.17 4.95-36.05 3.42-52.28-3.46 23.65-7.76 47.22-11.15 70.9 3.63 0.8 2.8 2.52-0.49 2.8-2.57 11.64-4.79 23.4-6.26 35.23 3.04-0.71 3.13 2.52 0.18 2.51-7.81 15.81-2.22 35.45-9.87 50.57-2.84-28.25 5.72-57.66 3.81-86.34-4.04 0.56-4.13-4.3-0.28-1.56 3.18-14.41-1.94-31.7 2.8-45.19 1.15 18.1-0.53 37.88 1.92 55 6.63-44.48 16.83-89.81 23.08-134.81-2.57-16.17-4.03-34.15-8.86-48.98m-20.04 60.78c-0.07 9.6-5.35 18.85-3.6 28.18 8.33-6.43 4.78-19.86 3.6-28.18m-12.62 46.45c-6.92 9.9-19.14 17.96-16.52 31.52-5.1 9.85 8.14 1.03 7.03 7.03-17.54-0.04-3.17 25.97-9.95 34.49 2.86 10.38-6.06 27.78 1.73 34.54 2.47-11.74 8.27-29.64 4.11-39.13 8.44-5.53 4.46-20.6 8.02-29.64-7.24-2.04 5.55-4.1 1.72-9.6 0.51-9.75 5.05-19.93 3.86-29.21m-44.49 13.87c-0.43 5.52 0.54 10.99 2.23 16.29 1.77-5-1.4-12.4-2.23-16.29m16.57 27.13c-12.92-0.16-7.33 13.69-8.03 21.36 4.92 13.5-0.96 31.57 10.68 42.26 0.26-10.84 2.84-22.29 0.34-32.82-8.8 1-6.95-3.4 0.93-2.63-0.82-8.28 8.9-29.25-3.92-28.17m-20.99 2.23c-5.04 1.04-18.55-2.25-13.23 6.14 7.31 7.15 10.55 24.44 23.21 21.05-2.47-7.75 6.41-33.34-9.98-27.19m21.87 67.54c-7.98 5.31 0.88 22.38 0.6 29.84 2.26-6.85 2.01-23.71-0.6-29.84m-87.77 7.07c-5.69 1.38 0.05 10.13 4.67 6.71 3.32-2.57 0.19-9.91-4.67-6.71m2.79 10.04c-2.84 1.83 2.3 6.9 4.12 9.17-0.42-3.26 1.22-11.07-4.12-9.17m11.52 12.65c-5.77 9.34 7.53 7.71 0 0m28.29 9.6c-4.8-0.97-5.55 5.86-9.97 5.25-1.45-1.96-4.97-5.34-6.56-2.3 2.73 10.61-7.09-2.4-7.66 3.16 7.54 9.21 19.58-2.43 29.09-3.41 8.75-3.62-0.91-2.31-4.9-2.7m41.1 0.95c-18.28 2.11-39.33 8.23-54.15 16.25 7.76 2.15 3.59 15.34 11.81 9.4 14.59-6.83 31.05-9.65 44.76-17.43-0.29-2.4 1.52-9.7-2.42-8.22m-74.94 4.93c-33.04 11.12-68.58 21.76-93.17 47.78 30.89-17.36 65.49-26.68 98.39-39.55 4.05-2.72-2.76-8.27-5.22-8.23m91.03 4.61c-6.23 5.3-5.86 16.98-3.55 23 4.69-4.75 9.14-19.32 3.55-23m-16.1 6.37c-10.29 3.39-20.45 7.25-30.34 11.64 4.2 5.59 2.33 13.79-0.02 18.97-11.14 2.11 1.34-20.77-8.56-15.44-12.28 3.61 2.73 17.07 4.67 24.36 12.4-5.63 25.25-10.92 36.75-18.3-0.8-5.47 5.99-21.6-2.5-21.23m0.08 31.1c-10.39 4.12-20.9 8.84-30.23 14.94 0.24 3.9 5.34 6.11 6.13 10.47 13.21-2.07 30.37-10.15 24.1-25.41m-34.95 17.04c-12.18 3.33-16.44 15.91-20.47 26.33 9.47-3.74 17.65-10.62 26.89-15.06-1.1-3.8-2.74-11.37-6.42-11.27m30.01 8.88c-4.95 3.38-19.79 3.91-15.08 12.44 5.48 0.15 22.12-9.25 15.08-12.44m-51.98 5.04c-7.51 3.36-6.74 14.03-13.32 18.79-3.03 5.52-14.67 17.86-3.66 17.28 4.17-9.19 17.92-27.64 16.98-36.07m31.71 4.06c-7.25 4.25-15.57 7.32-21.89 12.82 3.99 6.81 30.71-3.71 21.89-12.82m19.3 4.84c-6.72 2.01-1.17 8.44-6.4 12.84 3.39 1.94 14.96-10.68 6.4-12.84m23.95 3.87c-11.48 5.02-1.58 20.54-3.44 29.75 2.53-7.88 6.64-22.69 3.44-29.75m-13.1 8c-5.37 1.39-3.52 8.61-6.33 11.87 0.93-7.56-6.99-6.88-9.89-2 4.06 10.27 8 20.6 12.08 30.86 7.06-10.03 9.38-30.69 4.14-40.73m2.95 38.85c-3.85 5.65-4.44 13.73-0.18 19.52 3.36-5.83 1.99-14.64 0.18-19.52m-6.07 20.29c-4.74 12.86-9.05 26.07-12.38 39.36 5.23-5.29 7.2-15.24 11.96-21.74 7.89-0.34 4.54-14.64 0.42-17.62m0.13 27.08c-3.4 3.41-5.28 8.19-7.55 12.43 1.06 11.55-13.44 19.95-6.1 32.09 2.87-15.13 10.85-33.03 13.65-44.52m9.79 0.67c-4.82 15.84-3.61 39.67-19.12 48.12-9.48 27.17-3.24 58.01 0.93 84.99 8.05-41.05 23.92-81.14 24.87-123.38-3.62-2.3-2.96-8.86-6.68-9.73m46.13 6.72c-3.3 4.05-2.18 10.29-0.45 14.43 2.47-4.11 1.64-10.6 0.45-14.43m-8.91 25.71c-1.16 8.06-7.16 15.72-6.68 23.78 8.61 9.58-9.75 13.5-6.27 23.17 10.38 38 9.35 77.61 12.81 116.48 3.55-35.02 9.24-74.08 10.84-110.97 3.8-18.27-9.38-36.83-10.7-52.46m-14.07 92.74c-6.1 18.61-12.15 37.26-18.29 55.86 2.98 9.43 7.43 18.44 11.28 27.56 3.37 1.34 12.36 9.55 12.46 1.31-3.96-27.83 1.16-59.24-5.45-84.73zm493.16-899.14c2.73 0.54 5.77 1.01 8.34 1.94-8.6 23.42-14.22 49.02-28.2 69.85-8.12-3.75 8.46-14.25 0.57-20.1 2.92-18.01 10.15-35.9 19.29-51.69m1 7.29c-7.03 11.93-10.56 26.19-14.55 39.29 5.82-10.6 12.58-28.38 14.55-39.29zm-102.12-45.23c-1.96 19.99-13.98 42.16-16.75 63.4 1.42 3.53-6.34 15.81-4.69 4.42 5.49-22.84 7.62-48.36 21.44-67.82zm159.6-59.13c6.16-9.28 2.73-26.97 11.05-33.96-4.94 48.01-20.83 94.27-25.93 142.15-5.22 24.49-10.9 48.95-13.02 73.96 9.06-12.37 14.9-27.24 24.56-39.42-3.92 20.03-20.41 36.34-27.23 55.7-5.41 39.79-9.1 79.8-14.36 119.62 4.8-2.41 10.23-5.8 12.66-10.6 12.68-82.63 30.87-164.29 51.49-245.28 2.34-22.14 9.3-45.48 17.77-64.96 0.94 13.94-7.38 27.49-8.23 41.77 11.29-10.31 5.55-31.89 13.59-41.9 1.31 29.11-13.95 59.61-25.05 87.2-15.26 72.94-32.19 145.65-42.6 219.49 6.2-0.21 5.37-7.9 6.9-12.3 6.39-33.69 15.36-67.92 23.52-100.2-3.86 35.62-13.97 70.12-19.35 105.37 2.77 0.51 2.98-3.21 4.09-4.98 11.58-30.55 26.35-59.75 39.15-89.79 0.44-22.89 16.47-43.64 26.59-64.33 1.41-2.12 4.77-11.19 7.11-5.5-4.4 13.29-13 24.79-17.74 37.95 8.49-8.96 11.81-22.07 19.27-32.06 3.35 1.43 0.88 6.5 0.05 9.2-8.81 18.63-19.43 36.35-30.25 53.86-15.98 32.9-30.76 69.26-42.84 101.98 5.24-1.18 7.51-7.54 12.94-8.84-3.08 12.3-18.27 15.38-21.17 27.72-7.8 21.65-11.85 45.64-13.25 68.29 20.55-40.41 43.9-79.48 69.98-116.6 2.62-3.22 0.5-7.43-3.31-8.14 4.59-15.64 13.11-29.66 22.39-42.91 3.79-6.69 2.32-20.44 10.2-23.38-1.19 9.46-4.15 18.62-6.74 27.78-6.97 10.17-20.24 23.68-17.68 37.87 10.81-12.32 15.76-30.5 28.49-40.35v0.94c-13.44 32.19-37.06 58.63-53.41 89.22-21.38 35.04-38.89 72.26-57.3 108.79-5.6 22.48-8.6 47.44-7.53 69.57 31.92-57.14 66.51-114.25 107.41-164.56-6.45 25.76-25.24 46.72-42.94 65.85-22.71 38.82-46.14 77.45-65.02 118.26-0.18 21.19-1.27 43.1 4.75 63.74 21.51-49.8 42.56-101.36 69.12-148.17 1.14 8.39-5.64 19.19-9.22 27.79-19.14 43.8-38.63 87.48-56.02 132.03-1.7 3.81-2.56 8.56-0.04 12.24 20.14-37.09 42.99-72.77 66.13-108.14 1.37-2.13 6.78-6.29 3.96-1.25-18.52 34.12-40.5 66.09-58.87 100.26-10.52 13.27-13.33 30.6-10.53 46.98 9.62-20.39 21.03-40.09 31.68-59.95 3.79 1.63 0.31 6.56-1.26 8.89-11.23 25.6-24.18 50.57-34.6 76.56-2.06 12.06-2.55 24.76-8.08 35.88-2.3 2.18-4.7-1.11-6.41-2.49-5.14 9.21-1.85 19.52 4.05 27.23-1.85 9.06-10.09-1.05-13.08-0.31-13.94 32.61-24.23 66.87-34.13 100.95-2.38 17.71-2.9 35.72-5.87 53.36-3.48-47.81 6.02-96.41 7.68-144.25-11.49 15.69-5.81 36.45-9.3 54.38-2.16 45.29-18.17 90.99-19.1 134.74-10.15-13.45-1.94-36.34-3.67-50.71-7.45 20.57-19.81 40.16-16.74 63.09-3.98 5.81-2.73-7.89-5.49-8.18-14.47 44.23-29.93 88.86-34.31 135.47-4.41 1.53-2.47-8.32-2.69-10.39 4.82-48.53 20.28-95.38 37.41-140.78 4.79-54.34 13.27-108.42 26.66-161.33 6.57-12.51-6.66-18.81-8.68-30.16-2.92 7.51 0.79 14.64 5.47 20.3-0.77 5.57-6.96 4.44-10.17 1.68-4 19.41-5.93 39.21-9.1 58.78-13.76 49.26-20.87 101.12-33.06 150.2-8.93-13.56 5.27-37.29-5.55-53.2-12.72 55.57-26.03 112.26-30.16 168.99-1.72 1.38-4 1.53-6.06 1.08-1.11-36.03 11.5-70.6 15.6-106-15.23-22.55-3.57-53.87-5.38-77.53-5.99 32.63-15.15 64.71-23.22 96.78-7.89-0.78-3.82-11.68-4.07-16.82-4.51-5.92-0.44 11.19-5.07 7.1-6.6-45.02 7.97-89.32 12.79-133.65-8.72-1.15-1.45-9.23-1.85-14.44-4.33-0.02-8.98-2.45-10.98-4.86-2.11 38.93-7.93 77.49-13 116.1-3.64 2.41-3.9-6.53-4.43-8.1-0.32-29.8 7.45-58.96 9.35-88.55-19.11-27.23-5.3-66.61-12.4-95.53-3.48 1.44 0.89 11.49-7 7.74-11.52-25.72-0.13-53.03 0.43-79.86 0.04-1.61-1.05-5.58-2.74-4.74-5.06 46.82-15.74 94.82-9.94 141.37 0.78-15.96 0.52-39.11 3.99-55.76 0.34 17.96-0.26 37.91 2.16 54.7 2.26-14.84 2.22-34.41 3.62-51.08 3.52 3.27 2.67 9.83 3.11 14.43-0.77 33.8-0.48 67.54-0.58 101.33 0.7-3.63 6.77-11.79 5.38-3.86-9.55 35.02-2.77 71-4.11 106.69 0.31 3.5-4.11 9.84-6.51 4.51-3.75-11.69 0.58-28.78-3.37-38.34-6.34 34.22-13.83 68.67-14.21 103.7-1.59 7.4-9.03-1.56-8.66-5.46-3.42-60.5 31.4-118.06 22.55-178.1-6.35-2.8 3.62 24.36-8.42 24.16-0.48-8.06 1.15-16.54-2.16-24.14-10.69 53.96-19.72 108.15-18.29 163.56-2.7 8.22-6.19-4.45-5.09-7.55-4.54-16.95 6.37-41.95-12.4-48.37-1.71 27.56-7.17 54.69-9.51 82.18 2.35 5.95-5.85 7.64-6.28 2.28 4.5-44.24 11.62-88.36 13.45-132.8-4.11-1.53-12.83-15.11-12.05-3.72 2.41 50.02-8.07 99.49-20.91 147.54-3.2 10.16-3.3 22.05-10.94 30.23-3.47 0.09-5.27-4.45-4.19-7.36 10.85-39.47 21.71-79.23 26.07-120.03 0.94-9.25-1.32-18.49-5.64-26.63-8.28-29.3-9.2-60.01-12.64-90.27-3.82-17.39-0.79-38 5.52-53.55 4.2 28-5.3 56.56 0.26 84.73 1.33-11.76-1.36-26.66 1.61-38.97 2.69 30.48 8.65 63.33 13 91.85 6.11-37.78-4.23-78.71-9.08-116.31 4.63-29.48 8.33-58.79 12-88.22 1.13-1.98-4.03-5.82-0.49-4.88 3.54-0.42 0.6-19.11 0.17-10.65-4.86 5.83-1.55 14.33-5.21 20.67-2.77-16.31-0.21-33.75-1.31-50.39 0.83-12.87-1.12 3.04 5.08 0.15-8.54-41.04 5.29-81.98 6.92-123.17 13.3-51.61 17.29-104.95 23.28-157.8-13.46 43.24-19.67 90.75-28.03 136.06 0.56 32.64-4.59 66.87-7.93 100.06-3.04-10.12-4.15-5.29-4.06 3.78-3.17 14.4 2.57-8.42-3.75-0.99 7.2-12.59 3.05-27.31 1.82-40.02 0.17 4.41-1.41 14.76-3.48 5.73-3.46 13.45-2.61 27.9-1.08 41.65 2.42-1.51-1.03-11.72 2.55-11.18-0.9 14.12-2.77 28.18-3.25 42.33-8.55 1.96-4.58-12.56-8.65-15.51-7.14 17.58 0.14 36.77-3.98 54.86 1.11 4.99 3.44 9.7 5.8 14.24 11.2-25.52 5.58-56.55 12.91-82.1-3.05 20.96 1.39 42.23-3.83 62.76 3.81 4.3-0.5-7.3 4.06-6.66 0.92 18.05-4.05 35.68-5.04 53.58 9.28 4.15 0.42-13.58 7.64-15.53 1.37 19.14 1.28 30.28-3.54 46.95-5.35-8.65-1.95-18.68-0.34-27.85-4.91-5.7-5.43 2.79-5.89 6.84-4.18-3.37-2.68-12.76-7.82-13.94-3.47 11.01 7.97 22.39 5 33.99-2.27 7.71-1.6 18.69-5.28 24.69 2.35-12.62-1.33-25.41-5.82-37.11-7.67 22.92 3.06 48.1 0.22 71.63-2.74-14.53-3.34-29.39-6.33-43.88-12.43 22.67 0.2 48.15 7.79 69.71 11.91 22.77 8.72 50.79 14.9 75.78-1.94 8.2-5.2-14.15-4.48-0.78-1.86 38.99-6.97 78.02-17.11 115.83-0.75 2.36-1.59 5.18-4.16 6.15-7.82-14.14 4.74-30.7 0.67-44.62-12.29-5.82-4.94-26.69-11.1-31.1 5.89-7.88-1.37-28.44 10.12-29.19 1.25 15.87 1.78 34.63 4.15 50.9 4.93-20.12 6.8-40.88 9.11-61.43 1.79-8.07-4.05-18.83 1.85-25.14-0.83-15.93-4.29-32.11-10.07-46.93-0.72 20.01 2.21 41.11 2.3 61.32-7.61 5.07-7.22-7.89-8.84-12.27-1.93-31.5-1.79-63.03-4.03-94.24-2.71-24.64 7.15-48.12 12.54-71.69-1.15-11.99-8.05-23.3-4.92-35.65 0.65-1.66-2.03-7.56-2.85-4.04-1.44 26.09-8.67 51.61-6.65 77.78-9.71-3.43-1.21 18.18-8.16 18.86-2.1-16.67 3.65-36.16-3.1-50.5-0.29 29.65-2.42 59.61 2.78 89.03 3.74-10.37 4.59-21.6 7.54-32.22 6.9 21.06-10.05 41.67-3.23 62.75 0.59 4.66 4.76 14.35-4.56 11.52 0.25 20.25 2.61 40.53 1.62 60.84 7.58 6.48-2.98 23.4 2.15 33.8 4.01 10.19-7.64-1.16-8.14 5.21-6.3 21.39-5.93 44.13-2.04 65.91-6.53-4.22-6.52-15.22-14.83-17.34-5.94-0.32-1.17-11.91 2.76-6.91-2.39-20.93 2.01-42.45 10.76-62.21-0.53-32.18-3.54-64.4 2.95-96.28-12.93-51.6-0.72-104.86-6.09-156.97 0.65-3.82-4.95-5.07-5.47-1.14 2.38 35.14-5.94 69.55-2.43 104.85-1.28 12.77 1.14-2.21 4.72 2.6 3.51 15.64-7.33 30.37-3.88 46.02 3.59 41.06-5.99 83.08-0.29 123.64-4.35 4.43-7.41-3.34-9.69-5.01 0.86 13.57 2.48 27.13 5.27 40.46-0.9 2.98-3.22 9.25-5.99 4.26-12.3-25.39-7.87-55.1-9.71-82.42 8.56-7.33 8.24 13.01 9.53 14.53 1.18-27.68 4.18-56.31 2.65-83.24-3.07 10.67-3.45 21.92-5.51 32.81-1.89 1.27-2.78-1.26-2.61-2.74 4.22-17.13 0.58-34.85 4.71-52.02-6.79-47.64 6.77-94.24 7.38-141.59-12.24 0.39-15.67 12.25-15.27 22.42 2.25 1.95 11.27 0.68 6.01 4.18-8.04 3.66-9.66 12.42-9.47 20.45 4.12-1.06 9.7-2.83 11.52 2.62-3.24 5.02-12.6 3.56-13.78 10.49-2.18 13.4-5.06 27.02-3.8 40.65 8.97 31.68-1.87 64.4-2.45 96.5 0.6 2.6-2.82 12.76 2.94 9.17-7.05 27.27-4.31 57-4.56 85.19-7.99 13.15 3.41 28.29 0.74 42.53-9.48 0.35-8.55-13.3-9.81-19.99-7.28-35.44 4.51-71.16 4.3-106.7-1.14 2.23-5.25 5.14-3.38 0.64 2.16-35.36-0.64-71.06 4.4-106.28-2.68-6.56-3.44-34.67 2.46-17.79 2.34-7.02 4-16.31 3.14-22.19-7.45 6.57-14.49-2.02-10.24-10.42 5.98-49.48 8.03-101.33 11.72-149.59 0.25 0.67-0.3 13.85 1.53 8.2 2.87-17.95 8.06-35.5 10.53-53.51-1.94-17.02-1.51-34.56-2.61-51.33-4.26 9.94-6.27 20.77-11.01 30.56 2.12 7.39 6.04 14.2 7.76 21.77-5.56-2.56-4.22-12.84-8.94-15.9-6.63 17.74 3.44 36.28 1.03 54.18-3.87-4.71-2.1-12.54-4.13-18.25-3.77 2.29 0.17 11.33-3.05 13.94-0.68-11.11 2.32-22.27 0.48-33.28-6.97 12.49-7.82 27.28-13.36 40.36-0.76-1.04-1.46-2.08-2.18-3.08-5.12 18.7-8.07 37.78-14.96 55.93-2.05 6.03-8.44 21.8 2.64 13.62 3.73 10.77-13.45 2.91-7.01 16.51 5.67-13.55 8.62-0.36 5.9 10.01-6.98-8.16-12.76 11.57-3.44 7.08 5.16-3.29 4.06 6.8 0.05 7.61-9.51 3.97-4.41 16.76-5.92 24.48 16.32-12.18 2.01 12.25 3.44 18.06 8.01-0.11 1.2 9.26-3.36 10.93 3.15 13.33 9.68 27.67 5.95 40.67-4.98-6.18-2.82-22.72-8.06-28.41-2.23 26.79-0.83 54.57-7.03 80.61 0.75-9.13-5.6-21.82 0.92-28.21-3.8-37.23 1.7-74.4 4.72-111.44 5.25-85.99 11.06-174.17 19.8-260.93-0.75-10.73 4.76-23.34-2.54-32.45 8.27 2.56 3.7-10.66 2.71-15.22 5.26 0.65 5.51-6.12 6.41-9.81 5.3-54.37 12.66-108.53 21.42-162.45 5.57-20.21-2.61-40.5-4.7-60.65 5.38 4.19 2.86 14.18 7.44 18.97-1.12-10.62-6.31-20.57-5.19-31.49 6.18-1.65 2.61 9.99 6.93 11.68 3.59-12.43 2.81-28.99 9.93-39.18-2.42 15.92-7.37 31.87-6.31 48.07 10.42-23.3 16.51-48.54 16.79-74.35-0.03-3.27 4.9-1.43 3.43 1.35-2.08 24.79-2.89 51.11-15.75 73.23-8.37 18.56 5.22 37.11 2.12 55.9-7.08-3.5-2.51-15.88-7.37-20.98 5.89 38.2 10.43 76.72 14.98 115.02 6.64-52.16 13.44-104.59 26.99-155.44-0.87-4.09 1.29-30.04 3.88-13.6-2.43 24.32 1.32 52.52-7.86 74.89-1.33-14.28 4.39-33.71 2.32-48.85-13.26 81.23-29.43 163.86-16.44 246.19-0.83 9.87 7.01 0.73 7.99-2.87 4.4-30.14 4.57-60.86 10.29-90.85-0.81 27.43-4.09 54.75-5.7 82.14-3.84 8.71 6.42 0.47 6.33-3.47 0.96-25.98 8.54-53.54-0.63-78.67-0.91-12.83-1.53-30.55-12.02-38.59 0.08-3.06 4.22-6.82 6.9-3.88 7.59 13.09 8.32 31.76 13.03 43.81 6.96-72.46 23.25-143.59 28.9-216.06 4.42-0.6 1.46 8.3 4.21 6.86 1.54-7.86-0.17-16.73 4.23-23.79 5.58 0.03-0.59 8.9 2.21 12.02 1.61-3.63 1.81-10 7.32-9.14-7.86 20.55-5.96 47.45-18.52 64.75-11.71 76.89-22.27 155.09-24.82 232.46 5.75-5.54 11.76-10.9 17.36-16.6 6.84-51.57 13.82-103.15 22.95-154.36-5.23-20.59-8.94-41.87-10.64-63.12 5.91 1.73 4.88 11.24 8.2 15.77 3.58-0.35-3.1-9.65 0.41-10.75 4.71 6.43 4.38 15.23 7.48 22.43 9.22-31.94 1.65-67.95 16.89-98.35 0.14 13.54-6.77 31.34-7.41 46.75 8.89-14.5 8.61-36.21 19.14-50.02-12.01 51.75-38.96 106.66-15.6 158.92 4.33-7.6 1.99-22.77 8.81-29.67 4.1 15.82-9.91 35.42-3.91 49 4.2-23.72 7.62-50.87 12.08-75.78-5.46 6.37-0.61 21.34-8.17 26.78-0.95-15.01 5.12-29.5 7.61-44.22 9.29-18.31 4.48-40.05 16.67-57.04 5.51 10.31-4.81 20.17-2.79 30.11 0.92-4.66 2.38-9.21 4.69-13.37 2.99 7.32-0.13 17.2-3.1 24.77-6.05 4.12-0.33-16.34-3.97-5.86 1.15 20.34 1.21 42.12-9.83 60.25-2.61 18.32-5.14 36.69-7.72 55.03-4.43 20.36 5.12 39.83 8.4 59.63-0.35 8.47 3.06 1.33 3.5-1.04 8.2-46.14 15.94-94.56 37.03-136.2 7.96-30.22 17.48-62.1 13.47-92.75 5.63 10.02 4.54-11.68 5.39-16.65-8.52 4.87-3.14-14.31-4.03-19.83 7.18-11.61-4.91-27.06 2.71-38.1 2.39 7.75 2.66 17.04 4.9 24.12 1.2-6.38-0.05-14.21 1.91-19.8 2.42 15.1-0.34-5.52 5.95-5.21-3.54 5.68-3.85 13.87 2.37 17.87-5.1 28.48-11.85 58.39-14.52 87.87 2.38 0.94 5.52-6.67 6.24-1.71-5.87 9.67-8.27 21.14-10.04 32.19 6.84-10.04 5.54-24.62 14.24-33.14 4.76-9.25 1.12-30.73 13.48-30.44 2.68 6.27-7.33 23.24-1.56 25.51-4.5 59.33-12.6 118.89-13.43 178.18 15.69-26.53 4.27-59.18 10.5-86.12 1.87 14.17-0.19 31.79 2.83 47.15 7.19-16.04 12.14-33.14 18.85-49.45 6.48-13.05 6.52-30.16-1.22-42.36-4.78-22.99-5.68-49.3 5.66-70.42 5.89 27.24 3.8 58.03 5.4 86.11 7.24-13.13 11.4-27.95 17.91-41.56 10.95-21 8.36-46.09 18.86-67.21 6.75-16.71 9.62-34.63 11.32-52.47 0.13-0.95 0.2-7.73 3.26-5.49-1.61 21.51-3.36 43.83-12.96 63.54-5.88 8.11-7.02 18.48-6.67 28.2 1.2-1.47 2.21-3.24 4.01-4.09-16.49 51.27-20.89 105.93-31.39 158.72 13.72-49.47 24.16-103.93 40.42-154.35 4.56-17.76-0.19-41.1 12.62-55.48 0.57 7.9-6.25 17.24-3.51 25.93 10.41-28.44 17.03-59.18 36.02-83.62 3.23-1.04 2.66 2.78 1.39 4.5-5.69 10.53-18.9 25.22-14.84 37.01 11.88-13.57 16.84-34.32 27.18-48.56-0.25 18.67-22.04 36.84-15.72 57.85 1.96-3.14 1.05-11.09 5.44-10.68-1.21 8.49 0.22 17.97 0.93 25.68 8.45-15.53 8.92-37.05 25.28-47.05 1.88 16.24-6.1 32.19-12.12 47.08-2.83 3.99-6.31 16.98-12.4 10.93-2 26.73-2.31 53.53 3.41 79.83 16.86-28.24 11.51-70.31 33.6-95.58 0.13 10.54-11.87 23.87-9.99 35.66 9.79-14.84 11.34-36.15 24.31-47.9-8.5 27.39-22.65 53.2-34.73 78.28-2.77 16.7-15.58 32.51-10.48 49.91 7.29-11.18 7.48-26.96 15.44-36.87-5.99 23.6-21.04 48.8-10.27 72.67 16.56-52.91 34.82-105.29 55.27-156.83 1.2-22.9 11.9-44.3 20.44-65.45 0.39-2.75 4.74-3.63 3.07-0.05-5.41 16.1-11.99 31.82-16.99 48.08-0.11 1.45-1.58 4.53 1.07 4.08 7.09-18.21 14.99-36.12 21.34-54.62 9.05 12.84 1.98-33.57 12.88-18.11 2.04-11.06 0.1-31 7.42-40.78 0.7 8.54-4.11 21.33-4.47 31.74m-17.59 44.27c-8.23 19.74-15.43 40.58-26.45 58.66-19.6 56.42-38.31 113.2-55.47 170.39-0.49 10.15 1.15 20.22 0.47 30.41 1.6 1.32 1.73-1.87 2.19-2.77 17-56.86 37.54-112.61 57.48-168.5 3.27-16.55 7.64-33.01 14.28-48.55 0.84-2.29 2.2 0.82 1.65 1.9-17.83 73.56-48.19 143.52-66.63 216.91 15.07-25.06 27.03-55.34 42.13-81.71 17.4-41.1 19.72-86.74 29-130.05-4.43-15.47 5.76-33.42 1.35-46.69m-73.93 21.96c-8.62 14.59-12.78 31.53-18.5 47.33 9.81-11.54 17.06-32.81 18.5-47.33m-33.33 15.83c-6.28 6.52 0.37 14.43 3.06 20.96 3.69-8.57-1.58-14.89-3.06-20.96m-7.67 10.28c-5.59 1.04-4.57 10.37-10.46 8.02-10.43 45.42-24.53 90.05-33.61 135.81 0.21 34.72 1.63 69.79 0.71 104.31 13.05-36.97 3.71-83.11 11.07-122.65 2.02 24.09-1.68 54.54-0.29 78.06 13.29-45.06 25.2-93.3 38.71-139.24-3.14-16.6-4.75-33.49-5.26-50.38 0.32-1.54 0.4-4.29 2.67-3.02-0.08 12.98 1.96 25.96 2.98 38.66 8.48-13.54 1.98-37.5-6.52-49.57m15.9 39.43c-4.55 3.67-0.18 8.68-0.19 13.16 2.34-2.65 1.03-10.03 0.19-13.16m-97.1 20.04c-3.32 17.69-4.56 37.18 0.94 54.35 2.65-16.52-0.4-37.35-0.94-54.35m88.71 11.23c-16.53 81.95-46.72 162.44-48.82 246.51 12.54-51.9 30.38-106.53 47.93-158.52 9.63-21.64 3.67-45.46 4.07-68.2-1.17-5.84 2.01-16.32-3.18-19.79m7.14 4.37c0.12 17.73 1.07 35.35 1.44 53.1 8.9-15.69-0.48-38.69-1.44-53.1m-120.81 5.78c-15.04 68.47-22.71 138.49-25.98 208.46 0.44 0.99 0.03 3.3 1.62 3.23 2.91-10.27 8.16-20.07 8.01-30.98 1.96-60.15 11.95-122.37 16.35-180.71m51.01 17.8c-10.69 25.56-26.97 55.81-15.53 81.83 4.77-27.07 13.07-55.58 15.53-81.83m-63.99 0.96c-4.14 10.26-7.75 20.74-12.84 30.6-12.25 64.22-23.56 128.64-38.5 192.32-4.2 9.94-0.26 20.44 1.77 30.1 11.18-31.12 17.54-63.99 31.07-94.31 4.41-47.66 9.61-95.37 19.66-142.2-0.34-5.65-1.66-11.01-1.16-16.51m140.1 27.92c-5.35 6.3-6.56 18.01-2.47 24.37 2.5-7.96 5.87-16.16 2.47-24.37m71.86 2.25c-8.54 36.94-15 74.34-21.39 111.71 6.91-3.73 10.76-11.25 10.81-19.11 3.74-30.51 10.04-63.32 10.58-92.6m-7.92 7.07c-14.82 28.53-27.95 57.95-42.43 86.64-11.56 14.95-6.94 35.67-6.31 51.8 9.84-8.37 19.74-18.71 28.86-28.36 5.29-36.58 14.59-75 19.88-110.08m-308.49 7.93c1.73 6.24 0.89 16.02 4.27 20.77 1.07-5.08-0.48-16.21-4.27-20.77m81.5 0.14c-7.82 25.99-17.69 51.58-21.51 78.6 5.67-6.95 4.2-22.09 11.16-27.78-11.63 38.59-26.42 77.85-24.01 118.81 10.25-39.55 18.66-81.74 26.15-122.68-0.6 0.13-1.8 0.37-2.4 0.49 4.8-14.95 11.04-33.25 10.61-47.44m153.95 7.74c-20.42 64.43-42.01 129.01-53.15 195.8 0.26 6.35 3.61-0.31 6.05-0.55 0.78 19.02-15.35 32.14-15.27 50.62 3.31-0.45 3.06-7.32 6.7-6.53-0.15 9-9.49 14.63-9.6 23.68-0.29 2.77-1.68 18.75-3.76 10.05 2.82-7.31-5.24-2.01-4.97 2.34-0.89 24.1 0.25 48.18 0.7 72.24 4.43-1.36 3.34-13.59 8.63-14.33-0.98 7.51-6.27 14.1-7.45 21.64 4.11 17.28 3.86 35.26 2.67 52.79 6-6.51 7.7-17.6 11.92-25.99 6.68-19.59-2.86-39.66 0.03-59.44-6.79 1.91 1.23-6.48 0.28-9.45 4.56-32 5.39-66.09 20.06-94.87-4.87 24.52-8.15 49.3-11.14 74.12 2.35-0.57 1.36-4.26 3.99-4.19-7.48 17.33-10.19 37.86-4.38 55.95-0.76 5.18 0.77 17.54 3.9 7.57 7.13-44.97 1.39-91.17 12.23-135.84 3.39-6.18-0.47-3.72-2.76-3.71 9.04-21.65 14.96-44.43 24.06-66.03-0.14-8.98-4.72 3.68-7.17 4.82 5.72-38.01 25.57-74.49 19.14-113.75-12.61 43.15-22.89 89.09-29.95 134.21-5.16 7.73 4.6 1.45 1.71 6.52-8.32 17.6-10.74 39.42-20.68 55.13 5.26-21.39 15.65-47.22 14.37-71.18 7.65-41.61 17.28-82.87 28.54-123.64 4.19-12.03 8.43-26.04 5.3-37.98m10.78 0.79c-7.18 15.03-4.94 32.96-3.28 48.26 6.33-15.14 7.67-33.03 3.28-48.26m-101.83 8.02c-8.94 21.19-16.04 43.39-22.96 65.33 2.99 24.61 2.24 49.82 6.49 73.92 8.27-45.88 25.89-92.55 16.47-139.25m30.87 1.09c-6.86 29.88-13.42 59.91-18.09 90.22-0.25 29.51 3.67 58.87 3.12 88.41 3.72 5.27 3.34-8 4.47-9.96 13.02-55.17 15.93-113.08 10.5-168.67m-166.83 14.37c-8.37 48.95-14.31 98.36-20.55 147.66 3.93-2.6 8.36-5.34 11.26-9.05 6.31-31.75 11.47-63.81 18.83-95.36-0.25-14.04-4.44-31.99-9.54-43.25m-102.13 0.52c-9.23 57.77-16.08 116.65-22.08 175.16-0.19 9.29 8.95 15 13.99 21.82 2.66-4.56 4.69 7.33 0.15 5.78-5.37-1.31-11.22-6.97-15.64-6.89-8 51.67-5.69 104.77-3.86 156.48 6.21-19.81 18.62-39.89 13.37-61.29 2.54-13.47-10.69-24.41-9.34-36.86 4.17 12.42 10.91 23.69 15.36 36.01 6.17-35.68 4.26-73.78 8.98-110.17 3.14 6.98-1.4 17.83 0.53 26-2.63 2.77 4.52 8.36-0.7 6.47-1.47 22.9-3.02 45.81-4.76 68.72 17.32-28.16 10.46-65.21 14.33-97.83-8.41-20.74-14.33-42.41-22.37-63.28 1-0.85 2.31-1.02 3.6-0.97 8.97 15.35 11.04 35.49 19.37 49.94 2.68-11.45 2.02-26.03 3.46-38.74-5.7-43.19-7.56-87.94-14.39-130.35m343.07 30.09c-7.23 16.14-8.57 35.18-5.45 52.21 7.7-16.11 7.43-35.92 5.45-52.21m71.17 17.36c-3.77 2.26-8.42 4.89-10.23 8.88 2.32 1.76 16.07-5.8 10.23-8.88m-299.3 3.83c-4.87 26.91-9.53 53.82-14.19 80.77 15.87-5.32 9.17-25.38 13.15-37.81 0.05-13.34 8.09-32.57 1.04-42.96m308.3 1.87c-4.71 4.25-4.72 12.58-3.78 18.09 3.5-5.11 4.86-13.01 3.78-18.09m-10.34 6.48c-5.96 2.06-12.77 5.13-11.9 12.85-4.3 30.15-10.91 63.14-13.3 91.6 10.37-33.15 26.75-70.12 25.2-104.45m-201.75 0.82c-3.86 16.53-13.86 32.14-11.56 49.61-4.14 47.54-1.44 95.37-5.03 142.93 1.59 0.23 4.08-2.14 3.88 0.84 0.34 22.53-0.64 47.16-2.87 68.3 8.53-22.39 2.05-47.26 5.84-70.41 2.34-29.58 7.78-58.74 12.98-87.96 9.55-33.74-1.45-70.59-3.24-103.31m183.1 10.11c-3.25 2.74-7.79 5.22-8.25 9.86-6.71 43.03-12.18 88.7-13.35 130.79 8.21-46.88 15.02-94.19 23.07-141.19-0.37 0.14-1.1 0.41-1.47 0.54m-154.11 1.59c-1.61 12.21-7.22 25.46-5.57 36.92 1.51-12.23 6.96-25.12 5.57-36.92m-119.15 3.27c-5.83 48.09-10.03 96.37-14.13 144.65 0.44 0.01 1.3 0.03 1.73 0.04 6.84-33.49 13.69-67.13 23.18-99.95-3.87-14.25-4.98-32.93-10.78-44.74m209.11 2.77c-4.85 13.71-7.08 29.01-12.22 42.89 1.02 1.21-3.25 10.23 0.4 8.45 5.02-16.93 17.76-33.62 11.82-51.34m49.55 2.07c-9.85 8.75-18.43 19.14-26.62 29.43-0.7 23.59 1.1 46.84 0.73 70.38 6.77-26.36 9.67-57.72 17.35-84.96-1.18 54.25-23.38 110.59-14.25 166 4.36-4.61 4.44-14.94 6.89-21.31 1.33-53.5 8.44-106.63 15.9-159.54m-35.54 4.94c-11.9 41.64-23.9 83.15-32.22 125.5 3.96-3.16 2.33-15.33 7.14-19.34-5.38 27.28-9.96 54.77-12.05 82.54 4.9-2.43 4.68-13.31 10.01-16.54-1.48 10.54-9.62 18.52-10.88 29.08 8.61 11.1 1.81 30.01 4.67 44.92-3.84 24 7.18 46.76 9.89 70.05 8.54-32.77-2.95-68.76 3.09-100.89-1.71-18.63 2.2-37.34 1.32-56.04-3.35 1.36-2.62 9.41-7.39 10.54 21.37-46.28-1.43-103.27 26.48-148.24 0.01-7.64 4.3-14.69-0.06-21.58m-166.89 11.8c-10.59 23.93-16.24 50.71-23.43 76.08-5.89 12.67-0.58 28.48 3.03 39.9 11.53-36.66 25.03-76.73 20.4-115.98m67.85 8.97c-8.13 46-17.25 94.03-18.57 140.27 6.32-16.8 15.73-32.44 21.78-49.26-0.72-30.16-1.21-61.63-3.21-91.01m-12.86 12.33c-4.3 14.12-5.69 29-9.21 43.34-1.98 3.95 4.1 15.34-2.1 10.94-6.28 37.87-14.77 76.96-12.32 114.84 3.47-6.34 5.51-13.4 8.59-19.95-0.86-49.77 10.62-100.94 15.04-149.17m-40.08 3.14c-3.59 10.8-10.26 22.39-8.36 34.66-0.12 35.79-1.92 71.68 3.04 107.28 3.94 38.92-8.49 76.87-10.05 115.52 6.58-32.69 12.27-69.26 14.88-103.98-5.48-50.22 1.69-104.58 0.49-153.48m151.1-0.1c-8.93 5.44-6.71 16.98-7.43 25.86 0.86 53.15-4.69 103.89-3.95 156.99 5.04-28.8 11.15-60.14 14.1-89.95-3.22-28.97 1.61-64.12-2.72-92.9m60.87 11.96c-6.16 16.46-10.07 33.73-14.37 50.77 8.2-14.64 16.9-34.6 14.37-50.77m-296.86 2.17c-4.31 2.36-9.4 5.47-8.85 11.29-7.57 53.3-17.09 106.53-17.19 160.51-3.25 13.02 13.91 3.66 10.94 16.42 2.48-6.02 2.48-17.62 4.36-25.94-0.7-54.28 7.78-108.41 12.4-162.51-0.41 0.06-1.24 0.17-1.66 0.23m160.89 12.63c-1.46 4.29-3.47 10.25-1.59 14.07 2.66-3.34 2.73-10.32 1.59-14.07m-178.83 1.43c-5.73 3.48-10.59 8.85-10.04 16.06-3.98 40.91-10.8 81.63-11.06 122.78 1.82 2.58 5.24 13.16 5.83 5.92 1.06-48.74 9.41-96.9 16.83-144.99-0.39 0.06-1.17 0.18-1.56 0.23m229.87 2.81c-21.16 25.25-17.78 61.23-24.03 92.02 6.08 16.53-1.87 36.64 1.25 54 5.64-8.23 3.2-18.73 5-28.01 2.18-39.47 13.17-79.92 17.78-118.01m-248.94 13.98c-5.11 5.48-12.72 9.73-15.07 17.31-1.46 27.23-5.24 54.56-4.61 81.75 3.45 4.02 5.63 11.62 10.29 13.54 1.29-37.66 7.93-74.89 11.07-112.42-0.42-0.04-1.26-0.14-1.68-0.18m197.04 5.84c-6.61 7.23-8.49 17.32-8.66 26.83 3.07-8.16 13.74-16.14 8.66-26.83m-127.31 5.11c-0.61 25.59-14.6 51.18-12.42 75.75 5.45-20.34 11.31-40.53 16.04-61.07-1.12-4.31 0.08-12.91-3.62-14.68m34.11 0.86c-3.91 21.01-16.73 41.2-13.23 62.95 9.21-18.57 20.23-40.96 13.23-62.95m-41 11.23c-1.38 4.73-1.45 10.12-0.59 14.85 2.35-4.53 2.91-10.51 0.59-14.85m263.05 2.89c-7.71 16.86-12.81 34.73-21.11 51.31-0.88 11.25-7.16 25.3 1.87 34.64 12.72-26.21 14.55-58.67 19.24-85.95m-351.75 1.25c-13.97 9.24-4.73 32.52-9.17 47.01-2.85 3.77 5.94 17.38 6.63 8.55 0.15-18.26 3.01-38.95 2.54-55.56m221.22 5.59c-3.25-0.16-5.99 5.79-6.98-0.1-6.22 13.61 4.22 10.1 6.98 0.1m-248.75 1.15c-1.66 3.06-3.74 13.5 1.8 13.03 2.1-3.9 1.93-11.29-1.8-13.03m109.14 73.42c1.8 49.91 1.23 99.89 4.52 149.57-4.52 2.87 3.77 8.55-3.03 8.58-1.95 7.66-2.7 26.41-5.46 8.38 0.84 35.39-7.35 70.72-11 106.01-0.48 3.11-5.63 2.48-4.15-0.83 2.29-9.27 5.86-19.31 1.28-28.18-13.11 21.78-0.56 49.11-1.18 72.97 1.35-9.2 3.31-7.51 3.69-2.18 2.98-29.65 7.5-59.67 14.06-89.18 0.35-4.21-3.12-9.1 2.09-5.69 5.9-18.8 0.38-39.33 4.83-58.19 1.85 6.87 0.83 15.33 4.18 21.39 2.57-5.06 3.44-10.99 1.27-16.37-3.39-26.98-4.69-54.38-3.78-81.48 2.83-6.09-7.47-7.41-2.11-13.87 10.13-34.27 9.31-70.08 18.59-104.41 4.64-12.51-2.07-25.47-3.93-37.97-9.68 22.35-12.75 47.85-19.87 71.45m-93.68-67.49c-10.95 6.88 7.68 19.54 0 0m213.99 6.93c-12.4 24.41-28.17 53.29-19.73 80.97 9.13-15.48 15.69-31.72 16.32-49.95 2.43-8.75-1.26-2.61-4.16-3.1 2.18-9.42 11.35-17.5 7.57-27.92m15.96 0.19c-9.09 5.48-7.54 18.27-5.8 26.83 5.76-7.39 9.81-19.82 5.8-26.83m-88.08 3.01c-4.88 11.83-10.53 24.25-11.35 37.05 12.26 18.87 9.59 44.35 12.92 64.77 6.62-33.56 2.94-70.06-1.57-101.82m-145.26 7.22c0.33 2.65-2.51 8.71 1.71 8.61 1.7-2.59 1.46-8.71-1.71-8.61m-9.89 7.79c-7.2 18.87-2.82 39.74-3.16 59.41 6.04-16.28 10.38-43.53 3.16-59.41m135.18 19.01c-2.9 8.67-5.47 17.54-6.52 26.65 3.04-7.07 10.92-20.06 6.52-26.65m-119.44 1.09c-9.4 66.23 13.39 132.38 10.38 197.88-2.49-3.27 0.74-9.99-5.02-9.39-3.57-34.55-5.15-69.51-12.33-103.52-2.67 6.36-3.24 16.73-3.7 24.67 6.98 31.06-2.45 66.86 16.52 94.61-1.68 12.35 8.15 23.02 9.38 35.37 3.56-11.18 5.34-25.5 7.56-37.85-4.22-16.58-5.48-33.69-4.1-50.81 1.82-3.38 1.95-12.02-3.57-9.28-8.57-36.35-12.2-73.64-8.99-110.93-2.22-9.33 5.33-26.11-6.13-30.75m363.38 1.64c-8.76 12.35-7.36 28.56-10.64 42.76-6.81 29.65-4.95 61.14-4.93 90.56 10.77-19.38 11.48-40.39 19.86-60.82 1.03-24.13-3.32-48.89-4.29-72.5m-51.39 7.27c-2.83 22.49-8.15 44.72-9.6 67.34 3.64 2.02 2.03-6.38 3.8-7.45 3.4-19.17 17.02-41.62 5.8-59.89m-188.92 1.8c-13.22 28.88-11.2 60.88-11.77 91.91-2.38 1.16-1.74-1.63-3.37-1.97-1.39 33.19 0.32 66.62 6.32 99.2 2.09-47.58 0.16-97.57 3.87-146.01 1.04-2.33-0.4-11.99 4.64-9.64 0.55 57.67 3.93 118.48-2.66 172.72-2.7 5.22 3.19 20.98-6.46 17.25-2.17-9.9-5.16-19.6-7.59-29.42-7.61 13.66 4.15 30.81-1.11 44.94-6.07 3.24-6.78-13.24-6.94-0.96-4.87 36.26 9.28 70.97 16.18 105.95 4.98-7.44 4.47-19.09 7.36-28.14-5.23-23.31-19.94-47.99-13.06-72.38 1.73-3.94 3.13 2.26 3.25 4.05 1.23 16.85 6.83 33.11 14.36 48.05 3.69-29.39-0.67-59.47 1.04-89.29-3.97-17.71 2.17 11.79-5.23 7.61 2.21-31.62 11.36-64.23 7.75-96.34 0.29-38.89 5.81-79.85-6.58-117.53m-108.04 10.3c-7.37 58.8 5.81 116.56 12.84 173.95 4.84-19.34 6.12-41.77 3.48-61.52-2.62-7.92 1.53 6.73-2.16 6.13-3.38-23.82-1.08-47.96-3.9-71.83 0.83-15.56 4.59-36.88-10.26-46.73m189.18 6.48c-4.12 8.92-9.77 17.27-12.99 26.53 2.86 34.32-2.54 68.67-4.29 102.98 4.93-9.08 7.31-20 12.06-29.4 7.78-20.86-2.84-41.39-2.5-62.26 6.72 1.63-0.46 19.6 5.41 23.14 0.42-20.2 6.74-41.37 2.31-60.99m-122.87 2.26c-9.1 36.26-5.69 75.33 2.81 109.86-1.18-26.32-1.07-52.69-1.13-79.14-8.35-7.85 4.4-21.88-1.68-30.72m100.05-0.06c-7.62 15.61-12.54 32.9-8.38 50.33 10.86-14.6 11.64-33.43 8.38-50.33m149.77 1.26c-1.92 5.8-0.89 12.59 0.66 17.97 5.53-4.92 3.55-13.84-0.66-17.97m-342.9 4.09c-5.54 19.65-6.51 42.42-2.27 60.64 0.81-19.52 7.43-43.05 2.27-60.64m331.1 9.9c-6.61 27.26-15.32 54.08-20.39 81.71 12.87-23.82 24.62-56.29 20.39-81.71m-285.37 3.2c0.51 27.95 3.07 55.93 4.07 83.82 6.87-22.85-0.49-48.62 0.48-72.53 0.85-3.46-0.85-11.31-4.55-11.29m230.17 0.54c-5.86 9.42-4.66 20.98-4.52 31.56 3.88 34.59 7.19 69.69 17.93 103 0.97 2.96 2.44 0.28 2.32-1.52-3.1-24.85-6.13-51.25-9.28-75.14-7.69-16.97 1.06-40.33-6.45-57.9m-333.97 7.17c-1.54 29.8-6.63 61.04-6.49 89.87 14.03-28.05 5.77-61.41 6.49-89.87m406.11-0.16c-6.9 12.39-1.01 28.74-1.43 41.19 2.47-13.37 6.66-28.85 1.43-41.19m-153.88 14.91c-4.41 6.28-6.67 13.79-9.97 20.67-1.96 33.33-7.19 66.47-6.4 99.97-1.46 4.41-12.06-0.75-7.39 7.06 4.86 34.02 1.71 68.67 6.57 102.55 5.29-26.4 5.53-56.16 6.16-83.93-0.67 0.22-2.01 0.67-2.69 0.89 4.77-14-4.87-29.87 2.35-43.12 3.6 4.09-0.11 14.73 5.56 15.49 4.16-39.49 7.23-80.5 5.81-119.58m-134.44 3.36c-1.94 16.27 7.78 5.26 0 0m114.41 4.75c-6.52 14.74-10.3 31.88-9.62 47.15 7.66-14.33 12.62-31.48 9.62-47.15m49.85 2.38c-0.87 3.28-1.1 6.81-0.94 10.23 5.01 0.9 4.38-9.95 0.94-10.23m37.09 1.59c-5.54 35.49-5.42 72.24-9.31 108.21 4.23-9.69 6.91-23.78 11.11-32.79-8.02 49.22-15.09 100.69-13.29 149.73 7.43-37.01 15.15-74.48 14.01-112.24 3.17-7.13-2.18-23.04 9.22-22.61 1.27 11.26-3.16 24.67-0.22 34.7 1.58-8.69 4.62-17.09 6.04-25.79-11.45-31.18-11.33-68.33-17.56-99.21m73.92 8.01c-4.47 16.43-2.14 33.51-1.35 50.42 0.37 3.61-3.93-0.74-4.04 1.65-0.64 20.27-2.33 40.74-3.92 60.89 3.32-4.68 5.95-11.3 6.91-17.21 0.72-31.78 4.21-64.94 2.4-95.75m-345.96 1.26c-5.41 21.93-9.41 44.29-12.3 66.71 4.93-1.71 10.1-3.73 14.23-6.82 3.28-16.09 4.82-32.82 1.95-49.13-4.34 8.7-0.37-9.2-3.88-10.76m239.06-0.33c-8.29 16.41-6.88 35.54-4.26 53.33-2.49 1.09-4.35 20.5-1.14 27.65 6.68-26.11 6.4-55.14 5.4-80.98m151.22 0.51c-0.8 3.32-4.86 6.39-2.83 9.91 0.77-2.3 6.9-9.61 2.83-9.91m-53.02 13.22c-9.52 21.85-21.53 44.98-15.37 69.39 5.12 1.15 1-14.5 5.84-8.55 1.35 9.18-4.08 23.61 3.05 30.26 1.01-30.56 10.12-60.59 6.48-91.1m-244.53 4.6c6.53 47.01 5.89 94.3 3.78 141.75 2.62-3.53 2.77-0.38 5.13 1.46-0.38-47.35 0.24-97.29-8.91-143.21m297.34-0.31c-7.45 20.13-26.09 38.2-22.35 61.17 2.67-4.41 7.8-4.77 9.96-0.33 9.58-18.54 14.79-40.67 12.39-60.84m-129.95 2.19c-25.04 58.48-18.13 123.85-24.49 185.89-1.82 9.94 3.39 2.84 3.6-0.7 12.88-60.65 17.96-124.37 20.89-185.19m-77.04 4.83c-4.31 11.6-12.01 22.47-10.36 35.53 2.88 1.16 2.37-11.83 5.78-7.05 2.29 9.68-1.41 20.28 1.53 29.84 1.27-18.85 4.04-39.44 3.05-58.32m39.03 17.43c-3.47 9.83-8.13 19.29-10.62 29.47 4.97-3.39 2.94 6.49 3.37 8.26-1.08 15.07 1.22 29.99 2.91 44.91 3.37-6.67 5.12-15.59 8.06-22.88-6.01-18.2 1.75-43.26-3.72-59.76m-216.21 23.85c-0.37 16.65-5.03 32.93-5.96 49.44 4.15 0.87 7.62-3.29 10.66-5.71-4.34-13.77 3.92-34.12-4.7-43.73m-5.2 3.34c-17.11 1.07-18.09 20.04-16.16 31.23 18.47 2.5 14.15-19.24 16.16-31.23m311.07 15.85c0.3 8.36 0.82 21.24 5.87 26.57 5.42-7.45-5.23-19.81-5.87-26.57m45.37 1.58c-8.14 9.07-3.17 22.24-8.04 32.51-1.31 17.06-5.79 34.74-4.7 51.44 6.31-20.32 13.69-40.41 20.2-60.61-10.26-3.89-4.62-15.66-7.46-23.34m-124.23 8.39c-9.57 21.98-19 46.43-13.34 69.72 5.34-22.62 11.31-46.21 13.34-69.72m-26.07 1.87c-2.62 7.19 3.15 19.39-5.01 23.32 0.61 16.15 0.21 32.51 1.96 48.58 11.88-21.04 5.13-49.91 3.05-71.9m85.16 4.05c-11.6 55.84-15.48 112.58-27.36 168.68 13.1-48.09 22.55-99.42 32.12-149.11 0.03-5.98-0.54-16.31-4.76-19.57m-296.87 2.01c-6.17 1.58 1.02 9.63-2.56 13.05-2.88-3.44 1.41-14.9-5.85-9.34-8.02 2.41-4.82 12.45-5.86 18.76 10.81 0.43 19.19-16.59 14.27-22.47m334.25 4.83c-7.06 2.24-3.76 10.19-1.54 15.07 2.66-3.72 2.33-11.35 1.54-15.07m-257.4 11.24c-1.62 5.26-3.68 10.47 1.17 15.1 1.05-4.23 1.13-12.51-1.17-15.1m-81.73 10.96c-9.61 2.6-13.34 11.98-11 20.98 10.52 2.87 17.5-17.54 11-20.98m333.04 0.85c-2.85 8.21-2.69 17.21-4.68 25.68 2.96-7.06 13.14-23.29 4.68-25.68m-91.54 9.68c-12.9 68.89-26.69 138.06-33.14 207.99 8.61-35.24 17.41-74.38 28.99-110.2-2.89-32.19 6.49-67.65 4.15-97.79m24.33 14.38c-8.07 41.95-15.41 84.18-19.42 126.71-1.39 9.79 2.5 2.96 2.77-0.48 2.31-14.94 6.9-29.34 10.82-43.89 1.21-27.11 5.21-56.55 5.83-82.34m-268.98 1.15c-10.42 1.26-11.35 11.86-10.49 20.91 9.28 0.42 14.71-15.8 10.49-20.91m337.02 4.01c-15.13 35.48-21.71 73.41-26.44 111.48 21.61-29.04 21.9-69.18 27.24-104.72 0.51-0.03 1.54-8.6-0.8-6.76m-114.06 0.78c-4.37 13.6-10.23 31.08-2.43 42.84 2.66-13.93 4-30.05 2.43-42.84m-98.33 27.02c-1.14 10.08-5.52 23.06 0.03 31.78 0.35-10.18 4.33-23.29-0.03-31.78m5.11 29.12c0.81 23.35-1.42 47.43 7.03 69.78 0.14 4.73-6.56 3.68-8.08 6.94 9.19 17.98-0.79 39.35 5.67 58.25 0.51 1.13 2.24 3.11 2.41 0.62 1.06-13.96 2.43-27.95 4.72-41.73-3.73-12.99-1.69-26.57-1.82-39.83 5.66-16.27-6.27-38.08-9.93-54.03m-15.03 35.69c-2.68-1.23-0.34-6.54-3.21-8.17 5.21 17.96-6.06 38.98 10.44 53.55 6.76-20.91-1-42.91-4.36-63.74-2.45 5.65-1.59 12.32-2.87 18.36m-120.91-6.86c-4.03 21.22-4.09 43.02-2.01 64.01 3.83-19.7 7.02-45.06 2.01-64.01m153.13 22.12c0.33 4.12-2.19 12.35-0.48 14.6-0.08-4.18 6.67-15.54 0.48-14.6m129.12 8.1c-4.33-0.44-4.7 2.49-3.62 5.97 0.3 12.25 5.97-4.56 3.62-5.97zm-693.73-938c3.24 1.73 12.74 2.54 10.22 6.65-3.39-2.28-10.49-1.37-10.22-6.65zm-12.85-4.19c5.98-2.12 7.11 6.28 11.24 2 4.56 8.25-10.61 2.57-11.24-2zm4.23-14.86c3.95 4.62 14.9-2.52 18.79 5.82-4.18 1.02-20.97 1.3-18.79-5.82zm276.92-87c5.23-0.25-1.52 4.16 5.16 4.56 6.55 7.55-9.32 1.68-5.16-4.56zm-141.5-60.05c7.46 1.84 18.86-2.51 24.66 2.69-8.28 1.75-25.23 9.24-29.54-1.72 2.36 1.89 3.64 1.64 4.88-0.97zm-148.15-25.11c11.54-0.38 25.09-0.57 34.44 2.03-1.25 4.4-12.71 1.77-15.91 6.78 17.09 10.32 36.7 2.83 54.79 0-5.07 9.54-19.93 9.66-28.04 17.06-11.09-2.6-28.95-5.04-31.42-18.61-4.27 1.58-11.67-2.82-13.86 2.35-4.74 1.19 0-6.8 0-9.61zm-130.28-10.23c3.91 1.55 13.37 1.03 10.26 7.54-4.37 1.69-8.75-3.91-10.26-7.54zm299.02-4.5c17.47 2.27-8.03 21.71-13.07 10.62 1.94-5.03 7.47-9.65 13.07-10.62zm117.2-28.95c0.7 5.57-6.9 9.67-12.2 12.66 3.12-4.77 6.76-10.32 12.2-12.66zm-90.24-32.06c12.01 3.67 11.08 22.35-2.95 19.86-15.05 1.55 4.31-19.13 2.95-19.86zm46.4-386.35h22.63c20.9 6.3 44.83 5.27 62.18 20.52 12.32 13.37 26.55 24.94 36.82 40.17 5.28 7.84 1.49 18.86 8.11 25.95 27.38 19.42 11.05 70.32-17.72 76.18-6.66 22.79-12.21 47.04-25.64 67.05 24.16 20.15 4.15 53.39-14.3 70.87-11.07 6.48 3.42 15.24 7.22 21.32 28.71 33.65 27.32 82.9 11.02 121.91-7.59 25.37-13.19 52.69-8.71 79.12-6.95 16.12 3.2 31.93 7.48 47.21-2.49 15.48-3.89 31.5-7.72 46.64-4.9 10.59-14.33 7.99-18.76 18.28-10.07 8.33-23.74 7.83-35.29 12.72-7.94-2.02-14.36-10.46-23.24-8.33-17.85 4.33-36.87 7.04-54 12.48 14.61 2.1 29.77-0.22 44.25 2.86 3.71 3.7-2.27 4.94-3.81 7.11 3.3 2.92 5.57-4.47 8.62-1 9.52 6.85 3.28 17.69 5.16 26.97-9.43 23.5-39.86 5.8-56.05 16.93-5.12 1.39-0.66 10.56-5.31 6.25 1.04 9.04 2.65 18 3.59 27.06 0.93-10.06 5.58 5.54-0.45 3.95 6.23 46.09 2.65 92.72-1.6 138.82-12.43 86.28-26.04 172.53-46.81 257.24-7.59 26.44-4.32 54.17-8.03 81.04-2.23 25.07-17 49.51-12.23 73.49 31.67-4.86 63.78-1.58 95.56-0.12 2.12 2.51-2.68 1.79-4.13 1.8-31.06 0.53-62.45-2.7-93.22 2.71-3.96 20.3-6.42 41.04-8.07 61.67 30.69-4.91 61.77-10.94 92.95-12-30.7 8.53-63.23 8.63-93.95 17.19-3.11 7.5-2.54 16.54-3.1 24.71 12.64-1.2 24.34-7.61 36.85-9.91-12.01 11.3-46.08 6.3-37.13 32.17 16.03-10.66 33.71-18.78 52.26-23.96 2.28-2.28 10.37-3.09 6.77 1.73-17.11 7.51-37.28 13.59-51.04 27.03 27.39-15.72 57.33-27.32 87.49-36.81 4.2-3.12 7.83 2.21 3.51 3.8-33.97 12.93-69 25.99-100.3 43.85-2.85 9.18-0.7 17.7 9.54 12.53 6.61 6.49-10.4 6.81-10.73 13.31-0.85 21.5-2.01 43.17-6.31 64.32 7.33 3.91 17.76 3.6 22.86 11.34 6 8.22 8.06-9.53 14.39-9.97 2.41 3.75-13.97 16.92-2.37 17.66 5.3-15.63 15.71-28.76 23.81-42.97 11.11-0.15 14.24-20.22 24.08-18.92-15.09 20.28-25.76 43.91-39.42 65.4 0.17 5.92 5.07 11.02 4.47 17.31 13.9-10.61 23.02-27.43 29.21-43.74-6.98 4.9-7.39 17.87-15.85 19.91 3.47-18.13 23.56-30.17 23.71-48.81 15.98-16.88 37.25-28.2 58.51-37.16 2.89-1.22 12.59-1.71 8.33 2.7-18.77 8.64-37.8 18.69-53.67 31.53 5.67 16.35 12.45-4.48 21.86-7.12-10.89 16.43-25.69 30.81-36.76 47.2-0.12 6.77-11.56 6.73-6.33 13.65-9.5 6.18-16.16 15.66-21.2 25.57-12.32-0.31-12.98 19.74-24.48 21.44-0.03-4.72 3.89-8.23 5.91-12.12-12.56-3.19-26.23-0.07-39.56-1.56-0.51-4.83 7.86-5.71 7.09-10.09-7.37-0.97-8.24 10.96-15.84 9.63-5.94 0.39-14.03-4.79-18.21 1.16-0.75 8.48 2.18 17.58 0.64 26.13-5.01 5.63-19.96 12.61-10.7 20.49 7.37 3.62 8.45 12.74 12.44 18.39 5.56-13.4 15.75-24.1 24.85-35.15 0.76-1.83 7.63-5.85 5.72-1.34-9.19 13.75-21.1 25.98-27.34 41.59 0.95 5.73 5.43 9.35 7.55 2.6 2.12-17.14 13.26-30.69 23.59-43.76 4.8 10.05-10.74 19.19-13.6 28.66 2.71 9.11-8.7 15.03-11.44 22.32 5.42 8.91 7.03 19.48 1.16 28.57-7.69 0.27-16.29 0.58-23.26 4-1.51 7.74-8.84 1.84-13.89 1.75-6.56 6.96-10.73-6.98-19.04-5.35-12.32-1.71 2.62-4.14 0.46-9.65-7.64-0.17-14.1 8.38-21.58 1.92 1.21-5.43 10.66-6.05 9.56-11.8-8.65-1.6-14.03 10.19-22.48 6.84 0.65-5.36 8.05-7.28 8.4-12.03-7.82-0.42-13.14 12.46-20.65 4.97-6.42-3.83 10.09-10.08 3.95-12.96-24.39 10.1-34.06 40.25-55.82 54.86 9.72-24.34 33.13-40.26 45.89-62.96-4.04 1.17-5.95 5.27-8.85 7.97-2.99-2.75-6.49-4.98-9.14-8.06 4.16-6.11 5.64-17.09-2.27-4.84-7.15-0.9 3.83-13.63-4.14-9.83-8.28-1.08-7 12.99-15.66 10.49 1.57-6.89 12.52-12.2 7.01-19.51-3.68-4.2 1.03-8.64 2.4-12.75-7.38 6.57-14.36-4.16-10.7-10.85 2.83-7.25-3.5-3.73-5.66-1.61-3.77-3.93-5.21-11.68-8.68-14.54-9.95 12.47-17.93 27.62-27.38 40.28 0.37-20.68 24.17-33.42 25.86-54.03-5.82 10.26-10.36-10.08-14.52-13.67-7.04 9.87-11.51 21.5-19.36 30.85-1.3-0.47-2.55-1.04-3.83-1.5-11.04 15.63-17.82 34.94-32.36 47.71 3.32-16.62 18-30.44 25.17-46.21 4.1-5.56 6.32-15.94 14.94-15.55 6-7.76 12.24-16.12 16.13-25.18-8.65-12.23-5.66-28.56-1.86-42.04-4.38 2.35-0.16-3.34-0.09-5.45-0.14-14.96 0.5-29.91 0.77-44.86-8.79 3.07-17.93 8.28-21.6 17.24-10.24 10.08-24.78 14.72-36.13 23.03-0.38 6.15-13.95 21.46-9.02 7.89 4.81-9.61-10.83 3.66-8.18-2.06 25.23-11.37 19.78-47.12 42.32-61.74-7.75 15.25-15.56 30.57-21.11 46.83 8.44-3.77 16.75-8.39 23.91-14.19 3.01-15.44 21.11-17.61 31.04-26.24 5.61-15.64-8.52-5.64-13.73-1.74-12.82-10.11 19.66-11.96 14.82-19.54-9.95 2.24-18.76 9.59-28.85 11.39-6.58-4.41 6.09-8.09 9.75-9.7 8.38-3.81 31.17-11.49 16.66-20.72-23.13 9.97-46.63 19.19-69.42 29.9-13.65 17.43-28.05 35.55-42.14 51.8 9.32-18.49 24.44-33.54 36.89-49.96-14.59 5.42-31.93 11.32-37.37 27.58-10.47 13.34-13.81 32.48-26.61 43.44 7.58-17.19 16.85-33.54 26.25-49.78-2.06 0.55-4.11 1.2-6.22 1.52 0.97-11.65 16.69-13.21 21.97-22.5 2.26 4.41 6.42 0.68 9.46-0.76 9.77-5.24 20.41-8.59 30.15-13.75-2.13-6.59 6.87-11.99 12.29-9.85 2.44 5.36 7.81 0.81 11.63-0.36 12.64-5.99 26.33-9.82 38.35-17.02 2.71-32.42 7.78-64.69 17.9-95.73 13.16-34.61 21.6-72.29 30.05-109.9 1.28 0.46 2.44 1.21 3.58 2 9.69-48.28-4.98-94.42-23.03-139.23-11.37-41.41-34.09-78.21-48.48-118.49-16.5-33.95-25.92-70.7-40.54-105.45-5.95-12.26-6.96-27.9-12.54-39.15-6.89 0.71-0.93-4.18 1.3-6.6-69.71 33.53-123.14 94.45-159.45 161.7-18.04 31.94-36.37 65.55-50.09 98.86-9.71 8.46-11.21 22.66-17.97 33.21-23.53 49.79-45.94 100.78-74.57 148.28 42.92 0.33 86.41-2.53 129.6-3.56-0.35 0.47-1.06 1.41-1.42 1.88-43.94 2.99-88.27 3.62-132.12 7.52-5 16.29-19.47 26.88-25.79 42.19 57.33-11.79 114.57-24.22 172.87-30.79 34.18-10.47 70.42-6.69 105.61-9.45-9.64 1.08-0.36 3.3 3.16 3.47 43.47 1.72 86.74 7.96 129.04 17.98-8.43 4.09-23.83-3.76-35.14-1.72-27.51 11.27-57.06 16.72-85.21 26.05-2.61 0.65-1.1 3.31 1.1 2.86 20.24 2.49 40.01 9.16 60.23 10.8-0.28 4.81-6.01 0.53-8.94 1.02-30.31-1.31-61.37-19.13-90.33-2.67-0.29 1.75 17.22-0.63 8.31 2.48-27.88 0.5-53.23 12.05-79.25 20.66-42.92 15.89-86.85 29.02-129.62 45.36-3.69 1.18-8.75 4.99-11.97 3.3 13.85-9.59 31.26-13.35 44.92-22.88 41.08-10.49 81.44-27.12 121.88-40.89-6.88-0.38-14.88-0.28-22.15 0.21-41.34 10.57-82.93 19.88-123.81 31.95-12.08 2.13-23.87 5.61-35.85 8.21 1.49 3.68 2.68 5.91-3.64 5.55-45.03 17.51-92.07 30.89-135.67 52.21-4.61 1.74-6.38 10.51-12.09 7.63-2.74-8.12 7.89-11.34 13.12-14.51 36.92-16.95 75.57-29.9 113.99-43.02 6.77-2.69 15.2-2.02 20.14-8.09 45.52-14.41 92.51-24.12 138.54-36.52-64.61 1.61-126.63 27.13-189.49 40.77-48.2 18.16-92.3 45.37-135.01 73.05 3.48 4.36 1.59 11.94 7.95 13.52 6.3-6.33 10.61-16.03 18.93-19.47-2.86 9.66-14.12 14.93-16.38 24.7 10.04 21.26 25.7 39.28 36.92 59.9 2.9 6.34-7.86-6.47-3.26 1 27.45 44.19 57.63 86.78 92.86 125.26 39.56 38.74 74.67 83.27 122.35 112.68 58.6 44.05 126.55 77.46 198.58 92.47 32.52 10.46 66.01 17.47 99.61 23.5 22.82 0.79 46.7-0.1 68.59 7.32-22.17 31.63-64.53 35.43-99.52 28.52-36.17-2.41-71.83-12.09-107.31-16.41-74.85-18.39-147.52-50.01-212.86-91.49-44.6-34.99-92.51-67.32-128.27-111.75-41-39.15-71.45-87.38-105.2-131.83-17.9 14.37-30.36 34.65-48.08 48.9 12.1-19.93 30.31-36.2 44.96-53.97-13.28-21.23-27.17-43.36-36.72-67.03-6.97-15.24-18.86-27.84-21.21-44.76-7.39-13.23-12.44-28.18-10.32-43.49 20.96-11.28 39.88-25.15 62.06-27.63 12.33-8.38 27.24-10.41 40.45-16.75 6 0.88 7.36 10.21 12.63 11.52 7.6-4.09-2.83-14.7 4.28-19.72 6.78-3.39 11.59-9.49 17.92-13.46-5.22-6.56 6.05-6.61 7.97-11.54 7.7-0.52 9.94-12.33 17.57-12.38 2.16 5.72 8.02 0.66 5.26-3.21 5.93-6.16 16.35-10.53 15.14-18.06 14.37-5.29 19.4-22.24 31.35-31.11 46.91-58.29 74.79-129.05 109.48-194.57 9.42-33.17 29.63-62.06 44.21-92.74 9.67-24.19 25.39-45.27 41.83-65.28 11.21-25.32 35.13-41.3 49.6-64.25-5.53 4.11-3.06-7.66-5.68 1.73-6.01-14.15-30.14-1.35-35.79-17.41-7.17 0.22-16.65 1.98-23.23-3.41-8.99-11.48-3.48-26.9-8.55-39.77-0.7-11.17 14.12-25.81 24.74-18.56 4.76-16.35 23.45-21.17 33.05-34.12 19.92-8.84 25.7-31.63 35.84-49.13 11.41-28.79 22.59-57.84 30.07-87.81 8.24-20.31 21.42-38.36 30.96-57.86-10.51-2.57-11.06-16.54-10.34-25.85 0.45-18.37 25.09-26.01 22.6-45.15-3.02-17.68 17.04-24.5 26.31-35.77 8.04-3.39 15.65-12.91 24.66-6.61 20.57-10.56 25.07-37.91 44.73-49.99 5.23-18.5 22.64-27.77 35.84-40.13 23.29-26.3 50.94-49.29 83.96-61.93 5.57-1.14 5.03-9.57 12.36-7.48 5.15-13.48 3.1-34.2 18.65-42.62 17.95-15.96 41.79-21.74 64.54-27.13 17.25-13.63 30.76-31.3 43.9-48.69 8.29-47.15 44.06-90.08 90.64-102.22 1.71-1.61 3.67-2.96 6-3.52m-0.72 7.58c-14.47 4.4-30.19 10.28-38.78 23.27 5.58-0.29 5.54 2.87 2.73 7.11 8.47-2.51 9.97-13.37 18.3-15.9 4.19 0.83 13.34 2.03 10.16 8.12-10.31 6.27-21.02 13.99-28.32 22.75 9.16 1.74 21.47-21.1 28.41-12.65 5.24 0.28 6.18-12.46 9.71-5.41 7.02-3.48 13.22-9.3 15.94-16.77-3.56 5.33-7.84 0.49-12.24 4.67 1.38-5.65 9.3-7.04 10.93-12.56-5.19-2.9-11.46-1.03-16.84-2.63m13.32 26.85c-13.23 11.39-31.01 20.6-39.05 38.55 17.19-12.31 32.32-25.63 49.59-38.33-3.58-2.42-8.04 4.45-10.54-0.22m72.31 0.99c-15 2.53 9.02 5.17 0 0m-51.75 0.86c-9.87 4.93-21.91 19.32-13.67 28.52 3.82-1.95 7.53-7.61 12.12-6.05 12.11 4.49-7.98 16.51-3.45 23.04 7.1-11 14.87-23.46 24.06-32.16 7.57 3.64 2.46-9-3.11-6.2-4-3.82-15.18 4.42-15.95-7.15m28.32 10.96c-4.1 6.73 3.14 8.6 7.91 10.74-2.89-6.35 1.37-12.51-7.91-10.74m-6.11 10.98c-6.5 1.05-10.66 7.74-8.47 13.99 4.76 0.77 17.35-10.29 8.47-13.99m37.2-0.23c1.87 7.55 2.06 19.28 6.85 23.78 3.83-6.36 2.82-23.15-6.85-23.78m-21.8 1.24c-3.35 1.76-10.18 6.16-5.48 10.04 6.35 3.24 13.54-7.98 5.48-10.04m15.79 1.45c-2.66 5.01-0.4 11.26-1.04 16.66 10.21 8.11 1.6-27.8 4.23-11.38-3.31 0.12-0.9-4.43-3.19-5.28m-72.8 3.66c-7.23-0.09-0.79 10.7-8.33 11.4-3.83 3.16-13.33 11.02-8.96 15.14 6.79-7.87 13.7-15.74 20.22-23.86 2.03-2.15-1.32-2.74-2.93-2.68m-23 29.61c-3.69 5.58-6.52 11.94-9.11 17.88 4.89-2.65 12.82-13.29 9.11-17.88m-47.09 4.02c-2.02 2.21-2.57 9.28 1.69 8.93 1.73-2.53 0.87-8.01-1.69-8.93m93.03 5.04c-1.17 5.73-14.47 10.66-5.43 14.1 3.49 9.78 11.79-4.43 18.27 0.15-7.05-2.44-9.39-9.26-12.84-14.25m65.1 14.16c-12.4 2.28-23.73 4.3-36.72 2.81 1.29 5.29 12.9 12.84 5.42 19.84-3.13 8.19-14.84 17.73-22.25 9.33-6.22 1.83-12.21-0.39-16.68-4.84-5.5 1.87-10.62-2.14-9.53-8.29-3.54 3.87-11 1.98-12.25 8.12-7.53 20.98-21.18 40.65-30.25 59.62 8.38 16.41 27.26 23.2 40.14 35.21 11.9 2.19 21.39 15.22 34.57 11.1 10.7-2.79 5.73-13.29 7.2-20.97-7.66-4.7-14.41-11.32-21.98-16.06-5.25-0.6-7.1-8.73-0.73-9.1 12.84 2.99 30.96-4.85 40.16 1.14 3.57-10.43-5.86-3.52-8.1-10.38-7.17-3.29-19.64-6.93-13.78-17.2 0.57-4.97 10.53-6.36 12.46-4.04-18.84 13.86 28.87 14.63 18.18 1.18-1.53-12.6-10.36-24.32-5.77-37.25 6.52-5.07 11.25-15.48 21.06-12.86 4.69-0.63 0.88-6.69-1.15-7.36m-178.35 20.55c5.47 0 6.11-8.51 8.22-12.6-2.66 3.21-9.6 8.15-8.22 12.6m117.85-11.6c-1.53 7.05-11.41 3.86-13.69 8.69 9.43 2.56 19.89 4.72 29.05 0.63-0.98-7.51-7.45-10.07-15.36-9.32m56.7 10.02c-4.03 1.25-0.71 4.96-0.4 7.04 6.21 2.3 7.19-8.78 0.4-7.04m-195.54 28.65c7.38-7.59 21.79-16.4 20.99-27.07-7.17 7.53-14.68 17.85-20.99 27.07m195.35-8.69c-4.49 1.43-1.48 7.3-1.38 10.9 3.97 7.37 3.5-10.46 1.38-10.9m-223.71 3.04c-11.64 4.7-4.57 16.39 5.43 13.7-5.31 1.04-8.64 14.9-2.08 11.88-0.53-9.16 12.01-10.12 11.94-18.71-3.45-0.78-4.68 3.58-7.81 4.05 1.76-3.33 9.68-8 3.99-11.11-4 2.17-7.21 1-11.47 0.19m75.92 8.97c-4.62 5.77-11.09 14.07-15.94 12.3 9.09-12.19-6.86 4.57-8.24 5.67 2.32-12.87-10.83 6.43-13.58-3.68-4 1.77-7.64 7.98-12.43 9.93-1.37 7.07 5.08 1.69 8.83 3.27 8.34-2.27 17.42-4.7 23-11.36-2.28 10.49-13.49 16.58-18.04 25.54 1.58 5.69 9.51-5.1 7.13 1.97 6.52-2.86 11.38-10.61 14.9-16.72-3.61 1.03-4.33 6.26-8.02 6.75 6.13-9.51 22.84-24.57 22.39-33.67m-40.25 1.14c-11.17 6.71-28.03 10.06-32.98 23.32 14.77 6.81 27.19-15 32.98-23.32m-52.67 5.45c0.72 2.87-3.93 8.11 1.79 6.47 11.81-1.42-7.38 17.43 4.01 13.06 6.98-0.04 0.59-10.57 7.39-10.69-0.3-6.81-9.08-5.45-13.19-8.84m86.39 28.35c6.19-4.79 10.74-12.85 14.05-20.02-6.39 4.34-11.79 12.31-14.05 20.02m-18.84 11.98c4.31 10.95 14.94-8.54 18.84-11.98-8.25-7.06-13.83 6.12-18.84 11.98m42.58-10c-6.02 7.07-12.16 15.86-19.41 20.99 1.71 18.61 7.23 37.17 11.53 54.55-9 14.76 0.44 31.06-1.53 46.91 5.81 2.94 17.22-0.58 17.65-10.78-1.99-11.17 13.21-12.18 16.27-20.56-10.24 3.74-20.48 9.53-25.17 19.89 0.51 3.48-3.45 1.34-2.83-0.11 3.64-13.71 15.89-21.99 24.08-32.83 5.06-10.53 8.86-24.89 20.96-28.98 5.35-4.93-4.44-8.86-6.07-13.34-13.3-9.99-23.41-27.95-35.48-35.74m-148.09 22.33c-8.2 7.15-14.27 0.05-24.37 2.71 9.8 7.59 18.89 22.57 17.17 35.71-4.78-13.06-12.45-24.43-23.79-32.59-20.43 8.62-43.44 18.39-61.67 33.63-33.45 26.25-66.76 53.99-87.15 91.79-7.39 5.95-14.07 13.51-17.53 22.43 14.92-6.83 35.83-11.19 40.91-28.87 7.77-7.77 16.85-14.54 26.66-19.49 3.16-2.2 7.52 1.86 3.99 4.81-19.39 26.01-48 42.72-78.68 50.52-0.37 6.59-7.68 7.74-10.18 12.78 11.19 6.98 24.97-1.11 36.73 4.48 26.08 3.72 51 19.58 59.57 46.34 14.17-14.25 35.3-24.3 48-41.48 16.36-14.51 37.5-27.45 43.19-49.74 13.32-15.79 3.76-43.29 16.48-59.72 6.48 12.02-1.47 27.16-1.81 40.11 5.06-0.32 10.54-4.39 10.9-9.92 7.99-24.12-2.18-50.38-1.33-73.98 7.25 10.9 13.73 23.75 10.54 37.26-1.22 20.2 2.43 47.95-16.63 61.34-7.83 9.43-8.17 25.91-20.12 30.78-7.75 11.11-21.15 16.1-30.06 26.09-6.44 13.24-14.81 25.62-24.76 36.37-5.38 34.75-25.99 64.27-44.98 92.8-6.3 2.74-2.52 9.92-6.56 14.51 8.49 27.48 37.46 36.33 59.02 50.8 6.26 0.29 1.93-7.3 4.66-10.81-10.86-0.31-14.87-20.44-1.6-20.98 10.86 0.67 18.66-6.25 29.06-6.82 2.55-3.17 11.75-7.23 11.53-0.71-5.58 9.34-17.84 7.9-26.58 11.93-6.41-0.51-18.66 5.23-11.79 12.31 8.59-2.54 24.25 5.61 24.84-7.7 6.62 14.54-25.82 8.6-16.57 25.1 11.37 7.66 26.35 6.62 38.33 13.05-0.35 8.51-12.23-1.35-17.04-1.34-8.02-0.05-15.06-10.13-22.69-4.58 0.04 5.22 2.34 11.81 7.55 14-0.68 5.18-7.4-5.1-9.62 0-0.92 6.33 2.16 12.66 6.8 16.82 0.02 4.79-6.3 0.25-7.78 3.04-0.63 10.01 9.5 16.57 18.33 17.22 5.06-5.04 11.49 2.51 17.5 1.86 2.18 12.04-10.24 4.74-16.43 6.19-10.16-8.08-23.26-7.59-34.67-2.57-57.53 11.62-115.73 27.49-164.24 61.81-25.15 13.82-51.83 27.58-71.61 48.17 3.21 8.7 13.96 10.15 17.84 18.14 9.14 9.07 19.93-14.77 23.33-10.68 6.85-10.06 23.73-12.03 26.08-19.96 5.43 0.33 11.36-9.64 14.44-3.77 14.28-8.25 29.55-14.45 44.44-21.43 3.75-7.4 21.44-2.96 27.37-14.3 27.2-7.7 54.08-19.98 81.76-25.59 21.26 0.35 41.31-9.4 62.98-7.45 0.98-11.37-4.22-18.82-6.04-28.56 55.95-12.55 112.38-24.38 169.63-30.01 26.67-5.29 54.09-15.37 71.05-37.56-0.58-15.86-11.43-34.22-27.43-37.08-3.46-8.99-16.57-4.46-23.9-4.05-22.9 6.7-43.43 19.53-65.4 28.63-28.72 13.18-63.58 18.78-92.81 4.18-5.19 1.14-15.68 4.86-11.64 11.51-11.96-0.49-39.11 3.19-35.14-17.42 6.16 1.4-1.24-7.48 2.9-10.02 4.62-5.53 11.05-13.1 18.91-8.81 15.86-2.54 19.14 17 34.16 17.42-1.2 7.56 13.51 1.38 18.97 5.71 4.14-10.17 20.28-22.57 11.88-33.35-7.59-12.23 0.46-26.41 6.98-37.01 3.57-0.55 13.04-7.93 5-7.14-20.52 9.34-42.85 13.56-65.46 11.71-4.19-1.97-16.63 4.18-15.03-3.78 10.99-4.01 24.78-3.15 34.11-10.25-6.27-2.92-15.39-0.1-20.92-2.92 3.69-6.03 31.69-2.72 12.59-6.56 21.59-9.72-16.41-4.58-10.86-13.46 27.43 1.08 55.25 5.84 81.42-4.77 8.67-23.23 16.68-47.19 33.77-65.32 0.75-12.34 6.6-23.01 14.09-32.69 7.3-7.09 1.6-19.12 9.15-25.94-3.45-16.56-1.28-35.2-9.1-51.53-0.63-3.55-7.81-19.65 1.78-15.82-1.56-4.54 0.42-10.42-3.12-14.05-19.07 7.31-40.48 15.44-56.28 26.53 2.02-11.61 8.1-25.71 4.14-37.33-20.79-5.11-45.64-15.52-50.93-41.04-5.38 1.39-10.84-0.31-16.23 0.36m110.75 14.89c-11.46 5.28-27.48 11.56-26.17 26.7 1.35 4.56-7.13 11.62-0.58 14.4 13.58-1.23 25.13-17.8 39.53-13.71-0.98-10.85-2.89-25.22-12.78-27.39m91.37 22.13c-6.06 5.68-18.4 6.56-16.62 17.46 3.8 7.16-6.65 6.88-4.93 12.66 10.34 3.21 10.08-12.4 19.58-12.36 6.53 3.51 7.86 11.46 9.93 17.69 10.39-8.48 3.08-22.43 0.84-32.51 3.04-3.58-1.59-4.14-1.72-0.04-1.31-0.17-4.1-5.27-7.08-2.9m13.64 31.77c-0.21 11.16 5.16 28.49-5.4 38.62-8.94-3.15-5.35-15.75-10.72-22.28 2.7-13.45-21.71-12.74-23.36-1.87-6.81-2.47-3.84 9.95-10.55 9.73-12.7 4.86-12.15 21.38-22.04 29-0.18 10.24-12.18 14.05-10.26 24.73 3.53 16-18.01 22.03-16.99 37.79-0.35 18.04-20.51 25.36-23.65 42.25-3.52 4.07-3.33 6.46-6.01 1.99-8.16 5.65 4.89 3.76 2.08 10.2-7.03 12.76-8.3 28.49-17.24 39.84 8.66-1.61 15.57 1.53 23.56 3.57 0.64-6.55 9.82-4.09 14.79-4.49-1.63 9.65 7.59-0.96 11.75-2.81 22.68 1.59 40.14-15.18 58.57-25.67 8.31-15.99 7.32-33.2 10.1-50.78 7.46-17.66 19.04-31.73 27.51-48.7 8.45-6.21 2.9 11.56 10.32 6.44 14.67-15.15 19.55-39.39 20.52-58.08-14.42-5.2-20.93-22.91-32.98-29.48m-87.89 6.73c-1.95 3.48-4.27 9.67-0.5 12.13 2.19-3.34 1.55-9.02 0.5-12.13m125.4 29.28c-0.47 4.55 3.38 8.19 2.97 12.62-9.7-2.11-5.99 10.34-7.91 15.64-5.9 12.29-14.54 23.18-21.3 35.05-10.4 12.5-24.84 26.39-22.95 44.07-2.73 11.3-3.29 23-5.52 34.37-10.72 11.02-23.49 19.88-36.84 27.48 0.97 4.98 0.64 23.62 4.11 10.67 5.65-9.93 31.76-3.58 34.2-12.5 9.25-11.63 18.95-24.55 31.55-32.43-6.31 14.35-19.14 21.5-28.01 33.78 15.4 0.01 29.02 7.65 40.86 17.29 5.4 3.11 7.39-4.34 7.71-8.16-3.46-12.56-0.53-25.49 4.17-37.28-5.33 2.78-8.3 9.89-13.79 12.07 6.28-15.63 23.11-25.73 21.98-43.82 8.52-26.76 4.49-54.92 6.65-82.36-6.96-8.6-5.72-22.51-17.88-26.49m-487.33 62.18c-11.26 2.18-14.98 13.44-25.08 18.63 0.61 5.76-1.91 12.73 1.72 17.78 6.64 6.45 15.91-5.45 21.83 3.33-3.78 3.69-11.18 2.13-15.79 3.9-6.3 9.2-18.17 12.05-27.06 18-5.91 9.89-6.65 22.04-6.06 33.27 1.1 3.82 5.84 3.24 5.42-0.85 8.11-18.68 29.78-23.36 46.63-31.33 11.84 6.82 27.57 8.2 39.81 15.3 4.23 14.89 13.77 32.03 14.02 51.34 9.27-7.13 22.1-18.25 18.55-32.24 0.18-13.75-11.62-22.89-16.42-34.36 16.83 1.1 16.37 25.08 25.62 33.5 6.65-6.34 17.81-11.38 18.34-21.75-1.86-18.59-18.39-32.02-22.52-50.27-4.4-4.1-9.35 2.36-13.04 2.71-13.8-16.06-40.99 2.36-55.53-14.28-7.33-1.81-2.61-14.68-10.44-12.68m134.21 64.76c-17.31 8.17-18.4 27.2-28.17 42.44-12.33 2.8-18.38 14.48-28.8 20.13-5.29 10.85-19.49 26.27-31.62 16.55-17.15 21.74-27.12 48.43-45.08 69.73-13.93 16.85-25.69 35.4-40.38 51.62-9.72 5.98-13.18 18.08-20.2 26.79-21.52 20.23-12.83 55.04-31.44 77.15-5.71 0.03-5.21 11.28-5.27 14.11 29.18-25.2 68.19-39.61 99.05-63.14 2.18-58.15 35.97-109.64 70.63-154.14 16.48-20.76 37.94-38.4 46.51-64.43 8.19-9.54 20.19-23.49 14.77-36.81m-136.63 12.2c-25.78 11.99-46.98 32.26-55.73 59.97-23.81 38.66-30.72 84.2-49.18 125.05-1.82 4.58-0.4 16.69-7.95 14.72 0.86 9.18-9.43 13.77-10.59 22.43-5.9 10.58-20.68 11.49-27.54 21.57-4.74 5.81-16.14 7.96-14.53 17.17-1.76 10.93-14.94 17.54-14.1 29.07 6.85 1.46 2.22 14.11 10.29 14.9 6.37-0.49 4.47 14.65 10.35 8.79 3.49-5.62 6.8 3.17 10.73 2.86 0.04-3.97-4.51-5.91-4.93-9.79 3.26 1.29 4.26 6.27 8.09 6.77 2.75-9.78 9.54-17.85 11.71-27.91-7.1-2.9-14.06 1.11-14.61 9.1-3.62-5.92-3.56 13.24-8.19 5.97-4.86-3.28 0.2-11.87-6.57-7.65 2.88-12.44 18.04-21.52 30.81-18.98 11.7-8.16 23.75-19.69 23.1-35.3 13.05-1.1 4.68 15.72 2.52 21.45-3.66 10.02-16.78 8.66-21.61 17.5 6.73 5.49 19.74 0.53 23.83 9.99 2.4 2.32 4.77-2.22 6.22-3.9 7.39-15.01 11.14-31.62 13.81-48 32.31-57.43 79.04-104.85 113.53-160.63 4.68-9.68 7.3-20.42 14.11-28.96 3.81-9.54-1.39-19.74 0.21-29.23-11.91-10.59-27.77-18.34-43.78-16.96m305.31 19.03c-17.7 7.37-36.8 9.72-55.43 13.73 3.54 5.96 15.97-3.55 21.06 3.03-3.12 12.06-22.79 8.67-28.7 14.36 19.78 1.82 37.51-8.71 55.92-14.3 0.51-5.98 12.26-13.29 7.15-16.82m78.22 14.97c-13.43 1.85-28 7.69-29.8 23.27-12.65 13.07-17.18 31.63-14.59 49.04 10.66-0.51 19.8-8.11 29.3-12.45-3.16-7.92-1.34-16.34 5.89-22.81 9.77-6.98 5.13-23.52 15.39-29.58-1.14-3.68 0.66-10.78-6.19-7.47m52.14 7.91c-5.24 3.75-19.2 1.31-13.02 11.07 13.44-1.45 30.2 4.64 36.9 16.83-7.95-2.62-7.42-5.01-13.64-7.34-1.55-6.63-3.69 3.25-5.11-2.81-12.38-0.67-25.05 0.93-37.59 1.03-1.13-7.91 14.62-2.79 13.34-9.95 4.52-8.09-10.31 0-12.84 1.66-1.49 11.37-25.62 23.37-6.79 28.08 19.5-10.69 41.09 0.54 53.01 17.08 15.51 11.36 7.68 30.07 3.91 44.94-1.92 7.01-12.06 8.73-12.15 16.42 7.78 0.12 15.44-3.38 23.24-4.13 10.65-4.85 15.44-17.33 26.44-21.72 6.08-16.03 12.99-37.16 0.62-52.66-7.59-22.67-32.54-40.35-56.32-38.5m-106.31 2.04c-0.48 4-3.02 3.11-6.04 2.8-4.95 4.61-3.43 15.94-13.66 11.38-5.39 7.19-3.22-3.32-6.56-6.28-15.03 7.77-15.43 24.25-7.41 36.23 0.69 10.53-11.68 19.72-5.81 30.49-1.78 6.39-5.38-6.74-7.05-1.04-5.42 10.64 11.72 0.87 16.34 5.11 10.43-8.16 27.19-11.94 24.49-28.18 1.52-17.1 12.12-31.06 21.16-44.93-4.08-2.52-10.35-5.13-15.46-5.58m18.04 136.94c-3.67 1.52-10.19-0.55-11.43 3.88 1.96 2.6 15.25-2.74 11.43-3.88m-17.96 12.25c-28.16 0.85-56.53 3.82-84.3 6.72 2.11 7.05 3.51 15.2 3.23 23 18.49 6.64 38.16-0.04 57.29-0.2-4.59-6.91 6.38-4.18 2.44-0.9 29.29-3.25 60.11-0.33 89.66-3.12 4.36-1.96 15.04-9.44 6.84-11.09 2.35-10.97-11.4-14.37-19.95-14.71-18.47-0.65-36.84 0.21-55.21 0.3m-190.45 65.65c9.31 11.47 11.9 31.09 19.1 44.56-5.77-14.14-3.93-39-19.1-44.56m-9.46 2.26c-6.81-0.4-6.46 6.05-2.41 9.61-1.01-5.56 13.37-9.96 2.41-9.61m-13.31 3.9c-2.23 0.56-4.49 1.34-6.26 2.86 2.64 13.32 6.99 28.23 12.88 39.52 1.5-11.99-8.63-28.17-5.23-40.6 2.51 9.7 4.64 22.23 10.42 29.56-2.97-10.09-4.44-25.49-11.81-31.34m48.76 2c0.63 6.71 3.87 19.2 9.02 25.44-1.76-8.26-4.45-19.11-9.02-25.44m-59.84 1.04c-3.52 3.13-14.56 1.61-11.33 8.61 12.87 16.08 10.63 41.42 22.14 56.8-2.8-19-9.54-37.51-11.74-56.47 9.29 2.03 3.76-7.26 0.93-8.94m-19.04 8.91c-5.23 1.75-4.82 7.37-3.42 11.85 0.59 7.82 2.98 27.36 10.27 13.86 4.86 11.36 7 25.38 14.09 35.07-3.09-15.52-8.09-30.55-11.02-46.08-2.52-5.58-2.69-13.63-9.92-14.7m-20.34 7.82c4.1 11.65 10.11 23.15 13.45 34.64-0.13-10.5-6.52-25.25-13.45-34.64m-206.82 29.97c10.51 5.17 9.56-7.91 16.89-10.37 2.13-4.39 5.29-8.28 7-12.85-0.33-4.55-7.07 0-8.53-4.16-9.99 3.15-10.68 17.91-15.36 27.38m-48.97-23.87c-3.3 4.04 4.06 14.27 6.16 7.27 3.01 0.27 1.74 12.01 6.65 7 1.73-9.15-8.38-10.34-12.81-14.27m251.99 2.62c-5.03 19.72 5.59 44.22 14.7 59.79-0.92-18.42-6.08-41.53-14.7-59.79m-173.5 3.51c-4.38 7.58-8.9 15.38-9.31 24.36 14.02 5.14 25.44-28.98 9.31-24.36m-12.63 7.37c-1.33 3.82-3.48 9.31 0.02 12.5-0.22-3.55 6.48-11.69-0.02-12.5m171.25 7.55c3.87 27.95 16.32 55.64 27.88 80.48-0.84-23.92-16.26-45.41-21.58-69.06-1.98-3.17-0.76-12.81-6.3-11.42m-155.5 24.18c-9.83 10.57-18.23 22.7-30.52 30.66-22.31 18.28-34.51 45.37-53.04 67-9.41 18.06-23.1 33.78-29.68 53.27-10.8 21.78-25.04 42.71-30.51 66.48-10.2 22.27-21.49 44.09-33.97 65.03-28.26 64.92-66.52 126.03-115.91 177.13-14.34 20.76-34.52 37.54-57.54 47.67-1.07 6.88-0.77 16.32-8.72 19.17-17.75 4.88-33.9 13.77-49.15 23.95-2.22 5.64 3.72 11.13 1.88 17.03 2.61 7.93 12.06-3.24 17.55 0.64 54.88-22.17 103.65-62.79 141.24-104.84 1.16-10.87 15.27-11.33 18.86-21.87-10.3-0.44-0.9-6.2 3.52-6.02 9.53-12.47 19.11-25.74 24.15-40.84-8.05 2.7-3.31-5.15 2.02-5.03 10.57-5.97 2.72-16.52 14.77-20.31 5.62-14.17 15.66-26.95 23.56-40.27-8.3 1.86-1.3-5.26 3.37-5.8 9.51-14.77 16-31.13 24.51-46.45 1.37-3.72 7.08-10.77-0.75-9.94 8-3.83 12.77-12.62 15.64-21.2-3.1 1.14-5.87 3.05-9.09 3.9 2.34-7.97 14.19-6.96 15.04-15.87-3.05 1.2-5.99 2.65-9.01 3.91 0.15-9.3 12.52-7.06 14.23-14.52-4.48 1.08-0.34-5.1 2.46-4.13 6.9-15.92 15.27-31.31 22.68-46.91-4.81 4.39-9.19 9.68-15.34 12.54 8.72-10.15 18.39-20.05 25.03-31.93-2.98 1-6.94 6.6-9.78 4.41 9.31-7.45 18.1-16.22 22.89-27.24-17.71 13.34 0.06-11.33 8.3-13.69-2.02-2.81 2.46-14.01 6.7-9.48 15.54-29.22 37.43-54.24 56.66-80.93-4.59-7.26 6.44-9.19 10.26-10.03-9.44-2.59-12.18-16.21-22.31-15.49m292.53 24.84c0.48 5.69 3.91 10.78 5.18 16.37 1.74-2.68-2.06-14.86-5.18-16.37m-17.19 7.07c2.76 13.5 9.57 26.01 12.04 39.72 5.36-4.33-6.11-14.64-0.09-20.17-5.89-4.92-7.67-14.62-11.95-19.55m-18.18 16.74c3.91 22.85 13.8 44.56 15.31 67.76 11.75 36 24.96 71.51 36.33 107.63 1.82 3.2-5.1 4.68-5.56 1.47-19.17-54.88-39.3-109.39-57.04-164.53-7.32 6.53 5.91 18.48 4.04 27.33 4.42-2.54 11.56 28.7 3.12 17.3-5.19-8.84 3.1 9.98-3.97 6.27-2.17 8.87 10.84 16.88 4.12 24.36-7-18.87-9.37-41.59-17.92-58.43-1.67 12.17 9 24.48 7.2 37.16-3.11 2.52 5.79 18-1.55 10.59 11.69 29.45 23.84 58.3 29.99 89.14-1.74-0.12-2.81-1.33-3.16-2.94-13.89-35.94-33.93-69.43-43-107.14-6.92 0.65-1.75 12.65-0.52 16.71 9.66 19.79 14.72 42.11 24.99 61.12 1.85 13.97 10.87 26.45 8.84 40.95-16.26-27.77-23.16-62.87-37.2-91.61-1.25 16.99 12.34 34.91 16.11 52.59-4.34-0.19-7.41-3.9-11.04-5.77 7.99 20.11 19.6 38.52 29.68 57.59 2.68 4.51-3.17 9.08-5.06 3.83-11.07-22.2-22.35-40.09-32.85-63.37 2.14 20.6 15.3 39.94 24.07 59.03 0.65 2.11 1.22-1.96 2.15-0.55 6.17 14.64 10.5 30 15.45 45.04 8.72 10.76 5.13 25.61 4.7 38.27 6.75 22.56-7.38 47.61-5.33 70.01 0.99-18.31 9.82-33.43 13.4-51.1 4.74 8.16-1.77 19.24 1.73 27.19 3.21-12.59 7.06-26.22 15.42-35.95 6.92 0.83-2.7 16.04 2.52 20.02 4.14-10.17 2.44-26.41 15.03-29.88 2.15 10.17-1.31 22.34 2.21 31.66 0.47-11.75 0.08-23.87 2.58-35.39 14.16-2.27 3.92 19.58 9.38 24.37 1.24-4.96-0.91-13.09 2.76-15.74 5.4 11.93 7.39 28.65-1.7 39.17-8.9 2.71-21.44 5.09-24.99 14.64 3.48-4.88 17.85-4.46 12.52 3.62-4.33 3.78 4.92 1.58 4.3 5.56-3.57 20.45-11.85 42.53-13.17 61.8 9.39-28.98 17.5-58.4 29.8-86.32-4.29-12.39 8.21-9.54 13.49-15.42-3.88 17.54-6.95 35.12-10.18 52.75 5.14-8.94 5.46-22.19 9.65-32.31 8.45-3.93 3.24-21.34 10.06-24.01 4.81 12.46-4.99 34.11-0.78 45.44 4.18-13.66 3.92-29.54 10.27-43.01 8.37-0.23 4.53 14.81 11.11 11.29 3.12-25.06-1.97-50.57-7.15-75.16-1.54-0.08-1.17 5.48-2.75 1.49 2.07-22.01-12.95-43.38-9.41-64.62 2.48 10.86 3.81 24.58 7.17 33.78-0.1-41.14-16.55-80.27-20.14-121.07-3.06-16.05-11.2-30.66-13.72-46.89-5.89 8.81-3.57-23.62-8.16-23.96-0.27 29.08 12.41 55.99 16.59 84.52 5.77 10.87 8 33.18 11.04 47.5 3.65-6.57-0.13 8.84-0.5 9.29-2.81-11.37-3.32-23.13-5.89-34.54-1.22 1.47-2.33 3.03-3.54 4.5-4.65-14.17-6.09-32.37-12.63-44.03 7.36 38.56 14.55 77.37 18.12 116.5-1.97-6.31-2.71 5.64-5.9-1.11-7.34-47.93-14.77-96.02-24.08-143.52-4.8-6.18 1.5 7.76-3.88 6.97-6.7-8-6.08-22.2-12.2-28.83 9.18 36.61 21.67 72.78 27.55 110.31-1.5 13.18 1.12 26.24 4.98 38.86 1.93 3.07-5.57 4.78-2.63-1.23-5.68-21.08-5.53-43.27-13.12-63.87-8.15-19.99-6.9-43.84-21.4-60.79 0.67-1.09-2.68-12-3.51-6.44 3.25 10.18 6.27 20.48 9.28 30.76-4.91-2.81-0.68 10.66 0.72 7.42-0.48-1.66-1.96-8.6 0.31-4.36 7.31 20.98 13.53 42.3 18.74 64.09-10.7-0.77-3.41-24.43-12.03-22.65 4.06 15.62 10.54 33.42 9.36 48.59-20.27-49.97-27.08-104.23-45.82-154.35-0.73 6.28 6.25 21.58 5.89 28.21-10.86-10.14-10.55-31.63-18.6-43.56m57.9 41.18c3.52 9.22 3.18 21.2 7.19 28.89-3.57-8.25 3.03-24.73-7.19-28.89m19.21 106.81c2.82 14.2 2.72 31.04 7.24 43.8-2.51-14.35-2.47-31.02-7.24-43.8m-321.91 223.6c-77.96 7.13-154.76 20.56-231.14 39.14-27.25 26.24-54.32 53.86-80.74 80.1 28.43-9.37 54.79-28.37 86.02-26.71 12 1.68 6.34-9.57 15.81-11.28 45.12-21.01 93.74-33.13 141.88-44.92-41.38 15.09-88.88 23.73-129.66 44.33-0.44 4.6 6.01 1.59 8.83 1.4 18.43-5.5 37.58-8.16 55.92-13.94-1.24-0.38-3.73-1.13-4.97-1.5 20.33-6.41 42.28-4.31 62.73-10.38 29.64-4.65 59.95-14.09 89.34-15.72-25.29 6.53-53.23 9.51-78.72 17.1 20.7 1.94 45.84-4.95 67.5-9.86-0.42 5.75-15.38 1.94-16.38 6.34 12.38 2.56 24.19-4.7 35.51-8.73-1.17-0.18-3.5-0.53-4.67-0.7 41.3-8.79 83.36-20.04 122.77-33.33-45.58-11.51-93.15-10.15-140.03-11.34m-392.59 99.62c-9.05 4.73-20.6 9.72-27.21 16.57 10.8 2.22 20.49-12.15 32.44-10.43 3.86-2.33-2-7.98-5.23-6.14m-43.66 20.06c-6.33 6.24-16.52 5.48-22.57 10.8 9.75-1.39 18.63-7.35 28.78-5.57 3.74-2.86-3.01-8.17-6.21-5.23m-0.51 13.05c-5 2.17-17.24 2.13-11.2 9.52 2.93 12.28 29.18-5.04 11.2-9.52m-42.87 6.81c-3.45 16.5 11.7 35.39 17.46 51.9 2.29 11.48 14.59 3.35 21.99 3.86-1.77-3.38 0.29-12.78-5.89-10.01-7.01 4.52-17.88 1.2-17.71-8.29-1.47-10.83-13.93-18.07-10.78-30.03 2.45-3.84-0.78-9.15-5.07-7.43m52.52 45.77c-0.97 2.54-4.27-0.15-3.93-2.41-8.14-1.71-5.93 9.89-4.57 12.95-4.76 5.92-14.91 2.34-21.44 5.34 9.29 13.18 13.56 33.07 26.49 41.65 2.07 3.81 3.32 19.06 12.45 21.59-7.12 10.44 4.75 12.99 9.52 20.69 4.73 0.62 9.51-2.98 14.08-1.28 3.09 6.77-6.63 4-10.45 5.38 1.72 7.63 8.93 9.79 15.91 7.25 1.57 4.65-3.58 4.27-6.65 5.07-2.16 6.38 13.89 6.16 5.93 10.6 6.35 12.49 22.75-0.66 32.67 1.86 3.42 13.18-18.62-1.19-24.84 9.18 7.64 13.15 19.15 23.87 27.33 36.8 5.88-0.87 12.07-4.74 18.07-3.17 3.88 8.83-20.38-0.03-13.69 9.03 8.2 1.96 16.6-3.4 25.02-2.38 1.97 10.36-17.25 0.09-19.81 7.65 4.94 12.75 21.68-4.87 29 3.03-6.54 3.36-15.1 2.65-21.88 5.3 1.98 10.11 17.8-4.69 22.5-0.5-1.57 7.12-14.39 3.02-17.58 8.37 5.68 9.18 22.49-7.44 27.21 2.78-7.2-0.59-30.06 1.12-14.24 10.22 3.86 13.75 18.34 5.42 26.25 6.91 2.24 6.74-22.08 0.36-13.89 8.85 24.66 22.67 44.5 50.67 72.31 69.63 49.13 38.44 102.54 78.24 163.17 97.88 8.39 4.57 17.73 4.54 25.3 10.65 5.8 5.17 12.28-3.72 18.59 0.23-1.23 2.86-7.03-0.34-7.64 3.87 8.07 5.35 17.88 3.42 26.76 2.06 7.24 2.09-8.83 2.18-2.02 5.18 5.95 6.91 16.74-1.57 18.96 5.25 43.03 12.82 87.72 21.15 132.59 23.1 5.12-7.74 28.82-2.38 38.58-12.51-19.94-4.98-42.03 8.7-60.92 7.98 6.96-7.16 25.36-4.79 33.66-10.94-39.34-0.53-76.79-19.27-115.73-16.31-0.14-4.08 13.22-3.72 4.77-6.55-12.62-10.47-22.91 5.43-35.73 2.51 2.99-5.58 14.29-2.83 17.9-7.75-8.93-8.76-21.28-1.06-31.75 0.91-3.9-6.68 9.28-2.89 12.24-6.96-7.73-7.62-18.74-5.54-27.94-2.47-15.28-0.3 14.57-3.03 3.78-7.75-6.53-7.18-15.51 4.45-22.07-1.97 1.81-2.13 6.36-0.84 8.94-2.76-60.54-31.8-120.28-69.24-171.09-116.04-78.44-80.95-155.98-166.81-209.18-268.74-1.21-8.18-15.94-7.67-12.94 0.74m887.51 77.4c-6.15 3.8-8.96 11.46-12.52 17.54 5.13-3.9 11.51-13.78 12.52-17.54m-46.18 31.74c-2.23 4.98-7.18 10.96-5.55 15.59 2.84-3.98 9.46-10.34 5.55-15.59m-227.75 326.78c1.87 8.21-11.58 4.98-14.2 10.08-0.42 4.55 5.14 2.28 7.82 2.15 13.19-0.17 25.06-8.7 37.86-8.3-7.65-4.18-21.29-1.86-31.48-3.93m-18.17 9.44c-5.21 2.7-11.35 0.71-16.11 4.1 1.26 1.33 25.85-0.34 16.11-4.1z"/>
</svg>
