<?xml version="1.0" encoding="UTF-8"?>
<svg width="435" height="570.94" version="1.1" viewBox="0 0 435 570.9375" xmlns="http://www.w3.org/2000/svg">
 <path d="m252.19 566.58c-2.3203-0.78056-6.8195-2.4231-9.9982-3.6501-5.1738-1.9971-6.6133-2.1578-13.736-1.5333-7.8187 0.68553-8.007 0.65244-10.876-1.9109-1.6057-1.4347-3.556-2.6085-4.3341-2.6085-1.5524 0-3.2432-3.6062-3.2432-6.9168 0-1.159 1.107-4.401 2.4599-7.2046 3.683-7.6318 5.1822-18.02 4.5633-31.622-0.28842-6.3383-0.93195-13.673-1.4301-16.3-0.49812-2.6266-0.90567-6.3951-0.90567-8.3745 0-2.524-1.4001-6.2192-4.6875-12.372-2.5781-4.8251-4.6875-9.8444-4.6875-11.154s1.4766-6.8884 3.2812-12.398c3.2882-10.038 3.9641-14.386 2.4947-16.05-0.43262-0.48985-1.3414-3.3067-2.0196-6.2596-1.4886-6.4821-3.5402-8.8923-8.2058-9.6397-5.6749-0.90914-15.573-3.2592-28.542-6.7764-6.7206-1.8226-11.351-1.1098-15.686 2.4149l-3.3534 2.7263 0.3033 7.8532c0.1997 5.1709-0.22858 9.9346-1.2539 13.947-0.85644 3.3516-1.8924 8.2106-2.3022 10.798-0.80046 5.0538-5.3186 14.705-11.871 25.359-5.3321 8.6692-11.595 23.751-11.595 27.922 0 1.8148-0.43314 4.4388-0.96254 5.8312-1.7481 4.5978-1.6223 10.953 0.28116 14.2 0.97222 1.6588 1.5318 3.3977 1.2434 3.8642-0.79989 1.2942 6.945 3.901 11.59 3.901 4.3698 0 10.357 1.7049 11.505 3.2762 1 1.3684 0.87334 9.6418-0.15738 10.279-1.149 0.7101-7.909 2.1143-18.344 3.8103-10.494 1.7056-11.719 1.712-11.719 0.06084 0-1.9045-6.0723-2.633-12.188-1.4622-8.6486 1.6559-14.709 2.1051-19.237 1.426-6.7772-1.0163-3.8457-2.9417 5.4809-3.5999 4.2944-0.30307 9.6146-1.2739 11.823-2.1574 3.5002-1.4005 4.8006-1.4615 10.148-0.4763 3.3731 0.62151 7.4056 1.7882 8.9611 2.5926 3.1348 1.6211 7.4169 1.3235 15.169-1.0541 6.9373-2.1278 7.9215-2.931 5.6377-4.6009-1.6169-1.1823-2.19-1.1809-4.4954 0.0113-2.5626 1.3252-6.2985 0.99354-6.2985-0.55909 0-0.42074 0.94922-1.067 2.1094-1.4362 1.7741-0.56458 1.4389-0.80347-2.1094-1.5031-7.0134-1.3828-9.0014-2.6418-12.738-8.0672-3.1215-4.5323-3.5567-5.8137-3.399-10.009 0.39765-10.582 0.59178-11.323 6.052-23.093 1.3156-2.8359 4.084-8.8071 6.1521-13.269 2.068-4.4622 5.341-10.579 7.2732-13.594 4.8786-7.6108 7.8897-14.345 7.9005-17.669 5e-3 -1.5471 0.60814-5.6756 1.3402-9.1746 0.91221-4.3599 1.0597-7.3079 0.46875-9.3685-0.47426-1.6537-0.8623-4.557-0.8623-6.4518 0-6.9073-1.5916-8.0058-5.2684-3.6362-2.9086 3.4566-14.563 11.288-16.799 11.288-3.8603 0-11.467 11.523-13.614 20.625-1.4046 5.9528-3.7015 25.673-3.6976 31.745 7e-3 9.9606-6.621 25.76-16.768 39.973-1.8405 2.5781-3.8816 5.2444-4.536 5.9249-1.8115 1.8842-2.4061 5.3726-1.7085 10.025 0.50744 3.3839 0.35763 4.2067-0.76589 4.2067-5.3719 0-5.6317-8.7406-0.49194-16.552 4.013-6.0987 12.012-20.173 14.287-25.138 4.0187-8.771 4.7021-12.681 6.168-35.289 0.45503-7.0179 1.2587-13.557 1.7859-14.531 0.52722-0.97426 2.2006-4.5501 3.7186-7.9462 2.3854-5.3366 2.5678-6.2961 1.3441-7.068-1.2158-0.76693-1.2613-1.7809-0.32198-7.1751 0.60167-3.4551 1.3213-6.8745 1.5992-7.5987 0.34773-0.90617-0.75663-1.7356-3.5414-2.6599-5.4956-1.824-5.6206-4.0772-0.83273-15.011 2.0923-4.7781 4.9157-12.484 6.2741-17.125 2.4275-8.293 2.4674-8.8872 2.3298-34.688-0.077-14.438-0.41438-27.727-0.74971-29.531-1.0571-5.6888-0.7792-12.307 0.99676-23.74 0.94691-6.0959 1.5232-12.424 1.2806-14.062-0.32309-2.1821 0.09-3.5187 1.5442-4.9967 1.0919-1.1097 4.3056-5.2055 7.1415-9.1018 3.7554-5.1595 6.4298-7.7743 9.8438-9.6241 6.9929-3.7891 13.495-11.621 13.561-16.335 0.0183-1.3148 0.53947-2.8969 1.1582-3.5156 1.4886-1.4886 3.8397-1.4528 3.0776 0.0469-0.32752 0.64454 0.28039 0.17593 1.3509-1.0414 1.0705-1.2173 1.9464-2.7034 1.9464-3.3024s1.4982-1.896 3.3294-2.8822c1.8312-0.98614 4.8204-3.5771 6.6428-5.7577s4.4374-4.4429 5.8113-5.0274c1.3738-0.58448 3.288-2.1398 4.2536-3.4563 1.7406-2.3729 1.739-2.3847-0.17274-1.3616-2.7098 1.4502-4.6628 1.3931-3.1768-0.0929 0.61875-0.61875 1.1179-1.7789 1.1092-2.5781-8e-3 -0.816-0.87134-0.1172-1.9671 1.5938-1.0732 1.6758-2.3426 3.0469-2.8208 3.0469-1.5635 0 1.8161-5.2771 5.3883-8.4135 2.8977-2.5442 3.1056-2.9418 1.2198-2.3329-1.2502 0.40366-4.8666 0.66756-8.0364 0.58646l-5.7633-0.14747-2.9086 4.5326c-3.1733 4.9452-3.5643 6.227-1.6789 5.5035 2.087-0.80085 5.1718 2.4367 5.8416 6.1306 0.4235 2.3358 0.28778 3.5156-0.40444 3.5156-0.573 0-1.0422-0.31641-1.0427-0.70312-9.4e-4 -1.019-12.568-0.69375-19.687 0.50944-3.3516 0.56651-8.2825 1.4075-10.958 1.8689-2.6752 0.4614-8.3705 2.5578-12.656 4.6587-4.2858 2.1009-9.9016 4.2702-12.48 4.8207-4.9232 1.0512-20.396 0.81204-23.203-0.35864-1.8417-0.76796-2.2035-2.9522-0.57872-3.4937 1.3078-0.43594 0.45692-3.2267-1.9265-6.3186-1.3628-1.7679-2.0616-2.0565-3.0314-1.2518-1.3286 1.1024-1.2697 2.3968-2.184-48.013-0.1777-9.7969 0.04496-19.5 0.4948-21.562s1.0927-4.8931 1.4286-6.2901c0.40365-1.679-0.03685-3.9038-1.2994-6.5625-3.1651-6.6654-4.1556-11.981-4.0959-21.981 0.07438-12.462 1.2705-16.877 5.1238-18.915 1.6273-0.86049 4.6604-3.1693 6.7402-5.1306 6.4079-6.0429 13.918-11.903 15.255-11.903 1.3429 0 5.4472-4.0239 6.9327-6.7969 1.6832-3.1419-0.88224-1.6842-2.964 1.6843-1.1302 1.8287-2.5015 3.176-3.0473 2.9941-2.3948-0.79826-3.3124-6.9428-2.5007-16.745 0.44315-5.3516 0.82412-13.622 0.84659-18.378 0.04003-8.4702 0.09386-8.6752 2.6212-9.9821 1.4192-0.73389 3.383-2.2213 4.364-3.3053 0.98104-1.084 2.587-1.971 3.5687-1.971s1.5399-0.39658 1.2404-0.8813c-0.29956-0.48471-8e-3 -1.3255 0.6478-1.8683 7.1062-5.882 9.6667-7.6012 10.941-7.3457 0.8857 0.1776 1.9249-0.67042 2.5335-2.0674 1.1541-2.6492 8.2595-5.3115 11.463-4.2949 1.0146 0.32202 4.1028-0.2802 6.8627-1.3383s7.7068-2.137 10.993-2.3977c3.2863-0.26068 7.716-0.87596 9.8438-1.3673 2.1278-0.49132 5.4174-0.90362 7.3102-0.91622 1.8929-0.01261 7.01-0.87041 11.371-1.9062 4.3614-1.0358 9.3517-1.9201 11.09-1.965 9.7158-0.25116 33.284-0.81224 54.254-1.2916 13.148-0.30057 29.391-0.95352 36.094-1.451 6.7031-0.49749 16.28-0.90555 21.282-0.9068 5.002-0.00126 11.119-0.42489 13.594-0.94141s10.616-1.1065 18.093-1.311c7.4766-0.20454 15.07-0.85066 16.875-1.4358 2.208-0.71593 7.7276-0.86944 16.875-0.46932 8.4431 0.36932 14.513 0.23429 16.019-0.3564 1.6778-0.65778 3.8458-0.62343 7.0312 0.1114l4.6055 1.0624-8.62 0.57361c-4.741 0.31549-9.2013 1.0561-9.9118 1.6457-0.9467 0.78568-3.5099 0.82007-9.5944 0.12871-4.5664-0.51887-10.442-0.6646-13.057-0.32385-2.6149 0.34075-8.2346 0.67026-12.488 0.73225-4.2536 0.061982-7.734 0.35359-7.7344 0.64801s-2.8483 0.60283-6.3287 0.68534c-3.4805 0.082508-7.983 0.41834-10.006 0.7463-2.0226 0.32796-7.507 0.70735-12.188 0.84309-4.6805 0.13574-15.682 0.7299-24.448 1.3203-31.124 2.0965-32.344 2.131-32.344 0.91536 0-0.62673-0.22027-0.91924-0.48948-0.65002-1.118 1.118 2.249 11.789 4.4789 14.195 1.3017 1.4046 2.8689 3.9134 3.4826 5.5751 0.61368 1.6617 2.3052 5.7634 3.7589 9.115s3.7726 10.082 5.153 14.956 3.2476 9.9369 4.1493 11.25c1.9201 2.7962 2.8339 5.2159 6.0355 15.981 6.3861 21.473 7.5676 25.115 9.2777 28.594 1.0138 2.0625 2.186 5.0156 2.6049 6.5625 0.41893 1.5469 1.6626 5.1328 2.7636 7.9688s3.1949 9.8115 4.6531 15.501c1.4582 5.6898 3.5004 12.229 4.5382 14.531 1.0379 2.3024 2.798 7.5612 3.9114 11.686 3.0393 11.26 9.4832 26.678 13.616 32.579 1.1923 1.7022 1.4408 1.7785 1.4408 0.44219 0-0.88817 0.42187-1.6148 0.9375-1.6148 0.51562 0 0.9375 0.49219 0.9375 1.0938s0.2036 0.89015 0.45245 0.6413c0.61925-0.61926-1.637-6.733-2.7884-7.5554-2.155-1.5394 1.6646-2.6641 14.199-4.1812 11.584-1.402 13.552-1.433 15.988-0.25181 2.2669 1.0992 6.0576 1.2313 20.605 0.71777 9.8048-0.3461 19.683-1.1619 21.951-1.8129 2.2684-0.65099 5.5797-1.2116 7.3584-1.2457 2.9016-0.0557 3.3015-0.38779 3.8908-3.2302 0.36122-1.7424 1.0153-3.4299 1.4535-3.75 0.4382-0.32007 2.4779-2.6913 4.5327-5.2694s4.5164-5.5312 5.4702-6.5625c5.8886-6.3667 6.9741-15.097 6.6371-53.378-0.15428-17.529 0.099-31.512 0.58585-32.344 0.56868-0.97184 0.8987 1.377 0.97957 6.9719 0.0671 4.6406 0.48412 9.4922 0.92676 10.781 0.5146 1.4986 0.73443-1.8096 0.60964-9.1748-0.14479-8.5466-0.52487-11.722-1.4731-12.308-1.0789-0.6668-1.0789-0.88048 3e-5 -1.372 0.98964-0.45088 1.0136-0.70561 0.10608-1.1291-0.64454-0.30078-1.1783-1.4609-1.1862-2.5781-7e-3 -1.1172-0.37434-2.5993-0.8143-3.2935-0.58609-0.92481-1.0744-0.47489-1.8267 1.6831-0.8344 2.3936-0.76968 3.044 0.34555 3.4719 1.6231 0.62284 1.876 5.951 0.28248 5.951-3.2979 0-17.66-12.198-17.66-14.999 0-0.5382-1.0946-2.6327-2.4325-4.6543-1.3379-2.0217-2.1567-4.122-1.8197-4.6674 0.78127-1.2641-0.0563-1.2605-2.4314 0.01067-1.1264 0.60285-11.096 1.145-25.016 1.3604-12.729 0.19697-25.776 0.63834-28.993 0.98083s-12.076 0.74325-19.688 0.89058c-7.6111 0.14733-20.907 1.0243-29.547 1.9488-11.436 1.2237-15.99 1.4001-16.741 0.64836-0.75169-0.75169-0.51285-1.3106 0.87815-2.0551 2.4385-1.305 28.505-3.5438 50.322-4.3219 9.2812-0.33101 19.828-0.92903 23.438-1.3289 3.738-0.41415 9.3438-0.3251 13.024 0.2069 6.786 0.98082 37.803-0.56551 39.191-1.9539 0.38737-0.38737 0.89775-10.967 1.1342-23.509 0.23643-12.543 0.64128-23.016 0.89967-23.275 0.99249-0.99249 2.4695 0.87131 2.4695 3.1162 0 1.2925 0.52734 3.2715 1.1719 4.3978 0.82992 1.4502 1.1719 7.5057 1.1719 20.752 0 18.595 0.0122 18.707 2.1006 19.219 1.995 0.48896 2.0304 0.64973 0.70313 3.2001-1.8937 3.639-1.827 6.5777 0.0773 3.4085 1.4007-2.331 1.4051-2.3259 0.82052 0.9375-0.3233 1.8047-0.78496 4.1435-1.0259 5.1973-0.26582 1.1626 0.3039 2.5875 1.4489 3.6237 1.6083 1.4555 2.0789 1.5158 3.1863 0.40839 1.9306-1.9306 3.6632-5.4794 2.6753-5.4794-0.47363 0-1.1046 0.9308-1.4021 2.0684-1.1125 4.2542-1.54 0.83187-0.47334-3.7892 0.99065-4.2917 0.92575-5.019-0.59816-6.7029-1.6585-1.8326-1.6545-1.8888 0.13553-1.8888 2.3465 0 6.3859 4.1899 8.1345 8.4375 1.2847 3.1207 1.6352 9.7116 3.0913 58.125 0.16283 5.4141 0.74277 18.281 1.2888 28.594 0.69219 13.074 0.69588 20.328 0.0122 23.963-0.53926 2.8669-0.71133 6.5584-0.38237 8.2031 0.37086 1.8543 0.22138 2.9905-0.39341 2.9905-0.54534 0-1.2595 0.94922-1.5871 2.1094-0.32759 1.1602-2.101 5.569-3.9409 9.7975-4.6822 10.761-4.7934 10.803-29.847 11.344l-19.726 0.42598-0.1429 8.9143c-0.16472 10.277-0.10905 10.186-12.24 19.985l-6.835 5.5209-5.4713-0.42541c-4.1918-0.32593-6.3777 0.0125-9.3471 1.4472l-3.8758 1.8726 1.4876 2.8767c1.3436 2.5982 1.7984 2.8184 4.6977 2.2744 1.9919-0.37369 3.2101-0.23034 3.2101 0.37776 0 0.87635-1.2429 1.3475-2.957 1.121-1.0373-0.13709-2.9744 2.6777-2.304 3.348 0.34714 0.34716 1.8095-0.0649 3.2496-0.91558 2.8916-1.7082 6.1511-1.315 8.908 1.0744 4.149 3.596 6.9525 13.415 4.119 14.427-0.80771 0.28829-0.48887 1.1618 1.026 2.8109 2.6726 2.9094 2.2814 4.4899-2.4281 9.8082-3.0823 3.4808-4.0442 3.9945-7.7386 4.1329-6.062 0.22709-15.501 2.2611-17.726 3.82-1.0491 0.7348-6.0328 5.7046-11.075 11.044s-10.379 10.793-11.861 12.118c-1.4812 1.3256-4.4343 4.0248-6.5625 5.9982-5.1119 4.7403-14.145 10.006-17.165 10.006-2.3981 0-11.915-4.8805-13.028-6.681-0.35609-0.57617-1.2396-0.34569-2.2783 0.59438-1.5351 1.3892-1.9594 1.3996-4.4552 0.10898-1.5172-0.78456-3.4637-2.5027-4.3256-3.8182-1.1845-1.8078-2.366-2.3917-4.8394-2.3917-1.7998 0-4.0728 0.4999-5.0512 1.1109-2.0718 1.2938-8.406-0.20508-10.743-2.5422-0.75963-0.75963-2.0574-1.3812-2.8838-1.3812-2.3761 0-2.6745-2.32-1.0976-8.5335 0.98633-3.8866 1.1736-6.316 0.57318-7.4378-0.81926-1.5308-1.2471-1.559-5.2732-0.34731-2.4099 0.72528-5.7974 1.3187-7.5277 1.3187-2.5226 0-3.5013 0.58416-4.9388 2.9479-1.5528 2.5533-1.6137 3.127-0.45497 4.2857 0.73578 0.73577 1.3378 1.5364 1.3378 1.7791s0.5974 3.4821 1.3276 7.1987c0.73015 3.7165 1.5222 12.284 1.7601 19.039 0.40094 11.383 0.64876 12.735 3.3873 18.473 1.6251 3.4051 3.7433 9.269 4.7071 13.031 0.96382 3.762 2.7855 9.1725 4.0482 12.023s2.6055 6.8345 2.9841 8.8525c0.37857 2.0179 2.3861 7.2596 4.4613 11.648 3.0967 6.549 3.8224 9.1631 4.049 14.585 0.28189 6.7469 1.1853 10.701 3.353 14.678 0.67156 1.232 1.5111 4.3494 1.8657 6.9276 0.63164 4.5927 0.1633 8.0567-4.6264 34.219-2.9858 16.309-4.0862 51.22-1.8763 59.531 1.0548 3.9672 4.7464 7.8248 9.9808 10.43 1.6928 0.84247 4.3192 2.6914 5.8365 4.1088s4.7219 3.4998 7.1213 4.6277c3.6265 1.7046 5.3309 1.9496 10.101 1.4516 5.2296-0.54597 5.8486-0.41773 6.9818 1.4464 0.99624 1.6389 1.0166 2.593 0.10266 4.7995-1.44 3.4765-4.2761 3.269-3.9086-0.2859 0.21938-2.1221-0.0385-2.3626-2.1094-1.9668-1.2976 0.24806-2.3593 0.87291-2.3593 1.3886 0 0.51566-0.94922 0.69839-2.1094 0.40609-2.0664-0.52064-2.0712-0.50342-0.23438 0.84595 5.4194 3.9812 5.7684 4.5476 4.266 6.9225-0.68963 1.0902-1.6144 0.52898-4.6347-2.8125-2.0752-2.2959-3.7905-4.7017-3.8116-5.3463-0.0212-0.64453-0.56579-1.1798-1.2103-1.1896-1.4117-0.0214-6.0541-3.0124-17.94-11.558-6.5875-4.7366-9.1805-7.1948-9.8893-9.375-1.5964-4.9105 0.60189-52.266 3.0661-66.05 0.67879-3.797 0.85905-7.0708 0.40478-7.3516-0.45044-0.27838-0.64083-0.99484-0.42308-1.5921s-0.10907-1.7188-0.72628-2.4922c-0.61719-0.77344-1.6177-3.1456-2.2234-5.2715-0.92248-3.238-0.84776-4.4551 0.4605-7.5l1.5617-3.6348 1.2927 4.2188c0.711 2.3203 1.0559 5.4712 0.76644 7.002-0.37573 1.987-0.23764 2.4946 0.48274 1.7742 0.55497-0.55497 1.2487-3.3313 1.5416-6.1696 0.42537-4.1215 7e-3 -6.7439-2.0762-13.024-3.5574-10.723-3.5531-10.719-11.031-9.0138-6.2786 1.4322-9.8689 1.3038-13.548-0.48437-3.077-1.4955-3.4292-0.4649-1.6608 4.8592 0.86818 2.6138 1.4363 5.179 1.2625 5.7004-0.56755 1.7026-4.4614-1.8751-5.4229-4.9827-0.7921-2.56-0.83092-2.3803-0.26217 1.2139 0.36718 2.3203 0.66073 8.0146 0.65234 12.654-0.0141 7.7531-0.16417 8.4355-1.8567 8.4375-1.5453 2e-3 -1.954 0.8997-2.541 5.5832-0.67668 5.3981-0.54884 5.8896 3.9015 15 2.5306 5.1804 4.741 10.233 4.9119 11.227 0.58225 3.3871 2.1849 1.5152 2.4782-2.8946 0.24762-3.7227 0.0872-4.2256-1.0475-3.2839-1.0429 0.86549-1.5735 0.83054-2.3936-0.15769-1.2291-1.481-0.49517-2.5034 1.7971-2.5034 0.94306 0 1.8623-0.97694 2.2054-2.3438 1.372-5.4665 3.1481-0.89349 3.6411 9.375 0.23328 4.8592-0.9506 7.8182-4.5054 11.261-1.8162 1.7589-1.9226 2.7054-1.5806 14.062 0.41856 13.898-0.93165 28.275-3.0551 32.532-0.7961 1.5958-1.4475 3.4228-1.4475 4.0599s-0.7787 2.12-1.7304 3.2954c-1.9128 2.3622-1.6169 3.0235 3.6054 8.0576 3.4056 3.2828 5.8055 3.5561 11.738 1.3366 4.8782-1.8252 5.6217-1.8747 9.6642-0.64431 2.4087 0.73313 6.8156 2.4264 9.7932 3.7628 4.7777 2.1444 6.3174 2.3806 13.105 2.011 6.1616-0.33556 8.0211-0.11995 9.3519 1.0844 2.6263 2.3768 2.0447 2.8636-4.1983 3.5137-3.2226 0.33557-6.9141 0.77006-8.2031 0.96554s-4.2422-0.28321-6.5625-1.0638zm6.5625-1.734c0-0.25781-0.21094-0.46875-0.46875-0.46875s-0.46875 0.21094-0.46875 0.46875 0.21094 0.46875 0.46875 0.46875 0.46875-0.21094 0.46875-0.46875zm-10.625-2.9688c-0.34375-0.34375-0.625-0.0625-0.625 0.625s0.28125 0.96875 0.625 0.625 0.34375-0.90625 0-1.25zm-2.5-0.78125c0-0.25781-0.21094-0.46875-0.46875-0.46875s-0.46875 0.21094-0.46875 0.46875 0.21094 0.46875 0.46875 0.46875 0.46875-0.21094 0.46875-0.46875zm-11.562-2.9688c-0.34375-0.34375-0.90625-0.34375-1.25 0s-0.0625 0.625 0.625 0.625 0.96875-0.28125 0.625-0.625zm-136.56-47.656c0-0.25781-0.21094-0.46875-0.46875-0.46875s-0.46875 0.21094-0.46875 0.46875 0.21094 0.46875 0.46875 0.46875 0.46875-0.21094 0.46875-0.46875zm21.36-80.765c0.829-2.7011 0.7807-3.8056-0.22947-5.2478-1.2638-1.8043-1.2919-1.8034-2.2989 0.0783-1.2817 2.395-1.3147 5.4851-0.0666 6.2564 0.52403 0.32387 0.71008 0.98158 0.41342 1.4616-0.29666 0.47999-0.16338 0.87272 0.29616 0.87272 0.45955 0 1.308-1.5395 1.8855-3.4211zm19.89-10.173c3.2748-2.8359 6.7641-5.1562 7.7542-5.1562s2.9199-0.78165 4.2886-1.737c8.7097-6.0795 21.483-9.057 26.041-6.0704 1.1891 0.77916 4.8139 1.6535 8.055 1.9429 3.2411 0.28945 6.77 1.0958 7.8419 1.7919 1.072 0.69609 2.9704 1.2304 4.2188 1.1873 2.7237-0.094 9.5783 1.6365 13.661 3.449 1.6248 0.72124 3.8529 1.3114 4.9513 1.3114s2.2338 0.61675 2.523 1.3706c0.28926 0.75382 1.3307 1.626 2.3143 1.9382 0.98361 0.31218 1.7884 1.172 1.7884 1.9107 0 0.73868 0.63281 1.3431 1.4062 1.3431 0.77515 0 1.4062-0.83066 1.4062-1.8509 0-3.7308 9.6601-6.3507 12.188-3.3053 1.8361 2.2123 4.0681 1.7865 3.4298-0.65434-0.29638-1.1333-0.096-2.5943 0.44538-3.2465 0.70092-0.84455 0.55468-2.047-0.50798-4.1772-0.82073-1.6452-1.4922-3.48-1.4922-4.0774 0-0.59736-0.80161-2.7474-1.7814-4.7778-0.97975-2.0304-2.4946-6.012-3.3664-8.848-0.87174-2.8359-2.6411-7.6178-3.9319-10.626-2.6906-6.2711-3.9732-10.21-4.6301-14.217-0.25353-1.5469-1.9424-5.9764-3.7531-9.8434l-3.2921-7.0309 0.23739-13.29c0.15499-8.6772-0.12289-13.724-0.80057-14.541-0.83759-1.0092-2.4822-10.201-2.5687-14.357-0.038-1.8242-1.9651-2.112-8.1-1.2098l-6.2055 0.91258 1.6618 4.3735c2.1564 5.6751 2.6618 10.617 1.1398 11.143-0.72208 0.24982-1.1719-0.44808-1.1719-1.8182 0-1.223-0.85799-3.8949-1.9066-5.9375s-1.6866-4.6107-1.4176-5.7068c0.45459-1.8526 0.19851-1.9602-3.636-1.528-3.8651 0.43565-4.2204 0.28064-5.6377-2.4602-0.83196-1.6088-1.8996-2.9251-2.3726-2.9251-1.633 0-12.557-10.803-18.012-17.812-7.4403-9.5605-7.9609-10.046-11.469-10.704-1.6867-0.31643-4.715-1.8225-6.7294-3.3468s-4.3203-2.7833-5.1241-2.7976c-0.80379-0.0143-2.2804-0.64548-3.2812-1.4025-1.0009-0.75703-2.5144-1.3898-3.3633-1.4062-1.5433-0.0298-7.3627 5.8504-7.3627 7.4396 0 0.46293-0.73828 1.0917-1.6406 1.3972-2.7426 0.92861-4.8976 4.8118-6.9095 12.451-3.7291 14.159-4.4118 23.93-3.3078 47.341 0.50124 10.629-0.17502 23.878-1.855 36.342-0.43616 3.2359-0.30938 3.9741 0.54417 3.1686 1.6205-1.5292 10.144-21.51 11.749-27.544 0.75461-2.8359 2.6484-9.078 4.2084-13.871 1.6187-4.9735 2.8364-10.73 2.8364-13.409 0-4.8102 2.3979-17.077 3.8304-19.595 1.2528-2.202 0.99396 2.6506-0.92501 17.344-1.3546 10.372-2.7396 16.16-6.6025 27.595-2.6886 7.9586-6.1152 16.901-7.6148 19.871-3.5124 6.9581-11.948 32.817-13.16 40.34-1.1076 6.8779-1.5469 7.772-3.1601 6.4332-0.9296-0.77149-1.361-0.42603-1.8372 1.4713-0.34229 1.3638-0.38298 2.7189-0.0905 3.0115 1.3233 1.3232 7.5663 2.865 8.3654 2.0658 0.95955-0.95955 5.8637 2.101 7.9442 4.9577 0.7265 0.99755 2.0012 1.5715 2.9431 1.3252 0.91385-0.23898 2.2356-0.0708 2.9372 0.37374 1.9177 1.215 1.914 1.217 8.3069-4.3193zm90-12.188c0-0.25781 0.21094-0.46875 0.46875-0.46875s0.46875 0.21094 0.46875 0.46875-0.21094 0.46875-0.46875 0.46875-0.46875-0.21094-0.46875-0.46875zm-10.029-17.355c-1.1332-0.45634-2.7054-2.0771-3.4938-3.6018-0.78841-1.5246-2.0836-3.4222-2.8782-4.2168s-2.6533-4.1384-4.1305-7.4308c-1.4772-3.2923-3.9593-7.4365-5.5158-9.2092-1.7614-2.0061-3.5995-5.8713-4.8679-10.236-1.1208-3.8571-2.8035-8.4895-3.7394-10.294s-2.3782-6.3062-3.2052-10.003c-0.82705-3.6972-2.735-9.9198-4.24-13.828-1.505-3.9083-2.4098-7.106-2.0108-7.106 0.39902 0 0.5248-1.0498 0.27953-2.3328s-0.77177-2.1314-1.17-1.8853c-0.39825 0.24613-1.2454-0.18067-1.8826-0.94842-0.63718-0.76776-1.7397-1.3959-2.45-1.3959-1.5152 0-1.7479-3.3573-0.29489-4.2553 2.6999-1.6686 7.3187 5.9602 10.265 16.954 1.0715 3.9984 2.3026 7.9447 2.7359 8.7696 0.43325 0.82495 1.3286 4.0312 1.9898 7.1249 0.66113 3.0938 1.9122 7.3125 2.7801 9.375 0.86792 2.0625 2.5173 6.8344 3.6654 10.604s2.6622 7.0747 3.3649 7.3444c1.9157 0.73514 4.1196 4.5164 6.5704 11.273 1.5327 4.2256 3.4931 7.3547 6.4775 10.339 3.4796 3.4797 5.3463 6.1784 4.0452 5.8485-0.1289-0.0327-1.1615-0.43279-2.2947-0.88912zm-8.8953-69.863c-3.8885-8.4052-4.5272-10.855-2.9718-11.402 1.2937-0.45431 7.099 14.252 6.7025 16.979-0.18056 1.2418-1.4627-0.67503-3.7307-5.5774zm-67.834-32.959c0.68611-2.7336 4.2084-8.1537 4.8692-7.4928 0.22366 0.22366-0.21344 1.83-0.97133 3.5696-0.7579 1.7396-1.6065 3.9012-1.8858 4.8036-0.85548 2.7641-2.7219 1.9475-2.0122-0.88032zm90.508 134.24c0-0.25781-0.21094-0.46875-0.46875-0.46875s-0.46875 0.21094-0.46875 0.46875 0.21094 0.46875 0.46875 0.46875 0.46875-0.21094 0.46875-0.46875zm2.8125-2.8125c0-0.25781-0.21094-0.46875-0.46875-0.46875s-0.46875 0.21094-0.46875 0.46875 0.21094 0.46875 0.46875 0.46875 0.46875-0.21094 0.46875-0.46875zm6.25-14.219c-0.34375-0.34375-0.625-0.0625-0.625 0.625s0.28125 0.96875 0.625 0.625 0.34375-0.90625 0-1.25zm-9.3596-24.863c-0.29927-0.74787-0.52142-0.52573-0.5664 0.56641-0.0407 0.98827 0.18086 1.542 0.49239 1.2305 0.31152-0.31153 0.34482-1.1201 0.074-1.7969zm52.334-53.267c0.93613-1.0344 1.8975-1.6853 2.1364-1.4464 0.67795 0.67796 7.6009-3.0898 13.85-7.5375 9.9211-7.0617 24.067-22.442 29.237-31.788 0.64101-1.1588 1.8802-2.6884 2.7537-3.399 1.4153-1.1513 1.5067-1.0878 0.83976 0.58301-1.9386 4.8567-1.6228 5.0325 6.0224 3.3525 2.3203-0.5099 5.7702-0.94546 7.6663-0.96791 2.5787-0.0306 3.9373-0.66337 5.3906-2.511 2.1613-2.7477 2.5754-5.9596 0.77116-5.9817-2.7818-0.0341-3.6556-1.4653-2.4756-4.055 0.62476-1.3712 1.4901-2.4932 1.923-2.4932 0.43285 0 0.78701-0.84375 0.78701-1.875s-0.58361-1.875-1.2969-1.875c-1.5454 0-2.584-3.3709-1.8902-6.135 0.29478-1.1745-0.11202-2.4767-1.0053-3.2181-1.2826-1.0645-1.887-0.87485-4.1636 1.3063-1.4648 1.4033-4.5081 3.0904-6.763 3.749-2.8346 0.82797-4.4798 1.9705-5.3311 3.7025-0.67724 1.3778-2.3647 3.1976-3.75 4.044-5.3232 3.2528-10.118 6.2872-12.559 7.9479-1.3971 0.95059-3.2572 1.7283-4.1336 1.7283-0.87636 0-3.7411 1.5945-6.3661 3.5433s-5.9209 4.271-7.3243 5.1605c-1.4034 0.88943-4.687 3.5137-7.2969 5.8317s-5.2793 4.2145-5.932 4.2145-1.7206-1.4766-2.3731-3.2812-1.5811-3.2812-2.0633-3.2812c-1.6155 0-0.89847 4.3773 0.99818 6.0938 1.0312 0.93327 1.875 2.4503 1.875 3.3712 0 1.9854-2.0715 3.5393-2.6009 1.951-0.20231-0.60691-0.93778-1.1035-1.6344-1.1035-0.96573 0-1.2101-1.5586-1.0289-6.5625 0.17847-4.9286-0.0703-6.5625-0.9991-6.5625-0.68019 0-1.2367 0.76183-1.2367 1.693 0 2.5008-4.0099 13.934-4.4373 12.651-0.20123-0.6037 0.25641-2.9306 1.017-5.1708 0.76058-2.2402 1.6865-5.6915 2.0576-7.6695l0.67466-3.5963-7.8591 0.6445c-10.876 0.89188-11.14 1.0046-11.14 4.746 0 4.3363 1.5255 11.836 3.9816 19.574 2.1706 6.8388 5.5132 10.223 9.1558 9.2709 0.97866-0.25592 3.1041 0.55189 4.8494 1.8431 1.7089 1.2643 3.8453 2.5588 4.7477 2.8767 0.90235 0.31789 1.6406 1.0131 1.6406 1.5449 0 1.5304 1.4357 1.1312 3.2864-0.91383zm-5.8063-18.041c-1.5112-3.3702-0.40166-4.8446 1.6668-2.2149 0.9848 1.252 1.7905 2.7371 1.7905 3.3003 0 1.851-2.4914 1.0689-3.4573-1.0854zm-29.698 9.8294c0.58482-0.37882 1.7248-2.5872 2.5334-4.9075 0.80854-2.3203 1.4902-3.4805 1.5148-2.5781 0.0247 0.90235 0.51524 1.6406 1.0903 1.6406 0.73084 0 0.82999-1.6225 0.3294-5.3906-0.39387-2.9648-0.64883-6.523-0.56658-7.9071 0.29659-4.9908-1.3607-3.2601-4.5086 4.7082-1.7645 4.4664-3.7632 8.7868-4.4415 9.6009-1.4532 1.744-1.6372 4.6137-0.29578 4.6137 0.51562 0 0.9375-0.57355 0.9375-1.2746 0-1.8131 5.7779-12.788 6.7324-12.788 0.437 0-0.42214 2.4258-1.9092 5.3906-4.2921 8.5575-4.6823 11.008-1.4162 8.8919zm-3.8652-8.4232c0.9194-2.4492 3.0914-7.3008 4.8266-10.781 2.2509-4.5146 2.7816-6.3281 1.8518-6.3281-0.71678 0-1.8284 0.63281-2.4703 1.4062-0.7463 0.89923-0.80483 1.4062-0.16236 1.4062 0.5526 0-0.67815 2.9698-2.735 6.5996-4.3274 7.6366-5.6494 10.791-4.8553 11.585 1.2048 1.2048 1.9324 0.40671 3.5445-3.888zm11.396 3.8281c-0.34375-0.34375-0.90625-0.34375-1.25 0s-0.0625 0.625 0.625 0.625 0.96875-0.28125 0.625-0.625zm-16.283-2.8906c3.8725-7.3713 6.529-12.046 7.2986-12.844 1.4833-1.5373 0.94515-2.3906-1.5076-2.3906-2.548 0-4.752 3.7603-3.7438 6.3875 0.29056 0.75717-0.0443 2.2664-0.74404 3.354-1.3715 2.1314-3.5858 8.071-3.0088 8.071 0.19321 0 0.96079-1.1602 1.7057-2.5781zm2.596-9.6094c-2e-3 -0.77344 0.61599-2.2252 1.373-3.2261 1.7514-2.3155 1.7316-0.79262-0.0298 2.2886-0.77704 1.3593-1.3412 1.7531-1.3432 0.9375zm-34.314-0.0626c3.6586-1.9523 6.148-2.7123 7.6498-2.3354 1.2525 0.31434 2.2263 0.14087 2.2263-0.39661 0-0.52545 1.1862-0.95536 2.6359-0.95536 2.4513 0 12.529-2.2973 21.27-4.8489 2.0625-0.60203 4.2772-1.7361 4.9214-2.5202 0.98681-1.2009 0.70732-1.6208-1.7731-2.6637l-2.9446-1.2381 0.59136-5.6578c0.32524-3.1118 1.0713-6.5546 1.658-7.6507 0.58663-1.0961 1.4102-6.6368 1.8303-12.313l0.76367-10.32-2.7579-3.4822c-3.1429-3.9683-3.5498-6.4936-1.0463-6.4936 1.8688 0 4.874 2.9039 6.7411 6.5138 1.7886 3.4582 1.4124 11.039-0.88625 17.861-2.5969 7.7074-3.6131 18.142-1.9607 20.133 1.521 1.8327 3.7692 1.8465 3.7692 0.0231 0-0.77344 0.79209-1.4062 1.7602-1.4062s2.2196-0.55358 2.7812-1.2302c1.5556-1.8744 23.584-2.1847 23.584-0.3322 0 1.2604 4.4309 2.7691 5.7459 1.9564 0.33016-0.20406 0.88936-2.2987 1.2427-4.6548 0.35331-2.3561 1.6676-7.7091 2.9207-11.895s2.2783-8.4081 2.2783-9.3816c0-0.97342 0.99068-3.9577 2.2015-6.6317 3.0759-6.7928 3.0452-11.067-0.10698-14.904-1.3932-1.6958-2.8299-3.3028-3.1927-3.5711-1.325-0.97999-2.4513-5.2948-1.9994-7.6592 0.25669-1.3428-0.17327-3.4157-0.96242-4.64-0.78451-1.2171-1.7146-3.7904-2.0669-5.7184-0.91405-5.0024-8.0118-9.0305-17.281-9.8076-3.6254-0.30394-6.5917-0.86166-6.5917-1.2394 0-1.3406 2.5965-2.8154 4.0051-2.2748 0.78664 0.30186 1.7088 0.0982 2.0492-0.45258 0.38794-0.6277-0.4623-1.0014-2.2784-1.0014-1.6006 0-3.1198 0.57987-3.3944 1.2957-0.47917 1.2487-4.9214 2.413-11.489 3.0112-1.7265 0.15726-5.3124 0.70596-7.9688 1.2193-2.6563 0.51337-8.3065 1.2111-12.556 1.5504-4.6296 0.36974-9.1239 1.3297-11.214 2.3952-1.9182 0.97798-4.2869 1.7782-5.2636 1.7782-5.6906 0-20.297 5.1812-20.317 7.2067-7e-3 0.72893-1.062 0.9458-3.0576 0.62855-2.5333-0.40273-3.679 0.0812-6.7969 2.8707-2.0625 1.8453-4.0731 3.3554-4.4681 3.3558-0.39493 4e-4 -5.184 4.5101-10.642 10.022-8.5606 8.644-9.7179 10.172-8.4226 11.119 0.82592 0.60393 1.5017 1.6038 1.5017 2.2219s0.4057 0.87311 0.90156 0.56666c0.49585-0.30646 1.73 1.0397 2.7425 2.9915 1.777 3.4254 6.8709 8.7954 16.342 17.228 5.2662 4.6886 7.2135 8.2601 11.378 20.869 3.1233 9.4554 7.4717 16.111 9.5011 14.542 0.56217-0.43453 3.4627-2.0924 6.4456-3.6842zm4.8007-9.1883c1.1957-1.0406 8.9082-3.1661 9.4656-2.6087 0.25178 0.25178-0.31664 0.85514-1.2631 1.3408-2.2341 1.1464-9.3218 2.2419-8.2025 1.2679zm11.638-4.4253c0-1.8176 6.496-10.14 7.2927-9.3435 0.28627 0.28628-0.81561 2.1831-2.4486 4.2152-1.633 2.0321-2.9691 4.1164-2.9691 4.6318 0 0.51544-0.42188 1.1979-0.9375 1.5166-0.51563 0.31867-0.9375-0.14032-0.9375-1.02zm-20.625-0.37368c0-0.50871 1.3711-1.5097 3.0469-2.2243 11.898-5.074 15.903-7.5849 18.76-11.761 1.6214-2.3698 3.3917-4.7626 3.934-5.3172 0.54231-0.55463 2.4536-4.246 4.2472-8.2031 3.176-7.0069 4.6997-8.8272 4.6997-5.615 0 2.2138-6.2129 13.992-10.046 19.045-3.2588 4.296-9.9164 8.8239-18.809 12.792-5.6148 2.5055-5.8326 2.5534-5.8326 1.2833zm45-13.138c0-0.51563 0.84375-0.9375 1.875-0.9375s1.875 0.42187 1.875 0.9375c0 0.51562-0.84375 0.9375-1.875 0.9375s-1.875-0.42188-1.875-0.9375zm2.8125-14.531c0-0.25781 0.21094-0.46875 0.46875-0.46875s0.46875 0.21094 0.46875 0.46875-0.21094 0.46875-0.46875 0.46875-0.46875-0.21094-0.46875-0.46875zm2.8203-0.44407c-2.3115-1.4614 0.24709-3.1361 3.6495-2.3888 3.1641 0.69496 3.7581 1.8362 1.4222 2.7326-2.0486 0.7861-3.433 0.69227-5.0717-0.34377zm-32.82 39.819c0-0.25781-0.21094-0.46875-0.46875-0.46875s-0.46875 0.21094-0.46875 0.46875 0.21094 0.46875 0.46875 0.46875 0.46875-0.21094 0.46875-0.46875zm19.089-0.9375c0.29679-0.77344 0.13099-1.4062-0.36845-1.4062s-0.90808 0.63281-0.90808 1.4062 0.16581 1.4062 0.36845 1.4062c0.20265 0 0.61128-0.63281 0.90808-1.4062zm-57.527-1.875c0-0.25781-0.21094-0.46875-0.46875-0.46875s-0.46875 0.21094-0.46875 0.46875 0.21094 0.46875 0.46875 0.46875 0.46875-0.21094 0.46875-0.46875zm7.5 0c0-0.25781-0.21094-0.46875-0.46875-0.46875s-0.46875 0.21094-0.46875 0.46875 0.21094 0.46875 0.46875 0.46875 0.46875-0.21094 0.46875-0.46875zm-4.2188-3.2812c0.31868-0.51563 0.36847-0.9375 0.11065-0.9375-0.25781 0-0.72947 0.42187-1.0482 0.9375-0.31868 0.51562-0.36847 0.9375-0.11065 0.9375 0.25781 0 0.72947-0.42188 1.0482-0.9375zm-2.0162-2.9016c0.92495-1.0803 1.514-2.1319 1.309-2.3369-0.20502-0.20502-1.2871 0.67883-2.4047 1.9641-1.1175 1.2853-1.7066 2.3369-1.309 2.3369 0.39762 0 1.4797-0.88386 2.4047-1.9641zm-2.2355-1.7242c0.53376-0.99735 0.95359-2.3684 0.93294-3.0469-0.0206-0.67844-0.66693-0.0733-1.4362 1.3446-0.76927 1.418-1.5961 2.5781-1.8375 2.5781-1.2016 0-0.18667-3.8599 1.7752-6.7508 2.0721-3.0534 2.123-3.4372 0.79444-5.9902-2.0728-3.9831-5.8994-8.8215-6.9767-8.8215-0.51327 0-2.6024 1.793-4.6424 3.9844-3.8461 4.1315-3.9068 3.3096-0.12764-1.7291 1.1967-1.5956 2.1758-3.315 2.1758-3.821 0-1.2958-3.6739-4.5022-7.1992-6.2831-1.6392-0.82809-3.2497-2.354-3.5788-3.3909s-1.1721-1.8853-1.8734-1.8853c-0.70127 0-2.1316-1.089-3.1786-2.42-1.8573-2.3612-1.9673-2.3814-4.5212-0.83283-2.7096 1.643-6.4287 5.7872-7.3513 8.1917-0.33377 0.86978 0.18192 1.563 1.3995 1.8815 1.0604 0.27731 1.9313 1.071 1.9352 1.7638 4e-3 0.6928 1.7969 2.2609 3.9844 3.4846 6.2268 3.4835 13.376 8.2974 14.71 9.9045 1.896 2.2846 3.4435 1.7516 5.6187-1.9351 1.1031-1.8697 2.2337-3.1714 2.5123-2.8928 0.6175 0.61751-0.99533 3.7583-2.9164 5.6794-0.98027 0.98028-1.1716 2.0487-0.62928 3.5146 0.62414 1.6872 0.94688 1.8412 1.6223 0.77406 0.46374-0.73269 0.84962-1.5529 0.85752-1.8226 0.0278-0.95116 5.1497-6.9968 5.1442-6.072-3e-3 0.51562-1.2249 3.0088-2.7152 5.5403-2.6302 4.468-2.8776 7.1159-0.66484 7.1159 0.59424 0 1.6074 0.84375 2.2514 1.875 1.4741 2.3605 2.6941 2.3796 3.9346 0.0616zm-5.8693-3.4639c-0.322-0.32202 3e-3 -1.7229 0.72159-3.113 1.3906-2.6891 4.2629-5.5154 4.2139-4.1464-0.0548 1.5328-4.3478 7.8471-4.9355 7.2594zm-11.91-12.971c0-1.299 3.8648-7.0638 4.7357-7.0638 0.45803 0-0.23335 1.571-1.5364 3.4912-2.7937 4.1168-3.1993 4.5697-3.1993 3.5726zm-7.5-4.72c0-0.25781 0.21094-0.46875 0.46875-0.46875s0.46875 0.21094 0.46875 0.46875-0.21094 0.46875-0.46875 0.46875-0.46875-0.21094-0.46875-0.46875zm5.7191-1.1292c0.68264-1.1367 1.443-1.8649 1.6896-1.6183 0.24663 0.24664-0.31188 1.1767-1.2412 2.0667-1.6143 1.5462-1.6343 1.5262-0.44843-0.44844zm131.14 16.218c-0.0202-2.8533-0.0515-2.8335-1.875 1.1852-2.318 5.1083-2.3154 5.5273 0.0206 3.4132 1.1189-1.0126 1.8667-2.8669 1.8544-4.5984zm-35.917 3.5047c-0.34375-0.34375-0.90625-0.34375-1.25 0s-0.0625 0.625 0.625 0.625 0.96875-0.28125 0.625-0.625zm12.188-2.8125c-0.34375-0.34375-0.625-0.0625-0.625 0.625s0.28125 0.96875 0.625 0.625 0.34375-0.90625 0-1.25zm27.312 0.4375c0.61875-0.61875 1.125-2.3579 1.125-3.8648 0-2.2339-0.24084-2.5399-1.3043-1.6574-1.3268 1.1012-2.6062 6.6471-1.5334 6.6471 0.3232 0 1.0939-0.50625 1.7126-1.125zm-113.25-0.28125c0-0.25781-0.21094-0.46875-0.46875-0.46875s-0.46875 0.21094-0.46875 0.46875 0.21094 0.46875 0.46875 0.46875 0.46875-0.21094 0.46875-0.46875zm122.13-6.7176c0.26347-1.3783-0.0294-2.1887-0.79089-2.1887-1.6609 0-4.2942 2.7674-3.6402 3.8256 0.29297 0.47406 0.086 0.86192-0.46014 0.86192-0.54606 0-0.99283 0.65666-0.99283 1.4593 0 2.3473 5.3692-1.2644 5.8841-3.9581zm-3.0716-4.0864c4.8984-2.2726 10.375-5.0956 12.171-6.2734 3.7715-2.474 6.4069-2.7439 7.1777-0.73514 1.0061 2.6219 2.8098 1.4228 4.9358-3.2812 1.1652-2.5781 2.506-4.6875 2.9796-4.6875 1.1617 0 1.0918-3.4423-0.11574-5.6986-0.77091-1.4405-1.3509-1.6251-2.7509-0.87587-2.4738 1.324-2.5325 1.289-3.1674-1.8857-0.50961-2.548-0.83003-2.7712-3.1641-2.2045-1.4284 0.34686-4.1873 1.8756-6.131 3.3972s-4.1 2.5493-4.7918 2.2838c-0.74085-0.28429-1.5147-2.731-1.8827-5.9526-0.34366-3.0085-0.92954-5.9341-1.3019-6.5015-1.1332-1.7264-4.672-3.2143-6.2263-2.6178-1.9284 0.73999-3.1592-2.3383-1.3843-3.4621 0.71967-0.45569 2.3632-0.88393 3.6522-0.95164 1.667-0.0876 1.8588-0.24907 0.66415-0.55935-1.7169-0.44594-1.671-1.1463 0.44577-6.7971l0.85954-2.2946 1.8368 2.7634c2.3799 3.5805 3.8191 8.8771 4.316 15.883 0.21918 3.0908 0.79608 6.0173 1.282 6.5032 1.731 1.731 10.283-8.5251 10.283-12.332 0-2.5476-8.4884-24.649-11.041-28.747l-2.2695-3.644-1.7364 3.8783c-1.8993 4.2422-3.2157 4.9057-3.9747 2.0033-0.89054-3.4054-11.563-1.5435-12.331 2.1514-0.64203 3.085-1.1759 13.815-0.66176 13.301 0.66501-0.66501 3.7078 4.6734 5.7975 10.172 2.773 7.2957 2.4502 10.848-2.4414 26.876-2.02 6.6188-4.1538 15.817-4.1538 17.907 0 0.51682 0.94922-0.056 2.1094-1.2728 1.1602-1.2168 6.1172-4.0718 11.016-6.3444zm8.0357 1.841c0-1.1205-0.64244-1.8182-1.6741-1.8182-1.1433 0-1.6741 0.71524-1.6741 2.256 0 1.7042 0.40947 2.1489 1.6741 1.8182 0.92077-0.24079 1.6741-1.256 1.6741-2.256zm3.3817-1.4901c0.16574-0.59296-0.0856-1.2258-0.55846-1.4062-0.47288-0.18046-0.93083 0.63607-1.0177 1.8145-0.15271 2.073 0.96342 1.7838 1.5761-0.40829zm5.1451-3.7656c-0.34375-0.34375-0.90625-0.34375-1.25 0s-0.0625 0.625 0.625 0.625 0.96875-0.28125 0.625-0.625zm-175.47-5c0.32309-0.52278-0.3782-0.93115-1.5853-0.92315-1.7415 0.0115-1.8898 0.19201-0.75846 0.92315 1.7444 1.1273 1.647 1.1273 2.3438 0zm191.86-8.2031c-0.47639-0.90234-1.5916-4.3828-2.4782-7.7344-1.5483-5.8529-6.2776-19.272-9.9121-28.125-0.95258-2.3203-3.0197-7.3828-4.5935-11.25-3.1878-7.8329-4.3842-10.019-5.094-9.3096-0.26394 0.26393 0.81459 4.0486 2.3967 8.4104 1.5821 4.3618 4.3248 12.149 6.0949 17.305s4.2346 11.333 5.4767 13.726 3.1604 7.0337 4.263 10.312c1.8321 5.4484 3.32 8.3052 4.3256 8.3052 0.21281 0-3e-3 -0.73828-0.47923-1.6406zm-9.1427-12.337c-0.94123-1.5934-2.0662-2.897-2.4998-2.897s-0.13179 0.93762 0.67088 2.0836c0.80267 1.146 1.4594 2.9178 1.4594 3.9375 0 1.3582 0.27818 1.5757 1.0404 0.81345 0.76226-0.76226 0.58289-1.815-0.67089-3.9375zm10.443-4.4635c-0.27565-2.9406 0.0249-4.7172 0.9552-5.6476 0.74655-0.74655 1.3574-2.3819 1.3574-3.6342 0-3.9098 1.54-2.5066 3.6748 3.3482 2.1766 5.9695 2.5503 6.2983 5.0622 4.4531 1.2738-0.93563 1.4203-1.7388 0.72695-3.9844-0.47763-1.5469-1.3408-4.3603-1.9181-6.252-0.57731-1.8917-1.2538-5.0558-1.5032-7.0312-0.71619-5.6711-1.2492-6.6359-3.9641-7.1754-9.2242-1.8329-10.317-2.9744-3.4848-3.6416 1.5469-0.15108 2.6198-0.69657 2.3843-1.2122-0.48548-1.0629-6.263-3.2458-8.6472-3.2671-0.87949-7e-3 -1.7587-0.94592-1.9904-2.1235l-0.41494-2.1094-0.6971 2.1094c-1.0547 3.1915-2.369 2.5252-1.8492-0.9375l0.45734-3.0469-1.2628 3.2812c-0.79093 2.0553-1.9848 3.3884-3.1953 3.568-1.765 0.26188-1.8261 0.50572-0.70453 2.8125 2.0235 4.162 10.44 25.769 11.102 28.5 1.9736 8.1486 4.6151 9.4928 3.9119 1.9905zm-249.87 2.0352c0-0.25781-0.21094-0.46875-0.46875-0.46875s-0.46875 0.21094-0.46875 0.46875 0.21094 0.46875 0.46875 0.46875 0.46875-0.21094 0.46875-0.46875zm17.812 0c0-0.25781-0.21094-0.46875-0.46875-0.46875s-0.46875 0.21094-0.46875 0.46875 0.21094 0.46875 0.46875 0.46875 0.46875-0.21094 0.46875-0.46875zm0.6118-2.3707c2.5165-0.87726 2.8641-1.5338 3.8455-7.2631 0.68353-3.9904 0.75162-6.626 0.1858-7.1918-0.56583-0.56583-0.89312 0.35778-0.89312 2.5203 0 5.112-1.6469 5.1294-2.518 0.0266-0.95896-5.6175-1.0108-46.724-0.0602-47.674 1.7125-1.7122 2.1286 1.961 2.425 21.407 0.19796 12.989 0.63547 20.211 1.1738 19.376 0.47204-0.7316 0.9059-6.6036 0.96415-13.049 0.0582-6.4453 0.16282-16.62 0.23241-22.609 0.0937-8.0686-0.16233-10.781-0.98814-10.469-2.229 0.84423-3.2494-7.022-2.6848-20.697 1.4049-34.032 1.4098-40.911 0.0361-51.326-0.76603-5.8083-1.3928-10.693-1.3928-10.855 0-0.16169-0.60219-0.29398-1.3382-0.29398-1.9931 0-5.4077 4.7669-4.6552 6.4988 0.35127 0.80847 1.1815 4.0012 1.8448 7.0949l1.2062 5.625-0.16942-7.9688c-0.17354-8.1628 0.96168-11.108 2.3484-6.0938 1.8571 6.7156 0.62322 76.482-1.3979 79.037-1.0758 1.3601-0.98977 14.877 0.25764 40.49 0.65097 13.366 0.55402 16.988-0.52378 19.568-1.2959 3.1014-1.649 4.8114-0.99374 4.8114 0.18086 0 1.5738-0.434 3.0954-0.96444zm-14.33-0.70966c0.25039-0.40514-0.35753-0.73662-1.3509-0.73662s-1.8062 0.33148-1.8062 0.73662c0 0.40513 0.60791 0.7366 1.3509 0.7366 0.74301 0 1.5558-0.33147 1.8062-0.7366zm24.968-0.66965c0-0.25781-0.21094-0.46875-0.46875-0.46875s-0.46875 0.21094-0.46875 0.46875 0.21094 0.46875 0.46875 0.46875 0.46875-0.21094 0.46875-0.46875zm-16.875-0.9375c0-0.25781-0.21094-0.46875-0.46875-0.46875s-0.46875 0.21094-0.46875 0.46875 0.21094 0.46875 0.46875 0.46875 0.46875-0.21094 0.46875-0.46875zm262.72-0.60924c0.89219 0.0116 1.8663-0.37385 2.1647-0.85666 0.2984-0.48282 0.15142-0.87785-0.32661-0.87785-0.47804 0 0.50569-1.4578 2.186-3.2395 3.111-3.2986 6.0724-10.289 6.0724-14.333 0-1.8432-1.2338-5.2719-2.3912-6.645-0.14422-0.17109-3.7729 2.6397-8.0637 6.2463-7.669 6.4459-10.75 7.7703-7.8772 3.386 0.80146-1.2232 1.4572-2.7076 1.4572-3.2987 0-0.59111 1.6875-3.0903 3.75-5.5537s3.75-4.9478 3.75-5.5207c0-2.0437-1.7545-0.98924-3.764 2.2622-1.1231 1.8172-3.2043 3.905-4.6249 4.6397-2.345 1.2127-2.6407 1.9572-3.21 8.083-0.3449 3.711-0.4529 6.9215-0.24001 7.1344 0.70995 0.70994 15.446-10.473 16.622-12.614 1.2375-2.2527 2.717-2.8117 2.717-1.0267 0 1.4697-7.2672 8.2923-8.8327 8.2923-1.6104 0-8.9798 7.1231-8.9798 8.6797 0 0.64998 0.84375 1.7087 1.875 2.3527 1.0312 0.64403 1.875 1.8494 1.875 2.6786 0 1.1337 0.52316 1.3442 2.1094 0.84872 1.1602-0.36241 2.8394-0.6494 3.7316-0.63775zm-3.9659-3.5801c0-0.49944-0.73828-0.67264-1.6406-0.38489-0.90234 0.28775 0.25782-1.2164 2.5781-3.3426 6.309-5.7812 10.303-8.8115 10.868-8.2461 0.27764 0.27765-0.99535 1.649-2.8289 3.0475-1.8335 1.3985-3.0808 2.952-2.7717 3.4521 0.30912 0.50015-0.61767 2.1407-2.0595 3.6457-2.6805 2.7979-4.1458 3.444-4.1458 1.8282zm3.2812-2.8419c0.31867-0.51563 0.15753-0.9375-0.3581-0.9375-0.51562 0-1.1982 0.42187-1.5169 0.9375-0.31867 0.51562-0.15753 0.9375 0.3581 0.9375 0.51562 0 1.1982-0.42188 1.5169-0.9375zm-265.93-20.483c0.09792-12.711 0.41614-23.87 0.70715-24.797 0.29101-0.92708 0.05747-2.2539-0.51898-2.9485-2.3088-2.782-3.7788-21.846-3.7479-48.606 0.01686-14.609-0.24276-27.274-0.57693-28.145-0.9227-2.4045-2.6062-1.9262-1.8513 0.52605 1.1598 3.7677 1.8088 60.703 0.69192 60.703-1.1189 0-0.4434 6.366 0.85186 8.0279 0.42722 0.54815 1.0014 2.6575 1.2759 4.6875 0.63129 4.6683 0.67034 35.235 0.0616 48.222-0.45186 9.6401-0.42633 9.7982 1.2337 7.6424 1.5175-1.9707 1.7137-4.6228 1.8731-25.312zm21.377 18.185c2.0758-2.1374 3.1319-4.1252 3.1131-5.8594-0.0243-2.2358-0.17006-2.3816-0.98408-0.98398-0.52557 0.90235-1.4955 1.6406-2.1553 1.6406s-1.1965-0.73828-1.1925-1.6406c4e-3 -0.90234-0.12572-4.1719-0.2882-7.2656l-0.29542-5.625-0.68527 6.0634c-0.37691 3.3348-0.33427 7.2873 0.0948 8.7832 0.54167 1.8887 0.35318 3.5453-0.61677 5.421-1.8584 3.5937-0.81989 3.4096 3.0098-0.53364zm-0.60842-3.2274c0-0.46046 0.63281-1.08 1.4062-1.3768 0.8566-0.3287 1.4062-2e-3 1.4062 0.8372 0 0.75725-0.63281 1.3768-1.4062 1.3768s-1.4062-0.37674-1.4062-0.8372zm8.561 3.8182c2.0008-0.83346 8.5134-9.4142 8.0959-10.667-0.29421-0.88263-6.0494 4.2686-10.474 9.3747-1.8586 2.1449-0.90837 2.6611 2.3781 1.292zm10.409-3.3331c0.37883-0.57975 0.69523-1.4874 0.70313-2.017 0.0168-1.126 5.2208-7.0058 6.2006-7.0058 0.36678 0 0.0196 0.73828-0.7716 1.6406-0.79118 0.90235-2.133 3.0117-2.9819 4.6875-1.5304 3.0213-1.5244 3.0469 0.71443 3.0469 1.7983 0 2.7572-1.0208 4.7116-5.0153 1.3496-2.7584 2.4538-5.2897 2.4538-5.625 0-0.33532-1.4766-0.60968-3.2812-0.60968-3.8777 0-4.3068-1.5315-0.80245-2.8638 2.1292-0.80951 29.81-3.6803 35.618-3.6939 3.3696-7e-3 4.3136-8.4566 3.9433-35.295-0.17684-12.817 0.014-24.886 0.42408-26.82 0.70494-3.3238 0.61775-3.5156-1.5981-3.5156-3.3023 0-3.4766-1.8041-3.0803-31.875 0.26285-19.946 0.0472-26.794-0.95305-30.255-1.4478-5.0103-0.97118-6.6561 1.6836-5.8136 1.1436 0.36297 1.8074 0.12139 1.8273-0.66499 0.0184-0.72794 0.75373-0.36894 1.7909 0.87432 0.96783 1.1602 2.4304 2.1094 3.2501 2.1094 2.1707 0 1.8246 1.5689-0.47898 2.1713-1.0831 0.28324-1.6975 0.95476-1.3653 1.4923 0.33219 0.5375 0.60819 6.1557 0.61334 12.485 5e-3 6.3292 0.40696 14.25 0.89292 17.601 0.48597 3.3516 1.2665 13.898 1.7345 23.438s1.291 18.473 1.829 19.852 1.222 11.083 1.5202 21.562c0.49938 17.553 0.52019 21.484 0.15542 29.34l-0.12936 2.7862 7.3928-0.29606c4.066-0.16283 10.394-0.64862 14.062-1.0795 3.6683-0.4309 12.787-1.455 20.263-2.2759 7.4766-0.82082 18.023-2.3409 23.438-3.3779 5.4141-1.037 14.062-2.2697 19.219-2.7394s12.177-1.4639 15.601-2.2095 8.1704-1.1364 10.547-0.86858 4.3208 0.28063 4.3208 0.0284c0-0.25226-1.4289-3.5766-3.1754-7.3876-3.5901-7.834-7.5112-20.253-12.695-40.21-1.1385-4.3828-3.3481-11.344-4.9101-15.469s-4.7112-12.562-6.9983-18.75c-2.287-6.1875-4.9526-13.148-5.9234-15.469-0.97087-2.3203-2.6479-7.7715-3.7268-12.114-1.0788-4.3423-3.027-10.147-4.3291-12.9l-2.3676-5.0046-4.7532 0.47315c-2.6143 0.26023-12.985 0.69138-23.045 0.95811s-18.623 0.68966-19.028 0.93985c-0.4048 0.25018-4.2585 0.69912-8.5637 0.99765-7.3673 0.51084-10.737 0.76466-23.296 1.7548-2.8359 0.22358-7.0547 0.81873-9.375 1.3225-2.3203 0.50382-8.7539 1.2125-14.297 1.5748-5.543 0.36231-10.078 0.97912-10.078 1.3707s-1.3796 2.9779-3.0656 5.7474c-3.5306 5.7991-10.601 12.998-12.787 13.019-1.1129 0.01069-1.19 0.20567-0.30398 0.76808 0.85035 0.53975 0.13405 1.6003-2.5232 3.7356-2.0408 1.6401-4.2089 2.9819-4.8179 2.9819-0.74512 0-0.81026 0.38328-0.19918 1.1719 0.53961 0.69638 0.78393 8.5897 0.60213 19.453-0.16828 10.055 0.0895 22.711 0.57282 28.125 2.5159 28.183 3.6403 52.26 2.4939 53.404-1.2649 1.2622 0.10742 2.6927 4.5051 4.6961 3.6338 1.6554 5.21 3.361 5.21 5.6375 0 0.71875-4.4871 6.6779-8.0224 10.654-1.4767 1.661-1.4075 1.7066 1.5988 1.0541 1.7283-0.3751 3.4523-1.1563 3.8311-1.7361zm126-100.43c-0.3387-0.88265-1.7723-1.4062-3.8503-1.4062-2.4194 0-3.3107-0.40664-3.3107-1.5106 0-1.2163 0.6341-1.3916 3.2551-0.89992 2.1924 0.41129 4.2095 0.11713 6.1784-0.901 2.9705-1.5361 6.165-1.2278 5.1018 0.49238-0.32093 0.51926-1.4024 0.94412-2.4032 0.94412-1.316 0-1.8197 0.64875-1.8197 2.3438 0 2.574-2.265 3.2478-3.1515 0.9375zm7.1471-2.0536c0.87166-0.87164 1.8991-1.2706 2.2831-0.88651 0.38407 0.38405 0.0777 1.0908-0.6808 1.5705-2.2824 1.4434-3.2967 1.0105-1.6023-0.68394zm-19.328-7.9203c-1.5304-0.88941-1.6599-1.7488-1.0798-7.1661 0.75402-7.0409 1.2282-8.6413 2.5604-8.6413 0.61179 0 0.71585 2.4704 0.29375 6.9748l-0.65359 6.9748 3.356 0.62958c1.8458 0.34627 3.3559 1.0045 3.3559 1.4627 0 1.162-5.7248 0.99059-7.8327-0.23446zm12.239-3.7876c-2.5732-0.93835-3.0724-3.4748-0.53906-2.7392 0.70898 0.20586 2.4492 0.57015 3.8672 0.80953 1.418 0.23936 2.5781 1.0201 2.5781 1.7351 0 1.4968-2.1417 1.5674-5.9062 0.19457zm-70.969-7.2884c0-0.4915 2.0039-1.7833 4.4531-2.8706 3.536-1.5699 5.9977-1.9287 11.953-1.7423 4.125 0.12907 9.2497-0.0855 11.388-0.47676 4.1076-0.75158 5.4435 0.03384 4.4521 2.6175-0.45326 1.1812-2.0466 1.4908-7.6709 1.4908-3.9043 0-8.4646-0.49389-10.134-1.0975-2.5799-0.93291-3.833-0.79227-8.3531 0.9375-6.103 2.3355-6.0886 2.3328-6.0886 1.1414zm-104.53 112.69c0-35.632 0.48458-47.929 1.9463-49.391 1.2361-1.2361 1.2989-2.0189 0.384-4.791-0.70263-2.129-1.1515-12.158-1.2556-28.055-0.08916-13.608-0.4627-25.042-0.83009-25.41-0.36739-0.3674-1.2614-0.17553-1.9866 0.42638-1.3754 1.1415-1.3798 1.9634-0.12836 24.017 0.70946 12.502-0.46437 27.295-2.1388 26.953-1.7285-0.35317-1.3837 1.3965 0.87805 4.4556 1.9973 2.7015 2.0152 3.0643 1.3061 26.446-0.86361 28.474-0.85944 27.222-0.10406 31.248 1.1054 5.8921 1.9291 3.3725 1.9291-5.9004zm-2.3438-53.672c0-0.6875 0.28125-0.96875 0.625-0.625s0.34375 0.90625 0 1.25-0.625 0.0625-0.625-0.625zm69.782 60.234c0.29342-0.90234 2.0113-3.1966 3.8175-5.0982 3.9349-4.1429 3.0065-5.1894-3.1268-3.5249-4.9905 1.3544-7.4678 3.511-8.6107 7.4961-0.79258 2.7636-0.78773 2.7676 3.2964 2.7676 3.0671 0 4.2236-0.41034 4.6236-1.6406zm-4.507-0.46875c2.1756-3.6509 4.6149-6.3281 5.7657-6.3281 0.88471 0 0.52122 0.94131-1.1138 2.8844-1.3349 1.5864-2.4271 3.2739-2.4271 3.75s-0.65771 0.86557-1.4616 0.86557c-0.9167 0-1.2012-0.43688-0.76326-1.1719zm200.55-5.807c-0.36084-3.3695-1.0287-6.3567-1.4842-6.6382-0.47316-0.29242-0.44162-1.5284 0.0736-2.8834 1.3143-3.4569 1.1088-3.9-0.64642-1.394l-1.5481 2.2102-1.3378-2.5532c-0.73577-1.4043-1.5322-2.3588-1.7698-2.1212-0.41084 0.41085 0.42998 3.0165 3.6956 11.453 0.7984 2.0625 1.7099 4.9599 2.0255 6.4388 1.0169 4.7646 1.6678 1.8032 0.99157-4.5114zm-259.45-13.177c0.005451-5.5403-0.24943-7.6327-0.7423-6.0938-0.41283 1.2891-0.73063 7.6172-0.70622 14.062 0.03668 9.6845 0.16553 10.742 0.7423 6.0938 0.38385-3.0938 0.70165-9.4219 0.70622-14.062zm10.261 3.9844c-0.18937-2.707-0.34432-0.49218-0.34432 4.9219s0.15495 7.6289 0.34432 4.9219c0.18938-2.707 0.18938-7.1367 0-9.8438zm26.096 7.218c-2.2765-1.6876-2.6666-1.2925-1.8675 1.8913 0.58904 2.3469 0.74793 2.42 2.155 0.99083 1.4013-1.4233 1.379-1.6467-0.28748-2.8822zm58.561 0.55447 3.2458-2.7744-2.6398-0.0381c-3.8938-0.0562-6.1896 1.4595-5.6038 3.6996 0.65022 2.4864 1.156 2.3966 4.9978-0.88713zm8.8168-3.7007c0.28896-0.46754-0.31895-0.62927-1.3509-0.35941-2.189 0.57245-2.4658 1.2095-0.52537 1.2095 0.74301 0 1.5873-0.38253 1.8763-0.85007zm-13.852-1.6499c-0.34375-0.34375-0.90625-0.34375-1.25 0s-0.0625 0.625 0.625 0.625 0.96875-0.28125 0.625-0.625zm187.81-1.3606c0-0.51563-0.42188-0.67678-0.9375-0.3581-0.51563 0.31868-0.9375 1.0013-0.9375 1.5169 0 0.51563 0.42187 0.67678 0.9375 0.3581 0.51562-0.31868 0.9375-1.0013 0.9375-1.5169zm-153.12-1.4518c-0.34375-0.34375-0.625-0.0625-0.625 0.625s0.28125 0.96875 0.625 0.625 0.34375-0.90625 0-1.25zm140.47 0.625c0.31867-0.51563 0.36847-0.9375 0.11065-0.9375-0.25781 0-0.72948 0.42187-1.0482 0.9375-0.31867 0.51562-0.36847 0.9375-0.11065 0.9375 0.25781 0 0.72948-0.42188 1.0482-0.9375zm-127.5-1.875c0.31868-0.51563 0.13264-0.9375-0.41342-0.9375s-0.99283 0.42187-0.99283 0.9375c0 0.51562 0.18604 0.9375 0.41342 0.9375s0.67415-0.42188 0.99283-0.9375zm64.625-1.5366c0.99713-0.67379 2.7677-0.98545 3.9346-0.69258 2.269 0.56949 8.4091-1.0937 9.2881-2.5159 0.29178-0.4721-0.0398-0.63949-0.737-0.37198-0.69713 0.26752-5.5153 0.58697-10.707 0.7099-6.5654 0.15545-9.935 0.63481-11.067 1.5744-1.5015 1.2461-1.3838 1.4342 1.5176 2.4253 3.2875 1.123 4.753 0.9101 7.7708-1.1291zm82.432 1.0679c0.29679-0.77344 0.17613-1.4062-0.26816-1.4062-0.44427 0-1.0506 0.63281-1.3474 1.4062-0.29679 0.77344-0.17613 1.4062 0.26815 1.4062s1.0506-0.63281 1.3474-1.4062zm5.5949-1.626c0.51642-2.0492 0.48738-2.0599-0.82434-0.30417-1.5058 2.0154-1.8183 3.7306-0.53529 2.9376 0.45339-0.28021 1.0652-1.4653 1.3596-2.6335zm7.8599 0.56692c1.1124-2.3964 1.0968-2.4138-0.70313-0.78489-1.8681 1.6906-2.4173 3.2562-1.1376 3.2429 0.38672-4e-3 1.215-1.1101 1.8407-2.458zm5.8936 0.4797c0-0.51563-0.42188-0.67678-0.9375-0.3581-0.51563 0.31868-0.9375 1.0013-0.9375 1.5169 0 0.51563 0.42187 0.67678 0.9375 0.3581 0.51562-0.31868 0.9375-1.0013 0.9375-1.5169zm-161.25 0.5794c0-0.25781-0.21094-0.46875-0.46875-0.46875s-0.46875 0.21094-0.46875 0.46875 0.21094 0.46875 0.46875 0.46875 0.46875-0.21094 0.46875-0.46875zm166.82-2.9306c1.1031-1.8697 1.8257-3.5794 1.6058-3.7993-0.41521-0.41521-4.3638 5.5625-4.3638 6.6062 0 1.2958 0.84436 0.43643 2.758-2.8069zm-212.76 1.9932c0-0.25781-0.21094-0.46875-0.46875-0.46875s-0.46875 0.21094-0.46875 0.46875 0.21094 0.46875 0.46875 0.46875 0.46875-0.21094 0.46875-0.46875zm54.375 0c0-0.25781-0.21094-0.46875-0.46875-0.46875s-0.46875 0.21094-0.46875 0.46875 0.21094 0.46875 0.46875 0.46875 0.46875-0.21094 0.46875-0.46875zm61.875 0c0-0.25781-0.21094-0.46875-0.46875-0.46875s-0.46875 0.21094-0.46875 0.46875 0.21094 0.46875 0.46875 0.46875 0.46875-0.21094 0.46875-0.46875zm101.53-0.70313c0.26616-0.64453 1.1942-2.8594 2.0623-4.9219 0.91259-2.1682 1.0956-3.2842 0.43385-2.6456-1.6268 1.5698-4.7207 8.7394-3.7714 8.7394 0.43525 0 1.0091-0.52734 1.2753-1.1719zm6.7479-3.5156c3.0955-6.1086 1.6941-6.1015-1.5388 7e-3 -1.362 2.5738-2.1074 4.6796-1.6564 4.6796 0.45095 0 1.8888-2.1094 3.1953-4.6875zm5.1562 4.2188c0-0.25781-0.21094-0.46875-0.46875-0.46875s-0.46875 0.21094-0.46875 0.46875 0.21094 0.46875 0.46875 0.46875 0.46875-0.21094 0.46875-0.46875zm-67.56-4.6875c0-0.51563-0.6194-0.11858-1.3764 0.88231-0.75704 1.0009-1.3764 2.2417-1.3764 2.7573 0 0.51562 0.6194 0.11858 1.3764-0.88231 0.75703-1.0009 1.3764-2.2417 1.3764-2.7573zm67.067 1.4528c2.0272-3.9203 1.7624-4.7854-0.44468-1.4528-1.0244 1.5469-1.8654 3.1289-1.8688 3.5156-0.0127 1.4529 0.93023 0.61212 2.3135-2.0628zm-61.563-0.54012c-0.28865-0.28864-0.81286 0.23167-1.1649 1.1562-0.50876 1.3361-0.40108 1.4438 0.52481 0.52481 0.64071-0.63594 0.92876-1.3924 0.64011-1.6811zm16.119 1.8998c0-0.25781-0.21094-0.46875-0.46875-0.46875s-0.46875 0.21094-0.46875 0.46875 0.21094 0.46875 0.46875 0.46875 0.46875-0.21094 0.46875-0.46875zm-111.56-0.9375c0-0.25781-0.21094-0.46875-0.46875-0.46875s-0.46875 0.21094-0.46875 0.46875 0.21094 0.46875 0.46875 0.46875 0.46875-0.21094 0.46875-0.46875zm82.203-1.582c-0.29927-0.74787-0.52142-0.52573-0.5664 0.56641-0.0407 0.98827 0.18087 1.542 0.49239 1.2305 0.31152-0.31153 0.34482-1.1201 0.074-1.7969zm4.9846-0.40362c0-0.77344-0.42188-1.1455-0.9375-0.82685-0.51563 0.31868-0.9375 1.2122-0.9375 1.9856 0 0.77344 0.42187 1.1455 0.9375 0.82685 0.51562-0.31868 0.9375-1.2122 0.9375-1.9856zm-245.92-0.53388c-0.29927-0.74787-0.52142-0.52573-0.5664 0.56641-0.0407 0.98827 0.18086 1.542 0.49239 1.2305 0.31152-0.31153 0.34482-1.1201 0.074-1.7969zm180.3 1.1133c0-0.51563-0.44678-0.9375-0.99283-0.9375-0.54606 0-0.73209 0.42187-0.41342 0.9375 0.31867 0.51562 0.76545 0.9375 0.99283 0.9375s0.41342-0.42188 0.41342-0.9375zm105.62-1.5625c-0.34375-0.34375-0.625-0.0625-0.625 0.625s0.28125 0.96875 0.625 0.625 0.34375-0.90625 0-1.25zm-199.24-4.2969c0.35302-12.948-0.59677-25.078-1.9636-25.078-0.39992 0-0.3162 2.2148 0.18604 4.9219 0.50223 2.707 0.7063 9.457 0.45349 15-0.25282 5.543-0.0885 10.078 0.36511 10.078 0.45363 0 0.88516-2.2148 0.95896-4.9219zm152.21 3.9844c-0.31867-0.51563-1.5037-0.93104-2.6335-0.92315-1.6699 0.0117-1.791 0.18432-0.64779 0.92315 1.847 1.1936 4.0189 1.1936 3.2812 0zm-38.378-2.0355c-2.5454-0.36939-5.0766-0.37892-5.625-0.0212-1.1479 0.74878 7.8988 1.8812 9.3154 1.166 0.51562-0.26029-1.1451-0.77548-3.6904-1.1448zm74.472 1.5667c0-0.25781-0.21094-0.46875-0.46875-0.46875s-0.46875 0.21094-0.46875 0.46875 0.21094 0.46875 0.46875 0.46875 0.46875-0.21094 0.46875-0.46875zm-83.438-0.9375c0-0.25781-0.21094-0.46875-0.46875-0.46875s-0.46875 0.21094-0.46875 0.46875 0.21094 0.46875 0.46875 0.46875 0.46875-0.21094 0.46875-0.46875zm-191.55-2.5195c-0.29927-0.74787-0.52142-0.52573-0.5664 0.56641-0.0407 0.98827 0.18086 1.542 0.49239 1.2305 0.31152-0.31153 0.34482-1.1201 0.074-1.7969zm209.07-5.1611c-1.3022-3.51-4.3512-12.288-6.7754-19.507-2.4243-7.2188-4.7203-13.547-5.1024-14.062-0.38204-0.51563-1.5921-4.3125-2.6889-8.4375-1.0969-4.125-4.7389-15.305-8.0934-24.844-3.3545-9.5391-6.1026-17.78-6.1069-18.314-0.0166-2.0671-7.8425-25.502-9.8511-29.499-1.166-2.3203-3.2804-7.8047-4.6989-12.188-5.527-17.078-11.67-32.39-15.312-38.169-2.4933-3.956-4.6726-5.4619-3.4415-2.378 0.36022 0.90234 0.77247 2.6195 0.91611 3.8158s0.7378 2.6518 1.3204 3.2344c0.58257 0.58256 1.0643 1.924 1.0705 2.9811 7e-3 1.057 1.0568 3.7507 2.3346 5.9859 3.5286 6.1722 10.623 24.021 13.104 32.967 1.2154 4.3828 3.5684 11.555 5.2289 15.938 1.6605 4.3828 4.3829 11.837 6.0498 16.565 1.6668 4.7278 3.9286 10.451 5.026 12.718 1.0975 2.2671 1.9954 4.4368 1.9954 4.8215s1.0986 3.0218 2.4413 5.8601 2.6639 6.82 2.9359 8.8482 0.81479 3.6877 1.2061 3.6877 0.9568 1.582 1.2566 3.5156c0.97811 6.3081 1.2353 7.4284 1.9826 8.6377 0.40547 0.65607 1.0797 2.5142 1.4983 4.1292 0.88494 3.4141 4.5216 13.807 7.4247 21.218 3.4392 8.7796 3.8509 10.609 2.5705 11.422-0.82053 0.52115-0.68511 0.74089 0.46287 0.75106 0.99001 8e-3 1.8629 1.0196 2.2386 2.5925 0.33873 1.418 1.0397 3.1157 1.5577 3.7727 1.953 2.477 1.7375 0.10469-0.55055-6.0627zm23.725 4.8681c0-0.25781-0.21094-0.46875-0.46875-0.46875s-0.46875 0.21094-0.46875 0.46875 0.21094 0.46875 0.46875 0.46875 0.46875-0.21094 0.46875-0.46875zm88.125 0c0-0.25781-0.21094-0.46875-0.46875-0.46875s-0.46875 0.21094-0.46875 0.46875 0.21094 0.46875 0.46875 0.46875 0.46875-0.21094 0.46875-0.46875zm2.662-4.7316c1.1862-2.6034 1.4156-12.093 0.48051-19.878-0.61001-5.0786-2.2759-6.4715-3.9242-3.2812-1.0729 2.0766-2.3499 23.978-1.4505 24.877 1.4202 1.4202 3.8535 0.56599 4.8942-1.7181zm-3.8998-0.79249c-0.2755-0.71793-0.38996-1.8781-0.25435-2.5781 1.6744-8.6435 2.7774-12.956 3.2043-12.529 0.84925 0.84925 0.80894 12.994-0.049 14.772-0.95241 1.974-2.216 2.12-2.9009 0.33528zm-319.7-0.25715c-0.34375-0.34375-0.625-0.0625-0.625 0.625s0.28125 0.96875 0.625 0.625 0.34375-0.90625 0-1.25zm23.438 0c-0.34375-0.34375-0.625-0.0625-0.625 0.625s0.28125 0.96875 0.625 0.625 0.34375-0.90625 0-1.25zm288.12-3.125c0-1.5469-0.42858-2.8125-0.95239-2.8125-0.52382 0-0.85595 1.2656-0.73809 2.8125 0.11787 1.5469 0.54645 2.8125 0.9524 2.8125 0.40594 0 0.73808-1.2656 0.73808-2.8125zm-329.19-1.4541c0.29632-1.5292 0.13832-1.598-1.1719-0.51065-1.7918 1.4871-2.0149 3.2251-0.3425 2.6683 0.64453-0.21461 1.326-1.1856 1.5144-2.1577zm40.439 0.0478c0-0.25781-0.21094-0.46875-0.46875-0.46875s-0.46875 0.21094-0.46875 0.46875 0.21094 0.46875 0.46875 0.46875 0.46875-0.21094 0.46875-0.46875zm-21.217-9.8437c0.63764-2.1703 0.58762-2.2182-0.6762-0.64702-0.75063 0.93319-1.6069 1.305-1.9028 0.82627-0.83069-1.3441-0.67429-25.541 0.24961-38.617 0.62826-8.8913 0.50672-13.868-0.50375-20.625-1.5059-10.071-3.0608-15.938-4.2238-15.938-1.0178 0-0.99702 0.28733 0.24996 3.4546 0.68902 1.7501 1.0122 12.588 0.95939 32.17-0.07556 28.021 0.7198 39.564 2.8155 40.859 0.44606 0.27569 0.86383 2.2693 0.92838 4.4303l0.11733 3.929 0.64887-3.75c0.35687-2.0625 0.95872-4.8047 1.3374-6.0938zm20.919 6.3867c-0.29927-0.74787-0.52142-0.52573-0.5664 0.56641-0.0407 0.98827 0.18086 1.542 0.49239 1.2305 0.31152-0.31153 0.34482-1.1201 0.074-1.7969zm-2.5298-2.4024c-0.0112-2.009-0.21498-2.2677-0.92315-1.1719-1.1854 1.8342-1.1854 3.75 0 3.75 0.51563 0 0.93104-1.1602 0.92315-2.5781zm296.89-2.3438c-0.26007-0.64453-0.47287-0.11718-0.47287 1.1719s0.2128 1.8164 0.47287 1.1719c0.26007-0.64453 0.26007-1.6992 0-2.3438zm-295.27-5.625c-0.22345-1.1602-0.40628-0.21093-0.40628 2.1094s0.18283 3.2695 0.40628 2.1094c0.22346-1.1602 0.22346-3.0586 0-4.2188zm-8.8845-8.3148c-0.26916-4.7205 8e-3 -13.271 0.6163-19.001 1.7291-16.293 1.9128-31.118 0.49516-39.95-0.70355-4.3828-1.3952-9.4453-1.537-11.25-0.25445-3.2382-0.27425-3.2524-1.5106-1.0823-1.0593 1.8594-1.0075 3.5243 0.33547 10.781 1.3061 7.0575 1.4838 11.83 1.0005 26.864-0.32329 10.055-0.84227 20.265-1.1533 22.689-0.68244 5.3187 0.47145 20.627 1.5066 19.988 0.40499-0.2503 0.51612-4.3173 0.24697-9.0379zm71.973-9.2634c0-0.51563-0.42188-0.9375-0.9375-0.9375-0.51563 0-0.9375 0.42187-0.9375 0.9375 0 0.51562 0.42187 0.9375 0.9375 0.9375 0.51562 0 0.9375-0.42188 0.9375-0.9375zm-1.2666-19.453c-0.31423-2.9648-0.83732-13.55-1.1624-23.523-0.85001-26.075-2.1128-27.07-1.74-1.371 0.33996 23.439 1.0044 30.284 2.9392 30.284 0.29399 0 0.27741-2.4258-0.0369-5.3906zm241.27-0.70312c0-0.25781-0.21094-0.46875-0.46875-0.46875s-0.46875 0.21094-0.46875 0.46875 0.21094 0.46875 0.46875 0.46875 0.46875-0.21094 0.46875-0.46875zm-345.26-6.784c-0.21549-1.4251-0.39756-0.48164-0.40459 2.0965-7e-3 2.5781 0.16927 3.7441 0.3918 2.591s0.22829-3.2624 0.0128-4.6875zm24.06 4.8603c0.32015-0.8343 0.16299-1.2106-0.36844-0.88217-0.50972 0.31502-0.92677 0.96975-0.92677 1.4549 0 1.3485 0.67197 1.0514 1.2952-0.57277zm16.85-10.109c-0.77744-9.1971-2.8155-9.9415-2.3553-0.86019 0.27722 5.4707 1.5324 9.4769 2.6265 8.3828 0.18497-0.18497 0.0629-3.5702-0.27117-7.5226zm305.29 0.7824c0-0.25781-0.21094-0.46875-0.46875-0.46875s-0.46875 0.21094-0.46875 0.46875 0.21094 0.46875 0.46875 0.46875 0.46875-0.21094 0.46875-0.46875zm-1.25-5.7812c-0.34375-0.34375-0.625-0.0625-0.625 0.625s0.28125 0.96875 0.625 0.625 0.34375-0.90625 0-1.25zm0.0154-7.0508c-0.29927-0.74787-0.52142-0.52573-0.5664 0.56641-0.0407 0.98827 0.18087 1.542 0.49239 1.2305 0.31152-0.31153 0.34482-1.1201 0.074-1.7969zm-292.49-17.974c3.6098-1.8902 8.3676-7.0023 10.609-11.4 2.1928-4.301 2.2825-4.7762 0.64522-3.4174-0.67136 0.55718-2.0532 0.79533-3.0708 0.52923-1.0176-0.26611-4.753 0.31134-8.3008 1.2832-6.025 1.6505-6.461 1.9479-6.6084 4.5074-0.0868 1.5072-0.48591 6.3263-0.88688 10.709l-0.72902 7.9688 2.8549-4.4014c1.5702-2.4208 4.0391-5.0215 5.4864-5.7794zm-14.072 5.7863c-0.29927-0.74787-0.52142-0.52573-0.5664 0.56641-0.0407 0.98828 0.18086 1.542 0.49239 1.2305 0.31152-0.31153 0.34482-1.1201 0.074-1.7969zm-2.5154-10.706c0-0.71827-0.42187-1.3059-0.9375-1.3059-0.51562 0-0.9375 0.17643-0.9375 0.39208 0 0.21564-0.25791 1.0642-0.57313 1.8856-0.41949 1.0932-0.16816 1.3382 0.9375 0.91387 0.83085-0.31883 1.5106-1.1674 1.5106-1.8856zm4.3904 0.39327c-0.29927-0.74788-0.52142-0.52573-0.5664 0.56641-0.0407 0.98828 0.18086 1.542 0.49239 1.2305 0.31152-0.31152 0.34482-1.1201 0.074-1.7969zm-0.95292-3.2617c-0.34375-0.34375-0.625-0.0625-0.625 0.625s0.28125 0.96875 0.625 0.625 0.34375-0.90625 0-1.25zm301.25-1.7188c0-0.25781-0.21094-0.46875-0.46875-0.46875s-0.46875 0.21094-0.46875 0.46875 0.21094 0.46875 0.46875 0.46875 0.46875-0.21094 0.46875-0.46875zm-310.69-23.633c0.11875-8.3931-0.11044-15.462-0.50931-15.708-0.39886-0.24651-1.5095 1.0082-2.4682 2.7883-1.7004 3.1574-1.7001 3.2678 0.012 4.5197 1.5814 1.1563 1.6913 2.1269 1.1111 9.8121-0.35411 4.6909-1.2586 10.555-2.01 13.031-0.75139 2.4764-1.3667 5.5573-1.3674 6.8464-9.3e-4 2.0402 0.32361 1.8016 2.5073-1.8427 2.4147-4.0299 2.5166-4.7572 2.7245-19.447zm11.124 19.71c1.8222-0.86894 3.3131-1.9322 3.3131-2.3628s-1.6875 0.07798-3.75 1.1302c-2.0625 1.0522-3.75 2.1155-3.75 2.3628 0 0.7253 0.68197 0.54121 4.1869-1.1302zm59.563-0.76386c0-0.25781-0.21094-0.46875-0.46875-0.46875s-0.46875 0.21094-0.46875 0.46875 0.21094 0.46875 0.46875 0.46875 0.46875-0.21094 0.46875-0.46875zm-77.812-7.6562c0-6.4184-0.4788-6.2664-1.2307 0.39062-0.32564 2.883-0.18587 4.9219 0.33739 4.9219 0.49133 0 0.89333-2.3906 0.89333-5.3125zm67.031 2.9109c3.0938-0.29819 8.5781-1.1057 12.188-1.7945 3.6094-0.6888 11.836-1.5201 18.281-1.8473 6.4453-0.3272 12.848-0.81557 14.229-1.0853l2.51-0.49036 0.0721-11.706 0.0721-11.706-5.3946 0.28128-5.3945 0.28128 0.0506 11.016c0.0279 6.0586-0.25255 11.016-0.62313 11.016-1.0283 0-2.0789-13.623-1.4904-19.325l0.52117-5.0495h-4.505c-2.7786 0-4.9346 0.51767-5.6261 1.3508-0.69538 0.83788-1.184 5.2873-1.2867 11.717-0.091 5.7016-0.48199 10.367-0.86871 10.368-0.38671 7.64e-4 -0.76958-1.7916-0.8508-3.983-0.19301-5.2069-0.19463-5.1714 0.55512-12.172l0.64402-6.0138-4.6486 0.06968-4.6486 0.06968-0.56468 4.1152c-0.31057 2.2634-0.60785 7.5368-0.66063 11.719-0.0756 5.9889-0.25574 6.9261-0.84834 4.4137-0.4138-1.7544-0.62253-4.7075-0.46383-6.5625 0.15869-1.855 0.59701-9.8062 0.97403-17.67 0.73509-15.331 1.8404-19.273 1.8404-6.5634v7.7353h9.2082l-0.21215-7.2656c-0.13573-4.6484 0.14761-7.2656 0.78656-7.2656 0.61785 0 0.99872 2.6814 0.99872 7.0312v7.0312h5.9375c3.2656 0 6.2539 0.31641 6.6406 0.70312 1.0504 1.0504 9.8487 0.849 10.238-0.23438 0.18525-0.51562 0.42643-3.6701 0.53594-7.01 0.28157-8.5866 1.023-8.3304 1.023 0.35348v7.2498l2.5781-0.29665c1.8517-0.21306 2.6631-0.89493 2.8795-2.4199 0.16577-1.1678 0.69312-1.8812 1.1719-1.5853 0.50485 0.31201 0.87651-2.3402 0.88483-6.3142 0.01-4.7702 0.29049-6.4249 0.92315-5.446 0.49984 0.77344 0.91785 2.4609 0.92892 3.75 0.0111 1.2891 0.65035 3.5521 1.4206 5.029 0.77026 1.4769 1.4005 3.6616 1.4005 4.8549 0 2.621 2.5613 5.413 4.3396 4.7306 0.70695-0.27128 1.2854 0.07713 1.2854 0.77424 0 0.69712 0.94922 1.5492 2.1094 1.8934l2.1094 0.62596-2.176 0.88408c-2.084 0.84671-2.1633 1.2411-1.875 9.3293 0.22432 6.2925 2e-3 8.4446-0.87083 8.443-0.86136-0.0016-1.1719-2.5559-1.1719-9.6404v-9.6382l-2.8125-1.0616-2.8125-1.0616-0.0659 10.465c-0.0423 6.7201-0.35422 9.7944-0.87159 8.5904-0.44315-1.0312-0.83537-6.1992-0.8716-11.484-0.0504-7.3499-0.35982-9.6094-1.3159-9.6094-0.6875 0-1.5694 0.31641-1.9597 0.70312s-1.6208 0.70312-2.7344 0.70312c-1.8156 0-2.0964 0.67769-2.7192 6.5625-0.63491 5.9992-0.2853 15.27 0.60958 16.165 0.97133 0.97132 39.566-0.02107 40.589-1.0437 0.31826-0.31826-0.0673-1.3195-0.85687-2.225-0.78956-0.9055-2.382-4.5995-3.5387-8.2089s-2.6254-7.4062-3.2638-8.4375c-0.63841-1.0312-1.8252-4.502-2.6373-7.7127s-2.1-6.7279-2.8621-7.8159l-1.3855-1.9781-0.63827 2.011c-0.35105 1.106-0.35865 4.044-0.0169 6.5288 0.3747 2.7244 0.16166 6.0522-0.53666 8.383-1.2726 4.2477-3.238 5.3465-2.4811 1.3871 0.56203-2.9401-1.6864-30.203-2.5632-31.08-0.3335-0.33349-0.93755-0.07046-1.3423 0.5845-0.57102 0.92393-6.1808 1.1346-25.027 0.9399-24.644-0.2546-26.559-0.09461-48.197 4.0264-2.8359 0.54009-8.3203 1.3168-12.188 1.7261-4.3568 0.4611-9.0816 1.7045-12.422 3.2689l-5.3906 2.5248-0.17975 11.416c-0.21452 13.624 0.0416 24.028 0.72483 29.438l0.50006 3.9602 14.243-0.43684c7.8336-0.24026 16.774-0.68081 19.868-0.97899zm-21.53-2.989c-0.87907-2.2643 2.4257-33.984 3.5407-33.984 0.53958 0 0.64261 1.7848 0.25707 4.4531-1.2314 8.5226-2.3172 25.846-1.7864 28.5 0.58501 2.9251-0.96716 3.7208-2.0114 1.0311zm33.718-1.1719c0.31868-0.51562 0.76545-0.9375 0.99283-0.9375s0.41342 0.42188 0.41342 0.9375-0.44678 0.9375-0.99283 0.9375c-0.54606 0-0.7321-0.42188-0.41342-0.9375zm-22.303-1.5469c-1.1212-3.0834-1.2955-34.755-0.19735-35.861 0.62525-0.62971 0.78137 2.0861 0.46875 8.1539-0.25781 5.004-0.13834 12.262 0.2655 16.129 0.88768 8.5006 0.59999 14.705-0.5369 11.578zm-17.068-13.11c0.17323-6.6338 0.69577-13.069 1.1612-14.3 0.53999-1.4283 0.70022 2.6431 0.44273 11.25-0.22194 7.4187-0.74448 13.854-1.1612 14.3-0.41673 0.44633-0.61596-4.6162-0.44274-11.25zm29.292 9.6587c-1.5999-3.9076-0.31987-37.642 1.3882-36.586 0.52612 0.32516 0.61095 4.1387 0.21079 9.4761-0.49067 6.5446-0.38667 8.7571 0.38909 8.2776 1.2891-0.7967 1.4096 0.60551 0.15943 1.8556-0.49464 0.49463-1.022 4.9032-1.1719 9.7969-0.15678 5.1183-0.57119 8.1681-0.97566 7.1802zm33.984-29.634c0-1.0008 0.42187-2.0804 0.9375-2.3991 0.53171-0.32862 0.9375 0.45902 0.9375 1.8197 0 1.3195-0.42188 2.3991-0.9375 2.3991-0.51563 0-0.9375-0.81885-0.9375-1.8197zm-67.5-0.99283c0-0.51562 0.42187-0.9375 0.9375-0.9375 0.51562 0 0.9375 0.42188 0.9375 0.9375s-0.42188 0.9375-0.9375 0.9375c-0.51563 0-0.9375-0.42188-0.9375-0.9375zm-12.5 38.75c-0.34375-0.34375-0.625-0.0625-0.625 0.625s0.28125 0.96875 0.625 0.625 0.34375-0.90625 0-1.25zm-6.6007-8.0932c0.24297-2.6815 0.0589-9.5162-0.40913-15.188l-0.85091-10.312-0.14245 13.125c-0.0784 7.2188-0.37632 14.812-0.66216 16.875-0.42252 3.0488-0.31938 3.4346 0.55159 2.063 0.58921-0.92783 1.2701-3.881 1.5131-6.5625zm292.85 4.3888c0-0.77344-0.42188-1.1455-0.9375-0.82684-0.51563 0.31867-0.9375 1.2122-0.9375 1.9857 0 0.77344 0.42187 1.1455 0.9375 0.82684 0.51562-0.31867 0.9375-1.2122 0.9375-1.9857zm-2.3993-7.0956c-0.41908-1.3204-1.0881-1.6175-2.5982-1.1539-2.888 0.88664-2.9068 0.97338-0.72179 3.3188 1.0831 1.1626 1.996 2.5616 2.0287 3.1089s0.46357-0.01526 0.95755-1.2501c0.49397-1.2349 0.64414-3.0455 0.33371-4.0236zm-2.2882 1.1126c0-0.51562 0.42187-0.9375 0.9375-0.9375 0.51562 0 0.9375 0.42188 0.9375 0.9375s-0.42188 0.9375-0.9375 0.9375c-0.51563 0-0.9375-0.42188-0.9375-0.9375zm-280.62-0.625c-0.34375-0.34375-0.625-0.0625-0.625 0.625s0.28125 0.96875 0.625 0.625 0.34375-0.90625 0-1.25zm-23.978-7.562c-0.87936-1.5104-0.96714-1.4807-0.99313 0.3354-0.0157 1.0957 0.2879 3.416 0.67462 5.1562l0.70312 3.1641 0.29001-3.4995c0.15949-1.9247-0.14408-4.245-0.67462-5.1562zm22.416 6.7807c0-0.25781-0.21094-0.46875-0.46875-0.46875s-0.46875 0.21094-0.46875 0.46875 0.21094 0.46875 0.46875 0.46875 0.46875-0.21094 0.46875-0.46875zm-1.2288-5.8594c-0.23581-0.90234-0.42875-0.16406-0.42875 1.6406 0 1.8047 0.19294 2.543 0.42875 1.6406 0.2358-0.90234 0.2358-2.3789 0-3.2812zm-11.021-4.4062c-0.54393-0.55358-0.83879 0.68818-0.77915 3.2812l0.096 4.1719 0.77914-3.2812c0.45596-1.9202 0.41615-3.6507-0.096-4.1719zm11.992-5.4207c-0.20865-1.685-0.38367-0.53242-0.38893 2.5613-6e-3 3.0938 0.16545 4.4724 0.37937 3.0637 0.21391-1.4087 0.21821-3.94 0.01-5.625zm-22.554 5.2176c-0.34375-0.34375-0.625-0.0625-0.625 0.625s0.28125 0.96875 0.625 0.625 0.34375-0.90625 0-1.25zm26.562-10.156c0-0.25781-0.21094-0.46875-0.46875-0.46875s-0.46875 0.21094-0.46875 0.46875 0.21094 0.46875 0.46875 0.46875 0.46875-0.21094 0.46875-0.46875zm-0.3125-5.7812c-0.34375-0.34375-0.625-0.0625-0.625 0.625s0.28125 0.96875 0.625 0.625 0.34375-0.90625 0-1.25zm119.05-19.699c-0.26909-0.26909-0.95968-0.19851-1.5346 0.15684-0.75038 0.46376-0.70183 1.0606 0.172 2.1149 1.0968 1.3233 1.2488 1.3078 1.5346-0.15684 0.17449-0.89409 0.0971-1.8458-0.172-2.1149zm-4.6765 0.9485c-0.34375-0.34375-0.90625-0.34375-1.25 0s-0.0625 0.625 0.625 0.625 0.96875-0.28125 0.625-0.625zm135.55-6.5584c-0.64453-0.26007-1.6992-0.26007-2.3438 0-0.64453 0.26007-0.11718 0.47286 1.1719 0.47286s1.8164-0.21279 1.1719-0.47286zm-104.3 559.84c0-0.25781 0.21094-0.46875 0.46875-0.46875s0.46875 0.21094 0.46875 0.46875-0.21094 0.46875-0.46875 0.46875-0.46875-0.21094-0.46875-0.46875zm-254.53-14.531c0.31867-0.51563 1.0025-0.9375 1.5196-0.9375 1.0049 0 9.7674-3.7939 14.418-6.2426 4.9624-2.6128 17.709-7.8199 19.143-7.8199 2.329 0-0.02382 1.45-6.4872 3.9978-3.3516 1.3212-10.673 4.5481-16.269 7.1709-9.8797 4.6302-13.517 5.7609-12.325 3.8313zm24.375-15.765c1.4417-1.5012 9.3415-5.2563 19.688-9.3581 9.2601-3.6713 21.094-5.873 21.094-3.9245 0 0.50772-0.61715 0.92313-1.3714 0.92313-0.7543 0-3.0254 1.7213-5.0469 3.8251-2.5203 2.6229-4.9273 4.1064-7.6585 4.72-4.9576 1.1139-5.9261 0.40905-1.7689-1.2873 1.7173-0.70072 2.6969-1.537 2.1769-1.8583-0.51995-0.32135-2.8251 0.26004-5.1226 1.292-2.5754 1.1567-5.1872 1.6762-6.8109 1.3547-1.7426-0.34507-4.1215 0.22622-7.0312 1.6885-5.3725 2.6999-9.4952 4.0281-8.1476 2.6248zm21.094-7.2744c2.3203-1.2816 3.1641-2.0527 1.875-1.7136-3.3049 0.86947-9.1947 4.0458-7.5 4.0447 0.77344-5.2e-4 3.3047-1.0495 5.625-2.3311zm-6.5625 6.1649c1.836-1.1865 3.077-1.1865 2.3438 0-0.31867 0.51562-1.2928 0.93104-2.1647 0.92315-1.3662-0.0124-1.3909-0.13996-0.17905-0.92315zm-28.125-0.9161c0-0.4579 0.94922-1.1204 2.1094-1.4722s9.7031-4.3554 18.984-8.8968c15.628-7.647 29.945-12.852 32.626-11.862 0.61843 0.22851-0.14121 0.73507-1.6881 1.1257-1.5469 0.39064-3.4453 1.2355-4.2188 1.8775-4.1963 3.4832-9.5621 4.7788-6.3281 1.5279 0.93964-0.94456 0.8003-1.0172-0.70312-0.36685-3.3953 1.4689-12.057 5.5776-20.156 9.5609-11.841 5.8238-20.625 9.4461-20.625 8.5054zm-8.4375-5.5327c0-0.45307 1.3711-1.3663 3.0469-2.0294s8.9531-4.1249 16.172-7.6928c13.996-6.9176 27.805-12.629 32.66-13.508 2.7899-0.50516 2.6983-0.36307-1.5484 2.4013-2.4826 1.616-4.9223 2.6858-5.4215 2.3773-0.49922-0.30854-2.2941 0.25701-3.9885 1.2568-1.6945 0.99975-5.372 2.5709-8.1723 3.4914-2.8003 0.92055-11.167 4.5657-18.593 8.1004-7.4256 3.5347-13.648 6.4267-13.828 6.4267-0.17989 0-0.32706-0.3707-0.32706-0.82376zm59.062-0.58249c0-0.25781 0.21094-0.46875 0.46875-0.46875s0.46875 0.21094 0.46875 0.46875-0.21094 0.46875-0.46875 0.46875-0.46875-0.21094-0.46875-0.46875zm-70.85-2.2318c0.28062-0.45406 1.4657-1.0439 2.6335-1.3107 1.8918-0.43228 12.286-4.8949 25.475-10.938 7.5164-3.4437 37.067-16.028 44.148-18.801 3.6094-1.4133 7.4062-2.9143 8.4375-3.3355 1.6691-0.68171 1.7337-0.5921 0.58833 0.81595-0.70767 0.86998-1.6796 1.5818-2.1599 1.5818s-5.3857 2.1788-10.901 4.8417-15.09 6.6067-21.278 8.7639c-6.1875 2.1572-13.797 5.2128-16.911 6.7902-7.1677 3.6316-28.006 12.417-29.453 12.417-0.60004 0-0.86138-0.3715-0.58076-0.82556zm212.41-1.3783c0-0.69648 0.41426-2.4894 0.92059-3.9844 0.50631-1.4949 1.0563-6.9368 1.2223-12.093 0.2172-6.7495 0.75664-10.163 1.9262-12.188 1.3978-2.4201 1.5366-2.4904 0.99489-0.50338-0.34626 1.27-0.57584 6.1216-0.51017 10.781 0.08 5.6766-0.4196 10.248-1.5141 13.855-1.5187 5.0045-3.0397 7.0722-3.0397 4.1323zm10.813-10.218c0.35805-5.2852 1.074-10.031 1.5909-10.547 0.62812-0.62649 0.72865 0.54233 0.30303 3.5233-0.35028 2.4534-0.63689 7.1995-0.63689 10.547 0 3.5027-0.40496 6.0861-0.95404 6.0861-0.62734 0-0.73111-3.2906-0.30304-9.6094zm-48.732 6.8784c-0.29095-0.47075-2.2143-1.1406-4.2741-1.4886s-3.7451-1.0714-3.7451-1.6076c0-0.60992 1.3833-0.75371 3.695-0.38406 4.9454 0.7908 8.4925 2.2007 8.4925 3.3756 0 1.1904-3.4439 1.277-4.1683 0.10477zm-175.83-4.1273c2.3203-1.1396 7.3828-3.4845 11.25-5.2108 3.8672-1.7264 14.836-6.8672 24.375-11.424 9.5391-4.5569 20.297-9.3854 23.906-10.73s9.9375-3.7401 14.062-5.3233c8.6929-3.3364 13.253-4.3651 12.265-2.7669-0.36148 0.58489-1.5213 1.0634-2.5773 1.0634s-4.5116 1.2279-7.679 2.7286c-3.1675 1.5008-9.0302 3.8186-13.028 5.1508-3.9981 1.3322-12.225 4.8829-18.281 7.8904-6.0566 3.0075-12.489 6.0269-14.293 6.7097-1.8047 0.6828-5.9474 2.4433-9.206 3.9122s-6.0813 2.6707-6.2727 2.6707c-0.19135 0-3.933 1.6875-8.3149 3.75s-8.5201 3.7278-9.1961 3.7006c-0.67601-0.0272 0.66933-0.98178 2.9896-2.1214zm-6.0938-5.9885c0.51562-0.51438 7.6875-4.1225 15.938-8.0181 8.25-3.8956 23.648-11.185 34.219-16.199 27.143-12.874 47.556-20.841 36.094-14.087-3.0938 1.823-6.369 3.3199-7.2783 3.3264-0.90934 7e-3 -2.3859 0.4076-3.2812 0.89143-3.7044 2.0018-25.815 12.307-35.847 16.708-5.9297 2.6011-16.898 7.5454-24.375 10.987-15.852 7.2977-16.749 7.6684-15.469 6.3908zm173.67 7e-3c-2.7016-0.6967-1.8545-2.1607 1.25-2.1607 1.8147 0 2.7525 0.41437 2.5195 1.1133-0.44015 1.3205-1.5323 1.6238-3.7695 1.0471zm-29.766-0.95422c0-0.49949 2.3257-1.4286 5.1683-2.0648s8.2214-2.2183 11.953-3.516c3.7317-1.2976 8.8942-2.6912 11.472-3.0968 2.5781-0.40561 8.6953-1.8635 13.594-3.2397 10.82-3.04 15.313-3.7927 17.533-2.9374 1.621 0.62448 1.6208 0.68543-5e-3 1.5978-1.1555 0.64863-2.072 0.63127-2.8988-0.0549-0.66498-0.55188-1.4215-0.79101-1.6811-0.5314-1.1052 1.1055-23.935 7.0117-27.103 7.0117-1.9089 0-7.2607 1.4637-11.893 3.2527-9.0635 3.5004-16.141 5.0696-16.141 3.5788zm-69.062-5.581c0.34375-0.34375 0.90625-0.34375 1.25 0s0.0625 0.625-0.625 0.625-0.96875-0.28125-0.625-0.625zm204.6-2.0732c-0.70821-1.1459-0.34673-1.3497 6.0231-3.3961 2.8359-0.91108 9.6045-3.6751 15.041-6.1422 5.4367-2.4671 13.452-5.6314 17.812-7.0318 4.3602-1.4004 9.8673-3.5187 12.238-4.7075 2.3708-1.1888 10.779-4.3254 18.684-6.9704 7.9054-2.645 18.947-6.8983 24.537-9.452 9.9422-4.542 19.619-7.0692 18.185-4.7494-0.36881 0.59676-1.3188 1.085-2.1112 1.085s-2.5604 0.59469-3.929 1.3215c-5.1769 2.7493-34.159 13.306-38.599 14.06-1.8141 0.30791-4.964 1.4526-6.9998 2.5437-4.4753 2.3986-24.254 10.2-25.86 10.2-1.2135 0-28.837 11.305-33.834 13.848-0.33947 0.17267-0.8737-0.10105-1.1872-0.60827zm-122.41-1.9044c0.77344-0.43757 2.4609-1.1012 3.75-1.4747 2.2763-0.65956 2.2898-0.6367 0.46875 0.79428-1.0312 0.81037-2.7188 1.474-3.75 1.4747-1.5066 9.4e-4 -1.5987-0.15503-0.46875-0.79429zm74.062-1.8224c0-1.4712-0.21107-5.3736-0.46904-8.6719-0.6154-7.8683 0.87641-3.5964 1.7526 5.0187 0.41959 4.1255 0.30822 6.3281-0.31999 6.3281-0.52999 0-0.96361-1.2037-0.96361-2.675zm-231.98 0.8467c0.48993-0.48993 6.797-3.3794 14.016-6.4211 7.2187-3.0417 15.234-6.6276 17.812-7.9687 4.3583-2.2671 12.605-5.9173 26.25-11.618 3.0938-1.2926 6.0469-2.6826 6.5625-3.0887 1.2388-0.97576 12.427-5.3601 15.703-6.1536 5.7342-1.3889 1.9964 1.202-6.5762 4.5586-9.2526 3.6227-15.213 6.2526-37.407 16.506-6.7886 3.1361-12.604 5.702-12.923 5.702-0.3188 0-5.4849 2.1094-11.48 4.6875-10.773 4.6325-13.733 5.5724-11.957 3.7967zm147.78-1.9628c0.86894-0.50688 6.9675-2.8215 13.552-5.1436 6.5848-2.3221 14.556-5.4805 17.713-7.0186 5.571-2.714 11.467-3.7803 10.28-1.8591-0.31868 0.51562-1.5037 0.94116-2.6335 0.94563-1.1297 5e-3 -7.7494 2.3514-14.71 5.2155-16.176 6.6557-29.624 11.023-24.201 7.8602zm-12.361-1.9918c1.2891-0.60483 4.4531-2.1244 7.0312-3.3769s12.281-5.1403 21.562-8.6397c9.2812-3.4993 18.24-6.9225 19.909-7.607 2.3328-0.95704 3.2897-0.98875 4.1411-0.13728 0.85149 0.85149 0.80035 1.1847-0.22128 1.4422-3.4067 0.85861-23.302 7.6349-26.641 9.0739-2.0625 0.88883-6.0703 2.3876-8.9062 3.3306-2.8359 0.94303-6.8438 2.6434-8.9062 3.7786s-5.2266 2.3275-7.0312 2.6496c-3.0436 0.54321-3.1115 0.50598-0.9375-0.51405zm34.062 0.47043c0.34375-0.34375 0.90625-0.34375 1.25 0s0.0625 0.625-0.625 0.625-0.96875-0.28125-0.625-0.625zm15.625-0.15511c0-0.85819 8.4877-5.1072 9.0596-4.5352 0.41945 0.41944-4.6583 3.5927-7.419 4.6363-0.90234 0.34112-1.6406 0.29564-1.6406-0.10105zm-13.125-0.52584c0-0.20265 0.65472-0.61968 1.4549-0.92676 0.8343-0.32015 1.2106-0.16299 0.88217 0.36844-0.55055 0.89083-2.3371 1.3176-2.3371 0.55832zm-79.688-4.7325c0-0.80387 0.42188-1.4616 0.9375-1.4616s0.9375 0.39697 0.9375 0.88217c0 0.48519-0.42188 1.1429-0.9375 1.4616s-0.9375-0.0783-0.9375-0.88217zm97.369-1.4059c1.2173-1.0618 3.0103-1.9306 3.9844-1.9306h2.2399c0.25781 0 0.44221 0.31641 0.40978 0.70312-0.0324 0.38672-0.94045 0.59125-2.0178 0.4545-1.0774-0.13674-3.0547 0.41565-4.3942 1.2275l-2.4353 1.4761 2.2132-1.9306zm-178.77-3.4343c0.16671-0.82702 2.0833-2.1042 4.2591-2.8381 2.1758-0.73394 13.777-5.5784 25.781-10.765 12.004-5.187 24.567-10.423 27.919-11.635 8.3408-3.0163 20.746-6.2622 21.407-5.6014 0.29843 0.29843-0.49366 0.81197-1.7602 1.1412-11.582 3.0108-55.593 20.681-74.4 29.872-3.4171 1.6699-3.5758 1.6613-3.206-0.17341zm139.76-3.7368c1.6876-1.6876 10.693-6.9492 11.915-6.9615 0.79083-8e-3 5.2138-1.6953 9.8289-3.7496 5.4966-2.4467 8.7089-3.4172 9.3125-2.8136 1.1043 1.1043 1.1829 1.0477-4.1098 2.9609-8.5285 3.0828-21.135 8.5699-22.574 9.8252-1.3957 1.218-5.5551 1.9205-4.3732 0.73861zm93.51-0.41184c0-0.8921 5.2396-2.7852 7.7086-2.7852 1.2115 0 1.7004 0.53734 1.4887 1.6362-0.24273 1.2604-1.3352 1.6637-4.7562 1.756-2.4426 0.0659-4.4411-0.20728-4.4411-0.607zm-16.833-10.799c0.12833-13.257 0.75972-19.174 2.046-19.174 0.52589 0 0.7379 1.3376 0.48289 3.0469-0.25002 1.6758-0.14265 3.8906 0.23857 4.9219 0.73341 1.9839-1.2128 20.747-2.2607 21.795-0.33837 0.33837-0.5664-4.4271-0.50674-10.59zm35.042 7.3923c3.4238-1.8537 25.498-9.7248 28.666-10.222 1.2891-0.20212 5.2969-1.4583 8.9062-2.7914 9.1948-3.3962 21.947-7.5705 25.458-8.3331 2.4104-0.52361 3.3649-0.21698 5.1562 1.6564 2.0699 2.1647 2.9573 2.3293 15.195 2.8178 11.914 0.47556 14.72 0.87525 13.643 1.9432-0.56407 0.55961-16.142 0.63534-23.773 0.11556-3.5792-0.24379-8.0616-1.065-9.9607-1.8248-3.2778-1.3115-3.7969-1.2416-10.23 1.3763-3.7274 1.5169-7.3645 2.7579-8.0824 2.7579-0.71796 0-3.7328 0.80246-6.6997 1.7832-2.9669 0.98077-9.824 3.1251-15.238 4.7652s-12.716 4.0017-16.226 5.248c-7.334 2.6042-11.027 2.9875-6.8153 0.70731zm64.291-19.535c0-0.25781-0.21094-0.46875-0.46875-0.46875s-0.46875 0.21094-0.46875 0.46875 0.21094 0.46875 0.46875 0.46875 0.46875-0.21094 0.46875-0.46875zm-311.12 16.476c0.21389-0.64166 3.33-2.3413 6.9248-3.7771 3.5948-1.4357 12.422-5.1967 19.617-8.3577 7.1946-3.161 13.628-5.7473 14.297-5.7473 2.0114 0 1.3688 1.7036-0.89353 2.3691-1.1602 0.34123-4.8516 1.8211-8.2031 3.2886-5.2501 2.2988-27.015 11.394-30.831 12.884-0.76608 0.29908-1.1401 0.0284-0.91091-0.65922zm95.268-10.586c-0.92652-2.7796 1.2081-8.5286 5.2913-14.251 2.4262-3.4 4.1617-6.5856 3.8567-7.0792-0.63353-1.0251 2.7341-4.7157 4.3029-4.7157 1.7825 0-5e-3 4.7209-3.3368 8.8137-4.1552 5.104-9.1815 14.549-8.5785 16.121 0.26496 0.69046 0.11432 1.4825-0.33474 1.76-0.44907 0.27754-0.98951-0.0144-1.201-0.64891zm224.46-10.155c0.23262-0.69788 2.2954-1.7465 4.584-2.3304s5.0776-1.552 6.1978-2.1515c1.1202-0.59952 5.5475-2.1639 9.8384-3.4764s8.931-2.9641 10.311-3.6701c2.7281-1.3955 3.5841-0.60387 3.5841 3.3146 0 1.7979 2.71 2.5259 4.1271 1.1087 0.78842-0.78842 2.8287-0.96782 16.498-1.4507 11.848-0.41854 13.125-0.16385 13.125 2.6181 0 2.8678-1.7249 3.3524-8.167 2.2945-2.9847-0.49015-13.988-0.67812-24.451-0.41769-18.862 0.46945-20.355 0.68257-34.304 4.8963-1.2164 0.36743-1.6345 0.13854-1.3432-0.73537zm67.016-6.203c-0.34375-0.34375-0.90625-0.34375-1.25 0s-0.0625 0.625 0.625 0.625 0.96875-0.28125 0.625-0.625zm-184.94-1.7785c-0.33178-1.3219-0.15743-3.3258 0.38744-4.4531 0.98084-2.0293 0.99143-2.0264 1.0669 0.29408 0.0419 1.2891 0.33063 3.293 0.64155 4.4531 0.33488 1.2496 0.14589 2.1094-0.4637 2.1094-0.56594 0-1.3004-1.0816-1.6322-2.4035zm-86.948-1.1194c-0.66288-1.0726 2.3482-7.0551 3.6096-7.1717 0.51562-0.0477 1.0605 0.77251 1.2109 1.8226 0.29577 2.0659-3.9428 6.7692-4.8205 5.3491zm209.39-189.13c0-0.25781 0.21094-0.46875 0.46875-0.46875s0.46875 0.21094 0.46875 0.46875-0.21094 0.46875-0.46875 0.46875-0.46875-0.21094-0.46875-0.46875zm-177.09-36.328c1.3779-2.648 4.1944-5.3906 5.5358-5.3906 0.56148 0-0.33523 1.6875-1.9927 3.75-3.2786 4.0798-5.2992 5.0154-3.5431 1.6406zm-89.782-14.453c0.34375-0.34375 0.90625-0.34375 1.25 0s0.0625 0.625-0.625 0.625-0.96875-0.28125-0.625-0.625zm282.44-22.436c-0.31632-0.82428-0.52629-11.266-0.46662-23.203 0.0596-11.937 0.0436-25.769-0.0357-30.736-0.11233-7.0363 0.17575-9.3518 1.3038-10.48 0.91875-0.91874 1.448-3.1578 1.448-6.1258 0-5.8082 0.80784-8.3577 2.0756-6.5504 0.56312 0.80278 0.63244-0.0922 0.19362-2.4995-0.85616-4.6969-0.85493-5.1771 0.0331-12.891 0.48309-4.1959 0.40251-6.3281-0.23914-6.3281-0.56622 0-1.2455 4.2867-1.6374 10.333-0.36832 5.6829-1.0367 10.559-1.4853 10.837-1.1742 0.72572-0.97206-5.4452 0.4687-14.305 1.1644-7.1597 1.132-7.7816-0.48966-9.4032-2.3455-2.3455-3.1176-10.884-1.4259-15.77 1.1617-3.3554 1.6029-3.7224 4.4757-3.7224 3.1246 0 3.1832 0.07328 2.9975 3.75-0.4394 8.6992-1.2083 41.089-1.1986 50.493l0.0105 10.18 3.2669 3.8166c1.7968 2.0992 3.2669 4.1255 3.2669 4.503s1.6875 0.97145 3.75 1.3199c4.2799 0.72309 5.0274 2.2888 1.1719 2.4547l-2.5781 0.11092 2.7352 0.5922c3.4173 0.7399 3.934 2.1246 1.5857 4.2498-1.7352 1.5703-1.9387 1.5672-4.4416-0.0684-1.4427-0.9428-3.6494-2.6634-4.9037-3.8236s-2.6099-2.1094-3.0124-2.1094c-0.40252 0-0.95076-0.73828-1.2183-1.6406-0.59938-2.0214 0.13966 29.052 0.9588 40.312 0.5257 7.227 0.41337 8.2031-0.94406 8.2031-1.0185 1e-5 -1.5408-0.79447-1.5408-2.3437 0-1.2891-0.44678-2.3438-0.99283-2.3438-0.54606 0-0.75563 0.3838-0.4657 0.8529 0.6458 1.045-0.3392 3.8346-1.354 3.8346-0.40529 0-0.99569-0.67441-1.312-1.4987zm2.352-31.35c-0.83523-2.0923-0.92675-1.9503-0.98063 1.5205-0.0327 2.1055 0.25698 4.1498 0.64369 4.5431 1.1034 1.122 1.3603-3.5001 0.33694-6.0635zm0.58163-11.896c-0.20295-1.9451-0.3724-0.58341-0.37656 3.026-4e-3 3.6094 0.16189 5.2008 0.36899 3.5365 0.20711-1.6643 0.21051-4.6174 7e-3 -6.5625zm8.9504-3.0422c-1.662-1.0133-3.2897-2.9102-3.6173-4.2152-0.32756-1.3051-1.1826-2.3728-1.9002-2.3728s-1.3046 0.2274-1.3046 0.50534c0 1.0859 7.4243 7.932 8.5984 7.9286 0.68496-2e-3 -0.11438-0.83259-1.7763-1.8459zm-9.4627-14.291c-0.67271-0.67271-1.1094-0.72806-1.1094-0.14062 0 1.2514 1.1087 2.36 1.7344 1.7344 0.2664-0.2664-0.0148-0.98359-0.62501-1.5938zm1.3865-14.094c-0.26007-0.64454-0.47287-0.11719-0.47287 1.1719s0.2128 1.8164 0.47287 1.1719c0.26007-0.64454 0.26007-1.6992 0-2.3438zm0.0288-36.076c-0.23769-0.91216-0.4478-0.39284-0.4669 1.154s0.17536 2.2932 0.43217 1.6585c0.2568-0.63472 0.27243-1.9003 0.0348-2.8125zm-59.645 42.998c-1.0151-1.8967-0.4851-2.938 1.4953-2.938 0.6875 0 1.25 0.67976 1.25 1.5106 0 1.2579 0.58817 1.3814 3.5156 0.73829 1.9336-0.42477 5.2031-0.84915 7.2656-0.94309 5.9869-0.27266 6.0938-0.30241 6.0938-1.6964 0-0.73046 0.52734-1.5191 1.1719-1.7525 0.9375-0.33952 0.9375-0.82135 0-2.4092-1.5455-2.6176-1.4808-3.8852 0.19825-3.8852 1.7189 0 4.0353 7.7294 2.4726 8.2504-0.56482 0.18827-0.79795 1.2566-0.51805 2.3741 0.49848 1.9902 0.2782 2.0366-10.749 2.2684-10.178 0.21395-11.348 0.0684-12.196-1.5174zm113.78-49.443c0.71469-3.8862 1.9488-5.8217 3.0256-4.7449 0.36094 0.36094 0.15703 1.1555-0.45313 1.7656-0.61015 0.61016-1.1094 2.0548-1.1094 3.2103s-0.48026 2.3977-1.0673 2.7605c-0.76882 0.47515-0.8795-0.36139-0.39579-2.9915zm-36.037-3.7199c0-0.87304 0.63785-1.3513 1.5629-1.1719 2.352 0.45614 2.6749 2.6469 0.39019 2.6469-1.1516 0-1.9531-0.60533-1.9531-1.475zm-18.516-26.963c-4.9953-0.90119-6.1206-1.8387-3.4411-2.8669 1.7885-0.6863 5.8546 0.21439 8.1975 1.8159 2.4864 1.6995 0.84669 2.0618-4.7564 1.051zm16.678-0.11045c-2.37-2.8557-0.54061-3.8268 2.2924-1.2169 2.5681 2.3658 2.6354 2.5781 0.81792 2.5781-1.0893 0-2.489-0.61255-3.1103-1.3612zm-57.62-3.3245c-3.9982-0.28994-6.6372-0.92039-6.875-1.6424-0.28972-0.87962 1.7304-1.1719 8.1002-1.1719 6.9532 0 8.3938 0.24095 7.9744 1.3338-0.7088 1.8471-1.7762 2.0189-9.1996 1.4806zm62.297 0.02352c-2.2038-1.3757-0.82441-1.8596 7.0809-2.4836 6.5998-0.521 7.2673-0.42994 6.017 0.82093-1.6809 1.6817-11.143 2.8829-13.098 1.6627zm-23.835-1.6454c-0.30071-0.30071-2.1334-0.80318-4.0727-1.1166-2.7884-0.45064-3.5919-1.0335-3.8412-2.7861-0.29483-2.0727-0.096-2.1751 3.07-1.5812 1.8619 0.34929 7.1709 0.65306 11.798 0.67504 4.627 0.02198 8.6493 0.42279 8.9385 0.89068 0.28919 0.46789-0.44834 0.89965-1.6389 0.95946-1.5883 0.07979-1.7278 0.22292-0.52409 0.53749 0.90235 0.23581 1.6406 0.81968 1.6406 1.2975 0 0.93022-0.25049 0.96876-9.0523 1.3926-3.1741 0.15284-6.0171 0.03185-6.3178-0.26886zm-25.411-2.13c0.31867-0.51562 1.2122-0.9375 1.9856-0.9375 0.77344 0 1.1455 0.42188 0.82685 0.9375s-1.2122 0.9375-1.9856 0.9375c-0.77344 0-1.1455-0.42188-0.82685-0.9375zm6.5625-0.9375c0.31867-0.51562 0.76545-0.9375 0.99283-0.9375s0.41342 0.42188 0.41342 0.9375-0.44678 0.9375-0.99283 0.9375c-0.54606 0-0.73209-0.42188-0.41342-0.9375zm30.469-9.6875c0-3.2581 0.97703-3.6401 2.937-1.1485 2.2886 2.9094 2.2127 3.336-0.5932 3.336-1.8304 0-2.3438-0.47917-2.3438-2.1875zm22.734 1.5011c-2.1914-0.19738-4.0527-0.86195-4.1362-1.4768-0.53583-3.945-0.36628-9.0867 0.29966-9.0867 0.43433 0 1.1061 0.01083 1.4928 0.024067 0.38672 0.013236 0.70313 1.8045 0.70313 3.9806v3.9565l6.2234-0.31058c6.4332-0.32105 8.9055 0.83684 5.5833 2.6149-1.8229 0.9756-2.4422 0.99376-10.166 0.2981zm3.5156-6.3448c0-0.77344 0.40864-1.4062 0.90808-1.4062s0.66524 0.63281 0.36845 1.4062c-0.29681 0.77344-0.70543 1.4062-0.90808 1.4062-0.20264 0-0.36845-0.63281-0.36845-1.4062z"/>
</svg>
