<?xml version="1.0" encoding="UTF-8"?>
<svg viewBox="0 0 547.82 374.54" xmlns="http://www.w3.org/2000/svg">
 <path d="m303.03 374.29c-0.32999-0.12601-1.279-1.142-2.11-2.257-1.213-1.627-1.828-2.212-3.121-2.97-1.98-1.161-2.793-1.993-3.312-3.39-0.58899-1.588-0.52899-4.533 0.13199-6.471 0.367-1.075 0.44601-1.582 0.25702-1.645-0.479-0.16-1.232-1.087-1.826-2.249-0.56198-1.1-0.57999-1.313-0.72998-9.002-0.17902-9.133 0.263-17.728 1.251-24.319 1.765-11.78 2.016-14.006 2.016-17.883-0.001007-4.904-0.54001-20.292-0.82901-23.645-0.050995-0.59399-0.16598-2.053-0.255-3.241-0.088989-1.188-0.19998-2.582-0.246-3.097-0.086975-0.97998-0.51498-6.347-0.71899-9.025-0.06601-0.858-0.22299-2.425-0.349-3.481-0.12698-1.056-0.39999-3.487-0.608-5.401-0.207-1.915-0.42499-3.859-0.482-4.321-0.058014-0.46199-0.27399-2.461-0.48001-4.441-0.20599-1.98-0.42297-3.979-0.482-4.441-0.11499-0.897-0.60898-5.702-1.296-12.602-0.301-3.024-1.292-9.258-1.945-12.243-0.84399-3.858-1.954-7.633-2.386-8.115-0.096008-0.106-0.245 2.811-0.33301 6.482-0.33499 14.061-0.94101 32.457-1.526 46.282-0.38 8.989-0.50299 30.628-0.19299 33.855 0.15799 1.648 0.56598 6.559 0.737 8.874 0.076996 1.056 0.35498 2.947 0.617 4.201 0.26199 1.254 1.222 5.847 2.133 10.206 2.63 12.584 2.701 13.767 1.663 27.722-0.47501 6.397-0.509 6.617-1.076 7.13l-0.586 0.529 0.607 0.894c0.82898 1.222 0.914 1.695 0.78198 4.37-0.18799 3.797-1.234 5.604-3.435 5.934-1.59 0.23901-1.803 0.50101-2.135 2.64-0.34201 2.209-0.51502 2.675-1.107 2.992-0.237 0.12698-1.979 0.57498-3.872 0.996-3.259 0.72498-3.761 0.771-9.443 0.86099l-6.001 0.096-1.005-0.864c-1.177-1.012-1.756-2.615-1.756-4.861 0-1.265 0.13101-1.64 1.24-3.564 2.357-4.088 4.518-8.587 4.268-8.888-0.129-0.155-1.07-0.33301-2.091-0.396-3.67-0.22302-6.333-1.652-6.621-3.551-0.070007-0.461-0.29703-4.132-0.50601-8.159-0.20801-4.027-0.698-13.263-1.089-20.524-0.39099-7.262-0.92799-17.362-1.193-22.445-0.548-10.499-0.642-11.838-1.946-27.846-0.522-6.403-1.061-12.29-1.199-13.082-0.49899-2.875-3.258-14.58-4.299-18.244-1.165-4.098-3.013-13.065-5.541-26.886-0.63901-3.487-0.612-3.424-1.498-3.599-1.23-0.242-2.044-0.617-2.195-1.012-0.15399-0.40001 0.16301-3.348 0.70401-6.551 0.189-1.122 0.567-3.499 0.84-5.281s0.54199-3.526 0.59799-3.874c0.067001-0.422-0.056992-0.77699-0.37399-1.064-0.791-0.715-2.559-3.552-5.065-8.126-2.813-5.133-2.771-4.949-3.554-15.262-1.241-16.353-1.705-21.882-1.934-23.079-0.455-2.377-0.96101-11.303-1.113-19.651-0.17-9.256-0.284-7.935 2.061-23.763 0.26399-1.783 0.702-4.7534 0.97299-6.6018 1.857-12.666 2.619-16.156 4.226-19.35 1.253-2.4903 2.696-3.4644 8.145-5.4969 6.848-2.5547 18.368-7.374 19.825-8.2937 0.565-0.3564 1.3-1.2397 2.024-2.4323 0.625-1.03 2.105-2.9382 3.29-4.2404 1.184-1.3023 2.29-2.7071 2.458-3.1218 0.168-0.4148 0.37097-2.293 0.452-4.1738l0.148-3.4196-0.957-1.4806c-0.52698-0.8144-1.063-1.873-1.192-2.3526-0.16602-0.6176-0.54102-1.0878-1.285-1.6118-1.285-0.9064-2.244-2.1265-2.421-3.0818-0.18301-0.9873-0.58002-4.2348-0.74802-6.1183-0.39899-4.4808-0.57098-5.7249-0.914-6.6014-0.728-1.8646-0.41-10.634 0.492-13.563 0.354-1.1493 0.74402-1.6545 3.013-3.9022 1.433-1.42 3.406-3.1214 4.383-3.7808 1.489-1.0052 1.954-1.1989 2.875-1.1989 0.69501 0 1.533-0.21945 2.277-0.59646 3.608-1.8287 6.479-2.4802 8.592-1.9499 0.75699 0.19014 1.971 0.41501 2.697 0.49974 2.506 0.29242 5.368 0.87887 6.077 1.2454 0.936 0.48413 6.987 6.4021 7.672 7.5037 0.58301 0.93721 0.577 0.84851 0.71301 11.68l0.061 4.8192 0.704 1.0178 0.704 1.0179-0.293 3.7363c-0.457 5.8202-0.638 6.4215-2.801 9.3147-0.69101 0.9241-1.326 2.0044-1.411 2.4004-0.084991 0.3961 0.014008 1.6924 0.21899 2.8806 0.306 1.7708 0.578 2.5037 1.506 4.0634 1.274 2.1413 3.278 4.4128 5.154 5.8397 1.518 1.1557 9.394 4.6454 12.364 5.479 1.154 0.3238 3.07 0.8591 4.258 1.1895 13.05 3.6298 13.377 3.7436 14.78 5.1471 1.028 1.0272 1.169 1.3137 1.642 3.3298 1.285 5.4732 2.096 13.987 3.378 35.444 0.95502 15.991 1.008 17.888 0.90601 32.167-0.107 14.861-0.15399 15.653-1.398 23.525-1.656 10.477-3.348 15.707-6.659 20.586-0.64899 0.95601-1.802 2.707-2.562 3.891l-1.383 2.154 0.631 6.248c0.34702 3.437 0.63 7.464 0.629 8.949l-2e-3 2.701h-0.70801c-0.39002 0-1.233 0.112-1.874 0.25l-1.165 0.25 0.044 4.611c0.080994 8.485-0.284 16.205-0.979 20.694-0.34702 2.245-0.73502 5.593-0.86099 7.442-0.30102 4.409-0.56 7.378-1.41 16.203-0.98102 10.183-1.176 15.675-1.373 38.768-0.22498 26.398-0.22498 27.492 0.02002 43.105 0.16098 10.274 0.142 13.462-0.080017 13.878-0.35199 0.65698-1.698 1.255-4.635 2.059-3.635 0.99399-3.664 1.415-0.40802 5.968 2.715 3.798 4.019 6.283 4.229 8.062 0.17999 1.512-0.10199 1.976-2.127 3.503-2.082 1.57-3.225 2.009-6.29 2.413-2.948 0.38898-10.724 0.44199-11.669 0.079987zm-5.194-282.87c0.345-1.5843 0.78799-3.8528 0.98401-5.0411 0.90799-5.4869 3.049-20.805 2.926-20.928-0.029999-0.030602-1.077 1.4653-2.326 3.3243-1.249 1.8589-2.523 3.5783-2.831 3.8207-0.54898 0.4322-0.57999 0.4285-1.56-0.1867-0.551-0.3451-1.876-1.4195-2.945-2.3876l-1.944-1.7602-1.872 2.056-1.871 2.0559 1.472 2.1241c0.80902 1.1683 1.678 2.6452 1.93 3.282 0.25299 0.6368 1.128 2.5621 1.944 4.2785 2.178 4.577 4.21 9.3891 4.693 11.115 0.233 0.8322 0.50198 1.4263 0.59799 1.3203 0.097015-0.10609 0.45801-1.4891 0.802-3.0734zm-19.771-2.4186c0-1.4212 1.004-6.4029 2.074-10.29 0.474-1.7242 1-3.8353 1.167-4.6913 0.30399-1.5492 0.302-1.5612-0.401-2.5833-0.388-0.5648-0.819-1.3498-0.95599-1.7443-0.138-0.3945-0.32901-0.7173-0.42502-0.7173-0.095001 0-1.396 1.3553-2.89 3.0117-1.663 1.8441-2.864 2.9835-3.096 2.9388-0.20801-0.0401-0.66501-0.6473-1.016-1.3493-0.76901-1.5387-1.178-2.0157-1.178-1.3733 0 1.1292 4.097 13.348 5.663 16.889 0.655 1.4823 1.058 1.4479 1.058-0.0905zm1.631-21.586c1.22-1.4523 2.284-2.8952 2.366-3.2063 0.129-0.4915-0.586-1.3012-5.449-6.1679-3.079-3.0811-5.677-5.5535-5.773-5.4942-0.096008 0.059299-0.24799 0.5423-0.33798 1.0734-0.112 0.6655-0.52902 1.3924-1.342 2.3392-1.358 1.5813-1.36 1.0288 0.020996 6.2947 0.50201 1.9144 1.038 4.1288 1.191 4.921 0.15399 0.7922 0.892 2.7198 1.641 4.2836l1.361 2.8432 2.053-2.1231c1.129-1.1677 3.05-3.3113 4.269-4.7636zm18.93 1.5603c3.195-4.6014 3.338-4.9519 3.788-9.2419 0.543-5.1823 0.55499-5.0666-0.70499-6.6031-0.595-0.7252-1.189-1.3185-1.319-1.3185s-2.695 2.3307-5.7 5.1793c-3.004 2.8487-5.892 5.5653-6.416 6.0369-0.926 0.8321-0.944 0.8772-0.59998 1.519 0.39398 0.7368 5.273 5.6026 6.955 6.9354 0.59399 0.47089 1.23 0.8286 1.414 0.7949 0.18301-0.033806 1.346-1.5197 2.583-3.302zm111.47 289.35c-2.613-0.32703-7.641-1.368-8.124-1.682-0.30899-0.20102-0.78198-0.86099-1.049-1.467-0.44101-0.995-0.45902-1.227-0.18802-2.437 0.289-1.291 0.46002-1.502 4.893-6.021 4.551-4.639 6.826-7.474 7.969-9.928 0.49802-1.071 0.57602-1.596 0.578-3.908 0.001007-1.852-0.089996-2.744-0.298-2.909-0.16498-0.13098-1.11-0.258-2.1-0.28299-0.991-0.024994-1.873-0.12-1.961-0.21201-0.272-0.28101-1.152-9.219-1.499-15.21-0.181-3.125-0.38599-5.774-0.45599-5.888-0.11899-0.19202-0.569-5.445-1.478-17.236-0.20499-2.657-0.789-7.321-1.307-10.442-0.51498-3.103-1.058-6.722-1.205-8.042-0.53-4.742-0.81702-5.889-3.766-15.003-3.244-10.026-8.235-24.726-8.502-25.041-0.091003-0.107-0.23901 1.945-0.328 4.561-0.088989 2.616-0.26599 5.783-0.392 7.037-0.12698 1.255-0.336 3.523-0.466 5.041-0.13 1.519-0.517 5.678-0.85901 9.242-0.34299 3.565-0.71298 9.29-0.823 12.723-0.46799 14.579-0.733 23.378-0.97897 32.437-0.14401 5.297-0.35501 10.05-0.47 10.562-0.11401 0.51102-0.38901 1.038-0.61002 1.17-1.268 0.75699-1.351 0.94199-2.166 4.813-0.44302 2.106-0.80902 4.163-0.81201 4.572-0.009003 0.92001-0.47699 1.355-2.168 2.014-0.72601 0.28302-1.914 0.80499-2.64 1.159-1.275 0.62201-1.461 0.64502-5.401 0.64502-2.819 0-4.389-0.10202-5.075-0.33002-0.926-0.30701-1.081-0.289-2.28 0.26502-0.70801 0.32599-2.259 1.323-3.448 2.214-3.746 2.809-4.184 2.95-11.983 3.854-5.556 0.64401-6.87 0.57501-9.923-0.518-1.372-0.491-2.198-1.865-2.28-3.795-0.057007-1.344-0.029999-1.409 0.90201-2.225 0.92099-0.806 8-4.392 12.904-6.537 1.289-0.56299 2.612-1.236 2.942-1.495 0.32901-0.259 1.319-1.516 2.2-2.794 0.88-1.277 1.986-2.804 2.457-3.393 0.47101-0.58902 0.827-1.245 0.79098-1.458-0.03598-0.21201 0.16101-1.35 0.43802-2.529 2.348-10.003 3.12-13.546 3.448-15.826 0.487-3.396 1.99-15.575 2.191-17.764 0.172-1.872-0.42801-11.646-0.944-15.363-0.18301-1.32-0.83502-5.965-1.448-10.322-0.612-4.357-1.547-11.055-2.075-14.883-1.425-10.316-3.61-23.123-5.243-30.727l-1.442-6.721-0.512-7.922c-0.52002-8.065-0.73001-17.965-0.40402-19.124 0.16501-0.58801 0.042999-0.74101-1.456-1.831-2.552-1.856-5.341-5.878-6.444-9.291l-0.621-1.92-0.23-14.643c-0.33701-21.473 0.142-32.472 1.988-45.61 1.906-13.562 2.299-15.162 4.146-16.864 1.323-1.2194 2.926-2.2794 8.645-5.7158 5.276-3.1708 6.973-4.5669 9.842-8.0977 1.879-2.3127 2.295-3.2777 2.308-5.3536 0.007996-1.4057-0.39499-2.4132-1.624-4.0566-1.056-1.4125-2.308-3.8769-2.607-5.1287-0.083008-0.3479-0.233-0.7405-0.33402-0.8725-0.53198-0.6947-1.246-4.2208-1.897-9.362-0.401-3.1686-0.901-6.8414-1.11-8.1616-0.551-3.4772-0.509-6.5893 0.116-8.5632 0.84-2.6489 3.518-5.7471 6.544-7.57 2.179-1.313 3.579-1.5691 9.237-1.6895l5.079-0.1081 2.002 0.8757c4.756 2.0793 5.269 2.3784 6.692 3.899 3.122 3.3376 3.768 4.8959 4.093 9.8745 0.16598 2.5566 0.319 3.5353 0.59598 3.8116 0.30402 0.3044 0.35501 0.8766 0.28003 3.1615-0.11102 3.3872-0.634 5.3822-2.325 8.8589l-1.212 2.4925v4.9855l2.581 2.7173c1.419 1.4945 3.284 3.5751 4.144 4.6235l1.564 1.9063 6.421 1.9652c10.156 3.1086 11.444 3.5562 14.404 5.0067 2.405 1.1782 2.922 1.5387 3.741 2.6041 0.522 0.6802 1.123 1.6148 1.335 2.0769 0.55402 1.2103 2.945 13.603 3.496 18.124 1.394 11.446 2.46 21.742 2.546 24.606 0.054016 1.782 0.21301 4.025 0.354 4.985 0.271 1.837 0.34799 5.755 0.12799 6.474-0.071991 0.233-0.353 2.137-0.62598 4.231-0.272 2.094-0.668 4.143-0.88 4.552-0.88901 1.719-9.208 14.043-10.885 16.125l-0.774 0.96 0.143 2.401c0.078979 1.32 0.74899 6.559 1.491 11.642 1.174 8.058 1.375 9.98 1.565 15.003 0.12 3.169 0.46799 7.803 0.77399 10.299l0.556 4.538-0.916 0.36c-1.066 0.418-1.213 0.80901-1.628 4.339-0.49899 4.236-0.16901 8.219 0.95599 11.559 0.246 0.73099 0.60702 2.297 0.802 3.481 1.131 6.851 3.649 21.508 4.35 25.316 0.449 2.443 1.197 6.764 1.662 9.602 0.465 2.839 1.165 6.242 1.557 7.562 1.739 5.865 1.708 5.617 1.702 13.843-0.002991 4.137-0.10599 12.436-0.22998 18.444-0.12302 6.007-0.23801 16.593-0.25601 23.524l-0.032 12.603 0.743 2.28c0.577 1.773 0.80402 3.057 1.02 5.762 0.15298 1.914 0.20099 3.985 0.108 4.601-0.21902 1.439-1.229 2.826-2.84 3.903-0.69699 0.465-1.506 1.021-1.797 1.234-0.29199 0.21301-0.96899 0.41101-1.505 0.43802-0.914 0.046997-1.073 0.173-2.505 1.984-1.846 2.334-3.765 4.231-5.063 5.003-1.064 0.633-4.32 1.74-7.782 2.645-2.254 0.59-5.147 0.883-6.741 0.68301zm-208.84-10.316c-0.32999-0.05899-2.166-0.32199-4.08-0.58499-3.104-0.427-3.699-0.58701-5.497-1.482-1.108-0.551-3.106-1.802-4.44-2.779-3.058-2.238-3.025-2.222-6.655-3.26-3.659-1.047-5.399-1.815-6.343-2.8-0.67299-0.702-0.715-0.86301-0.79199-3.108-0.087997-2.533 0.3-4.471 1.183-5.912 0.25301-0.41101 0.459-0.815 0.459-0.897 0-0.082001-0.439-0.21899-0.976-0.30499-1.467-0.23502-1.629-0.505-1.372-2.29 0.27701-1.932 0.055008-4.418-0.58499-6.543-0.479-1.595-0.493-1.992-0.338-9.842 0.11699-5.9 0.05899-10.556-0.21001-16.702-0.36099-8.282-0.556-40.296-0.24899-40.794 0.07399-0.11801 0.016998-4.788-0.125-10.377-0.198-7.802-0.395-11.393-0.847-15.464-0.324-2.917-0.645-5.874-0.714-6.572-0.067993-0.698-0.606-3.227-1.195-5.62-0.589-2.392-1.07-4.533-1.07-4.756 0-0.22301-0.098007-0.466-0.218-0.54001-0.12199-0.076004-0.166 0.26001-0.101 0.76601 0.063995 0.495-0.11301 2.142-0.393 3.661-1.039 5.646-1.215 6.637-1.446 8.161-0.12999 0.85901-0.336 2.155-0.459 2.881-0.301 1.791-2.547 10.485-4.745 18.364-0.994 3.565-1.964 7.075-2.156 7.801-0.192 0.727-1.522 5.642-2.957 10.923-3.555 13.085-3.861 14.242-4.083 15.483-1.308 7.304-1.981 11.744-2.303 15.186-0.21201 2.276-0.526 5.488-0.69601 7.138-0.17 1.651-0.323 5.918-0.338 9.482-0.015991 3.565-0.098999 9.506-0.185 13.203-0.144 6.161-0.194 6.748-0.601 7.035-0.394 0.27899-0.444 0.676-0.444 3.557 0 1.988-0.107 3.445-0.27699 3.767-0.15201 0.28799-0.72301 0.95599-1.267 1.484-0.545 0.52798-1.777 1.845-2.739 2.926l-1.748 1.966-1.268-0.045c-1.234-0.044983-1.307-0.009003-2.774 1.348-2.351 2.176-4.662 3.696-6.083 4.001-1.389 0.297-4.462 0.16202-8.209-0.362-1.32-0.18399-3.016-0.38901-3.769-0.45499-2.213-0.19501-2.903-0.60001-3.538-2.078-0.432-1.003-0.523-1.554-0.421-2.542 0.155-1.499 0.561-2.285 2.325-4.498 0.727-0.91199 1.808-2.275 2.403-3.028 0.594-0.75302 1.981-2.437 3.082-3.742 1.945-2.304 3.552-4.931 3.283-5.366-0.072998-0.11801-0.73-0.34802-1.46-0.51202-0.729-0.16299-1.362-0.35898-1.405-0.43597-0.042999-0.077026 0.063995-1.49 0.239-3.14 0.409-3.862 0.505-22.717 0.147-28.926-0.145-2.508-0.333-8.45-0.41801-13.203-0.16299-9.075-0.194-8.484 1.094-21.124 1.032-10.141 1.317-14.773 1.549-25.205 0.133-6.015 0.49-14.473 0.741-17.578l0.121-1.494-0.792-0.331c-0.435-0.18201-1.691-1.02-2.791-1.863-2.364-1.81-3.233-3.245-3.654-6.033-0.29-1.926-0.335-7.726-0.084999-11.134l0.16-2.186-0.982-0.157c-0.541-0.085999-1.363-0.338-1.827-0.55901l-0.843-0.403-1e-3 -12.738c0-7.006-0.069-19.111-0.153-26.901-0.149-13.711 0.086998-26.683 0.633-34.807 0.125-1.848 0.287-4.711 0.36-6.361 0.281-6.263 0.648-10.834 1.225-15.243 0.328-2.5085 0.809-6.2893 1.068-8.4017 0.731-5.9656 1.161-8.7415 1.429-9.2432 0.476-0.8883 3.831-2.8639 13.442-7.9141 7.342-3.8578 9.448-5.0491 13.923-7.8773 6.301-3.9816 6.884-4.3672 7.262-4.8012 0.201-0.2302 0.496-1.4425 0.673-2.7619 0.261-1.9453 0.261-2.5051-9.92e-4 -3.2407-0.44601-1.2515-1.17-2.2094-1.67-2.2094-0.237 0-0.94099-0.6634-1.592-1.5003-0.949-1.2222-1.292-1.9452-1.849-3.9008-0.898-3.1555-1.149-6.5491-0.552-7.46 0.489-0.7467 0.518-1.0159 0.82201-7.6631 0.297-6.497 0.68599-7.8883 3.003-10.732 1.239-1.5213 3.731-3.4889 4.673-3.6897 0.349-0.0742 1.66-0.5184 2.914-0.987l2.281-0.852 3.96 0.1385c7.142 0.2498 9.456 1.1411 13.464 5.1869 3.319 3.3506 3.921 4.5086 3.932 7.5641 0.004013 1.1943-0.13699 3.6343-0.31299 5.4222-0.319 3.2163-0.31601 3.2604 0.21399 4.1597 0.51201 0.8674 0.52901 1.0642 0.37001 4.3108-0.263 5.3423-1.131 8.3229-2.424 8.3229-0.644 0-0.888 0.5897-1.291 3.1206-0.46799 2.9459-0.58499 5.6448-0.282 6.5617 0.30901 0.9355 2.04 2.6332 4.934 4.8391 1.539 1.1725 2.44 1.5646 10.682 4.6463 4.951 1.8511 11.107 4.3247 13.679 5.4969 3.938 1.795 4.746 2.2512 5.12 2.8921 0.57599 0.9851 3.674 11.769 3.876 13.492 0.153 1.302 0.62601 4.7615 1.099 8.0416 0.13301 0.92419 0.29401 2.1125 0.35701 2.6406 0.062988 0.5281 0.27899 2.0944 0.478 3.4806 0.2 1.386 0.46899 3.277 0.599 4.201 0.642 4.572 1.349 18.765 1.8 36.127 0.2 7.724 0.472 17.824 0.604 22.445 0.13199 4.621 0.31 12.422 0.396 17.335l0.156 8.933-0.699 0.27c-0.38501 0.14801-1.327 0.22601-2.094 0.17201-1.094-0.076004-1.437-0.016006-1.588 0.27899-0.106 0.207-0.263 1.596-0.34999 3.087-0.106 1.83-0.315 3.118-0.643 3.961-0.267 0.688-0.688 2.33-0.936 3.651-0.827 4.402-0.89999 4.579-2.906 7.061-2.53 3.131-3.253 3.778-6.585 5.899-1.584 1.009-2.965 1.916-3.067 2.017-0.103 0.10001-0.056 3.229 0.103 6.954 0.356 8.314-0.056 30.684-0.64999 35.282-0.198 1.539-0.526 4.095-0.728 5.68-0.562 4.417-1.01 7.427-1.534 10.322-0.263 1.452-0.643 3.666-0.845 4.921-0.20201 1.254-0.52701 3.144-0.722 4.201-0.19501 1.056-0.459 2.892-0.586 4.08-0.25301 2.36-0.79401 6.843-1.346 11.163-0.411 3.218-0.78101 10.054-1.019 18.819l-0.168 6.216-1.14 0.332c-1.258 0.367-1.259 0.367-0.862 1.114 1.24 2.33 5.922 6.454 12.192 10.738 3.325 2.272 5.429 3.943 6.091 4.839 0.29201 0.39502 0.524 1.171 0.591 1.977 0.103 1.242 0.061996 1.371-0.644 2.031-0.91901 0.85797-4.09 2.104-6.243 2.452-1.769 0.28699-5.822 0.47-6.745 0.30499zm328.15-10.19c-2.057-0.65399-2.523-0.716-4.749-0.634-1.549 0.057007-2.593-0.006989-2.804-0.17099-0.185-0.143-0.40399-0.85501-0.487-1.581-0.297-2.606-0.59302-4.168-0.83502-4.41-0.14294-0.142-0.24695-1.498-0.24695-3.199v-2.953h-0.83502c-1.332 0-1.595-0.64499-1.734-4.257-0.096985-2.514-0.24799-3.474-0.836-5.345-0.84998-2.704-0.90002-3.824-0.23297-5.291 0.27295-0.60001 0.56299-1.518 0.646-2.041 0.14697-0.92602 0.10498-0.99701-1.691-2.87l-1.841-1.921 0.147-3.96c0.080017-2.179 0.24097-4.62 0.357-5.425 0.14197-0.97998 0.117-2.024-0.075989-3.157-0.23804-1.404-0.44-1.862-1.177-2.678-0.48901-0.54098-0.89703-1.011-0.90601-1.044-0.018982-0.065979-0.194-1.634-0.90802-8.16-0.271-2.475-0.55298-4.851-0.62598-5.281-0.072998-0.42902-0.23602-2.117-0.36102-3.749-0.21698-2.838-0.26798-3.039-1.167-4.561-1.291-2.186-1.142-1.479-1.825-8.674-0.19601-2.061-0.83402-6.076-1.431-9.002-1.197-5.867-1.495-7.753-2.657-16.803-0.62399-4.854-1.043-7.149-1.889-10.323-1.2-4.503-3.76-15.204-3.766-15.742-0.006989-0.645-0.41101-1.054-0.758-0.767-0.39502 0.327-0.14002 10.281 0.41598 16.269 1.019 10.954 1.292 14.363 1.526 19.084 0.43802 8.818 0.75702 13.525 0.98401 14.523 0.12 0.528 0.75198 2.905 1.404 5.281 0.87799 3.204 1.282 5.232 1.562 7.844 0.20801 1.938 0.76999 6.097 1.249 9.242 0.836 5.484 0.867 5.906 0.74399 10.28l-0.129 4.561 0.969 3.001 0.969 3-0.1 3.721c-0.085999 3.208-0.17099 3.857-0.612 4.705-0.28201 0.54199-0.46899 1.19-0.41699 1.441 0.052979 0.25 0.26999 1.193 0.483 2.094 0.34 1.438 0.357 2.338 0.13498 7.322-0.138 3.125-0.18198 5.944-0.096985 6.264 0.12601 0.47-0.01001 0.72501-0.70502 1.321l-0.862 0.738-0.36 4.606c-0.27802 3.558-0.47299 4.861-0.85501 5.726l-0.495 1.119-3.127-0.085c-2.768-0.074005-3.141-0.037018-3.255 0.32098-0.070007 0.22299-0.505 0.737-0.965 1.141l-0.837 0.735h-6.315c-3.473 0-7.803-0.071991-9.621-0.159l-3.305-0.158-0.46-0.742c-0.383-0.61801-0.43298-1.001-0.302-2.302 0.242-2.4 1.143-3.951 3.384-5.826 2.09-1.748 5.377-5.066 5.785-5.84 0.16602-0.314 0.21301-1.145 0.12399-2.203-0.125-1.488-0.20798-1.715-0.668-1.831-1.573-0.39499-1.945-5.228-0.93698-12.188l0.371-2.563-0.952-1.638c-0.52402-0.901-1.471-3.096-2.105-4.879l-1.152-3.24 0.056-3.972 0.056-3.973-1.242-4.309c-1.182-4.104-1.243-4.453-1.27-7.31-0.022003-2.254 0.075012-3.325 0.388-4.305 0.698-2.177 0.573-3.145-0.642-5l-1.059-1.618-0.627-4.56c-0.345-2.509-0.841-6.074-1.103-7.922-0.26199-1.848-0.689-5.305-0.948-7.682-0.26001-2.376-0.74802-5.774-1.085-7.551-0.87302-4.609-2.975-13.182-3.475-14.173-0.233-0.46201-0.936-3.271-1.561-6.241-1.081-5.133-2.258-10.339-2.783-12.303-0.19601-0.732-0.35101-0.89999-0.83301-0.89999-0.32599 0-0.797 0.243-1.046 0.53999-0.25 0.297-0.70801 0.842-1.019 1.21-0.45099 0.53499-0.79599 0.683-1.715 0.735-0.87701 0.048996-1.305 0.21899-1.8 0.71399-2.114 2.111-2.664 2.425-4.426 2.524-1.111 0.063004-2.196-0.044998-3.214-0.321-1.404-0.38-1.682-0.57199-3.251-2.249-2.711-2.896-2.6-2.562-2.601-7.796-0.001007-4.225-0.032013-4.548-0.48001-4.921-0.47198-0.392 34.52-10.743 34.463-33.563-0.065002-26.304-35.01-17.593-32.997-37.05 0.267-2.574 0.68701-7.273 0.935-10.442 0.24701-3.168 0.61099-7.327 0.80801-9.242 0.198-1.914 0.41998-4.2905 0.49597-5.2807 0.89002-11.717 1.116-13.108 2.424-14.906 0.98502-1.3545 6.099-5.9113 8.211-7.3162 1.088-0.7239 3.737-2.3749 5.887-3.6689 5.849-3.521 7.328-4.5456 9.228-6.3928l1.73-1.6826-0.204-2.6178-0.204-2.6177-1.2-1.103c-1.467-1.3481-2.144-2.4682-2.341-3.8747-0.177-1.2601-0.40198-1.9093-1.476-4.2744-1.567-3.4463-2.017-5.6461-2.234-10.919-0.284-6.9157 0.177-9.1228 2.506-11.991 0.55798-0.6874 1.084-1.5198 1.169-1.8499 0.28601-1.1144 1.06-2.0734 3.282-4.0655 2.624-2.3528 3.858-2.9525 7.153-3.4764 2.226-0.3539 2.752-0.3559 5.869-0.021599 4.63 0.4965 5.613 0.8104 6.962 2.2238 0.59799 0.6264 1.37 1.3338 1.717 1.572 0.34702 0.2383 1.621 1.7506 2.832 3.3607 1.211 1.6102 2.291 2.9882 2.399 3.0624 0.51498 0.3512 1.396 1.8191 1.396 2.3242 0 0.311 0.17899 0.9111 0.39899 1.3336 0.21899 0.4226 0.655 2.0546 0.96802 3.6268 0.552 2.7723 0.55798 2.9153 0.186 4.7404-0.46002 2.2542-1.818 6.3725-2.389 7.2434-0.28702 0.4388-0.449 1.3537-0.54401 3.0791-0.133 2.413-0.14999 2.4713-1.016 3.4289-1.384 1.5308-1.685 2.0907-1.685 3.1381 0 0.836 0.147 1.1177 1.02 1.9536 2.994 2.866 4.893 3.789 14.323 6.9625 8.857 2.9802 18.298 6.4735 19.288 7.1365 1.39 0.9314 2.238 2.5138 2.676 4.9942 0.92499 5.2423 1.529 7.3862 4.835 17.151 5.275 15.581 6.752 20.291 7.046 22.477 0.146 1.086 0.48297 4.945 0.74695 8.576 0.26502 3.631 0.539 6.98 0.61005 7.443 0.20996 1.383-0.34705 12.543-0.84003 16.802-0.25201 2.178-0.633 5.635-0.84802 7.682-0.96997 9.268-3.249 26.006-3.587 26.344-0.072998 0.072998-0.37701 0.26-0.677 0.416-0.29901 0.157-0.52197 0.396-0.495 0.53099 0.098022 0.494-0.42102 4.775-0.67102 5.536-0.17297 0.52899-0.58997 0.97699-1.292 1.388-1.075 0.631-3.247 2.785-3.247 3.221 0 0.138-0.375 0.66499-0.83301 1.172-0.58197 0.644-1.484 1.2-3 1.85l-2.168 0.928v4.212c0.002014 13.189 1.481 32.665 3.366 44.309 1.152 7.119 1.224 7.427 2.1331 9.081 0.87097 1.587 2.398 6.165 3.605 10.81 0.95196 3.662 1.272 9.311 1.323 23.309 0.039978 10.955 0.112 13.405 0.46899 15.819 0.23297 1.571 0.60901 5.394 0.83698 8.496l0.414 5.64-1.033 0.457c-0.96503 0.427-1.032 0.518-1.032 1.405 0 0.87601 0.16901 1.118 2.22 3.169 1.803 1.803 2.482 2.7 3.608 4.766 1.358 2.491 2.038 4.777 1.72 5.78-0.20203 0.63699-1.685 1.379-4.047 2.023-1.899 0.51798-2.817 0.60898-7.102 0.69998l-4.921 0.105-2.28-0.725zm-463.54-0.457c0-0.172-0.23251-0.51401-0.5168-0.76001-0.3737-0.32498-0.4182-0.44898-0.16061-0.44898 0.4008 0 1.0858 1.112 0.83791 1.36-0.088303 0.088013-0.1605 0.019989-0.1605-0.151zm37.343-0.559c0.089996-0.237 0.224-0.37 0.298-0.29602 0.074005 0.074005 0 0.268-0.164 0.43002-0.237 0.23599-0.265 0.20798-0.134-0.134zm-59.668-0.155c0-0.14002 0.108-0.255 0.24-0.255 0.1321 0 0.2401 0.048004 0.2401 0.10599 0 0.058014-0.108 0.173-0.2401 0.254-0.132 0.082001-0.24 0.033997-0.24-0.10498zm41.929 0.065c-0.087997-0.088013-0.1601-2.086-0.1601-4.441 0-3.865 0.043694-4.324 0.4501-4.731 0.2476-0.24698 0.5987-0.5 0.7802-0.56299 0.2272-0.076996 0.0121-0.43201-0.69019-1.138-0.9811-0.98599-1.0202-1.083-1.0202-2.52 0-0.82202-0.070602-2.808-0.1569-4.413l-0.1569-2.918h-1.7814l-1.83-4.88c-1.7756-4.735-2.6649-8.077-2.9036-10.909-1.2889-15.3-1.8618-42.266-1.1383-53.585 0.7356-11.51 0.7313-11.005 0.1077-12.603-3.8719-9.92-5.2897-13.37-8.8796-21.604-4.1652-9.554-5.0248-11.272-6.1842-12.361-1.1274-1.059-1.1862-0.62999-0.8438 6.169 0.4171 8.281 0.1938 38.676-0.3392 46.16-0.3279 4.604-0.329 5.887-0.010498 11.883 0.1964 3.696 0.4076 7.132 0.4694 7.635 0.061802 0.50299 0.2814 2.934 0.488 5.401 0.3823 4.568 0.497 5.182 1.9152 10.248 2.0103 7.182 4.1922 16.236 4.3401 18.011 0.1722 2.064-0.078903 4.549-0.9039 8.95l-0.5092 2.716-1.4546 1.419-1.4546 1.419-0.0991 3.181c-0.066399 2.13-0.207 3.346-0.4258 3.68-0.2277 0.34698-0.2647 0.715-0.1219 1.213 0.1127 0.393 0.2259 1.845 0.2516 3.228 0.037903 2.046 0.1274 2.602 0.4819 2.993 0.2395 0.26401 0.5596 0.72101 0.7113 1.015 0.2638 0.51199 0.2414 0.52899-0.5101 0.383-0.4323-0.085022-0.8654-0.271-0.9624-0.41602-0.1077-0.16-0.1778-0.095978-0.18 0.16299-0.0033 0.37701-0.1766 0.41-1.504 0.28702-0.8252-0.076996-3.0126-0.13101-4.861-0.12-1.8484 0.009979-3.5767 0.019989-3.8408 0.020996-5.0107 0.024994-6.3411-0.026001-6.4772-0.246-0.2438-0.39499-0.6023-0.042999-0.4288 0.42099 0.1336 0.357 0.1011 0.36902-0.2407 0.091003-0.2598-0.211-0.6554-0.26401-1.1552-0.15399-0.4596 0.10098-0.7044 0.076996-0.6194-0.061005 0.081299-0.13101-0.8917-0.33899-2.3105-0.49399-2.0311-0.22-2.5229-0.35501-2.8711-0.785-0.231-0.285-0.42-0.715-0.42-0.95599 0-0.24103-0.3461-0.99402-0.7691-1.675-0.6866-1.104-0.7703-1.434-0.7801-3.076l-0.0112-1.84 1.43-1.8c0.7865-0.98999 2.0542-2.465 2.8173-3.277 1.6019-1.704 1.7265-1.974 2.2234-4.814 0.4847-2.772 0.4672-3.927-0.118-7.777-0.7377-4.853-1.0446-5.751-2.5367-7.423-0.7026-0.78799-1.4045-1.669-1.5596-1.959-0.4262-0.797-0.7199-7.894-0.6439-15.558 0.064701-6.522-0.2232-10.903-1.1288-17.176-0.058102-0.40201-0.3281-3.049-0.6-5.881s-0.5482-5.473-0.614-5.869c-0.065701-0.396-0.2189-2.341-0.3404-4.321-0.1434-2.337-0.4278-4.443-0.8107-6.001-0.7898-3.216-2.8081-10.742-2.9357-10.949-0.056101-0.089996-1.5239-5.442-3.2619-11.892l-3.16-11.727-0.0383-4.56-0.0383-4.561-3.264-0.154c-1.7952-0.084-3.3672-0.21701-3.4933-0.295-0.126-0.078003-1.2422-0.29701-2.4804-0.48601-2.4242-0.371-4.2368-1.054-5.0355-1.898-0.2749-0.29001-1.3512-1.798-2.3918-3.349-1.5558-2.32-2.0266-3.255-2.6499-5.261-0.67922-2.186-0.7454-2.66-0.63707-4.561l0.1209-2.12h-2.0708l-0.1323-1.02c-0.07276-0.561-0.29929-2.965-0.50341-5.341-0.20411-2.377-0.41518-4.645-0.46908-5.041-0.05387-0.397-0.273-2.341-0.48696-4.321-0.21395-1.981-0.42182-3.871-0.46192-4.201-0.31541-2.596-0.40946-3.813-0.6215-8.042-0.13238-2.64-0.30699-5.792-0.38799-7.003-0.20416-3.052-0.24074-13.218-0.051251-14.241 0.0856-0.46199 0.33506-2.407 0.55435-4.321 0.21931-1.914 0.44503-3.805 0.50161-4.201 0.54056-3.784 1.0618-18.013 1.0668-29.125 0.00212-4.6384 0.35691-7.7544 1.9043-16.724 0.69444-4.0255 0.71549-4.0909 1.551-4.8176 1.196-1.0402 4.7202-2.942 8.7891-4.7428 9.8499-4.3594 20.96-9.9221 22.036-11.033 0.7649-0.79 0.7929-0.889 0.8372-2.9548 0.0425-1.9871-0.0089-2.2424-0.7315-3.631-0.9376-1.8018-2.2174-5.2406-2.2174-5.958 0-1.1535-0.4846-1.9712-1.2601-2.1263-0.4136-0.082798-1.085-0.514-1.4921-0.9584-0.9696-1.0585-1.8181-4.4618-1.8126-7.2699 0.0035-1.7696 0.059198-2.0065 0.5655-2.4048 0.5251-0.413 0.5726-0.6636 0.7305-3.8547 0.3558-7.1874 0.8223-9.2843 2.6906-12.095 1.9242-2.8943 2.3545-3.2681 5.4891-4.7673 4.6349-2.2167 4.783-2.2559 7.8812-2.0859 6.4866 0.356 11.37 2.0824 14.442 5.1055 1.402 1.3797 2.1057 2.694 3.2313 6.0345 0.735 2.1811 0.7453 2.2774 0.7079 6.6217-0.037903 4.4008-0.036804 4.41 0.59769 5.3439 0.7158 1.0533 0.77721 1.8427 0.39931 5.1298-0.21291 1.8518-0.331 2.1674-1.3785 3.6848-1.7469 2.5306-2.0006 3.1206-2.2108 5.1429-0.1068 1.0283-0.3822 2.5065-0.612 3.2849-0.6358 2.1545-0.4194 3.4363 0.9081 5.3791 2.0057 2.9354 2.8495 3.418 8.0906 4.6264 1.6503 0.3805 7.9696 2.0364 14.043 3.6798 10.346 2.7995 11.08 3.0336 11.642 3.7117 0.7631 0.9202 2.7422 5.449 4.21 9.6336 1.074 3.061 1.154 3.467 1.454 7.3215 0.297 3.8322 0.576 5.7018 1.768 11.882 0.535 2.7727 2.09 11.964 2.883 17.044 0.278 1.782 0.78 4.664 1.114 6.404 0.6 3.12 0.607 3.292 0.514 12.722l-0.094 9.56-2.324 13.649c-1.278 7.508-2.323 13.687-2.323 13.731 0 0.044998-0.60899 0.114-1.352 0.153l-1.351 0.072 2e-3 1.321c9.99e-4 0.726 0.080002 2.778 0.175 4.561 0.17 3.185-0.152 7.015-0.848 10.082-0.25301 1.118 0.2 4.094 3.109 20.404 0.53001 2.97 1.132 6.373 1.337 7.561 0.20499 1.189 0.534 3.025 0.732 4.081 0.357 1.906 0.638 4.313 1.557 13.323 0.262 2.574 0.598 5.599 0.746 6.721 0.402 3.051 0.595 56.926 0.215 60.175-0.19701 1.686-0.576 3.244-1.223 5.028-0.689 1.897-0.939 2.959-0.939 3.986 0 0.76999-0.287 2.544-0.637 3.941-0.603 2.406-0.678 2.558-1.416 2.867-0.738 0.30801-0.77 0.37201-0.587 1.183 0.107 0.47198 0.482 1.447 0.834 2.166 0.603 1.234 1.197 1.851 4.997 5.191 1.18 1.038 2.09 3.445 2.09 5.531 0 1.437-0.022995 1.488-1.106 2.483-0.73801 0.67798-1.409 1.064-2.016 1.161-1.867 0.298-3.448 1.091-4.155 2.081-0.372 0.521-0.863 0.94699-1.092 0.94699s-0.546 0.13-0.705 0.28799c-0.224 0.224-0.288 0.198-0.288-0.12 0-0.478-0.266-0.52499-0.672-0.12-0.217 0.21698-0.288 0.21899-0.288 0.005981 0-0.20599-0.172-0.21698-0.633-0.040985-0.349 0.13199-0.69099 0.18399-0.7606 0.11398-0.069702-0.069977 0.017601-0.12698 0.1936-0.12698s0.263-0.057007 0.193-0.12701c-0.070007-0.069-0.4118-0.017975-0.7601 0.11401-0.4707 0.17899-0.6344 0.16598-0.6371-0.053009-0.002403-0.189-0.088303-0.16501-0.2401 0.06601-0.1482 0.22598-0.3035 0.271-0.4164 0.12-0.2456-0.327-2.7812-0.37799-2.9782-0.05899-0.1099 0.17798-0.3821 0.16299-0.893-0.049011-0.5414-0.224-0.9252-0.23801-1.4572-0.052002-0.473 0.16501-0.7728 0.17001-0.8689 0.014008-0.096199-0.15601-0.2475-0.15399-0.4396 0.006012-0.3173 0.26297-2.258 0.22598-2.7081-0.052002-0.1522-0.094025-0.5345-0.072998-0.8496 0.04599-0.34869 0.133-0.731 0.13-0.9771-0.007996-0.257-0.14401-0.5688-0.138-0.856 0.015991-0.2485 0.133-0.5347 0.164-0.6361 0.070007-0.10149-0.095001-0.1306 0.125-0.064896 0.48801 0.1276 0.70499 0.1156 0.75-0.1339 0.5zm9.6356-2.607c-0.073906-0.072998-0.2081 0.059998-0.2983 0.29703-0.1302 0.34198-0.1027 0.36899 0.1344 0.13397 0.164-0.16299 0.2378-0.357 0.1639-0.431z"/>
 <g fill="#fff">
  <rect x="442.41" y="1.4628" width="106" height="371"/>
  <rect x="-.32616" y="1.9647" width="112" height="371"/>
 </g>
</svg>
