<?xml version='1.0' encoding='utf-8'?>
<svg xmlns="http://www.w3.org/2000/svg" version="1.1" width="600px" height="976px" viewBox="0 0 600 976"> <g id="layer1"> <g style="fill:rgb(0,0,0); fill-opacity:1.0; stroke-linejoin: miter"> <path d="M195.61778,302.30695C195.97931,302.30695,196.31671,302.4733,196.78845,302.8037C197.82666,303.56873,198.76321,305.01068,199.18027,306.5462C199.376,307.28638,199.94257,308.3639,200.46841,308.97778C201.72946,310.4839,201.86926,311.2767,200.97235,312.17502C200.27127,312.88864,198.95297,315.16165,198.07825,317.1486C197.40909,318.6249,197.40004,320.7733,198.07687,321.7997C198.36295,322.24338,198.95511,323.376,199.36423,324.2585C200.00589,325.55588,201.7009,328.02664,202.9899,329.50626C203.09464,329.64548,203.49823,329.7933,203.87793,329.83176C204.25674,329.8973,204.84418,330.26828,205.18622,330.6591C205.5275,331.07718,207.2609,333.16843,209.07343,335.34348C210.88672,337.4915,213.67181,340.81042,215.24939,342.65222C216.85333,344.52197,218.61229,346.6682,219.18767,347.44684C219.73671,348.19745,220.39442,348.9513,220.60783,349.0935C221.5685,349.7204,228.75317,356.95007,230.2756,358.81744C232.05933,361.04602,232.51166,361.3858,234.31879,361.90155C234.99338,362.08466,236.16824,362.8266,237.25516,363.78345C238.23581,364.65564,239.4338,365.53412,239.863,365.7373C240.31857,365.96832,241.12344,366.3457,241.66049,366.57916C242.22394,366.84058,242.75626,367.23706,242.85931,367.4306C242.96243,367.62402,243.59937,368.1596,244.26675,368.58734C244.93411,369.01508,245.89154,369.75043,246.39505,370.2005C246.95212,370.67938,247.62268,370.9984,248.13898,371.01367C248.95428,371.03778,250.95795,372.26648,250.9443,372.72845C250.9403,372.86432,251.6004,373.53662,252.39563,374.2401C253.57684,375.2729,253.87015,375.44934,254.81464,375.44934C254.95139,375.44934,255.10178,375.44565,255.27051,375.4403C256.05942,375.43634,256.82196,375.40454,256.9586,375.38135C256.9588,375.38135,256.95898,375.38135,256.9592,375.38135C257.07104,375.38135,258.07343,374.542,259.18805,373.5705C262.9618,370.1695,265.4662,368.5812,267.0465,368.5812C267.06934,368.5812,267.09198,368.58154,267.11444,368.5822C267.8482,368.60394,268.32614,368.99878,270.25058,371.06842C271.51648,372.41144,272.82788,374.05493,273.1899,374.69122C274.4541,377.0133,274.95593,377.51776,276.15167,377.5531C277.56482,377.59485,278.17865,377.9937,278.63406,379.14954C278.83627,379.6723,279.14792,380.17114,279.36295,380.2591C279.39276,380.27094,279.42923,380.2766,279.47156,380.2766C280.26877,380.2766,283.1565,378.26282,283.3342,377.49323C283.42694,377.11517,283.6356,376.49573,283.81067,376.0929C284.25125,374.99078,284.02927,373.2978,282.9762,370.27484C281.77606,366.70337,281.77527,366.73053,281.0719,366.60095C280.74744,366.53705,280.19196,366.00385,279.82837,365.42188C278.79028,363.73206,278.44208,361.70898,278.62958,358.12415C278.70898,356.35858,278.7716,354.23883,278.76843,353.42273C278.74792,351.35498,279.18085,347.7503,279.45825,347.56805C279.5965,347.49054,279.71643,347.11334,279.72845,346.7057C279.763,345.5371,281.1645,343.21216,281.93097,343.04443C282.50568,342.9254,282.56403,342.79108,282.45068,342.02612C282.2883,341.0998,283.02066,339.14636,283.4829,339.14636C283.48453,339.14636,283.48615,339.1464,283.48773,339.14645C283.48837,339.14648,283.489,339.14648,283.4897,339.14648C283.6518,339.14648,283.77728,338.5537,283.79883,337.8229C283.8318,336.70865,283.73267,336.37936,283.14844,335.89975C282.7768,335.5895,282.35083,335.27774,282.16217,335.2178C281.59717,335.01077,282.14868,334.7549,283.5147,334.55057C284.25244,334.43643,285.2116,334.19272,285.6537,333.96097C286.03802,333.7658,286.43002,333.67975,286.98193,333.67975C287.30237,333.67975,287.6767,333.70877,288.13467,333.76224C288.59393,333.8142,288.94543,333.84268,289.22406,333.84268C289.73492,333.84268,290.0007,333.74698,290.23602,333.52512C290.42297,333.3489,290.6409,333.26184,290.875,333.26184C291.23654,333.26184,291.63666,333.46945,292.0208,333.87698C292.17017,334.0249,292.36823,334.09317,292.55786,334.09317C292.87158,334.09317,293.16235,333.90643,293.17184,333.58463C293.17746,333.39444,293.0208,333.17215,292.86014,333.0858C292.6716,333.02597,292.622,332.8613,292.73474,332.72855C292.77936,332.6865,292.83435,332.6669,292.89368,332.6669C293.0204,332.6669,293.16675,332.75632,293.2734,332.90762C293.77054,333.57516,294.83908,334.23227,295.86533,334.4802C297.45908,334.85364,298.56046,335.3213,298.55002,335.67462C298.5452,335.8377,299.13098,336.26306,299.8551,336.61084C300.60718,336.9322,301.27457,337.35992,301.35208,337.49823C301.45593,337.66455,302.14487,338.28326,302.88892,338.8764C305.4672,340.9109,307.2557,342.9765,307.7007,344.48566C307.92285,345.25378,308.2017,345.94196,308.3352,346.02753C308.46866,346.11304,308.56854,346.41522,308.5597,346.7141C308.55167,346.98596,308.68036,347.23456,308.81616,347.2386C308.97925,347.2434,309.07593,347.65417,309.06067,348.1706C309.0454,348.6869,309.16763,349.1529,309.3291,349.21204C309.59845,349.30164,309.7413,350.91064,309.78793,354.8559C309.79495,356.46088,309.9164,356.9541,310.3152,357.26508C310.74036,357.60406,310.81067,357.98688,310.70496,359.72455C310.63275,361.24554,310.5064,361.8402,310.20184,362.0216C309.95407,362.12305,309.61194,362.65695,309.43362,363.16843C309.2553,363.6799,308.5758,364.58475,307.95944,365.19205C306.89624,366.19424,305.74503,368.3362,305.7153,369.3417C305.7081,369.58627,305.44745,370.12262,305.13574,370.54858C304.51373,371.3462,304.06744,373.56335,304.2807,374.63043C304.4021,375.12366,304.74744,375.40582,305.44757,375.6441C306.56628,376.01334,307.41794,376.1952,308.52502,376.1952C309.65717,376.1952,311.05634,376.00504,313.28137,375.63074C314.04636,375.51727,315.6833,375.34808,316.9638,375.27716C318.95325,375.1455,319.5839,374.9737,321.35126,374.0739C323.20175,373.12225,325.2376,372.3391,327.9273,371.52106C328.23355,371.42505,328.48328,371.37747,328.72165,371.37747C329.03888,371.37747,329.336,371.46176,329.71936,371.62836C330.6856,372.06494,332.92896,374.38873,333.1502,375.18408C333.25092,375.45905,333.4339,375.70923,333.56982,375.71326C333.7057,375.71722,333.80878,375.9107,333.80237,376.1281C333.78632,376.67163,334.47748,378.1336,335.08252,378.83148C335.36615,379.13245,335.59894,379.264,336.04047,379.264C336.2146,379.264,336.4212,379.24353,336.6762,379.20493C337.30444,379.11472,337.85364,378.9405,337.9663,378.80792C338.05762,378.6562,338.2151,378.58176,338.42548,378.58176C338.8082,378.58176,339.3659,378.82806,340.0188,379.30362C340.55115,379.70023,341.19446,380.0184,341.43903,380.02567C341.4434,380.0258,341.4478,380.02588,341.45236,380.02588C341.8446,380.02588,342.92535,379.54926,343.22958,379.26248C343.45026,379.00278,345.50143,378.5365,346.25073,378.5365C346.26688,378.5365,346.28244,378.5367,346.29736,378.53717C346.30518,378.53738,346.31308,378.5375,346.3211,378.5375C346.67606,378.5375,347.23596,378.31354,347.5635,378.03058C348.54797,377.1543,350.02118,376.5011,351.00055,376.5011C351.02158,376.5011,351.0424,376.5014,351.06296,376.502C351.0922,376.50287,351.1212,376.5033,351.14984,376.5033C351.62762,376.5033,352.01837,376.38654,352.02216,376.2583C352.0269,376.09827,352.13483,375.9937,352.26724,375.9937C352.26974,375.9937,352.27225,375.99374,352.27475,375.99384C352.27594,375.99384,352.27716,375.99387,352.2784,375.99387C352.53644,375.99387,354.28967,375.2604,355.883,374.46844C356.40814,374.18475,357.42004,373.99707,358.12744,373.99072C358.19583,373.99274,358.26352,373.9937,358.33002,373.9937C358.9506,373.9937,359.47055,373.90845,359.5478,373.7879C359.63257,373.68158,360.073,373.5042,360.5102,373.43555C360.9754,373.34045,361.5813,373.08636,361.88824,372.82343C362.16803,372.55975,362.83557,372.06262,363.36304,371.69742C364.16718,371.17722,364.39667,370.77597,364.7342,369.48038C364.95007,368.61636,365.27472,367.75552,365.46973,367.59805C365.63837,367.41263,365.86865,366.98434,365.9886,366.6071C366.08136,366.22903,366.42432,365.66794,366.76007,365.35147C367.0686,365.0342,367.3285,364.52512,367.33813,364.199C367.34686,363.90247,367.48767,363.6634,367.62256,363.6634C367.6237,363.6634,367.62482,363.6634,367.62592,363.66342C367.62775,363.66348,367.62952,363.6635,367.63132,363.6635C367.7915,363.6635,367.90417,363.45108,367.9121,363.18234C367.91937,362.93777,368.24396,362.07703,368.6477,361.30017C369.08105,360.44263,369.38495,359.36353,369.40497,358.68414C369.42426,358.03192,369.5786,357.41095,369.74402,357.33423C369.91034,357.2303,369.97913,356.7428,369.88892,356.11444C369.77466,355.37677,369.901,354.78204,370.36316,353.87097C370.99792,352.63855,370.99872,352.61133,370.70203,347.92432C370.4986,344.68158,370.49646,342.9135,370.70593,342.2669C370.85706,341.75452,371.34644,339.9195,371.77753,338.21857C372.23572,336.51855,372.72028,334.8465,372.86664,334.49725C373.74127,332.5103,372.08313,329.71414,368.87903,327.68845C367.89038,327.08798,367.09357,326.43893,367.09918,326.24863C367.1056,326.03128,366.94897,325.80905,366.78754,325.74985C366.51898,325.63306,366.54932,325.5252,366.85468,325.3166C367.1872,325.1089,367.25763,324.56696,367.25543,322.7989C367.266,321.5209,367.13348,320.48337,366.9464,320.36905C366.78656,320.25558,366.6253,319.27158,366.60303,318.183C366.54413,316.49484,366.61047,316.08878,367.0326,315.6118C367.51556,315.12506,367.93365,314.88605,368.37836,314.88605C368.68213,314.88605,368.99835,314.99762,369.3562,315.21793C369.74005,315.46686,369.94824,315.5885,370.1686,315.5885C370.37726,315.5885,370.5968,315.47946,370.9867,315.26608C371.50232,315.0007,371.88928,314.8694,372.27338,314.8694C372.67108,314.8694,373.0658,315.0102,373.59717,315.2888C373.98447,315.49692,374.2664,315.59332,374.56152,315.59332C374.7561,315.59332,374.95648,315.55142,375.19653,315.47202C375.4527,315.3753,375.79718,315.33017,376.16302,315.33017C376.46497,315.33017,376.78143,315.36093,377.0749,315.4188C377.5769,315.54855,378.37192,315.6287,378.9844,315.6287C379.09644,315.6287,379.2024,315.626,379.29932,315.62045C379.3341,315.61945,379.3689,315.61893,379.40363,315.61893C380.75555,315.61893,382.06607,316.38358,382.6161,317.51358C382.82147,317.9277,383.02686,318.34177,383.10596,318.42563C383.34412,318.6503,384.10468,321.44705,384.08704,322.0449C384.0782,322.3439,384.25635,322.75714,384.4666,323.00818C384.8094,323.3719,384.84528,323.99854,384.59317,327.01022C384.42667,328.96365,384.18826,330.58856,384.07797,330.6397C383.72067,330.7652,383.70517,333.13104,384.03128,333.1407C384.1943,333.1455,384.29825,333.31177,384.29263,333.502C384.27817,333.9912,385.0486,334.61237,386.28342,335.1656C387.14258,335.54462,387.38074,335.76917,387.41663,336.3958C387.50757,337.9217,387.68335,338.4165,388.1725,338.43097C388.18082,338.4312,388.1892,338.43134,388.1977,338.43134C388.46594,338.43134,388.80588,338.30945,388.94147,338.1817C389.021,338.10675,389.12308,338.06696,389.26166,338.06696C389.65942,338.06696,390.35797,338.39493,391.6869,339.16034C392.40863,339.58966,392.5125,339.75598,392.25507,340.18353C392.02484,340.61188,388.2785,353.25775,387.7835,355.2832C387.69073,355.6612,387.51642,356.0368,387.35095,356.11353C387.1847,356.21735,387.05096,357.98145,387.00513,360.4552C386.94476,363.41818,386.78635,365.09995,386.4545,366.20523C386.2114,367.0685,385.9915,368.0684,385.98105,368.4216C385.9706,368.77493,385.85226,369.0978,385.6876,369.1473C385.55014,369.19766,385.27023,370.38614,385.0654,371.79453C384.57867,375.43668,384.3601,376.3895,384.08997,376.3895C384.08884,376.3895,384.0877,376.38947,384.08655,376.38947C384.086,376.38943,384.08545,376.3894,384.0849,376.3894C383.94965,376.3894,383.82745,376.87387,383.80988,377.46936C383.77216,378.74445,382.8963,381.7838,382.5418,381.7838C382.5412,381.7838,382.5406,381.7838,382.53998,381.78378C382.53888,381.78375,382.5378,381.78375,382.53674,381.78375C382.42908,381.78375,382.31775,381.9425,382.3114,382.15775C382.29938,382.56366,380.33765,384.1526,379.86487,384.1526C379.86285,384.1526,379.86084,384.15256,379.8589,384.1525C379.85522,384.1524,379.85156,384.15234,379.8479,384.15234C379.68842,384.15234,379.52826,384.25397,379.47202,384.3586C379.4408,384.4938,378.27454,385.30246,376.88843,386.1863C375.5295,387.07095,373.6718,388.26724,372.81174,388.84024C371.92596,389.4114,371.1517,389.87753,371.09497,389.87753C371.09488,389.87753,371.0948,389.87753,371.0947,389.87753C371.09448,389.87753,371.0943,389.8775,371.0941,389.8775C370.8955,389.8775,366.6645,392.52118,366.49524,392.73355C366.41046,392.83987,366.07953,392.99332,365.75024,393.09232C365.3938,393.19058,365.11554,393.39996,365.11157,393.53583C365.10767,393.6678,364.9509,393.76947,364.7429,393.76947C364.73657,393.76947,364.73026,393.76935,364.72388,393.76917C364.7194,393.76904,364.71487,393.76898,364.7103,393.76898C364.49185,393.76898,364.14435,393.91858,363.9533,394.07275C363.50647,394.4676,362.70313,394.9607,361.93097,395.31866C361.6272,395.47284,361.01892,395.80847,360.5489,396.06665C359.6368,396.60983,355.2925,398.6508,355.03394,398.6508C355.0335,398.6508,355.03305,398.6508,355.03262,398.65076C355.0324,398.65076,355.0322,398.65076,355.03198,398.65076C354.9454,398.65076,353.84637,399.1068,352.58267,399.63922C347.81546,401.72876,342.25046,404.12115,341.26007,404.49982C339.19702,405.2821,338.53278,405.67053,337.13702,406.88043C336.2721,407.61646,335.57025,408.3573,335.56622,408.49316C335.56226,408.62903,335.25287,408.9735,334.86353,409.26123C334.4743,409.54895,334.16412,409.9206,334.1577,410.13794C334.1521,410.32813,334.00977,410.54156,333.81793,410.59027C333.46057,410.7157,332.7202,412.761,332.6889,413.82086C332.67767,414.2013,332.53058,414.57776,332.3659,414.62732C331.87195,414.776,331.54926,419.25433,331.99677,419.75714C332.20856,419.95374,332.59534,420.67242,332.84863,421.30548C333.1283,421.9665,333.43915,422.4925,333.575,422.49646C333.68372,422.4997,333.78845,422.6388,333.78284,422.82904C333.76837,423.31824,334.60895,425.247,334.85352,425.2542C334.96225,425.25745,335.0653,425.45087,335.0589,425.66827C335.04205,426.2389,335.87943,428.27643,336.124,428.2837C336.2599,428.28772,336.33502,428.5075,336.32617,428.80646C336.3053,429.51306,337.01404,431.30194,337.34015,431.31158C337.50323,431.3164,337.60306,431.6186,337.59183,431.99902C337.57175,432.6784,338.2677,434.90216,338.58655,435.15637C338.69284,435.2411,338.84225,435.7079,338.93732,436.1731C339.00443,436.6646,339.1442,437.45758,339.21207,437.92194C339.3071,438.3871,339.53882,438.82922,339.72668,438.91638C339.94165,439.00433,340.0983,439.2265,340.09265,439.4168C340.079,439.87878,340.92932,441.48145,341.20102,441.48944C341.30975,441.49268,341.38562,441.6853,341.3792,441.9027C341.37198,442.14722,341.82745,443.3031,342.38998,444.51654C342.95258,445.72992,343.40958,446.83136,343.4048,446.99445C343.39352,447.37494,345.2379,450.31256,345.4825,450.31976C345.59122,450.323,345.76535,450.87207,345.8268,451.5539C345.9163,452.2093,346.08804,452.84003,346.2487,452.9264C346.38138,453.039,346.47964,453.39557,346.46838,453.776C346.45795,454.12927,346.58502,454.43225,346.7209,454.43628C346.88394,454.44104,346.9846,454.716,346.97495,455.0421C346.94928,455.91174,347.59967,457.8349,347.94974,457.9541C348.11118,458.01324,348.23825,458.31622,348.2286,458.64233C348.20453,459.45758,349.01544,462.39188,349.26,462.39908C349.36874,462.4023,349.47018,462.65005,349.46054,462.97617C349.43646,463.7915,350.20752,466.23505,350.47925,466.2431C350.6151,466.24707,350.7126,466.6308,350.6989,467.09277C350.66925,468.0982,351.43774,471.5481,351.7063,471.6648C351.8405,471.72314,351.9132,472.02454,351.90363,472.35065C351.87872,473.1931,352.6712,476.75244,352.9397,476.8692C353.0468,476.92676,353.1203,477.20087,353.1123,477.4726C353.08582,478.36945,353.8192,481.16547,354.0885,481.255C354.51855,481.43097,354.3642,482.05194,353.8686,482.25488C353.59442,482.32843,351.89026,482.93085,350.0774,483.5301C348.26373,484.1565,346.58673,484.75977,346.3661,484.86206C346.1175,484.99066,345.56915,485.1377,345.13116,485.23358C343.35266,485.589,343.09528,486.01654,342.8119,489.16333C342.56934,491.84885,342.5885,492.1215,343.15027,493.36203C343.48267,494.07907,343.89825,494.74405,344.08685,494.80405C344.27466,494.89127,344.43054,495.1406,344.42493,495.33084C344.4129,495.7385,345.0841,496.9551,345.6363,497.59702C345.82092,497.79288,345.97595,498.06943,345.97272,498.1782C345.96954,498.2869,346.1773,498.61935,346.44025,498.9263C346.70313,499.2333,347.1411,500.06223,347.3919,500.77682C347.64282,501.4915,347.92493,502.0709,348.03363,502.07413C348.14233,502.0773,348.31573,502.65366,348.40436,503.33627C348.46576,504.0181,348.76862,504.81577,349.05878,505.12357C349.32245,505.40335,349.5558,505.79105,349.55017,505.9813C349.53735,506.4161,350.33875,508.75168,350.55054,508.9484C350.84302,509.1746,351.57983,510.93713,351.56775,511.3448C351.56213,511.53503,351.69318,511.70215,351.82904,511.70618C351.99207,511.711,352.09357,511.95868,352.08557,512.23047C352.06793,512.8283,352.86298,514.4566,353.1891,514.46625C353.29782,514.4694,353.3721,514.71643,353.36325,515.0154C353.3464,515.58606,354.0695,517.81055,354.36197,518.03687C354.54822,518.1783,354.74313,518.9457,355.02112,520.5858C355.08978,521.0231,355.32233,521.43787,355.51013,521.525C355.72516,521.61304,355.88095,521.8624,355.8745,522.07983C355.86087,522.5419,356.65598,524.17004,356.97806,524.31555C357.08517,524.37305,357.15787,524.67444,357.14984,524.9463C357.1338,525.48975,357.81934,527.14197,358.16544,527.397C358.61697,527.7639,358.91647,529.5952,358.85144,531.7964C358.80005,533.53564,358.8863,534.2998,359.1764,534.60754C359.38736,534.8313,359.56958,535.10876,359.56558,535.2446C359.56155,535.3805,359.93237,535.7179,360.36,535.9752C360.81393,536.2606,361.15762,536.59717,361.1528,536.76025C361.1488,536.8961,361.3901,537.0121,361.6891,537.0209C361.98798,537.0298,362.22696,537.2272,362.22055,537.4446C362.2141,537.662,362.3172,537.85547,362.42587,537.85864C362.91507,537.87305,363.1736,541.09033,362.9478,544.13C362.7029,546.8971,362.74203,547.41504,363.2206,548.7075C363.52344,549.50525,363.6864,550.43494,363.59525,550.75854C363.47446,551.16296,363.6479,551.73926,364.06335,552.4044C364.86972,553.6522,364.88794,554.8767,364.1309,555.64307C363.51382,556.2777,362.69186,558.32056,362.66135,559.3533C362.6493,559.76086,362.87463,560.42035,363.18872,560.8376C363.63382,561.42194,363.70493,561.77765,363.52182,562.4522C363.062,564.20667,363.12387,567.6355,363.69022,570.5626C364.23575,573.27155,364.22614,573.59766,363.8487,575.3273C363.60077,576.3535,363.2401,577.51245,363.0387,577.8872C362.60617,578.71765,361.21204,579.8733,360.41675,580.0945C359.6214,580.3158,359.41498,581.77844,359.8199,584.64636C360.0386,586.448,360.06006,587.56384,359.86487,588.6461C359.7049,589.4574,359.47458,590.81055,359.34177,591.62256C359.23618,592.4354,359.0786,593.16516,358.96747,593.2434C358.63333,593.5056,357.78827,595.41187,357.773,595.9281C357.76425,596.2251,357.64978,596.4653,357.5417,596.4653C357.54095,596.4653,357.54025,596.4653,357.53955,596.4652C357.539,596.4652,357.53845,596.4652,357.53793,596.4652C357.401,596.4652,357.06107,596.97034,356.7449,597.5841C356.4539,598.2284,355.96942,598.9756,355.6888,599.2665C355.40826,599.5574,355.09326,600.09216,355.0005,600.4701C354.90775,600.84827,354.62314,601.275,354.40094,601.43164C354.09555,601.64014,354.03076,601.9918,354.14578,602.7025C354.23764,603.27637,354.415,603.71686,354.5509,603.7208C354.71396,603.72565,354.80182,604.4354,354.77692,605.2779C354.73276,606.7726,355.35983,609.4839,355.81625,609.68774C355.92328,609.7453,355.99518,610.07385,355.98474,610.4271C355.96225,611.188,356.7238,613.03284,357.0499,613.0425C357.1586,613.04565,357.25766,613.37506,357.2456,613.78265C357.21753,614.7338,358.00043,617.6945,358.27222,617.7025C358.38092,617.70575,358.4784,618.08936,358.4655,618.5242C358.4342,619.5841,359.18756,622.6255,359.4865,622.63434C359.59515,622.6376,359.68622,623.2386,359.66376,623.9995C359.6421,624.7333,359.75946,625.3623,359.8954,625.36633C360.0584,625.3712,360.14545,626.10815,360.11896,627.0049C360.0926,627.8988,359.96295,628.62744,359.80066,628.62744C359.8001,628.62744,359.7996,628.62744,359.79907,628.62744C359.79736,628.6274,359.7957,628.6274,359.794,628.6274C359.65967,628.6274,359.5224,628.78455,359.51764,628.94556C359.4776,629.3795,357.42093,630.86914,356.37698,631.2191C355.8654,631.3987,355.22067,631.48376,354.5523,631.48376C353.35358,631.48376,352.0788,631.2101,351.35986,630.7173C350.1866,629.921,347.3303,627.17114,347.33994,626.845C347.34393,626.7091,347.05786,626.2655,346.68948,625.8466C346.321,625.42773,346.03412,625.0113,346.03732,624.9026C346.04053,624.7938,345.75366,624.37744,345.38522,623.9585C345.0168,623.5397,344.7323,623.0416,344.73795,622.85144C344.74435,622.63403,344.6405,622.4678,344.53177,622.46454C344.39594,622.4606,344.08505,621.9346,343.8054,621.2735C343.55206,620.6405,343.27,620.0609,343.1637,619.97614C342.79208,619.666,342.17126,617.6621,342.19696,616.7925C342.2122,616.2761,342.11557,615.86523,341.9525,615.8605C341.78946,615.8556,341.70242,615.1187,341.7289,614.22186C341.7553,613.328,341.88495,612.5993,342.04724,612.5993C342.0478,612.5993,342.04834,612.5993,342.04886,612.59937C342.04926,612.59937,342.04968,612.59937,342.0501,612.59937C342.2126,612.59937,342.34875,611.65283,342.38882,610.2975C342.42654,609.0202,342.37555,607.9851,342.23965,607.98114C342.131,607.9779,341.83536,606.93555,341.57413,605.6495C341.34012,604.3642,341.0445,603.32184,340.9358,603.31866C340.7999,603.31464,340.41074,602.6776,339.9984,601.9038C339.4625,600.8922,339.26294,600.6061,338.84872,600.6061C338.76508,600.6061,338.6727,600.6178,338.56702,600.63745C338.4697,600.654,338.38034,600.66296,338.2967,600.66296C337.91058,600.66296,337.64642,600.4717,337.28186,599.9468C336.9958,599.50305,336.73846,599.006,336.7433,598.8429C336.7473,598.70703,336.64258,598.5679,336.53394,598.5647C336.398,598.56067,336.08478,598.1162,335.80267,597.53674C335.547,596.9851,335.0523,596.2362,334.73743,595.84607C334.39545,595.4552,334.1413,594.84924,334.15094,594.5232C334.16138,594.1699,334.06146,593.8678,333.95282,593.8645C333.5995,593.8541,332.86597,591.9829,332.89166,591.1133C332.92297,590.05334,333.3004,589.24854,334.1717,588.29504C334.59302,587.8452,335.02075,587.17773,335.11505,586.74536C335.2081,586.34265,335.37927,586.0228,335.5147,586.0228C335.51556,586.0228,335.51642,586.0228,335.5172,586.0228C335.518,586.0229,335.5188,586.0229,335.51953,586.0229C335.65448,586.0229,335.77228,585.67444,335.78424,585.26917C335.80676,584.5083,336.40076,583.73706,338.44482,581.75745C338.97632,581.25635,339.64703,580.65063,339.97876,580.47C340.42322,580.15674,340.54156,579.83386,340.5409,578.9363C340.50897,578.1737,340.66174,577.60706,340.99823,577.2633C341.50348,576.7343,341.67712,575.46106,341.27673,575.2044C340.8499,574.91986,340.75415,573.55707,340.69104,567.408C340.66132,561.9673,340.57593,561.176,340.11163,560.3191C339.82794,559.79395,339.34454,558.6645,339.04327,557.81244C338.7693,556.9611,338.12354,555.7997,337.62408,555.2136C337.12378,554.6549,336.70422,554.12573,336.7058,554.0714C336.70825,553.98987,336.10248,553.3192,335.39038,552.5637C334.65112,551.8075,334.07654,551.0017,334.08295,550.7844C334.09015,550.5398,333.93274,550.3447,333.74255,550.3391C333.38922,550.32874,332.7796,548.869,332.80365,548.05383C332.8109,547.8092,332.70862,547.5886,332.59985,547.58545C332.30096,547.57654,331.51147,545.75806,331.53076,545.10583C331.53882,544.8341,331.46527,544.55994,331.35822,544.5023C330.98257,544.328,330.24185,542.7014,330.25952,542.10364C330.26917,541.77747,330.1133,541.5281,329.92303,541.52246C329.70566,541.516,329.3948,540.9901,329.19586,540.3585C329.02487,539.7007,328.6653,538.9829,328.40152,538.7031C328.1642,538.4513,327.88452,537.7903,327.81824,537.2715C327.72482,536.7521,327.52185,536.25635,327.33325,536.1964C327.14542,536.10925,326.86255,535.557,326.66357,534.9254C326.49182,534.2948,326.2617,533.79846,326.153,533.79517C325.93558,533.7888,325.11972,531.94226,325.1342,531.4531C325.1406,531.2357,325.03754,531.04236,324.9016,531.0383C324.65704,531.031,323.84924,528.91284,323.86688,528.31494C323.87253,528.12476,323.7183,527.82104,323.53372,527.6251C323.16528,527.2063,322.40527,526.2318,319.7617,522.7267C318.7939,521.4197,317.7718,520.1111,317.50885,519.80414C317.2459,519.4972,316.9886,518.99994,316.91672,518.67145C316.84482,518.3429,316.5036,517.9248,316.12875,517.7234C315.78186,517.49554,315.49338,517.1335,315.5014,516.8617C315.50943,516.58997,315.27368,516.28375,314.97717,516.1934C314.6806,516.1031,314.44324,515.85126,314.44885,515.6611C314.45447,515.47076,314.11887,514.8625,313.67136,514.3597C313.25177,513.83044,312.88818,513.24854,312.8938,513.0583C312.89862,512.8952,312.60452,512.7234,312.22406,512.71216C312.20917,512.71173,312.1944,512.7115,312.17987,512.7115C311.79654,512.7115,311.53955,512.86304,311.53336,513.0726C311.52695,513.29,311.33035,513.5018,311.1097,513.604C310.88986,513.6791,310.69244,513.9181,310.6852,514.16266C310.67883,514.3773,310.56732,514.5624,310.40756,514.5624C310.40552,514.5624,310.40344,514.5623,310.4014,514.56226C310.39935,514.5622,310.39734,514.56213,310.39532,514.56213C310.2614,514.56213,310.12555,514.69214,310.12158,514.826C310.11676,514.9891,309.8042,515.4422,309.41174,515.8386C309.01923,516.23505,308.70825,516.6338,308.70502,516.7425C308.70105,516.87836,308.4748,517.1709,308.195,517.43463C307.7473,517.8566,307.61615,518.6143,307.3142,523.3109C307.04504,527.818,307.037,529.0145,307.36444,530.81946C307.6009,532.0232,307.8717,532.98315,308.00757,532.9872C308.11633,532.99036,308.2033,533.7273,308.17682,534.62415C308.1504,535.5189,308.02057,536.2483,307.91196,536.2483C307.9117,536.2483,307.9115,536.2483,307.91125,536.2483C307.911,536.2483,307.91077,536.2483,307.91052,536.2483C307.80127,536.2483,307.5087,536.9728,307.31958,537.8628C307.10364,538.7268,306.75024,539.6411,306.52637,539.8522C306.3026,540.0631,306.10352,540.35645,306.09955,540.4923C306.09552,540.6282,305.89722,540.8943,305.6742,541.0781C305.45117,541.26184,305.24976,541.6367,305.2425,541.88135C305.2345,542.1531,305.09058,542.4208,304.9259,542.47046C304.62372,542.5703,303.73505,547.7936,303.6413,550.04834C303.6197,550.779,303.49506,551.3447,303.333,551.3447C303.33234,551.3447,303.33163,551.3447,303.33093,551.3447C303.33026,551.34467,303.3296,551.34467,303.32892,551.34467C303.1936,551.34467,303.04712,551.74664,303.0335,552.2063C303.0191,552.69556,302.7879,554.0758,302.508,555.26434C301.75467,558.66925,301.54434,565.78925,302.13382,568.853C302.39337,570.19354,302.65778,571.3709,302.7369,571.45483C302.92233,571.6235,303.51877,582.7384,303.429,584.8574C303.4033,585.72705,303.49112,586.4369,303.65417,586.44165C303.81723,586.44653,303.89706,587.428,303.8833,588.8147C303.84396,590.14636,303.9037,591.80725,304.0171,592.57227C304.2391,594.26514,303.3756,608.7642,303.0431,608.972C302.5722,609.2573,302.27777,611.8597,302.6734,612.2794C302.85718,612.50244,303.21924,613.1387,303.4477,613.68945C303.70258,614.2682,304.01508,614.73975,304.1781,614.7446C304.31396,614.7486,304.44586,614.88855,304.44104,615.0516C304.4306,615.4049,305.2177,617.3048,305.45667,617.5024C305.53577,617.5863,305.81946,618.11145,306.04718,618.68933C306.30286,619.2409,306.61536,619.7125,306.75122,619.71655C306.9143,619.7213,306.9619,621.7899,306.87042,624.88794C306.77417,628.14496,306.60965,630.04333,306.4468,630.04333C306.4466,630.04333,306.4464,630.04333,306.44617,630.04333C306.44507,630.04333,306.44397,630.0433,306.44284,630.0433C306.30795,630.0433,306.1671,630.2821,306.15912,630.55164C306.15033,630.8506,305.93036,631.85046,305.6577,632.79443C305.11316,634.655,305.1104,637.511,305.67053,638.8059C305.92465,639.41174,305.8846,639.8458,305.49203,641.167C305.19373,642.0558,304.9746,643.02844,304.9658,643.3274C304.95703,643.6234,304.84332,643.8629,304.68274,643.8629C304.68115,643.8629,304.67957,643.8629,304.67795,643.8629C304.67627,643.8628,304.67456,643.8628,304.6729,643.8628C304.53857,643.8628,304.4013,644.0206,304.39493,644.23535C304.3893,644.42554,304.1831,644.96344,303.9536,645.3646C303.72333,645.7931,303.51627,646.35815,303.50903,646.60266C303.50107,646.87244,303.38757,647.08545,303.27957,647.08545C303.27875,647.08545,303.27795,647.08545,303.27716,647.08545C303.27625,647.08545,303.27533,647.08545,303.27435,647.08545C303.1375,647.08545,302.85934,647.3749,302.65927,647.7472C302.48627,648.0468,302.25516,648.2639,302.12656,648.2639C302.10596,648.2639,302.08798,648.25836,302.0733,648.2467C301.9911,648.1958,301.90027,648.1725,301.8056,648.1725C301.3158,648.1725,300.7243,648.79694,300.70477,649.4574C300.69275,649.86505,300.5448,650.2687,300.38016,650.31824C299.9413,650.4413,299.8482,653.5936,300.279,653.7423C300.44043,653.8015,300.5667,654.13165,300.55627,654.485C300.5346,655.2186,301.2673,657.11707,301.69327,657.42883C302.06573,657.7119,301.80984,664.5314,301.42618,664.62885C301.26154,664.67834,300.8834,665.5104,300.5835,666.4535C300.2835,667.4218,299.93488,668.1991,299.82544,668.1991C299.82523,668.1991,299.825,668.1991,299.82477,668.1991C299.82312,668.199,299.82147,668.199,299.81982,668.199C299.68683,668.199,299.60248,668.3584,299.5961,668.5731C299.57684,669.22534,296.83002,672.8977,295.88513,673.577C294.6078,674.46405,293.61987,674.7612,291.49365,674.916C291.32007,674.9264,291.13733,674.9314,290.94812,674.9314C289.14764,674.9314,286.76608,674.4825,286.1897,673.9978C286.00427,673.8291,285.85168,673.47107,285.8597,673.19934C285.86853,672.9004,285.76624,672.6798,285.6576,672.6766C285.1684,672.6621,284.79294,670.6382,284.74783,667.56335C284.7209,665.713,284.5748,664.2127,284.4661,664.2095C284.3302,664.20544,284.2472,663.33264,284.2777,662.3C284.30972,661.2161,284.44183,660.40564,284.6042,660.40564C284.60468,660.40564,284.60516,660.4057,284.60565,660.4057C284.6065,660.40576,284.60736,660.40576,284.60822,660.40576C284.76996,660.40576,284.89114,659.9487,284.90793,659.38104C284.93842,658.3484,285.74762,655.8154,286.1089,655.5541C286.33038,655.4247,286.56073,654.07153,287.07672,650.4148C287.24957,649.16876,287.49908,648.08813,287.6637,648.0386C287.82837,647.9891,287.97308,647.69415,287.98273,647.36804C288.00516,646.6087,288.88025,644.4931,289.18097,644.4931C289.1816,644.4931,289.18222,644.4931,289.18286,644.49316C289.18335,644.49316,289.18384,644.49316,289.18436,644.49316C289.31964,644.49316,289.44357,643.95435,289.46356,643.27747C289.49487,642.2176,289.41815,642.0521,288.82507,641.87146C288.66516,641.83215,288.456,641.8109,288.2367,641.8109C287.93756,641.8109,287.6195,641.85046,287.38153,641.93756C286.65082,642.2104,284.09644,642.69275,283.49728,642.69275C283.48758,642.69275,283.4784,642.6926,283.46973,642.6924C283.3067,642.6876,283.22992,642.5221,283.28992,642.3335C283.40826,642.0106,284.69354,641.7766,287.448,641.53156C288.81073,641.4358,290.0282,640.73737,289.3288,640.4719C288.95154,640.352,288.24042,638.6446,288.2621,637.9109C288.27094,637.61194,288.19586,637.3921,288.05994,637.38806C287.54358,637.3728,286.99963,634.6096,287.06628,632.354C287.104,631.0768,287.02655,630.0137,286.8907,630.0097C286.75488,630.0057,286.59985,629.7291,286.52795,629.4006C286.31384,628.3607,285.75934,626.87555,285.44202,626.567C284.70117,625.8651,284.5855,624.25696,284.78778,617.4086C284.90338,613.4953,284.88702,610.36694,284.7511,610.3629C284.47943,610.35486,283.70837,607.9113,283.73242,607.096C283.74207,606.7699,283.64063,606.52216,283.53186,606.5189C283.2873,606.5117,282.47644,603.5774,282.5005,602.76215C282.51013,602.43604,282.38306,602.13306,282.22162,602.0739C281.818,601.92596,281.51138,599.4145,281.47028,596.20374C281.45697,593.89136,281.04715,585.66504,280.79102,582.36633C280.6386,580.1587,280.48883,570.4984,280.5167,564.95056C280.5466,562.09546,280.51352,558.61304,280.44653,557.19666C280.35092,554.90906,280.22708,554.49744,279.57416,553.5805C279.1554,553.0242,278.81897,552.44305,278.8238,552.27997C278.82782,552.1441,278.67358,551.84033,278.51617,551.6453C277.96234,551.0578,276.78687,548.49347,276.47052,547.2329C276.30035,546.548,276.1983,544.4778,276.26013,542.3852C276.31952,540.3742,276.31573,538.66046,276.23663,538.5766C275.70758,538.0714,275.1261,534.73584,275.02014,531.8768C274.81085,525.15234,274.5938,522.3716,273.85925,515.9308C273.72906,514.81177,273.6239,512.85034,273.60724,511.57144C273.59064,510.2925,273.54694,508.0881,273.5351,506.64612C273.51218,504.6599,273.37723,503.70392,272.89465,502.5473C271.92938,500.234,271.73203,499.54822,271.46613,497.50037C271.33438,496.43573,271.10757,494.90588,270.9958,494.08655C270.8568,493.26648,270.73505,489.10138,270.75235,484.83154C270.77258,476.78107,270.68472,476.0713,269.3252,469.61212C268.72607,466.87442,267.63882,462.24564,267.48862,461.806C267.37888,461.51688,267.2079,461.3653,266.92606,461.3653C266.4303,461.3653,265.59146,461.83444,264.13947,462.8494C261.91724,464.4158,258.72845,467.3951,254.54439,471.841C252.01912,474.4591,250.64899,475.72424,249.6818,476.23962C249.34604,476.42786,248.50658,476.51782,247.65515,476.51782C246.75311,476.51782,245.83762,476.41684,245.4935,476.22473C245.25372,476.05444,244.39694,475.594,243.59293,475.1894C242.78885,474.78485,241.61319,474.0702,240.97385,473.6161C240.33524,473.13483,239.7478,472.76385,239.69348,472.76227C239.63913,472.76062,238.35718,471.96118,236.83624,470.9643C235.34247,469.9682,233.7944,468.97046,233.44751,468.7426C233.09985,468.542,230.46323,466.64175,227.58762,464.54398C220.87741,459.66748,214.88245,455.43768,214.66507,455.4312C214.39328,455.42322,211.75586,453.55017,210.29573,452.3374C207.32353,449.82886,206.91371,448.04877,207.70982,441.354C207.9683,439.04968,208.43065,436.289,208.70576,435.26364C209.40865,432.64597,209.72215,431.24088,210.1133,429.0493C210.44286,427.10062,211.12984,424.1017,211.61443,422.42972C212.00781,421.0814,213.56683,418.0267,214.5589,416.66882C215.04016,416.03033,215.41916,415.17108,215.43121,414.76343C215.4596,413.80313,216.16257,413.0723,217.08804,413.0723C217.10538,413.0723,217.1228,413.07257,217.14029,413.07306C217.1486,413.0733,217.1571,413.07343,217.16577,413.07343C217.61078,413.07343,218.52328,412.7516,219.22974,412.3189C221.65717,410.86096,226.22476,410.00574,231.06345,410.00574C232.0756,410.00574,233.09961,410.04318,234.11838,410.12033C235.10173,410.18964,235.75879,410.23068,236.21365,410.23068C236.98923,410.23068,237.17688,410.11133,237.39154,409.809C237.57913,409.5515,237.68532,409.42548,237.88959,409.42548C238.08664,409.42548,238.375,409.5428,238.9158,409.77243C239.40894,410.00443,240.00879,410.15265,240.41177,410.15265C240.51302,410.15265,240.60184,410.1433,240.6734,410.12357C241.02905,410.05246,242.28253,409.05594,243.4592,407.8939C245.27942,406.12527,245.61917,405.67294,245.64246,404.88486C245.66092,404.2598,246.155,403.18643,247.23904,401.4777C248.12247,400.1166,248.81485,398.77707,248.7677,398.53085C248.72382,398.176,245.03775,395.89117,242.41064,394.58966C241.84799,394.30103,237.5026,391.3167,237.34518,391.12158C237.2669,391.01056,236.49881,390.3078,235.62369,389.54755C234.74936,388.7602,233.98055,388.08472,233.90141,388.00073C233.82231,387.9168,232.91682,387.26447,231.87779,386.5266C229.69359,384.96613,225.67847,380.9308,225.08871,379.71655C224.85779,379.24738,224.03702,378.48877,223.12909,377.9179C219.65723,375.74817,218.94037,375.15576,217.92224,373.71136C217.32129,372.87762,216.34708,371.7881,215.73569,371.30762C214.08932,369.95343,211.02536,365.94623,209.61014,363.2116C209.30173,362.60413,208.27957,361.29553,207.38449,360.28998C206.46225,359.2835,205.15002,357.66724,204.44516,356.66718C202.85327,354.38977,199.66376,350.95,198.88284,350.68213C198.55997,350.56378,198.29382,350.36554,198.29782,350.22974C198.30185,350.09387,197.38283,348.9787,196.27675,347.7492C195.14272,346.5462,193.35097,344.58923,192.26967,343.44214L190.2925,341.3166L191.77779,339.8373C193.20708,338.41068,193.26384,338.33078,193.10652,337.21103C193.04347,336.58347,192.9717,335.33023,192.971,334.4326C192.94807,332.44638,192.20897,330.7654,190.19029,328.2034C189.40309,327.22818,188.62236,326.0355,188.41774,325.59427C188.21404,325.1259,187.62029,324.04764,187.0745,323.18826C186.52869,322.3289,186.09079,321.50003,186.09479,321.36423C186.09882,321.22824,185.91663,320.95096,185.67844,320.72623C185.09502,320.2194,184.09935,318.01407,183.89253,316.72958C183.80067,316.15573,183.76088,314.74014,183.82097,313.62674C183.88106,312.51334,183.95158,311.0467,183.99886,310.3681C184.07417,308.73834,184.82408,307.2917,185.6426,307.2071C186.07982,307.13843,186.4427,306.82275,186.73454,306.15143C187.28438,304.94946,187.83807,304.52902,188.88895,304.52902C188.89397,304.52902,188.89899,304.52902,188.90404,304.52905C188.93439,304.52994,188.96399,304.5304,188.99287,304.5304C189.58481,304.5304,189.87943,304.3371,190.26054,303.72595C190.61804,303.16815,190.76646,302.98688,191.25386,302.98688C191.46622,302.98688,191.74294,303.0213,192.12935,303.07397C192.4743,303.12973,192.75885,303.15927,193.0108,303.15927C193.5102,303.15927,193.88145,303.04327,194.341,302.7857C194.8882,302.4658,195.2645,302.30695,195.61778,302.30695 Z"/> </g> <g style="fill:rgb(0,0,0); fill-opacity:1.0; stroke-linejoin: miter"> <path d="M361.8731,174.13208L177.95085,192.89218L190.51727,326.99777L377.2427,326.3723L361.87634,174.16406"/> </g> <g style="fill:rgb(0,0,0); fill-opacity:1.0; stroke-linejoin: miter"> <path d="M112.75874,308.85992C112.39783,308.881,112.07071,309.06674,111.61905,309.4241C110.6272,310.24835,109.77634,311.74246,109.449524,313.29968C109.29729,314.05002,108.79454,315.15872,108.30539,315.80225C107.13432,317.37933,107.040985,318.17896,107.98877,319.02344C108.73027,319.69498,110.178894,321.8872,111.168,323.81976C111.92212,325.25455,112.05644,327.39874,111.44061,328.4629C111.18091,328.9225,110.65581,330.0877,110.29886,330.99258C109.73393,332.32513,108.1859,334.8906,106.9854,336.44284C106.88896,336.58792,106.494675,336.75903,106.11786,336.81958C105.7435,336.9071,105.17871,337.3117,104.86005,337.7218C104.54373,338.1591,102.93523,340.34787,101.25264,342.6249C99.5677,344.87503,96.980896,348.35074,95.51342,350.2814C94.02126,352.24152,92.390465,354.48666,91.86147,355.29755C91.35714,356.0789,90.7445,356.8698,90.53976,357.02423C89.61729,357.70605,82.86646,365.34244,81.45553,367.29544C79.8048,369.6242,79.373055,369.98984,77.59908,370.61008C76.93632,370.8322,75.806725,371.6414,74.77747,372.66003C73.84934,373.58792,72.70461,374.53476,72.28799,374.76263C71.84667,375.01984,71.06519,375.4435,70.54267,375.7079C69.99543,376.0017,69.487144,376.42856,69.395546,376.62778C69.30389,376.8269,68.69927,377.3987,68.057945,377.86465C67.41668,378.33057,66.50378,379.1205,66.02737,379.59918C65.49917,380.1097,64.84835,380.46732,64.333824,380.51266C63.52131,380.5843,61.59272,381.92776,61.633278,382.38812C61.645195,382.52353,61.025414,383.2332,60.272575,383.98187C59.153618,385.08173,58.871086,385.275,57.928215,385.33008C57.791695,385.33804,57.64135,385.34314,57.472588,385.34766C56.68479,385.38968,55.9217,385.40244,55.783928,385.38724C55.783714,385.38724,55.78353,385.38727,55.783318,385.38727C55.671684,385.3938,54.622063,384.61432,53.452675,383.7095C49.48699,380.5344,46.894253,379.09485,45.316616,379.187C45.29382,379.18832,45.27125,379.19,45.248867,379.192C44.51762,379.25647,44.063503,379.6785,42.263058,381.85687C41.077618,383.27142,39.864285,384.98856,39.540005,385.6449C38.413372,388.03674,37.941814,388.5696,36.75018,388.67462C35.341854,388.7987,34.752346,389.23267,34.36511,390.4131C34.19372,390.94678,33.91171,391.46292,33.702175,391.56326C33.67309,391.5768,33.63702,391.58463,33.594784,391.5871C32.798916,391.63358,29.798641,389.79163,29.576382,389.0337C29.461727,388.6617,29.217342,388.05548,29.01907,387.66354C28.51495,386.58902,28.637814,384.88596,29.512814,381.80676C30.50259,378.1714,30.50497,378.19843,31.199612,378.02808C31.519802,377.94534,32.04324,377.38068,32.37225,376.77847C33.310024,375.031,33.53964,372.99106,33.14343,369.42325C32.961178,367.66534,32.77505,365.55283,32.730618,364.73795C32.63049,362.67252,31.988094,359.0992,31.700527,358.93344C31.55801,358.86414,31.416256,358.49457,31.38049,358.08832C31.277859,356.92374,29.74316,354.68448,28.968197,354.56174C28.387539,354.47644,28.321438,354.34573,28.38998,353.57547C28.498074,352.64127,27.653042,350.73386,27.191555,350.76083C27.189968,350.76093,27.18835,350.76105,27.186764,350.7612C27.186123,350.76126,27.185482,350.7613,27.18481,350.76135C27.022976,350.77078,26.863155,350.18634,26.799007,349.458C26.701138,348.3476,26.78085,348.0131,27.336147,347.5002C27.689053,347.16882,28.096096,346.83273,28.280972,346.76193C28.832912,346.52228,28.267422,346.299,26.89178,346.17468C26.148647,346.10376,25.176937,345.9164,24.722103,345.71085C24.327023,345.53842,23.930662,345.47537,23.379698,345.50754C23.059782,345.52625,22.687803,345.57706,22.233732,345.65714C21.778257,345.7358,21.429045,345.7847,21.150908,345.80096C20.640898,345.83075,20.369993,345.75073,20.12213,345.54297C19.9252,345.37796,19.702604,345.30374,19.4689,345.3174C19.10797,345.3385,18.72064,345.56906,18.360899,345.99832C18.220427,346.1547,18.02667,346.23438,17.83737,346.24545C17.524168,346.26373,17.22302,346.0943,17.194792,345.7736C17.178068,345.58405,17.32147,345.353,17.476835,345.25742C17.661589,345.1867,17.701475,345.0194,17.581205,344.89346C17.534208,344.8541,17.478178,344.83774,17.418943,344.84122C17.292448,344.8486,17.151548,344.94638,17.053892,345.10364C16.596556,345.79904,15.568144,346.51736,14.558104,346.8247C12.988859,347.29047,11.9165945,347.82156,11.947661,348.17368C11.961944,348.3362,11.401977,348.79498,10.69937,349.18442C9.967315,349.54907,9.326018,350.01498,9.256682,350.15762C9.162719,350.32968,8.511046,350.98752,7.8028555,351.62305C5.3475947,353.8044,3.6825862,355.97083,3.3263545,357.5034C3.149383,358.28314,2.911163,358.98642,2.7828672,359.07962C2.6546323,359.17276,2.57254,359.48026,2.5988157,359.77814C2.6226804,360.04904,2.5087278,360.30475,2.3733518,360.31665C2.2108152,360.331,2.138275,360.7467,2.183624,361.26135C2.2289732,361.77588,2.134155,362.24823,1.9763792,362.31668C1.7127378,362.4218,1.6639707,364.03644,1.8474729,367.9777C1.9340818,369.58035,1.841583,370.07983,1.4616393,370.4135C1.0569457,370.7767,1.0090636,371.163,1.2159423,372.89154C1.3767089,374.40573,1.5375364,374.992,1.8521726,375.15533C2.105438,375.24216,2.4781187,375.75522,2.685974,376.2554C2.893829,376.75565,3.6249385,377.6193,4.2756343,378.1896C5.3955073,379.12808,6.669677,381.19928,6.757964,382.20135C6.7794485,382.44507,7.070922,382.9653,7.406951,383.37238C8.074401,384.1323,8.64923,386.31967,8.498565,387.39737C8.4061575,387.89682,8.077849,388.19867,7.392791,388.47736C6.2975454,388.91122,5.457916,389.14243,4.3527217,389.207C3.2225032,389.273,1.814636,389.16476,-0.42843622,388.92087C-1.1987303,388.85223,-2.8427732,388.77878,-4.1252437,388.78265C-6.118987,388.76724,-6.758544,388.6325,-8.575377,387.83734C-10.47824,386.9952,-12.556303,386.33215,-15.289122,385.67233C-15.600431,385.59436,-15.852507,385.5614,-16.090483,385.57532C-16.407164,385.5938,-16.698881,385.6953,-17.071867,385.88394C-18.011015,386.37616,-20.115019,388.8268,-20.289518,389.63373C-20.374022,389.9141,-20.542082,390.17453,-20.67758,390.18646C-20.812956,390.19833,-20.90457,390.39752,-20.885527,390.61417C-20.837797,391.15582,-21.442503,392.65564,-22.005827,393.3876C-22.271421,393.7046,-22.496122,393.84952,-22.936918,393.87527C-23.110746,393.88544,-23.318205,393.877,-23.57501,393.85336C-24.207455,393.79993,-24.765865,393.65805,-24.886074,393.53226C-24.98608,393.3861,-25.14764,393.321,-25.357662,393.33328C-25.739712,393.3556,-26.2821,393.634,-26.906185,394.1468C-27.414486,394.5738,-28.038143,394.92896,-28.281887,394.95044C-28.28622,394.95084,-28.290615,394.95117,-28.295162,394.95145C-28.686733,394.97433,-29.793453,394.56155,-30.113888,394.293C-30.34933,394.0466,-32.42419,393.70074,-33.172237,393.74445C-33.18835,393.74536,-33.203884,393.7465,-33.218746,393.74783C-33.22653,393.7485,-33.234432,393.74908,-33.24246,393.74954C-33.596798,393.77023,-34.16882,393.5793,-34.512264,393.31592C-35.54617,392.49857,-37.05496,391.9324,-38.03268,391.9895C-38.053646,391.99075,-38.07443,391.99225,-38.094906,391.99408C-38.12405,391.99664,-38.15298,391.99875,-38.181576,392.00043C-38.658566,392.0283,-39.055447,391.9345,-39.066708,391.8067C-39.080746,391.64722,-39.194607,391.54913,-39.32681,391.55685C-39.32931,391.557,-39.331814,391.5572,-39.334286,391.55743C-39.335445,391.5575,-39.336666,391.5576,-39.337917,391.55768C-39.595516,391.57272,-41.388546,390.94275,-43.025356,390.24506C-43.56616,389.99246,-44.587276,389.8641,-45.29382,389.89905C-45.361996,389.90506,-45.42953,389.90994,-45.495907,389.91382C-46.115414,389.95,-46.63946,389.89523,-46.7236,389.7794C-46.81442,389.6782,-47.26446,389.52682,-47.70489,389.48376C-48.17486,389.41595,-48.79458,389.19763,-49.116295,388.95306C-49.411003,388.70612,-50.106407,388.24878,-50.65426,387.91498C-51.48736,387.44257,-51.73989,387.05536,-52.152397,385.78165C-52.418297,384.9317,-52.792595,384.09125,-52.996452,383.94547C-53.17559,383.77017,-53.430504,383.35605,-53.572227,382.98645C-53.686882,382.61444,-54.061974,382.0743,-54.41561,381.77795C-54.74212,381.47922,-55.031242,380.98615,-55.0599,380.6612C-55.0859,380.36563,-55.24041,380.1352,-55.375084,380.14307C-55.376213,380.14313,-55.377342,380.1432,-55.37844,380.14328C-55.38024,380.14343,-55.38201,380.14355,-55.383812,380.14368C-55.543724,380.153,-55.668602,379.9475,-55.692192,379.6797C-55.713707,379.43597,-56.087944,378.59564,-56.53631,377.84363C-57.018913,377.01282,-57.385216,375.95328,-57.444817,375.2762C-57.50213,374.62625,-57.692436,374.01532,-57.862022,373.94836C-58.03414,373.8543,-58.131218,373.37167,-58.077812,372.7391C-58.006798,371.99606,-58.167595,371.4097,-58.68209,370.52713C-59.387657,369.3338,-59.390007,369.3067,-59.36718,364.61035C-59.353203,361.36127,-59.454185,359.5961,-59.701042,358.9628C-59.881767,358.46008,-60.47735,356.65674,-61.00689,354.98383C-61.56344,353.31345,-62.144676,351.6725,-62.31115,351.33237C-63.300194,349.39984,-61.807945,346.51172,-58.72744,344.3026C-57.775505,343.6455,-57.017876,342.95108,-57.0346,342.76144C-57.053673,342.54483,-56.91027,342.31384,-56.752556,342.24533C-56.491264,342.11307,-56.527855,342.00717,-56.84487,341.81674C-57.188927,341.62875,-57.290825,341.0919,-57.391747,339.3267C-57.47683,338.05148,-57.405052,337.00797,-57.224937,336.88297C-57.071983,336.76035,-56.968407,335.76862,-57.009666,334.68063C-57.04931,332.99188,-57.139214,332.59036,-57.588432,332.13882C-58.09899,331.6811,-58.530266,331.46686,-58.974236,331.49277C-59.27749,331.5105,-59.586662,331.64032,-59.931053,331.88113C-60.299736,332.15204,-60.50048,332.28558,-60.72048,332.29846C-60.928764,332.3106,-61.15429,332.21457,-61.55596,332.0243C-62.086174,331.78943,-62.480156,331.6809,-62.86358,331.7033C-63.260612,331.7265,-63.646446,331.89008,-64.1607,332.19922C-64.53518,332.42957,-64.811,332.54224,-65.105644,332.55945C-65.29989,332.5708,-65.50237,332.54065,-65.746635,332.4754C-66.00799,332.39377,-66.354546,332.36884,-66.71978,332.39017C-67.0212,332.40778,-67.33532,332.45694,-67.6249,332.5318C-68.11849,332.6906,-68.90746,332.817,-69.51891,332.85272C-69.63076,332.85925,-69.73669,332.86273,-69.83379,332.86282C-69.86858,332.8639,-69.90334,332.8654,-69.93801,332.86743C-71.28762,332.94626,-72.55132,333.78604,-73.03451,334.9462C-73.215385,335.37158,-73.39629,335.79694,-73.47033,335.88525C-73.695,336.12344,-74.29116,338.95978,-74.2387,339.55557C-74.212395,339.85358,-74.36617,340.2765,-74.561424,340.53937C-74.88241,340.92242,-74.881676,341.5501,-74.45437,344.54196C-74.17425,346.48236,-73.841484,348.0906,-73.728386,348.13522C-73.36437,348.23965,-73.21093,350.6006,-73.53594,350.62924C-73.69842,350.64355,-73.79247,350.81558,-73.77575,351.0052C-73.73278,351.4927,-74.46569,352.1577,-75.66613,352.78204C-76.50173,353.2105,-76.7264,353.44858,-76.72567,354.07626C-76.72747,355.60483,-76.87411,356.10904,-77.361565,356.15204C-77.369865,356.15274,-77.37823,356.15335,-77.38668,356.15384C-77.65447,356.1695,-78.00097,356.06763,-78.14376,355.948C-78.22756,355.87784,-78.33178,355.8441,-78.470116,355.85214C-78.86721,355.87534,-79.54543,356.2435,-80.827446,357.0851C-81.52294,357.5558,-81.616936,357.7279,-81.334984,358.1397C-81.08016,358.5539,-76.602715,370.95975,-75.99047,372.9529C-75.875786,373.32483,-75.67983,373.68964,-75.510216,373.75656C-75.33816,373.85052,-75.10177,375.60382,-74.911766,378.07068C-74.6787,381.02512,-74.42248,382.69476,-74.026726,383.77884C-73.733696,384.62643,-73.45583,385.6118,-73.42483,385.96378C-73.39382,386.3159,-73.25683,386.63132,-73.08953,386.67114C-72.949394,386.7134,-72.60067,387.88354,-72.31402,389.27756C-71.615715,392.88513,-71.34194,393.8236,-71.07226,393.80783C-71.07116,393.80777,-71.07003,393.80768,-71.06887,393.80762C-71.06835,393.80756,-71.0678,393.8075,-71.06725,393.80746C-70.93221,393.79956,-70.781975,394.2761,-70.7297,394.86954C-70.61767,396.14026,-69.56606,399.12335,-69.21218,399.1027C-69.21157,399.10266,-69.21096,399.1026,-69.21035,399.10254C-69.20925,399.10245,-69.20818,399.1024,-69.207115,399.10233C-69.09963,399.09604,-68.97924,399.24805,-68.96035,399.46252C-68.924675,399.86707,-66.87362,401.3389,-66.401634,401.3113C-66.39962,401.3112,-66.397606,401.31104,-66.39565,401.31088C-66.39202,401.31058,-66.38839,401.3103,-66.38473,401.3101C-66.22552,401.30078,-66.059685,401.39288,-65.99743,401.49408C-65.9584,401.62723,-64.74697,402.3665,-63.31167,403.168C-61.903465,403.97186,-59.97915,405.0578,-59.08712,405.57968C-58.16958,406.0982,-57.36944,406.51837,-57.312798,406.51508C-57.312706,406.51508,-57.312614,406.51508,-57.312523,406.51505C-57.31231,406.51505,-57.312126,406.515,-57.311913,406.51498C-57.11367,406.50342,-52.73568,408.8958,-52.554344,409.098C-52.463493,409.1992,-52.1242,409.33304,-51.789665,409.41266C-51.428123,409.49,-51.138115,409.68277,-51.126244,409.8182C-51.114647,409.94968,-50.9522,410.04208,-50.74453,410.02994C-50.738243,410.02957,-50.731956,410.02908,-50.72558,410.02853C-50.721123,410.02814,-50.716606,410.02783,-50.71203,410.02756C-50.49395,410.0148,-50.13833,410.14386,-49.93862,410.28665C-49.469505,410.65475,-48.638786,411.10016,-47.847073,411.41248C-47.534817,411.5487,-46.908016,411.8483,-46.423702,412.0786C-45.481503,412.56766,-41.02557,414.3518,-40.767452,414.33673C-40.767025,414.33673,-40.766567,414.3367,-40.76614,414.33664C-40.765926,414.3366,-40.765713,414.3366,-40.7655,414.3366C-40.679073,414.33154,-39.555325,414.72272,-38.26269,415.1805C-33.38174,416.9885,-27.686703,419.05228,-26.67593,419.3725C-24.570766,420.03317,-23.884977,420.3822,-22.42105,421.50864C-21.514677,422.193,-20.770811,422.8916,-20.758848,423.02704C-20.746977,423.1624,-20.418028,423.48828,-20.012571,423.7528C-19.607237,424.01733,-19.275908,424.37024,-19.256834,424.58685C-19.24014,424.77637,-19.0856,424.98114,-18.891264,425.01862C-18.52719,425.123,-17.668821,427.1216,-17.575743,428.17786C-17.542326,428.55698,-17.373564,428.9242,-17.206266,428.9641C-16.704466,429.0837,-16.121153,433.5356,-16.538572,434.06366C-16.738523,434.27228,-17.082762,435.0123,-17.298704,435.65903C-17.539335,436.33524,-17.818998,436.87848,-17.954374,436.89035C-18.062712,436.89993,-18.159147,437.0449,-18.142454,437.2345C-18.099516,437.72202,-18.82617,439.6965,-19.069883,439.718C-19.178251,439.72754,-19.269835,439.92664,-19.250792,440.1433C-19.200651,440.71198,-19.917814,442.7949,-20.161528,442.8164C-20.296965,442.82834,-20.359129,443.05215,-20.332884,443.35007C-20.270811,444.05426,-20.874052,445.8814,-21.199003,445.91006C-21.36154,445.92438,-21.443602,446.23187,-21.410185,446.61102C-21.350492,447.28806,-21.915617,449.5486,-22.219084,449.82098C-22.32025,449.91174,-22.442198,450.38647,-22.509947,450.85645C-22.548307,451.35104,-22.64157,452.15082,-22.68225,452.61835C-22.749998,453.08823,-22.955534,453.54312,-23.137999,453.64108C-23.347471,453.74142,-23.490904,453.97235,-23.47415,454.16202C-23.433592,454.62244,-24.188992,456.2719,-24.459774,456.29578C-24.568111,456.30533,-24.632626,456.50204,-24.613552,456.71872C-24.592098,456.96237,-24.979366,458.14288,-25.47018,459.38705C-25.961025,460.63116,-26.353024,461.7574,-26.338741,461.91992C-26.305294,462.29913,-27.975246,465.3393,-28.21899,465.36075C-28.327328,465.3703,-28.469143,465.92862,-28.490719,466.61285C-28.541836,467.27234,-28.67654,467.91205,-28.831875,468.00763C-28.95773,468.12778,-29.03506,468.48947,-29.001614,468.86862C-28.970608,469.22067,-29.0798,469.53052,-29.215176,469.54248C-29.377682,469.55676,-29.462154,469.8371,-29.433468,470.1621C-29.357174,471.02878,-29.894253,472.98654,-30.236813,473.12598C-30.394527,473.19443,-30.50372,473.5043,-30.475033,473.82928C-30.40347,474.64175,-31.041866,477.61835,-31.28561,477.6398C-31.393978,477.64938,-31.4808,477.90262,-31.452114,478.22763C-31.38055,479.04016,-32.00781,481.5245,-32.27859,481.54837C-32.413998,481.56027,-32.48892,481.94904,-32.44833,482.40942C-32.360073,483.4114,-32.926083,486.90027,-33.187374,487.0324C-33.31796,487.0985,-33.37295,487.40363,-33.344357,487.7286C-33.270382,488.5682,-33.85391,492.16766,-34.11514,492.2999C-34.218746,492.36362,-34.27609,492.6415,-34.252285,492.91232C-34.17352,493.8061,-34.74261,496.64014,-35.00622,496.74524C-35.42526,496.94598,-35.23498,497.5569,-34.72839,497.7306C-34.450375,497.78802,-32.713985,498.29004,-30.869259,498.78253C-29.022152,499.3021,-27.312832,499.80655,-27.086605,499.89578C-26.830929,500.00967,-26.27493,500.12448,-25.832119,500.19467C-24.035885,500.44574,-23.753996,500.85757,-23.287596,503.98245C-22.888853,506.6493,-22.892088,506.92255,-23.380522,508.19373C-23.67056,508.92896,-24.046658,509.61707,-24.231411,509.68793C-24.413845,509.78595,-24.554897,510.04395,-24.538204,510.23358C-24.502438,510.63983,-25.101559,511.8935,-25.615353,512.5665C-25.788235,512.7728,-25.926876,513.0579,-25.917294,513.1663C-25.907803,513.27466,-26.095821,513.61865,-26.34042,513.9404C-26.584927,514.26227,-26.973843,515.1153,-27.182522,515.8433C-27.391354,516.57135,-27.639156,517.16626,-27.747494,517.1758C-27.855831,517.1853,-27.995327,517.7708,-28.043972,518.45746C-28.065517,519.14166,-28.321346,519.9557,-28.593075,520.27985C-28.839962,520.5745,-29.05029,520.97516,-29.033596,521.1648C-28.99545,521.5981,-29.659294,523.9764,-29.859245,524.1851C-30.137993,524.428,-30.770775,526.23047,-30.734947,526.6368C-30.718254,526.82635,-30.839317,527.00085,-30.974724,527.01276C-31.137169,527.0271,-31.224083,527.2803,-31.200249,527.55115C-31.147758,528.1469,-31.846489,529.81885,-32.1715,529.8474C-32.27987,529.85693,-32.339592,530.10785,-32.313347,530.4058C-32.263237,530.97455,-32.85534,533.2374,-33.134148,533.4804C-33.31182,533.63245,-33.461662,534.40985,-33.643486,536.0635C-33.686577,536.5039,-33.894524,536.93164,-34.076927,537.02954C-34.28643,537.13,-34.42742,537.388,-34.408318,537.6047C-34.36779,538.0651,-35.06655,539.73694,-35.3796,539.901C-35.483177,539.9646,-35.53817,540.2698,-35.514336,540.54065C-35.466606,541.0823,-36.05462,542.77167,-36.385246,543.0464C-36.81463,543.439,-37.00683,545.28467,-36.81353,547.47833C-36.66079,549.2117,-36.702324,549.9795,-36.97399,550.30365C-37.17153,550.5393,-37.337273,550.82697,-37.32537,550.96234C-37.313408,551.0977,-37.663933,551.45624,-38.075798,551.73804C-38.51232,552.04944,-38.835808,552.4054,-38.821465,552.568C-38.809593,552.70337,-39.043694,552.8332,-39.341667,552.8594C-39.63952,552.88574,-39.8666,553.09674,-39.847496,553.3134C-39.828392,553.5301,-39.920036,553.7292,-40.02834,553.7387C-40.515858,553.7817,-40.586323,557.00854,-40.183643,560.02985C-39.777794,562.77795,-39.786644,563.2973,-40.189014,564.6155C-40.444813,565.4295,-40.553272,566.3671,-40.44341,566.6848C-40.299244,567.08154,-40.43874,567.667,-40.814716,568.3552C-41.546955,569.64795,-41.493732,570.87146,-40.693256,571.5923C-40.04024,572.1899,-39.10058,574.18134,-39.00985,575.2105C-38.974052,575.6167,-39.160545,576.2882,-39.44976,576.723C-39.86004,577.33234,-39.91027,577.6916,-39.688133,578.3543C-39.126793,580.079,-38.98861,583.5056,-39.383263,586.46075C-39.76989,589.1969,-39.741264,589.5219,-39.263603,591.22656C-38.95623,592.23663,-38.528618,593.3725,-38.305687,593.7349C-37.825462,594.5387,-36.366295,595.6111,-35.5595,595.78546C-34.752586,595.96,-34.461174,597.4082,-34.698174,600.29486C-34.811455,602.10614,-34.767784,603.2214,-34.50979,604.2904C-34.302788,605.09094,-33.99395,606.4284,-33.81402,607.23126C-33.661186,608.03656,-33.461357,608.7559,-33.345818,608.8276C-32.99697,609.0698,-32.042168,610.9235,-31.99685,611.438C-31.970757,611.734,-31.842491,611.9671,-31.734581,611.96075C-31.733849,611.96075,-31.733147,611.9607,-31.732445,611.9606C-31.731895,611.9606,-31.731346,611.9605,-31.730827,611.9605C-31.59414,611.9525,-31.225334,612.43695,-30.873894,613.03125C-30.54583,613.6575,-30.018608,614.3751,-29.721489,614.6492C-29.424461,614.9232,-29.078789,615.4387,-28.964165,615.81055C-28.84951,616.18274,-28.54052,616.59216,-28.309532,616.73553C-27.992517,616.9259,-27.907343,617.2732,-27.980707,617.9894C-28.038933,618.56757,-28.1903,619.0177,-28.325768,619.0296C-28.488274,619.0439,-28.534569,619.75757,-28.460564,620.59717C-28.329308,622.08673,-28.797234,624.83,-29.24096,625.0601C-29.344444,625.12384,-29.397057,625.45605,-29.36605,625.8081C-29.299217,626.56635,-29.951836,628.45245,-30.276848,628.4811C-30.385185,628.4906,-30.464897,628.82526,-30.42907,629.2314C-30.345573,630.1794,-30.95446,633.18066,-31.225334,633.20447C-31.333672,633.21405,-31.408623,633.60266,-31.370354,634.036C-31.277306,635.0923,-31.852013,638.1725,-32.149925,638.1987C-32.2582,638.20825,-32.31405,638.8136,-32.247276,639.5719C-32.182854,640.3031,-32.26333,640.93787,-32.398796,640.9498C-32.56127,640.96423,-32.605156,641.705,-32.52642,642.5987C-32.44799,643.48956,-32.276054,644.20935,-32.114037,644.1999C-32.113487,644.1998,-32.11297,644.1998,-32.11245,644.19977C-32.11074,644.19965,-32.109062,644.1995,-32.107384,644.1994C-31.97329,644.1916,-31.82708,644.3405,-31.81295,644.5009C-31.747673,644.9318,-29.607628,646.299,-28.545036,646.58746C-28.023827,646.73694,-27.375269,646.7843,-26.708063,646.7453C-25.511347,646.6754,-24.254694,646.3278,-23.56573,645.79395C-22.440912,644.9306,-19.749813,642.0188,-19.7785,641.6938C-19.790401,641.55835,-19.530666,641.0988,-19.187344,640.6592C-18.84396,640.21954,-18.581844,639.7871,-18.591335,639.6788C-18.600887,639.5704,-18.338802,639.138,-17.995419,638.6983C-17.652065,638.25867,-17.39709,637.7449,-17.413815,637.5553C-17.432888,637.3386,-17.338894,637.1666,-17.230526,637.15704C-17.09518,637.1452,-16.815487,636.6019,-16.574886,635.92566C-16.358883,635.279,-16.11111,634.68396,-16.009945,634.59314C-15.65704,634.26184,-15.15414,632.22516,-15.230526,631.35846C-15.275814,630.84393,-15.203335,630.4281,-15.040829,630.4138C-14.878323,630.3994,-14.834408,629.65875,-14.913174,628.76495C-14.991634,627.87415,-15.16357,627.15424,-15.325588,627.1637C-15.326138,627.16376,-15.326687,627.16376,-15.327206,627.1639C-15.327602,627.1639,-15.32803,627.16394,-15.328457,627.16394C-15.490658,627.1734,-15.681789,626.23645,-15.800838,624.88574C-15.912991,623.61285,-15.922451,622.57654,-15.7869835,622.56464C-15.678707,622.55505,-15.444363,621.49725,-15.258572,620.1981C-15.099911,618.9014,-14.865597,617.84357,-14.757259,617.83405C-14.621822,617.82214,-14.2704735,617.1635,-13.903989,616.36694C-13.427976,615.32587,-13.24545,615.02856,-12.831937,615.0044C-12.748441,614.9995,-12.655515,615.0058,-12.548886,615.0193C-12.450742,615.0301,-12.36102,615.0339,-12.277524,615.029C-11.892087,615.0065,-11.6395235,614.80005,-11.3062105,614.2548C-11.046506,613.79517,-10.818601,613.28394,-10.832913,613.1214C-10.844846,612.986,-10.74841,612.84094,-10.640134,612.8315C-10.504697,612.8196,-10.217893,612.35754,-9.970091,611.76263C-9.747007,611.197,-9.296843,610.42053,-9.005217,610.0127C-8.686644,609.60254,-8.46826,608.9828,-8.496885,608.65784C-8.527952,608.3058,-8.445799,607.99835,-8.3375225,607.9888C-7.9854107,607.9578,-7.3622723,606.047,-7.4386272,605.1803C-7.531706,604.124,-7.9554424,603.3426,-8.880827,602.4415C-9.327696,602.017,-9.793638,601.3757,-9.912962,600.9495C-10.029325,600.5529,-10.218869,600.2436,-10.354062,600.2515C-10.354917,600.2515,-10.355771,600.2516,-10.3565645,600.25165C-10.357358,600.2518,-10.358151,600.2518,-10.358884,600.25183C-10.493588,600.2597,-10.631528,599.91876,-10.667111,599.51483C-10.733975,598.7566,-11.371945,598.0213,-13.527982,596.16425C-14.087765,595.695,-14.79269,595.12946,-15.134365,594.96844C-15.59634,594.6817,-15.733334,594.3663,-15.785,593.47015C-15.797604,592.70703,-15.9831505,592.15027,-16.339108,591.82666C-16.874355,591.32806,-17.121944,590.06714,-16.73724,589.78754C-16.327724,589.4786,-16.311611,588.11255,-16.607174,581.9703C-16.894833,576.53705,-16.85574,575.7422,-16.442196,574.8596C-16.189632,574.3188,-15.772915,573.1631,-15.521847,572.2949C-15.29797,571.429,-14.7210655,570.23193,-14.256649,569.61774C-13.789731,569.0308,-13.401792,568.478,-13.406552,568.42395C-13.413754,568.34265,-12.848081,567.6378,-12.181272,566.8421C-11.487363,566.044,-10.960752,565.2061,-10.979825,564.9896C-11.001279,564.7457,-10.855496,564.5419,-10.665982,564.52515C-10.31387,564.4942,-9.790403,563.0014,-9.861937,562.189C-9.883482,561.94525,-9.794218,561.71906,-9.68582,561.70953C-9.387938,561.6832,-8.705839,559.8218,-8.763151,559.1718C-8.787046,558.90106,-8.729612,558.623,-8.626097,558.55927C-8.261259,558.36334,-7.616667,556.6963,-7.669157,556.1006C-7.697813,555.7755,-7.556761,555.5175,-7.367155,555.5008C-7.150511,555.4816,-6.870848,554.93854,-6.7090745,554.2964C-6.5767503,553.62976,-6.2596726,552.8922,-6.012633,552.5975C-5.7904344,552.3323,-5.5497727,551.65607,-5.513823,551.1343C-5.450896,550.6103,-5.277159,550.1036,-5.0923753,550.0327C-4.9099417,549.9348,-4.659789,549.36694,-4.497985,548.72485C-4.3632803,548.08527,-4.1624746,547.57635,-4.0541983,547.5668C-3.837493,547.5478,-3.130706,545.65674,-3.1736748,545.1693C-3.1927788,544.95264,-3.1011345,544.7536,-2.9656975,544.74164C-2.7219841,544.72003,-2.0390925,542.55835,-2.0915523,541.9625C-2.108276,541.77295,-1.9720149,541.4608,-1.7991633,541.25446C-1.4558102,540.8149,-0.7539061,539.7977,1.6807553,536.1444C2.5706475,534.78314,3.514739,533.4172,3.7593374,533.0954C4.0039053,532.7737,4.2318106,532.26227,4.2843924,531.9301C4.3370047,531.59796,4.6532583,531.16064,5.015715,530.9377C5.3487535,530.69006,5.615599,530.31177,5.591765,530.0409C5.5678697,529.77014,5.7853684,529.4507,6.07614,529.3432C6.3669114,529.2358,6.5892015,528.9705,6.572478,528.78094C6.555815,528.5913,6.8553452,527.9645,7.272764,527.4364C7.6607647,526.8836,7.989805,526.2815,7.9730816,526.09186C7.9587994,525.9294,8.242338,525.7407,8.621519,525.7073C8.636351,525.706,8.651091,525.7049,8.665617,525.70404C9.048277,525.6817,9.313658,525.818,9.33209,526.0268C9.351133,526.24347,9.5597515,526.4434,9.785978,526.53265C10.009854,526.5948,10.220853,526.8219,10.242337,527.0656C10.261228,527.27954,10.383359,527.45776,10.542844,527.4485C10.5448885,527.44836,10.546964,527.4482,10.548978,527.448C10.550992,527.4478,10.553006,527.44763,10.55502,527.4475C10.688718,527.4397,10.831937,527.5615,10.843686,527.69495C10.858029,527.8575,11.196469,528.29156,11.611386,528.6644C12.026334,529.0373,12.360044,529.41724,12.369626,529.5256C12.381528,529.66095,12.624448,529.9398,12.919126,530.18677C13.390683,530.582,13.565793,531.33075,14.141109,536.0017C14.672665,540.4854,14.750515,541.67944,14.528866,543.50037C14.363003,544.7159,14.148647,545.69,14.013241,545.70197C13.904843,545.7114,13.86102,546.4522,13.939755,547.34595C14.018337,548.2377,14.190456,548.95825,14.298885,548.9519C14.2991295,548.9519,14.299343,548.9519,14.299587,548.9519C14.299831,548.95184,14.300076,548.95184,14.30032,548.95184C14.4093895,548.94543,14.74371,549.6517,14.984432,550.5291C15.250393,551.3791,15.65649,552.2712,15.892269,552.4688C16.127987,552.6664,16.343838,552.9476,16.35574,553.083C16.367641,553.21844,16.581142,553.4725,16.81451,553.643C17.047848,553.8134,17.27081,554.1759,17.292324,554.41974C17.316158,554.6905,17.47543,554.94934,17.642727,554.9893C17.950222,555.0714,19.141994,560.23395,19.367092,562.47943C19.43127,563.2076,19.58868,563.7651,19.750454,563.7556C19.751125,563.75555,19.751827,563.75555,19.75253,563.7555C19.7532,563.7554,19.753872,563.7554,19.754543,563.7553C19.889645,563.74744,20.05929,564.1402,20.099695,564.59827C20.142603,565.0858,20.453913,566.45026,20.802637,567.6205C21.75326,570.97565,22.378473,578.0712,21.968683,581.1642C21.787745,582.5176,21.592463,583.7084,21.518335,583.7967C21.343042,583.97595,21.395868,595.10675,21.609064,597.2169C21.68542,598.0835,21.639154,598.7973,21.476648,598.8116C21.314142,598.8259,21.291712,599.81036,21.386316,601.1939C21.50323,602.521,21.54046,604.18256,21.471918,604.95294C21.348993,606.6558,23.056574,621.0799,23.400629,621.2679C23.887384,621.52527,24.333094,624.1061,23.96261,624.54816C23.79214,624.7815,23.467798,625.43774,23.271845,626.001C23.051142,626.59357,22.766657,627.0826,22.604212,627.0969C22.468805,627.10876,22.3453,627.25616,22.359613,627.4187C22.39068,627.7708,21.715662,629.7134,21.488672,629.92456C21.414576,630.01294,21.162012,630.5538,20.968378,631.14386C20.745295,631.7095,20.46081,632.1985,20.325434,632.21045C20.162897,632.22473,20.236017,634.29254,20.50805,637.38C20.794062,640.6258,21.069025,642.51135,21.231592,642.50183C21.231806,642.50183,21.231989,642.50183,21.232233,642.50183C21.233332,642.5018,21.23443,642.50165,21.235529,642.5015C21.370173,642.4937,21.524714,642.7239,21.548426,642.9925C21.57461,643.2904,21.852533,644.27576,22.179773,645.2022C22.831903,647.0279,23.001184,649.87885,22.517572,651.2043C22.29922,651.82385,22.364496,652.2549,22.83346,653.5509C23.18307,654.4208,23.458551,655.379,23.484766,655.6769C23.510798,655.9719,23.6383,656.2044,23.798609,656.19507C23.800196,656.19495,23.801752,656.1949,23.80337,656.19476C23.805048,656.1945,23.806757,656.19446,23.808405,656.19434C23.9425,656.1865,24.08874,656.33606,24.10766,656.55005C24.124323,656.73956,24.361567,657.2645,24.614069,657.6517C24.868921,658.066,25.108606,658.618,25.13006,658.86163C25.153772,659.13055,25.279474,659.33655,25.387293,659.33026C25.388117,659.3302,25.38891,659.33014,25.389704,659.33014C25.39062,659.3301,25.391535,659.33,25.392511,659.32996C25.529108,659.32196,25.823694,659.59467,26.04516,659.95465C26.235315,660.2437,26.478693,660.44696,26.60708,660.43945C26.62765,660.4383,26.645258,660.43164,26.659235,660.4191C26.738367,660.3636,26.827631,660.33496,26.922144,660.32947C27.411127,660.3009,28.038048,660.8898,28.096062,661.54803C28.131828,661.9542,28.303062,662.3486,28.47033,662.3885C28.91558,662.48566,29.192375,665.6272,28.770988,665.8008C28.613274,665.86926,28.506462,666.20624,28.537529,666.55835C28.601921,667.2895,27.981165,669.2274,27.574121,669.5635C27.218805,669.8678,27.871943,676.66077,28.260643,676.7357C28.42791,676.7755,28.853935,677.58405,29.208305,678.5081C29.564262,679.4573,29.957634,680.2129,30.066887,680.20654C30.0671,680.2065,30.067314,680.2065,30.067558,680.2065C30.069206,680.20624,30.070854,680.2062,30.072472,680.20605C30.205254,680.1983,30.29876,680.3526,30.31765,680.5665C30.3749,681.2165,33.33123,684.7224,34.31411,685.3455C35.64103,686.1565,36.6446,686.39557,38.776207,686.42615C38.950127,686.42633,39.13282,686.42065,39.321724,686.4096C41.119114,686.3046,43.470478,685.7176,44.017582,685.20013C44.19286,685.0209,44.32433,684.6546,44.30045,684.3838C44.274235,684.0859,44.363483,683.8597,44.471745,683.8501C44.959248,683.8072,45.216053,681.7648,45.081745,678.69257C45.00075,676.84375,45.05907,675.3375,45.167408,675.32794C45.302845,675.316,45.334812,674.4399,45.24413,673.41077C45.148975,672.33057,44.969807,671.5292,44.807728,671.53864C44.80724,671.53864,44.80675,671.53876,44.806263,671.53876C44.80541,671.5389,44.804554,671.53894,44.8037,671.539C44.64223,671.5484,44.494617,671.09924,44.44475,670.5335C44.3541,669.5044,43.39855,667.0229,43.022648,666.7831C42.793964,666.6668,42.48511,665.3294,41.75675,661.709C41.511524,660.47516,41.19939,659.41095,41.0322,659.37103C40.864918,659.33124,40.703236,659.0453,40.67458,658.7203C40.60793,657.9635,39.610924,655.9025,39.310722,655.9201C39.31008,655.9201,39.30947,655.92017,39.30883,655.9203C39.308342,655.9203,39.307854,655.92035,39.307335,655.92035C39.172295,655.9282,39.01716,655.3976,38.957726,654.723C38.864662,653.66675,38.931587,653.4971,39.513115,653.28217C39.670464,653.2336,39.87806,653.2002,40.09699,653.18744C40.395603,653.17,40.715412,653.1909,40.958073,653.2639C41.70345,653.4937,44.28162,653.8263,44.879734,653.7913C44.88944,653.7908,44.898594,653.7901,44.907246,653.78937C45.06972,653.7751,45.136692,653.6054,45.065815,653.4206C44.92882,653.10516,43.6321,652.94653,40.868046,652.86255C39.502052,652.8464,38.245903,652.22015,38.928627,651.91437C39.298256,651.77264,39.908607,650.0267,39.844185,649.2955C39.817894,648.99756,39.880028,648.77374,40.015507,648.7618C40.53008,648.7164,40.911976,645.9263,40.713856,643.6783C40.60172,642.40546,40.617054,641.33966,40.752476,641.32776C40.88779,641.31586,41.026417,641.03076,41.07903,640.69855C41.232136,639.648,41.699085,638.133,41.9979,637.8065C42.69652,637.06256,42.71822,635.45044,42.116886,628.62555C41.77329,624.72565,41.607166,621.6016,41.74262,621.5897C42.013355,621.5658,42.6406,619.0815,42.56902,618.269C42.540394,617.944,42.6272,617.69073,42.7356,617.68115C42.97936,617.65967,43.617664,614.6831,43.54613,613.8706C43.517475,613.54565,43.626667,613.2357,43.78438,613.1673C44.178715,612.99603,44.338337,610.47095,44.192097,607.26324C44.070545,604.9541,43.999928,596.71783,44.06322,593.4098C44.086628,591.1971,43.672794,581.54443,43.321415,576.0077C43.125065,573.1592,42.95499,569.6807,42.93926,568.2629C42.901295,565.97363,43.00092,565.5554,43.599262,564.60205C43.98485,564.02216,44.286808,563.4224,44.27251,563.25995C44.260548,563.1245,44.39681,562.81226,44.54259,562.60846C45.061222,561.98956,46.085133,559.3611,46.32741,558.0842C46.457355,557.3905,46.438496,555.3179,46.25475,553.2325C46.078175,551.2284,45.982014,549.51733,46.05608,549.42896C46.554783,548.8938,46.940754,545.52997,46.879795,542.6696C46.696552,535.9444,46.751057,533.15576,47.108753,526.68304C47.173466,525.5584,47.16405,523.5942,47.1061,522.31647C47.048084,521.0387,46.96314,518.8355,46.890896,517.3954C46.79794,515.4112,46.87689,514.449,47.291195,513.2662C48.119896,510.9005,48.276924,510.20435,48.422935,508.14453C48.49238,507.074,48.62957,505.5335,48.693398,504.70908C48.784294,503.8823,48.662987,499.71716,48.39669,495.45563C47.906994,487.42,47.95332,486.7063,48.93383,480.17886C49.372276,477.41086,50.18772,472.72656,50.31205,472.27893C50.404747,471.9839,50.56658,471.82257,50.847923,471.80615C51.342857,471.77722,52.20762,472.19666,53.716347,473.1252C56.02613,474.55936,59.383232,477.34763,63.81948,481.54193C66.493126,484.0083,67.9347,485.1914,68.930305,485.6495C69.27647,485.81784,70.11974,485.8587,70.96972,485.80905C71.87023,485.75644,72.77828,485.60223,73.1106,485.39038C73.34005,485.2064,74.16851,484.69675,74.94756,484.24597C75.72669,483.7952,76.858665,483.0132,77.470436,482.52258C78.07989,482.0049,78.64469,481.6003,78.698814,481.59555C78.75298,481.59073,79.98614,480.71793,81.44636,479.634C82.87949,478.5525,84.36674,477.46616,84.69976,477.21848C85.03512,476.99792,87.556435,474.94714,90.3048,472.68524C96.71919,467.42572,102.457275,462.8535,102.673904,462.83435C102.94478,462.81055,105.468475,460.78687,106.85539,459.491C109.67622,456.8134,109.98155,455.01242,108.79636,448.3755C108.403915,446.09018,107.78137,443.36115,107.44693,442.35358C106.592575,439.78134,106.19766,438.3969,105.67938,436.23187C105.236725,434.30573,104.37602,431.352,103.794754,429.71112C103.323395,428.38803,101.58888,425.42944,100.51932,424.13174C100.00163,423.5224,99.573166,422.6867,99.53737,422.28046C99.45303,421.32346,98.70863,420.63486,97.78473,420.6888C97.767426,420.68982,97.750046,420.69113,97.73262,420.69263C97.72432,420.69336,97.71585,420.69397,97.7072,420.6945C97.262955,420.72043,96.33322,420.45236,95.602745,420.0616C93.09443,418.74774,88.48472,418.16034,83.654274,418.4425C82.64384,418.50153,81.62377,418.59863,80.61123,418.73508C79.63358,418.8616,78.98005,418.94092,78.52595,418.96744C77.7517,419.01266,77.55741,418.90445,77.32548,418.61514C77.12319,418.36908,77.009834,418.24945,76.805916,418.26135C76.6092,418.27286,76.32816,418.40677,75.80169,418.66754C75.322914,418.9279,74.732735,419.11087,74.33044,419.13437C74.22936,419.14026,74.140144,419.13614,74.06756,419.1206C73.70835,419.07034,72.39889,418.14862,71.156456,417.05716C69.23618,415.39774,68.87063,414.96597,68.80143,414.1806C68.746544,413.55768,68.19071,412.51495,67.00886,410.87234C66.047554,409.5651,65.27824,408.26822,65.310936,408.01965C65.33407,407.66284,68.88061,405.16693,71.42733,403.71445C71.972206,403.39346,76.13616,400.16083,76.28193,399.95685C76.3536,399.84146,77.0794,399.0951,77.9087,398.2851C78.73562,397.4481,79.46372,396.72894,79.53782,396.64047C79.6119,396.55206,80.477806,395.84802,81.47204,395.05084C83.561516,393.36563,87.334465,389.10303,87.85241,387.85645C88.05558,387.3746,88.83071,386.56943,89.703804,385.9466C93.04322,383.5781,93.72431,382.9449,94.656456,381.44354C95.20777,380.5762,96.11679,379.43167,96.69911,378.91638C98.2637,377.4685,101.088745,373.28943,102.34207,370.47693C102.61455,369.8525,103.55864,368.4865,104.393555,367.43048C105.25552,366.37192,106.47127,364.6819,107.11659,363.64243C108.57297,361.27606,111.55646,357.65613,112.32042,357.34314C112.63583,357.20618,112.88997,356.99277,112.87807,356.85742C112.866104,356.72202,113.71854,355.55515,114.75102,354.26324C115.81297,352.99615,117.48755,350.93802,118.50011,349.72983L120.34996,347.49258L118.78093,346.10245C117.27086,344.7616,117.20953,344.68512,117.301285,343.55814C117.32764,342.92795,117.3262,341.67264,117.27455,340.7765C117.181595,338.79233,117.82141,337.07114,119.68724,334.39575C120.41623,333.37625,121.12607,332.1401,121.30461,331.68765C121.48065,331.2082,122.01051,330.0972,122.50525,329.20743C123.000015,328.31766,123.388824,327.46472,123.37692,327.32935C123.36496,327.19385,123.53067,326.9064,123.75534,326.66818C124.30821,326.12817,125.17357,323.86853,125.30513,322.5742C125.36337,321.99594,125.32056,320.58044,125.19562,319.47244C125.07071,318.36444,124.914764,316.90442,124.828,316.2297C124.657776,314.60712,123.82477,313.20667,123.002716,313.16995C122.562225,313.1269,122.18155,312.83292,121.85106,312.17975C121.23207,311.0119,120.654785,310.62448,119.60571,310.68576C119.60069,310.68607,119.59569,310.68634,119.59064,310.68668C119.560394,310.68933,119.53087,310.6915,119.50203,310.6932C118.9111,310.72772,118.60573,310.55197,118.18962,309.96408C117.8002,309.42807,117.641464,309.25577,117.15489,309.28418C116.9429,309.29657,116.668655,309.34708,116.28598,309.42218C115.944855,309.498,115.662506,309.54404,115.41098,309.55875C114.912445,309.58786,114.53505,309.49374,114.06128,309.2634C113.49635,308.97595,113.111435,308.83932,112.75874,308.85992 Z"/> </g> <g style="fill:rgb(0,0,0); fill-opacity:1.0; stroke-linejoin: miter"> <path d="M-60.68869,190.599L124.01465,198.60103L119.2905,333.21124L-67.15362,343.47647L-60.690063,190.63112"/> </g> <g> <g style="fill:rgb(255,255,255); fill-opacity:1.0; stroke-linejoin: miter"> <path d="M11.777283,238.38817Q7.916214,238.7506,4.103058,239.16606Q0.28990173,239.58151,-3.5863495,240.24658Q-5.3668213,240.46068,-7.0514984,240.78067Q-8.6857605,241.10316,-10.463699,241.26678Q-12.042435,241.49095,-13.636368,242.01773Q-15.23027,242.54456,-16.587204,243.38663Q-17.06137,243.76732,-17.389313,244.25652Q-17.666794,244.74825,-17.845932,245.29547Q-18.330414,246.88922,-17.722824,247.88039Q-17.16565,248.8691,-16.030914,249.43164Q-14.946594,249.99171,-13.589859,250.16089Q-12.599609,250.24744,-11.711044,250.22151Q-11.379913,250.21184,-11.062927,250.18655Q-10.6757965,250.20598,-10.287125,250.19464Q-9.359207,250.16756,-8.422485,249.96509Q-7.095932,249.7283,-5.7744293,249.59233Q-4.4575653,249.25836,-3.1555786,249.22035Q-3.140976,249.21992,-3.1264038,249.21954Q-1.8125,249.23492,-0.49609375,249.1998Q0.005065918,253.32068,0.052261353,257.41873Q0.099472046,261.51678,-0.5670471,265.73077Q-0.7438507,267.2388,-1.0189819,268.69135Q-1.2411346,270.096,-1.617157,271.5435L-3.658661,278.97513Q-4.153244,280.77063,-4.546982,282.5712Q-4.9381714,284.32132,-5.2814484,286.1244Q-5.478485,288.03595,-5.680603,290.04834Q-5.829727,292.01288,-5.928421,293.97992Q-6.0547943,295.4905,-5.944153,297.31638Q-5.8839264,299.1397,-5.3067017,300.73615Q-4.7773743,302.27963,-3.6200256,303.39954Q-2.5105743,304.4665,-0.5435486,304.5652Q0.88391113,304.33344,1.7389832,303.41562Q2.59404,302.49783,3.1087189,301.3101Q3.5729523,300.11984,3.8430328,298.76816Q4.1105804,297.46692,4.3175507,296.36487Q4.6810913,294.1583,4.9942017,291.94916Q5.256851,289.73755,5.620392,287.53094L6.8248596,278.64154Q7.7842407,272.62198,8.791489,266.65533Q9.796249,260.73923,10.954834,254.78023Q11.287979,253.17891,11.570709,251.57503Q11.803009,249.96861,12.237045,248.37233Q13.87114,247.39755,15.687119,247.34454Q15.782715,247.34177,15.87883,247.34152Q17.747513,247.38472,19.510315,247.52374Q20.972977,247.59712,22.372559,247.92015Q23.474594,248.13445,24.620285,248.101Q24.932266,248.0919,25.247482,248.0644Q26.6194,247.931,27.774582,247.07881Q28.879318,246.22409,29.149384,244.8724Q28.82434,243.28859,27.86621,242.22923Q26.908081,241.16985,25.629623,240.44843Q24.35115,239.72691,22.855743,239.29791Q21.408234,238.92194,20.05655,238.65186Q17.950851,238.2934,15.925781,238.34344Q13.900696,238.39357,11.777283,238.38817 Z M61.600327,240.40546Q57.879745,240.51404,53.76111,241.1014Q52.328613,241.43404,50.792694,241.81206Q49.256805,242.19008,47.81166,242.7749Q46.36653,243.35974,45.105423,244.30772Q43.897293,245.20786,43.117767,246.63509Q41.14714,252.65446,39.378265,258.684Q37.652237,264.86734,36.080032,271.00784Q34.558258,277.1509,33.838425,283.43527Q33.562943,286.91037,33.539642,290.39813Q33.518845,293.83545,34.25717,297.2603Q34.536835,298.74072,34.91739,300.22614Q35.247498,301.70908,35.98871,303.06094Q36.787933,304.26404,38.1698,304.94012Q39.55168,305.61624,41.009277,305.7905Q41.690125,305.81155,42.36963,305.79172Q44.31018,305.73508,46.23976,305.34503Q48.844955,304.81842,51.417435,303.9362Q53.98738,303.10443,56.517,302.06836Q58.9962,301.0298,61.475372,299.99118Q63.80832,298.84415,66.287476,297.80557Q68.76668,296.767,71.155136,295.5216Q73.541016,294.32663,75.692474,292.76596Q77.790924,291.2532,79.36244,289.15778L79.37509,288.90555Q78.709625,287.05194,76.98987,286.05545Q75.38425,285.09946,73.447174,285.15598Q73.37033,285.15823,73.29295,285.16208Q71.469635,285.2223,69.681564,285.58765Q67.89345,285.953,66.09529,286.52014Q64.347534,287.08975,62.58963,287.8611Q60.88472,288.58463,59.17726,289.35855Q55.860718,290.9619,52.350006,292.4038Q48.83928,293.8457,45.222824,294.37213Q44.759277,291.5173,44.547943,288.67508Q44.33661,285.8329,44.733032,282.97064Q44.87964,281.05655,45.628967,279.2233Q46.37825,277.38998,47.61931,275.83423Q48.807373,274.32632,50.4821,273.19684Q52.154297,272.11774,54.09874,271.65912Q57.866547,271.14023,61.56868,270.92148Q65.217865,270.75064,69.020935,270.53696Q70.18605,270.49426,71.56299,270.25998Q72.94,270.02567,74.18088,269.48117Q75.37129,268.9341,76.27933,267.96844Q77.13443,267.05057,77.308685,265.593Q77.5661,264.4935,77.21069,263.51495Q76.90317,262.58936,76.179504,261.89572Q75.45331,261.25247,74.45978,260.89926Q73.51665,260.54855,72.55582,260.5509Q70.957886,260.4154,69.36597,260.46185Q68.04855,260.5003,66.73529,260.66336Q63.837585,260.97308,61.033157,261.43912Q58.082504,261.79672,55.177216,262.2577Q53.137497,262.55316,51.05786,262.61383Q50.22934,262.63803,49.3945,262.6249Q49.422333,262.0701,49.349274,261.51022Q49.32669,260.95288,49.505844,260.4057Q49.652267,259.50287,49.9021,258.5547Q50.098938,257.65442,50.396698,256.7592Q51.065384,254.51738,52.964645,252.94406Q54.813446,251.36821,56.974823,250.61703Q59.23709,249.87094,61.577454,249.58388Q62.58612,249.46016,63.599457,249.43059Q64.93732,249.39154,66.283295,249.51662Q67.94263,249.70099,69.65498,249.83748Q71.36986,249.92348,73.087234,249.95909Q73.26764,249.96815,73.44879,249.96286Q74.02722,249.94598,74.61299,249.78282Q75.38223,249.56862,76.06322,249.0971Q76.69124,248.67358,77.13017,247.98769Q77.56908,247.30185,77.66254,246.4469Q77.81909,245.34236,77.46365,244.3638Q77.15619,243.43823,76.43506,242.69412Q75.76184,242.00305,74.82376,241.55145Q73.88318,241.15031,72.82652,241.04672Q68.25949,240.3625,63.60663,240.38187Q62.618393,240.37573,61.600327,240.40546 Z"/> </g> </g> <g> <g style="fill:rgb(255,255,255); fill-opacity:1.0; stroke-linejoin: miter"> <path d="M245.35648,241.13593Q246.47198,242.32695,247.24214,243.77795Q248.01227,245.229,248.56602,246.83684Q249.07019,248.40302,249.44531,250.07239Q249.82042,251.74179,250.19156,253.36546Q250.72943,256.90668,251.3129,260.44394Q251.85077,263.98514,252.38863,267.52637Q248.59927,267.85577,244.90128,268.17725Q241.2489,268.49472,237.54294,268.72488Q237.96385,265.1004,238.3887,261.52145Q238.77191,257.9922,239.51239,254.33986Q240.36008,250.86221,241.62259,247.39445Q242.8891,243.97243,245.35648,241.13593 Z M312.5681,225.86314Q311.79196,225.93062,311.1925,226.44272Q310.58905,226.90916,310.10077,227.64163Q309.61243,228.37405,309.1856,229.28517Q308.75488,230.15059,308.2328,231.02396Q307.50034,232.65163,306.89685,234.17607Q306.2934,235.70053,305.74747,237.35794Q304.342,241.29811,303.16483,245.21841Q301.98367,249.09305,300.71915,253.06694Q299.91714,255.48265,299.11914,257.944Q298.36282,260.35574,297.27893,262.70392Q295.80035,254.69052,293.52377,247.0225Q291.25116,239.40018,288.5299,231.90883Q288.2302,231.10687,287.79352,230.31682Q287.35684,229.52684,286.7078,228.93924Q286.10437,228.34772,285.29648,228.04993Q284.91354,227.92982,284.48874,227.92819Q284.0217,227.92639,283.50406,228.06778Q282.60287,228.28409,281.87036,228.85376Q281.17963,229.3738,280.6,230.11418Q280.062,230.80493,279.6313,231.67041Q279.24222,232.48619,278.9405,233.24844Q278.40845,234.53667,278.06702,235.90033Q277.7712,237.26003,277.3345,238.58597Q277.08438,239.94171,276.92554,241.2895Q276.76276,242.59164,276.46298,243.90572Q275.53387,250.15044,275.16052,256.4388Q274.7832,262.68155,275.09076,268.86478Q275.33282,272.7077,275.75357,276.48907Q276.17032,280.2248,277.5756,283.6906Q278.08768,285.34808,279.05432,286.41406Q279.61212,287.00952,280.31674,287.17828Q281.01746,287.30136,281.7638,287.42047Q282.44464,287.31528,283.13342,287.30142Q283.82224,287.28757,284.8167,286.5571L285.1264,285.88617L285.34076,285.17752L285.40237,284.2982Q285.42618,283.51413,285.49567,282.72607Q285.52347,281.98767,285.456,281.21155Q285.37073,279.701,285.19012,278.1527Q285.0551,276.60043,284.73758,275.06406Q284.50732,273.47406,284.28506,271.97546Q284.10846,270.4728,284.06085,268.86697Q283.90414,264.41864,284.07498,260.0338Q284.2001,255.65298,284.96445,251.21658Q286.52853,254.39258,287.5606,257.7988Q288.5471,261.20908,289.5792,264.6153Q290.52002,268.02948,291.50644,271.43967Q292.44327,274.8082,293.65402,278.1529Q293.94977,278.9092,294.38248,279.65356Q294.8152,280.39792,295.42258,281.03513Q295.98035,281.6306,296.74655,281.97806Q297.39056,282.29208,298.22803,282.29532Q298.32755,282.2957,298.42978,282.2917Q299.94632,280.68784,300.9746,278.7585Q301.96115,276.87878,302.69965,274.7906Q303.44208,272.74802,304.0813,270.57648Q304.7245,268.45062,305.5165,266.44977Q307.1046,261.4358,308.46442,256.44162Q309.8243,251.44742,310.89825,246.34012Q312.21225,249.81381,312.71634,253.49599Q313.17474,257.1821,313.49622,260.88013Q313.7721,264.5821,313.77002,268.26224Q313.80963,271.89276,313.85718,275.61462Q313.87698,276.90085,313.8551,278.23676Q313.8789,279.5687,314.21432,280.78152Q314.47632,281.6787,315.046,282.41116Q315.61566,283.14365,316.39377,283.628Q317.12622,284.11633,318.06708,284.35654Q318.47797,284.44803,318.91034,284.4497Q319.41586,284.45163,319.9508,284.33078Q320.82822,283.84048,321.35822,283.05844Q321.8922,282.32202,322.182,281.42282Q322.47583,280.56927,322.62073,279.59073Q322.76962,278.65778,322.92645,277.81616Q323.1469,274.531,323.0517,271.31934Q322.91083,268.1116,322.58337,264.87408Q322.28766,263.0598,322.08325,261.23758Q321.88278,259.46106,321.76968,257.63092Q321.81342,256.01712,321.86108,254.449Q321.8631,252.88481,321.99814,251.2631Q321.9962,249.65327,322.1352,248.07722Q322.2285,246.50514,322.0896,244.90723Q321.93484,243.12668,321.80585,241.11394Q321.6312,239.10512,321.27393,237.11223Q320.9167,235.11928,320.29346,233.24149Q319.67023,231.3637,318.6599,229.79552Q317.6536,228.27304,316.13507,227.20905Q314.66623,226.18677,312.5681,225.86314 Z M245.25546,230.60089Q244.85822,230.59937,244.44362,230.6354Q241.95642,231.12761,240.11237,232.6679Q238.30997,234.15857,236.9244,236.21098Q235.5845,238.25948,234.59195,240.59972Q233.59941,242.93999,232.76567,244.99046Q231.12401,249.9171,229.94676,254.8954Q228.7656,259.82803,227.72537,264.79443Q226.61366,269.99704,225.77585,275.17584Q224.98373,280.35062,225.20393,285.52948Q225.3111,286.76215,225.55124,287.9372Q225.74577,289.11633,226.25589,290.22192Q226.94464,291.26608,228.09193,291.7643Q229.23526,292.21692,230.48383,292.2924Q231.48427,292.1594,232.12144,291.55203Q232.75864,290.9446,233.18938,290.07922Q233.57448,289.2177,233.86034,288.27286Q234.14624,287.32806,234.39833,286.5241Q234.81323,284.41812,235.36908,282.3458Q235.92493,280.27347,236.33984,278.16742Q238.3169,277.62753,240.26414,277.27426Q242.21541,276.96664,244.13287,276.79996Q244.97714,276.66068,245.81021,276.66388Q246.1406,276.66516,246.46922,276.68884Q246.68663,276.69702,246.90697,276.69788Q247.80904,276.70135,248.75986,276.58173Q250.95921,276.48254,253.18839,276.19675Q253.52376,278.46756,254.00009,280.77213Q254.42685,283.03503,254.5419,285.41702Q254.6788,286.46307,255.26039,287.3325Q255.84198,288.20197,256.67368,288.77362Q257.45972,289.34933,258.4879,289.53592Q258.81555,289.5995,259.1532,289.60077Q259.82794,289.60336,260.5424,289.3573Q261.58447,289.17474,262.35864,288.55542Q263.08716,287.9401,263.60922,287.06674Q264.13525,286.239,264.41718,285.2485Q264.69904,284.258,264.80228,283.32904Q264.9532,281.88995,264.7428,280.52826Q264.58203,279.20825,264.19302,277.90805Q263.80795,276.65356,263.28198,275.36526Q262.75998,274.12265,262.2379,272.88004Q260.9756,268.94183,260.16183,264.87262Q259.39374,260.79947,258.71698,256.71832Q257.93695,252.50815,257.16492,248.38933Q256.39285,244.27045,255.03523,240.29453Q254.42392,238.55368,253.48505,236.74936Q252.59184,234.941,251.2739,233.53755Q250.00154,232.1302,248.27068,231.26869Q246.91425,230.60728,245.25546,230.60089 Z"/> </g> </g> </g> </svg>