<?xml version="1.0" encoding="UTF-8"?>
<svg version="1.1" viewBox="0 0 600 976" xmlns="http://www.w3.org/2000/svg">
 <path d="m281.38 249.57q12.947 0 37.364 15.073-25.026-11.661-50.169-11.661-3.1921 0-6.3861 0.18798 8.383-3.38 16.749-3.5105l0.56073-0.00377q0.90826-0.08515 1.8813-0.08515zm-149.01 219.68l-0.21326 0.15399 0.21326-0.15399zm243.8-261.55q0.2169 0 0.43723 0.00589l0.29712-0.00182q31.678 4.1055 44.555 9.7119 2.4775 30.211 5.8489 45.449-3.9668 1.1343-5.4731 4.648l-4.1468 17.103q0.19177 0.30208-1.4606 0.30208-3.697 0-16.625-1.5123l-5.1735 0.58174-9.8841 11.226q-15.926 25.181-4.4252 31.665 2.4184 1.1822 7.1916 1.235l16.872-0.95252q13.838 0.79098 20.714 0.79098 6.2559 0 6.7511-0.6546 4.1868-0.95712 7.1344-3.4378 10.442-13.844 13.2-13.844 0.0368 0 0.07224 0.00246 10.314-3.6461 18.654-3.6461 2.9798 0 5.7074 0.46548 1.4751-0.73666 2.6646-3.2925l13.295-30.494q0.54445-0.15468 1.354-0.15468 3.066 0 9.9343 2.2184 51.613 20.948 64.606 23.027 2.254 1.5171 1.1392 5.4369l-6.2753 17.516-28.943 65.544q-5.53 13.816-7.5732 26.354l-64.015-24.447q-9.9578-4.079-13.036-6.9586-3.6344-3.3919-2.229-6.79l10.028-17.637q1.9093-3.953 1.1395-8.1188-2.6822-8.4764-16.925-8.4764-0.64164 0-1.3067 0.01722-36.7 3.4506-54.679 3.4506-13.34 0-16.373-1.8998-2.3594 1.758-3.1611 4.3009-7.2896 23.934-9.415 26.489-1.4125 3.3318-10.324 10.306-1.8435 2.115-2.964 4.4681-5.943 16.086-9.5376 22.072-1.0453 2.3619 0.0874 5.0164 1.8263 2.7868 5.4741 2.7868 0.70985 0 1.4887-0.10552 36.108-9.9638 81.794-9.9638 7.5399 0 15.341 0.27139l11.655 23.082 17.185 49.88q25.474 42.703 24.981 44.979 1.022 2.8506 0.98617 4.0368-8.8559 1.2678-9.2439 5.6828-1.3981 4.3068 3.4601 11.216 2.4382 3.2585 8.0263 6.4264l24.044 13.607 8.4713 3.4909q3.4114 0.9302 6.8791 0.9302 0.71755 0 1.4375-0.03986 15.596-2.9341 22.709-2.9341 2.0724 0 3.4249 0.24904-22.887 8.8302-61.777 15.134-1.3632 7.7486-25.131 11.345l0.99347-5.664-3.8032-8.5705q-0.69962-19.099-2.4445-21.545l-33.078-71.128-19.779-36.649q-3.3928-3.6656-9.505-3.6656-2.2365 0-4.8372 0.49081-48.413 13.145-76.448 28.377-1.5107 0.52441-2.0664 0.52441-0.41449 0-0.29782-0.29168 0.52168-2.8686-2.8555-4.0657-0.2118-0.01617-0.41492-0.01617-1.9562 0-3.1078 1.5001l-37.453 78.968q-3.3602 6.3454-15.012 41.452-12.704 21.397-21.835 24.854-50.411-19.38-132.9-29.979 1.4948-16.369-6.0031-18.862l-11.354 1.2041q-14.772-3.0937-21.404-3.0937-3.3487 0-4.6222 0.7887-2.6607 0.6409-5.9741 3.3571-1.7555 1.0994-9.3008 11.256-1.1272 1.3465-3.3115 2.0223-0.80862 0.21736-1.4523 0.21736-3.6555 0-1.9902-7.0094 4.6023-17.052 37.645-32.288 3.7262-4.1331-0.64703-7.3026h8.2e-4l0.91961 0.40757q-1.1852-1.0844 0.81844-2.2934 7.9994-6.7659 25.512-16.619 2.6336 3.2174 4.2231 8.474 2.3431 18.237 4.03 19.676 2.4036 5.3946 10.444 8.95 19.924 7.9674 58.868 13.476l33.501 4.4874q0.15364 0.0011 0.30495 0.0011 7.3042 0 9.1488-2.526 4.6485-0.11499 1.6911-31.306 6.7594-9.1088 6.2074-17.312 1.0084-8.8652-5.8563-48.854-0.63979-9.5755 1.4379-17.362l4.3408-12.02 17.93-38.136 28.652-38.111q3.1175-4.1726 2.6631-5.6532h-0.00287q0.54162-0.87049-0.63188-3.9362-1.9245-1.7056-4.0158-1.7056-1.5827 0-3.261 0.97694-6.1952 2.5077-22.627 13.94-43.268 30.936-63.043 51.839-7.397 7.8185-8.1236 11.278 3.2633 18.213-1.6597 33.027l1.2425-20.383q-0.96631-4.9442-4.9492-6.0597-1.058-0.32694-2.276-0.32694-3.8642 0-9.3379 3.2913l-24.513 18.445q-1.37-0.3057-2.6495-0.3057-3.7893 0-6.7848 2.6811 4.0057-3.587-1.7032-9.0225 2.7812-9.8357 20.127-27.936 7.6881-7.8602 11.512-9.6668-0.12396-0.58725 2.167-0.58725 2.0064 0 5.8649 0.45042 1.7292-0.12653 4.2223-2.427 20.207-33.858 65.379-72.271 41.079-35.571 68.747-55.619 5.4347-3.8269 8.5562-5.0449 12.935-0.83063 14.724-3.2249 5.4107-5.1661-3.4401-11.528h0.00328q7.3051 3.9567 13.217 3.9567 6.5034 0 11.321-4.788 2.6971-2.7906 5.3719-9.0472-1.6927-24.078 4.1074-43.71 3.1665-9.6142 11.929-9.6142zm-0.1068-7.0902q-11.853 0-17.42 11.681-6.7534 16.924-5.9857 47.837-2.3911 5.7039-5.5499 6.9308-1.2421 0.71665-3.0807 0.71665-2.7933 0-6.9632-1.654-40.357-23.019-49.359-23.019-0.38495 0-0.71255 0.0421-3.7579-0.51034-7.4491-0.51034-16.368 0-31.426 10.035-3.4812 4.1963 1.8506 7.3347 6.43-0.55898 12.667-0.55898 35.379 0 64.535 17.988-1.0607-0.12183-2.1486-0.12183-9.2661 0-20.5 8.8394-32.912 24.426-72.025 58.784-41.328 35.563-61.121 68.507-1.6048-0.4386-3.2934-0.4386-9.5648 0-21.818 14.072-16.51 17.252-20.925 29.509-1.6205 4.8545 2.0165 7.5561-3.1693 3.5702-1.437 7.9278 2.1804 4.024 5.9002 4.024 0.5911 0 1.2211-0.1016 2.1476-0.27672 7.1895-3.7025 1.0756 0.37512 2.2863 0.37512 2.7975 0 6.3162-2.0028l20.376-16.01q4.7636-3.4344 7.9686-3.8853h0.00177q-5.2614 27.012 5.8718 27.012 1.545 0 3.4058-0.52023 4.2271-3.0389 5.442-10.617 3.0061-18.059-0.00443-27.421l3.1782-4.6499q26.039-28.607 81.017-64.794h0.00273q-27.265 33.865-26.258 34.41l-18.712 39.541-4.9188 13.641q-2.2603 8.6626-1.6188 19.056 6.7815 40.819 5.8987 47.28-0.03914 4.8429-0.87224 7.4253-5.4999 7.6662-5.3441 10.607l0.61385 26.641q-0.22912 0.82925-3.2029 0.82925-2.5041 0-6.9545-0.58801l-45.952-6.8935q-21.237-3.5112-39.102-10.298-4.6834-2.0181-6.3826-6.094-2.5404-19.453-5.5415-23.674-5.2228-8.6094-7.2492-8.6094-0.4634 0-0.75964 0.45019-14.37 6.2082-30.686 18.965-6.8 6.1967-3.284 10.547-30.885 13.453-37.694 34.305-4.1673 13.35 8.8386 16.018 4.4145-0.0331 7.6657-2.4529 1.6921-0.539 10.047-11.803 1.8491-2.1163 4.8209-2.9403 0.28249-0.40695 2.0283-0.40695 4.8406 0 20.931 3.1286 0.67545 0.05584 1.4007 0.05584 3.4658 0 8.0683-1.2748 2.9135 3.1857 0.79869 14.244 0.32476 2.3851 4.777 4.1202 80.936 10.466 135.95 30.518 0.0436 5.5e-4 0.08733 5.5e-4 9.7396 0 26.731-26.655 8.2417-32.779 50.976-115.26 6.149-0.57098 11.94-3.0232 13.896-8.3443 35.861-15.765 27.616-9.818 34.475-10.67 2.3292-0.40193 4.0741-0.40193 4.3215 0 5.0591 2.4655-0.71258 2.9129 18.52 35.271 26.428 59.712 31.086 66.548 2.5165 2.5174 3.1635 23.02l3.697 8.5194-1.61 4.8532q-0.15451 0.1819 0.22864 0.3273h-0.00468q-1.0342 0.2455-0.24755 1.6526 0.79585 2.8835 2.4144 3.5618 1.3219 0.9874 4.3355 0.9874 5.3663 0 16.097-3.131 11.982-3.4697 13.108-8.7811 64.764-11.436 69.774-21.032 2.1279-5.8278-8.562-7.4771-2.4838-0.44787-5.8949-0.44787-8.7068 0-23.456 2.9181l-7.1459-1.0704-29.646-16.07q-3.8205-2.0466-6.0384-4.807-1.6463-2.0249-1.9777-4.5035 7.4423-0.70416 8.9629-5.0407 1.2507-3.7-0.83338-8.8818-0.23495-4.25-24.922-45.062l-18.212-52.327q-5.2761-12.712-13.24-24.276-13.886-1.2218-27.475-1.2218-37.807 0-73.323 9.4562l8.9898-20.594q11.822-10.109 13.215-14.653 2.0727-3.0583 8.974-25.727 5.3415 1.8757 15.101 1.8757 1.4596 0 3.018-0.04196l52.898-3.3109q8.3314 0.62768 8.102 3.83 0.03949-0.00822 0.07305-0.0085h0.00453q1.5172 0.0123-9.4165 16.641l-2.0924 5.7675q-1.3784 8.2799 4.8898 13.064 5.3785 4.6087 18.504 9.5783l60.973 23.18q1.6698 0.82495 3.3872 0.82495 1.336 0 2.7009-0.49932 1.6496-0.90967 2.3331-2.7616 2.3539-15.723 8.7648-30.722l32.026-73.273q4.6601-12.905 1.9842-17.236-1.0428-2.9251-6.4581-5.1456-9.5568-0.8189-63.827-22.711-7.8312-2.4741-11.726-2.4741-0.77896 0-1.4005 0.09893-4.3047 0.43418-6.9037 3.2939l-12.292 30.159q-0.95083-0.02897-1.8968-0.02897-11.496 0-22.266 4.2791-5.5148 1.6358-14.219 14.311-2.1417 2.0078-5.0646 2.5452l-46.805-0.0711q-1.3577-11.871 14.332-29.852 12.229 1.4158 18.232 1.4158 5.7018 0 5.7874-1.2772 2.4426-1.2002 3.7132-4.9171l3.3857-15.574q0.89948 0.08868 1.6794 0.08868 5.0073 0 5.0848-3.656-5.1442-24.285-5.8598-47.34-0.59735-4.5183-2.8792-6.913-3.1109-5.0312-49.01-11.735l-0.45276-0.00306q-0.4617-0.01703-0.91424-0.01703z"/>
 <path d="m473.55 310.23l-14.649 29.784 4.5323-29.508 0.02689-7.6e-4 10.09-0.27521zm-339.56 155.41q0.00626 0.07438-0.02914 0.17496l0.0278-0.17496zm243.33-259.12q-10.24 0-12.965 7.4277-7.0423 17.42-5.3933 46.788-4.5542 10.528-10.437 12.109-2.2282 0.7771-4.7288 0.7771-3.891 0-8.4418-1.8813-40.552-22.62-47.041-22.62-0.39625 0-0.66548 0.08436-4.0043-0.75392-8.0894-0.75392-11.641 0-23.937 6.122 5.6864-0.34934 10.994-0.34934 21.192 0 36.34 5.5695 35.69 12.63 30.981 20.491 0.03138 3.0962-15.938 4.4342-3.1138 1.323-8.5519 5.1478-29.855 21.811-69.935 56.699-43.875 37.445-64.529 71.566-1.2413 1.279-3.3971 1.7269-2.9041-0.53998-4.8518-0.53998-2.2641 0-3.236 0.72966-3.4979 1.4201-12.185 10.241-16.914 17.537-20.609 28.888 3.7698 3.0846 3.65 4.1539l-0.36606 2.3036q-0.01071-0.10164-0.10121-0.15307-1.3696 1.3918-1.1895 1.3918 0.12692 0 1.0238-0.69153h0.00134l-2.5064 2.7164q-0.2074 0.96706 0.75643 1.312 6.103-4.368 10.868-4.368 1.1101 0 2.1476 0.2371l23.488-17.989q4.8047-3.1423 9.0956-3.1423 0.74927 0 1.4829 0.09582 4.0634 1.542 4.3423 5.3069l-1.9002 16.71q-0.22079 3.7802 1.7928 5.2329 6.4349-11.89 2.8403-34.419 0.18077-2.5292 7.0551-10.039 18.073-19.527 59.531-49.624 16.189-11.588 24.469-15.776 2.8662-1.788 4.9718-1.788 1.8075 0 3.0545 1.3174 2.1786 1.5543-2.9586 9.208l-27.751 36.689q-2.3701 9.2641-17.934 38.066l-4.4437 12.013q-2.3807 9.0067-1.6732 18.181 6.8164 40.395 5.8936 48.107 0.48369 9.3248-6.221 18.077 2.4217 29.855-0.54767 29.855-0.05049 0-0.10254-0.0086-1.2604 3.0312-8.1607 3.0312-1.8028 0-3.9905-0.20693l-78.404-12.204q-12.263-2.8476-37.211-38.576-15.945 9.3881-20.444 14.283l1.7385 4.9079q-0.01955 1.7326-1.5853 2.9989-23.538 11.81-28.577 18.233-11.558 13.182-9.4176 20.644 1.4866 2.2138 3.7684 2.2138 1.4127 0 3.1301-0.84847l10.842-12.38q2.6698-2.6772 6.7582-3.7882 1.2719-0.52494 3.9349-0.52494 6.427 0 20.957 3.0577l11.3-1.2017q6.8894 3.2552 4.5533 18.403 77.938 10.04 135.98 30.271 11.287-7.2547 21.504-25.48 11.643-35.123 15.005-41.452l37.736-79.103q1.0161-0.629 1.777-0.629 2.082 0 2.2541 4.7088l3.0628-0.68567q42.578-21.015 81.168-28.923 0.64011-0.0603 1.2538-0.0603 5.9097 0 9.3717 5.5922l18.479 35.194q26.281 59.37 31.414 67.247 2.9915 4.1555 3.425 23.891l3.8039 8.5576q0.52985 1.8468-1.5432 6.5746 0.65118 0.07208 1.4097 0.07208 5.9598 0 18.545-4.4488 1.7835-0.6887 3.3744-1.8007 1.7882-4.7975 4.3917-5.208 43.064-6.9836 65.016-16.5-1.5433-0.99165-8.5784-0.99165-0.39093 0-0.79883 0.00305-0.28619-0.0307-0.69654-0.0307-3.9103 0-19.098 2.7884-1.2749 0.07385-2.4389 0.07385-4.1209 0-6.8522-0.92566l-32.32-17.106q-4.4174-2.4082-7.261-5.8509-4.342-5.6271-3.3-10.4-0.23078-3.26 8.9366-4.8598 0.84612-0.81704-0.492-4.7491-0.10078-3.7739-25.285-45.817l-17.18-49.884q-3.7958-10.016-12.213-23.616-8.5182-0.35369-16.811-0.35369-44.131 0-81.875 10.017-0.06092 5.8e-4 -0.1211 5.8e-4 -5.0931 0-5.1776-4.1314l10.633-25.289q12.854-11.797 13.249-14.701l10.948-28.684q2.6034 1.7529 15.407 1.7529 18.021 0 56.25-3.4725 0.41543-0.00734 0.82068-0.00734 13.197 0 15.545 7.807 0.66535 3.0678-1.1898 7.2288-10.163 15.512-10.027 17.665-1.7195 4.1324 2.9827 8.3226 4.4708 3.5515 13.981 7.2668l64.601 24.555q1.691-12.254 6.3074-24.217l32.14-73.497q5.6401-13.526 4.5324-17.646l-0.3695-0.83402q-1.0174-1.3948-3.1281-1.9791-10.116-1.0039-62.408-22.233-7.0469-2.4785-11.19-2.4785-0.48492 0-0.93008 0.03397-2.5588 0.51263-2.3999 1.1971l-11.61 28.552q-1.6804 4.0177-3.0209 4.3428-2.8593-0.60195-6.0752-0.60195-7.9611 0-18.108 3.689-0.05394-0.00549-0.11081-0.00549-2.8496 0-13.121 13.787-2.9261 2.5319-7.0008 3.4121-0.52389 0.59257-6.4937 0.59257-6.8621 0-20.92-0.78294l-16.76 0.9425q-4.8893-0.09893-7.0798-1.4415-10.668-8.7565 12.402-38.622 1.8408-2.1485 5.2621-2.2216l16.975 1.4557q0.44188 0.04157 0.86686 0.04157 1.6576 0 3.0582-0.63217l4.2528-17.177q1.058-3.2059 5.8417-4.8973l-6.4765-47.016q-3.1453-3.0589-39.215-9.3908-3.0564-0.47136-5.6359-0.47136z"/>
 <path d="m112.32 520.32q-4.3937-2.4622-8.8827-0.7753-4.4391 1.8344-6.4578 6.8241-1.892 4.9932-0.24458 10.426 1.7737 5.2951 6.0795 7.8792 4.3917 2.4664 8.8822 0.78424 4.4407-1.8296 6.4634-6.8175 1.8958-4.9915 0.25206-10.426-1.77-5.2967-6.0739-7.8847"/>
 <path d="m152.59 572.64l-2.1634-3.1298q-1.7018-3.7397-2.7492-4.77-5.4937-4.842-7.9336-5.769-2.2582-1.1772-7.0893-1.1885-5.1592-0.1071-6.4215 0.842-1.445 0.64615-0.69052 3.1019 0.3912 1.8788 2.7782 4.3453 3.0095 3.1829 6.4476 4.0286 1.3326 0.3688 4.3931 0.80896 1.261 0.18024 2.5005 0.30798 4.0013 0.31106 4.8994 0.45256l4.8757 0.708q0.8806 0.14 1.1362 0.25405"/>
 <path d="m381.75 345.83l-19.163 7.8794q4.0884-0.04288 5.3089-0.09935 0.84409-0.0209 1.7021-0.15968 0.91247-0.13572 2.4514-0.62189 0.10611 0.00947 3.0802-1.1829 2.3643-1.0696 3.5346-2.0797 0.29205-0.25737 0.48962-0.49757l2.5906-3.2303"/>
 <path d="m376.29 347.95l-0.09068 0.01562q-0.1091 0.02334 0.07616-0.01248m-0.11986 0.02258l-12.453 2.3438q1.6422 0.25131 3.633 0.33343 0.91712 0.03031 1.8891-1.8e-4 0.5497-0.02063 1.0427-0.11268 0.4844-0.09002 0.91736-0.25713 1.2486-0.58147 2.7945-1.1876 0.41751-0.18228 0.76544-0.37125l0.95816-0.56393q0.25427-0.13111 0.44934-0.18314"/>
 <path d="m377.48 347.53l-14.271 3.7189q1.3864 0.00629 1.7815-0.05597 0.30297-0.03406 0.5808-0.08719l0.82553-0.18557q0.27837-0.0569 0.52797-0.0938 0.3698-0.06364 1.3758-0.1352 0.27094-0.0292 0.569-0.07645 0.46897-0.07431 1.0081-0.19415 1.9338-0.46696 2.993-0.69566 0.58584-0.15134 1.4016-0.53918 2.8612-1.5203 3.2082-1.6554"/>
</svg>
