<?xml version='1.0' encoding='utf-8'?>
<svg xmlns="http://www.w3.org/2000/svg" version="1.1" width="600px" height="976px" viewBox="0 0 600 976"> <g id="layer1"> <g style="fill:rgb(0,0,0); fill-opacity:1.0; stroke-linejoin: miter"> <path d="M327.98465,287.59433Q328.01602,287.6312,328.0361,287.66956L327.99533,287.6148L327.99734,287.6148C327.9922,287.60788,327.98685,287.60104,327.98135,287.59433 Z M315.98505,393.30237Q316.00775,393.30237,316.03006,393.3047L316.0333,393.30515Q316.25928,393.32562,316.35986,393.42236Q316.56168,393.74664,316.55194,393.8027Q316.5694,393.89886,316.52594,393.98126Q316.5681,394.1178,316.5909,394.2358L316.67047,394.78186Q316.78204,395.1798,316.801,395.41034Q316.78113,395.69595,316.4851,395.82162Q316.34955,395.87857,316.01044,395.92075L315.3054,396.00058Q314.51718,396.06726,314.30112,396.0978L313.68433,396.13248Q313.25845,396.20377,312.74307,396.25882L312.33417,396.3268Q312.20526,396.3448,312.06934,396.35532Q312.04764,396.3669,310.5146,396.4227L309.96454,396.42746Q309.80765,396.4643,309.68875,396.4643L309.6872,396.4643Q309.51016,396.46988,309.3631,396.46988Q308.95718,396.46988,308.77957,396.42734Q308.65125,396.45676,308.54297,396.45676Q308.49585,396.45676,308.45255,396.4512Q308.27817,396.42728,308.16953,396.27942Q308.06412,396.1373,308.11096,396.0034Q308.20557,395.7368,308.5814,395.67255Q308.5906,395.3654,308.84576,395.25616L309.9071,394.9683Q309.9496,394.96005,310.7061,394.7208Q310.7462,394.70822,310.79675,394.70377Q312.24875,394.1155,313.91663,393.65567L314.23782,393.5729L314.3006,393.55673L314.30054,393.55673L314.82813,393.42078Q314.86652,393.4124,314.90646,393.4124Q314.9834,393.4124,315.0661,393.4434Q315.40012,393.374,315.55994,393.35043Q315.64838,393.33688,315.71594,393.33688Q315.75778,393.33688,315.7916,393.34207Q315.89148,393.30237,315.98505,393.30237 Z M307.88013,417.8154Q310.53894,417.8154,311.73596,417.89206L311.73285,417.89206Q306.01297,426.4253,296.022,430.27582L296.02094,430.27582Q293.86548,431.01645,290.80185,431.4317L290.79892,431.4317Q268.40823,433.49103,250.89668,436.32797L250.8967,436.32797L251.04228,419.51114L251.03978,419.51114Q280.4386,418.44452,290.18295,418.17462L290.18298,418.17462L290.18738,418.1745C290.18774,418.1745,290.18808,418.17447,290.18845,418.17447L290.18842,418.17447Q302.24207,417.8154,307.88013,417.8154 Z M303.21222,473.80975L300.13815,478.97156L300.09198,479.0694L298.06985,484.70148Q298.2286,483.87686,298.36954,483.06796Q298.9119,480.0578,299.5657,474.90533L299.56583,474.9045Q299.6314,474.38132,299.59366,473.84982L299.59665,473.84982Q300.283,473.85843,300.87866,473.85843Q302.29022,473.85843,303.20917,473.80975 Z M242.32129,518.4649L242.29752,521.2014L242.29752,521.2014L240.9952,521.23096L240.9952,521.23096L242.32129,518.4649 Z M243.17819,419.79785L243.01595,438.47922L243.01352,438.47922Q239.43431,439.97644,237.53458,442.13947L237.53403,442.13947Q236.18805,443.56546,235.59958,445.86862L221.1703,500.9503L221.17023,500.95056L221.16977,500.95233L221.16975,500.95233Q219.68422,506.54306,217.5125,513.03613L217.51224,513.03613C217.50578,513.0554,217.50034,513.07526,217.49594,513.0955L215.22054,523.59326L210.41066,523.5287L208.67926,421.07822L208.67717,421.07822Q228.11446,420.34933,243.17575,419.79785 Z M99.87207,412.01437L198.10817,420.18274L199.75577,524.5049L102.900986,531.93713L99.87207,412.01437 Z M199.92183,532.1581L200.03334,537.7249L189.71103,532.39197L199.92183,532.1581 Z M268.97855,465.7417L268.97855,465.7417Q267.84128,487.18442,268.1122,496.03363L268.10953,496.03363Q268.02786,496.38116,267.73502,497.09662L267.73404,497.099L260.4124,515.2229C260.40512,515.24097,260.3988,515.2593,260.39346,515.2778L260.39087,515.2778Q259.38538,517.8276,256.0787,524.47925C256.0642,524.50836,256.05243,524.53845,256.0433,524.56903L256.04065,524.56903Q255.07047,526.968,252.68622,534.7025C252.67357,534.7435,252.66579,534.7854,252.66272,534.82733L252.6602,534.82733Q252.65858,534.83844,252.6572,534.84937L252.65717,534.8496Q252.61421,535.19104,252.79228,535.4287L252.792,535.4287C252.80333,535.44385,252.81549,535.45844,252.82846,535.47253L254.19339,536.9549C254.24263,537.00836,254.30176,537.05176,254.36751,537.08276L255.51445,537.62354L255.51189,537.62354Q247.46095,544.261,240.47655,544.83276L240.47653,544.83276Q238.57819,539.9615,238.27113,537.4356L238.26991,537.4262Q237.83534,534.29236,238.61221,530.88007L238.61388,530.8725Q239.01677,528.9833,240.4324,528.0646L240.43001,528.0646L249.71327,527.59094L249.71077,527.59094Q250.07068,527.5866,250.31941,527.28613L250.31691,527.28613C250.4208,527.18066,250.47906,527.0385,250.47893,526.8904L250.4558,501.1781L250.4533,501.1781Q252.79205,497.9523,253.98288,493.69086L253.98283,493.69086Q254.48216,491.9931,255.05132,489.64267C255.05154,489.6417,255.05179,489.64072,255.05202,489.63974L255.052,489.63974L258.1089,476.71484L260.90164,465.90744L268.97586,465.7417 Z M406.87595,415.61398L407.0824,579.60834L315.47006,591.3657L262.501,565.6921L262.49838,565.6921Q275.22427,565.59735,275.38947,562.5214L275.38672,562.5214Q275.97195,561.28516,276.0917,559.80444L276.08896,559.80444C276.0945,559.7736,276.09756,559.74194,276.0979,559.7096Q276.16867,552.8084,276.47787,550.8868L276.48062,550.8868Q277.9092,551.20905,278.69095,551.20905Q279.20145,551.20905,279.50604,551.07074L279.5062,551.0707Q280.02884,550.8332,280.02884,550.29614Q280.02884,550.286,280.02863,550.2759L280.02582,550.2759L309.05756,477.966C309.11218,477.82993,309.11157,477.67792,309.05588,477.54227L308.17307,475.39264L309.31137,472.6305L309.31448,472.6305Q318.46292,473.56506,318.28284,475.40247L318.28278,475.40283Q318.27774,475.45428,318.26382,475.5086L318.2631,475.5086C318.2555,475.53848,318.2502,475.56937,318.24756,475.60104L310.80545,563.9872C310.7804,564.28485,310.99216,564.55035,311.288,564.59204L315.05655,565.1234L315.13516,565.1289L315.1416,565.1289Q316.29517,565.1289,316.46515,563.90326L316.46198,563.90326C316.46716,563.8813,316.4711,563.85876,316.47366,563.83575L326.6231,473.10214L326.62637,473.10214Q332.9522,473.14542,333.7053,476.59018L333.70377,476.59018Q339.92703,521.08594,342.0171,533.3903L342.01706,533.3903Q344.54974,548.91205,345.82907,550.1683L345.82904,550.1683Q345.88303,550.22125,345.9404,550.26324L345.93692,550.26324Q346.65628,550.9923,347.34097,550.9923Q349.52197,550.9923,349.95462,543.0054L349.9511,543.0054C349.96127,542.9484,349.9627,542.88965,349.9548,542.83105L340.6702,474.10257L340.6668,474.10257Q340.76746,474.08075,340.9173,474.0621L340.9139,474.0621C340.97003,474.05835,341.02472,474.04623,341.07632,474.02658L341.07974,474.02658Q341.74112,474.53622,343.63126,477.77768C343.72946,477.9461,343.90753,478.0514,344.10162,478.05692L344.09818,478.05692L351.9675,478.6081L381.2947,556.24713L381.2909,556.24713Q381.31555,556.5384,381.56128,556.77844L381.56137,556.77856Q381.80386,557.0153,382.31354,557.2056C382.37677,557.22925,382.4435,557.2412,382.5105,557.2412C382.54218,557.2412,382.5739,557.2385,382.60538,557.23315L387.2996,556.4311L387.3033,556.4311C387.34872,556.42334,387.39316,556.41003,387.43558,556.39136Q387.82333,556.2206,387.88702,555.7481Q387.93417,555.3986,387.76767,554.80145L387.76782,554.80145C387.76395,554.7876,387.75955,554.7738,387.75458,554.7602L358.96826,475.62988L358.97183,475.62988C358.93427,475.52658,358.86642,475.43402,358.77295,475.3663Q357.00677,474.08707,355.12924,473.61148L355.1257,473.61148Q357.71448,473.54254,359.3269,472.9001L359.32623,472.9001L359.32883,472.89914L359.32965,472.89914Q361.57135,472.15765,363.971,470.29L363.96738,470.29C363.9857,470.27817,364.00342,470.26523,364.0204,470.25122Q369.74423,465.5299,375.9607,455.28363L375.9616,455.28214Q381.00394,446.91287,383.04776,439.3115L383.04645,439.3115L383.04825,439.3062L383.0493,439.3062Q384.3232,436.13943,386.7711,415.89502L386.7672,415.89502L406.87595,415.61398 Z M220.36856,555.82495L295.10254,592.9786L212.43427,604.29895L211.53525,559.08606L220.36856,555.82495 Z M351.1462,281.2878L351.0409,281.29504L330.94446,284.58853C330.931,284.59073,330.91772,284.5934,330.90466,284.59653L330.90134,284.59653Q327.20392,285.2944,326.07816,286.34027L326.0749,286.34027Q325.82144,286.47717,325.67664,286.7523L325.6766,286.7523Q325.35794,287.35776,325.68835,288.72928C325.71335,288.83298,325.7661,288.92413,325.83762,288.99557L325.83438,288.99557L330.61902,295.2992L330.61572,295.2992Q328.50922,297.86523,328.07358,300.22647L328.0702,300.22647Q327.03812,303.68167,328.39014,312.03122L328.38684,312.03122L325.63937,318.49258C325.59525,318.59634,325.58392,318.70914,325.6041,318.81674L325.60083,318.81674Q325.69977,321.16968,327.9939,321.48703L327.9906,321.48703L327.60745,324.61514C327.59988,324.67694,327.6027,324.73886,327.6151,324.79855L327.61185,324.79855Q327.75998,326.30515,329.70004,329.7291L329.69675,329.7291Q329.8398,330.33804,329.7755,331.00992Q328.697,330.18753,327.62143,330.18753Q326.88278,330.18753,326.17807,330.57532C326.15836,330.58615,326.13953,330.59805,326.12158,330.6109L326.11832,330.6109Q316.11404,336.65094,314.20554,340.52185L314.2024,340.52185Q311.61258,343.87994,317.7337,352.5055L317.73053,352.5055L310.36288,362.27545L310.35977,362.27545Q309.6969,362.29742,309.69952,362.9736Q309.69983,363.0503,309.71347,363.13217Q309.83063,363.8355,311.45053,365.9089L311.4474,365.9089Q309.59198,367.05853,304.45526,372.40894L304.45224,372.40894L298.51413,373.78574C298.43234,373.8047,298.35587,373.8417,298.29022,373.89404L292.4282,378.56854L292.42526,378.56854Q282.78702,382.7114,263.8328,385.98633Q258.7626,384.04276,254.7991,384.04276Q252.11888,384.04276,249.94144,384.92944L239.87112,350.5201L239.87329,350.5201C239.85709,350.46475,239.83224,350.4114,239.79886,350.36218Q239.32825,349.66833,238.59373,349.66833Q238.35077,349.66833,238.09425,349.75082L238.09187,349.75082L213.29822,353.39304C213.14053,353.4162,213.00006,353.5051,212.9116,353.63766C212.82315,353.77023,212.79504,353.93408,212.8342,354.08856L222.37036,391.7086L220.19958,394.0523L211.12071,394.44342Q210.93329,394.34326,210.72903,394.34326Q210.3944,394.34326,210.12585,394.59955L210.12584,394.59955Q209.69247,395.01315,209.3643,396.40445L208.40378,396.3885L208.20537,390.5579L208.2033,390.5579Q208.50133,390.18628,208.1978,389.78702L208.19781,389.78702Q208.0828,389.6357,207.88199,389.54282L207.882,389.54282Q207.34131,389.29263,205.30743,389.2873L205.30537,389.2873Q207.33115,387.27878,207.32152,386.33603Q207.31764,385.95618,207.07503,385.68887L207.07504,385.68887Q207.00705,385.61395,206.92235,385.55276L206.92328,385.55276C206.89954,385.5356,206.8742,385.52017,206.84741,385.50662L199.6772,381.88342L199.6752,381.88342C199.65517,381.86948,199.63406,381.8567,199.61194,381.84528L199.60994,381.84528Q199.43715,381.73267,199.21033,381.73267Q199.1048,381.73267,198.9925,381.75858Q198.57158,381.85568,197.84909,382.43176Q197.54158,382.30566,197.05463,382.18152C197.00917,382.16992,196.96245,382.16406,196.91553,382.16406L196.91356,382.16406C196.81184,382.16406,196.71204,382.19162,196.62473,382.24377Q196.18156,382.50854,195.91827,382.94464L195.32477,382.5292C195.22699,382.46075,195.11418,382.4274,195.00208,382.4274C194.849,382.4274,194.69727,382.48962,194.58702,382.60968L191.85643,385.58362C191.7996,385.6455,191.75737,385.7193,191.73277,385.79962L191.11409,387.8205C191.09521,387.88217,191.0873,387.94574,191.0899,388.00858L191.08798,388.00858Q191.02327,389.14847,191.48842,389.8305L191.48651,389.8305Q191.20421,390.08636,191.06517,390.55545C191.04132,390.63593,191.03607,390.71948,191.04837,390.80026L191.04646,390.80026L191.25145,396.73138L177.87971,397.02405L178.0804,379.27002C178.08322,379.02,177.92085,378.79803,177.68169,378.72504L175.8428,378.16385L175.84103,378.16385Q177.15826,376.23547,176.84097,373.02676L176.8392,373.02676C176.84035,372.9213,176.81189,372.81577,176.75418,372.72302Q176.31177,372.01227,175.62291,372.01227Q175.30786,372.01227,174.97977,372.175C174.86348,372.23267,174.77449,372.32632,174.72165,372.43716L174.71991,372.43716Q174.0225,373.5638,173.07382,373.5638Q172.66658,373.5638,172.18655,373.3705C172.11969,373.3436,172.04828,373.32974,171.9762,373.32974L171.97447,373.32974C171.80312,373.32974,171.64108,373.40778,171.53423,373.54175L170.72543,374.55576Q170.40538,372.93527,170.10701,372.5089L170.10698,372.50888Q169.9338,372.26147,169.69743,372.19318L169.69574,372.19318Q169.50542,371.93658,169.16293,371.93658Q168.924,371.93658,168.69652,372.09256L168.6965,372.09256Q167.80748,372.70215,165.39954,378.10974L165.39787,378.10974L156.60808,379.4425C156.33282,379.48425,156.12938,379.72083,156.12936,379.99924L156.12865,396.66522L92.83479,399.1961C92.527275,399.2084,92.28659,399.46527,92.294334,399.77295L95.7814,538.27527C95.78389,538.37415,95.81174,538.4665,95.85863,538.5462L95.85767,538.5462Q96.2574,539.3507,97.08583,539.3507Q97.251686,539.3507,97.42864,539.3142L97.427666,539.3142L176.21265,534.07184L195.32698,545.61676L195.32503,545.61676Q194.54224,546.297,191.20113,547.8483L191.20114,547.8483Q187.59239,549.5239,181.13864,552.10547C181.10835,552.1176,181.07962,552.1321,181.0526,552.1487L181.05078,552.1487Q178.37634,553.5752,178.20529,556.70667C178.2005,556.79443,178.21634,556.88116,178.25044,556.96027L178.24866,556.96027Q179.9111,562.2964,191.81548,562.2964Q195.29381,562.2964,199.6672,561.8475L199.6692,561.8475L201.27338,615.51373L201.27162,615.51373Q201.22052,616.70135,202.3745,616.9556C202.41435,616.9644,202.45494,616.9688,202.49557,616.9688C202.52063,616.9688,202.5457,616.96716,202.57063,616.9638L415.4399,588.3634L415.43576,588.3634Q416.7577,588.29456,417.23346,587.81824L417.2335,587.81824Q417.55237,587.4989,417.5301,587.05524Q417.5284,587.0219,417.52457,586.9875L417.5221,586.9875L417.007,400.71106L417.0095,400.71106C417.00934,400.64728,416.99832,400.58316,416.9761,400.52155Q416.61176,399.51132,415.6154,399.51132Q415.51703,399.51132,415.4139,399.52264L390.11108,397.83694L394.79654,365.42212L394.79666,365.42212C394.79828,365.41074,394.7996,365.39923,394.80054,365.3876Q395.39676,358.12054,393.81787,353.60327L393.81766,353.60327L393.81696,353.60107L393.81714,353.60107Q392.1968,348.05402,387.4989,342.9552L387.49466,342.9552L387.48932,342.94803L387.49176,342.94803Q386.04147,340.6747,372.11658,332.2608L372.11353,332.2608L372.10803,332.2569L372.11102,332.2569Q369.3242,329.89853,367.52097,326.54044L367.51727,326.54044Q366.49466,321.9396,366.84796,318.43066L366.84427,318.43066Q370.7336,308.8169,370.69644,300.58115L370.69595,300.58115L370.69608,300.57776L370.69644,300.57776Q371.12112,294.74426,368.99042,290.81567L368.99088,290.81567C368.97873,290.79327,368.96497,290.77155,368.94962,290.75064Q362.90558,282.52768,351.71396,281.30417L351.71548,281.30417C351.69995,281.3025,351.68423,281.30142,351.66837,281.30103L351.1462,281.2878 Z"/> </g> </g> </svg>