<?xml version="1.0" encoding="UTF-8"?>
<svg enable-background="new 0 0 490.996 335.537" viewBox="0 0 490.996 335.537" xmlns="http://www.w3.org/2000/svg">
 <path d="m408.935,51.118c-1.149,4.312-5.071-.326-9.585,1.064 .898-2.659 6.004-2.593 9.585-1.064z" fill-rule="evenodd"/>
 <path d="m417.455,53.248c.832,2.281 2.585,5.948 1.062,7.454-3.048.208-5.811.132-5.324-3.195-1.687,1.561-8.456,2.198-7.453-2.13 3.74-1.18 6.273.125 11.715-2.129z" fill-rule="evenodd"/>
 <path d="m368.467,61.767c3.01-.88 2.759,1.502 5.324,1.065v4.259c-1.36,1.457-5.028,1.457-6.389,0-.34-2.469.17-4.089 1.065-5.324z" fill-rule="evenodd"/>
 <path d="m390.83,64.962c-2.241,5.974-9.841.044-14.909,3.195-4.408-5.763 6.541-8.466 7.455-4.261 2.343-3.08 5.665-1.759 7.454,1.066z" fill-rule="evenodd"/>
 <path d="m392.96,61.767c4.455,2.831 8.947-.992 8.519,6.39-5.399-.058-6.588-1.958-9.585-2.131-.451-2.226.731-2.82 1.066-4.259z" fill-rule="evenodd"/>
 <path d="m403.608,62.832c2.899.652 4.175,2.926 4.262,6.389-4.683,1.116-5.58-4.757-4.262-6.389z" fill-rule="evenodd"/>
 <path d="m425.974,66.026c1.887-.952 1.356-4.321 5.324-3.194 1.457,1.361 1.457,5.029 0,6.389-5.227-.816-4.057-2.486-8.52,0-.457-2.028-2.295-2.674-2.13-5.325 2.185-2.281 5.07-.554 5.326,2.13z" fill-rule="evenodd"/>
 <path d="m433.428,62.832c3.168,1.846 5.403-.345 7.455,1.064 .976,4.528-2.553,4.549-6.391,4.261 .436-2.567-1.945-2.317-1.064-5.325z" fill-rule="evenodd"/>
 <path d="m300.311,77.742c-3.17,3.928-8.537.273-13.844,1.064 2.573-4.404 9.724-3.401 13.844-1.064z" fill-rule="evenodd"/>
 <path d="m314.155,78.806c-5.204-.277-10.393,2.576-12.779-2.13 4.141-.635 11.543-3.257 12.779,2.13z" fill-rule="evenodd"/>
 <path d="m298.18 83.065c-4.863 5.076-13.232-1.871-20.232 1.066 2.615-5.896 15.493-2.669 20.232-1.066z" fill-rule="evenodd"/>
 <path d="m361.011,84.131c.034,4.666 5.203,8.389 3.196,11.714-5.427.726-5.065-8.524-3.196-11.714z" fill-rule="evenodd"/>
 <path d="m378.05,84.131h3.196c-3.106,4.138 1.508,8.48 0,10.648-3.939-.675-3.25-5.98-3.196-10.648z" fill-rule="evenodd"/>
 <path d="m391.89 84.131c3.129 1.487 2.104 7.127 4.262 9.583-5.982 1.367-3.923-5.308-4.262-9.583z" fill-rule="evenodd"/>
 <path d="m398.285,84.131c3.978.096 3.034,1.192 6.389,0 1.785,1.765.848,6.251 1.066,9.583-3.592,1.161-4.903-8.597-5.325-1.065-2.462-1.087-2.204-4.897-2.13-8.518z" fill-rule="evenodd"/>
 <path d="m411.06 84.131h4.262c-0.57 4.118 1.898 5.199 1.063 9.583-1.36 1.458-5.029 1.458-6.39 0 6.514-1.827 2.452-4.892 1.065-9.583z" fill-rule="evenodd"/>
 <path d="m283.271,87.324c3.362-.521 3.762,1.92 7.455,1.066-3.847,2.579-3.312,1.791-3.193,6.389-1.912.136-2.248-1.302-4.262-1.064 1.195-3.355.099-2.411 0-6.391z" fill-rule="evenodd"/>
 <path d="m292.856,88.39c6.012,1.091 6.158.008 13.843,0-.627,6.254-13.391,3.685-13.843,0z" fill-rule="evenodd"/>
 <path d="m362.077,96.909c4.142.474 7.212,2.018 6.39,7.455-2.272.498-2.029-1.521-2.131-3.193-2.268,1.634-3.077,4.729-4.259,7.453-2.052-1.778-1.36-9.821 0-11.715z" fill-rule="evenodd"/>
 <path d="m451.531,97.975c3.664,3.005 3.208,7.99 3.195,10.648-4.7.302-5.259-7.541-3.195-10.648z" fill-rule="evenodd"/>
 <path d="m458.98 97.975c3.307 1.033 5.97 8.938 2.131 10.648-0.585-3.521-4.604-7.397-2.131-10.648z" fill-rule="evenodd"/>
 <path d="m465.38 97.975c2.936 1.328 7.941 9.114 1.066 10.648 0.28-3.769-3.001-6.562-1.066-10.648z" fill-rule="evenodd"/>
 <path d="m471.77 97.975h4.259c-1.191 1.534-1.148 2.599 1.064 3.195-0.9 1.581-3.429 1.54-5.323 2.129v-5.324z" fill-rule="evenodd"/>
 <path d="m401.48 100.1c2.781 0.53 5.384 7.875 0 7.455v-7.455z" fill-rule="evenodd"/>
 <path d="m411.06 109.69h6.392c-0.438 2.566 1.944 2.314 1.062 5.326h-6.388c0.88-3.011-1.501-2.76-1.066-5.326z" fill-rule="evenodd"/>
 <path d="m468.57,113.948c-.548,3.711-6.957,1.562-10.649,2.13 .548-3.711 6.958-1.562 10.649-2.13z" fill-rule="evenodd"/>
 <path d="m472.83 117.14c-9.145 2.662-23.788 5.193-33.012 4.259 8.563-3.839 19.868-3.083 33.012-4.259z" fill-rule="evenodd"/>
 <path d="m418.518,121.402c-3.521,3.283-2.615,4.425-9.583,4.259-1.074-3.203 2.371-1.887 4.259-2.129-.132-2.353-4.517-.453-6.39-1.064 1.236-5.357 7.237.671 11.714-1.066z" fill-rule="evenodd"/>
 <path d="m472.83 120.34c-8.438 3.633-19.453 4.686-30.883 5.324 9.7-4.711 20.23-2.588 30.883-5.324z" fill-rule="evenodd"/>
 <path d="m303.506,132.053c-2.561-.768-6.438-3.021-8.521-1.066 .242,1.534 3.18.372 3.195,2.13 1.054,25.002-2.659,52.382 0,76.675-5.179-12.303-3.363-27.06-4.259-41.532-.677-10.951-2.163-22.778 0-35.143-1.473-1.723-3.769-2.622-3.195-6.39 4.013,3.191 11.186-5.152 12.78,5.326z" fill-rule="evenodd"/>
 <path d="m289.66 133.12c-2.887-1.017-7.342-0.467-6.391-5.325 3.625-2.5 8.246 2.676 6.391 5.325z" fill-rule="evenodd"/>
 <path d="m449.4 126.73c-5.153 4.075-15.059 3.4-22.363 5.326 3.553-7.095 13.565-2.542 22.363-5.326z" fill-rule="evenodd"/>
 <path d="m417.46 127.79c0.189 4.805-7.781 1.449-7.456 6.39-3.797-2.151-8.14 1.186-10.649-1.065 3.577-4.232 11.276-4.342 18.105-5.325z" fill-rule="evenodd"/>
 <path d="m419.584,137.376c.834-5.555 11.001-1.777 13.844-5.323 6.483.803 9.023-2.338 14.91-2.131-6.592,5.478-20.412,3.726-28.754,7.454z" fill-rule="evenodd"/>
 <path d="m334.39 133.12c0.756 4.683-3.587 13.436-5.326 19.168-1.522-5.449 2.937-14.084 5.326-19.168z" fill-rule="evenodd"/>
 <path d="m318.416,134.182c1.812-.392 2.009.831 2.129,2.13-5.095,15.848-8.723,33.165-12.779,50.053-.135-16.824 7.392-35.203 10.65-52.183z" fill-rule="evenodd"/>
 <path d="m55.377,141.636h3.194c-2.595,27.581 2.162,56.663 8.52,78.806-6.152-3.613-5.215-12.725-6.39-19.169-3.323-18.244-5.761-35.615-5.324-56.441-1.896-.781-.154-1.936 0-3.196z" fill-rule="evenodd"/>
 <path d="m36.208,148.026c.948.472 1.904.936 2.129,2.13-.657,10.038 2.852,21.005 3.194,30.883 .135,3.868 1.797,9.989-2.129,12.778 .408-16.082-2.996-33.843-3.194-45.791z" fill-rule="evenodd"/>
 <path d="m29.818,151.22h3.194c1.208,20.89 2.928,40.002 9.584,55.376 1.993,4.6 7.022,8.797 5.325,13.845-8.565-7.513-9.042-24.858-14.91-36.209 .655-9.93-1.535-22.284-3.193-33.012z" fill-rule="evenodd"/>
 <path d="m200.208,204.468c-1.629,1.356 2.36,6.098 4.26,7.455-5.006,7.402 6.34,11.393 5.325,21.298-9.078-8.315-9.876-24.912-17.039-35.143 .472-.948.936-1.905 2.13-2.131-6.518-9.55-7.364-18.473-10.649-28.752h2.129c-.834-6.284-10.693-11.204-6.39-15.975 6.066,2.81 6.208,11.542 10.649,15.975-.465,1.31-1.362,2.186-3.194,2.13 7.002,10.39 9.164,25.623 14.908,37.271-.948-.471-1.904-.934-2.129-2.128z" fill-rule="evenodd"/>
 <path d="m166.13,198.078c3.829,17.117 17.047,34.068 23.428,52.181-12.396-9.611-15.729-28.287-25.558-40.467 1.046-3.266 2.841,1.224 4.26,1.064-2.363-9.255-11.074-16.967-9.584-26.624-3.932-8.491-8.683-16.165-9.585-27.688 6.396,3.189 3.15,16.019 10.65,18.104 .534,6.922 1.589,13.321 5.325,17.04 2.091-1.14-.7-6.316-2.129-7.456 6.359-.349 7.505,15.962 10.649,24.495-5.561-.476-3.9-8.171-7.456-10.649z" fill-rule="evenodd"/>
 <path d="m474.96,158.675c1.133,3.972-3.994,1.686-3.194,5.325-.181,2.309 3.776.483 5.323,1.065 .322,2.805-1.475,3.495-4.26,3.194-.618,3.813 3.153,3.238 6.39,3.195-5.23,9.197-12.116-3.958-10.648-11.714 1.259-1.226 3.762-1.204 6.389-1.065z" fill-rule="evenodd"/>
 <path d="m466.441,159.741c-3.564,5.366.234,7.576 2.129,12.777-6.661.626-5.383-6.686-6.389-11.713 .946-.827 2.406-1.144 4.26-1.064z" fill-rule="evenodd"/>
 <path d="m453.661,162.934c-2.349,4.245.681,7.247 0,12.78-4.03-1.648-.021-11.336-7.455-9.584 .254-4.22 4.368-4.573 7.455-3.196z" fill-rule="evenodd"/>
 <path d="m456.86 162.93c3.024 1.59 2.962 6.268 3.195 10.651-3.118-1.497-3.275-5.955-3.195-10.651z" fill-rule="evenodd"/>
 <path d="m384.44 164c13.071 11.066 22.986 25.291 33.014 39.401-6.453-5.436-11.521-12.859-17.04-19.169-5.631-6.437-11.115-13.135-15.974-20.232z" fill-rule="evenodd"/>
 <path d="m439.817,164c4.856.791 7.909,7.976 5.324,12.78-2.26-1.999-.021-8.499-3.195-9.585-3.15,1.866.616,5.673 0,8.519h-4.259c-.027-4.643-.634-9.863 2.13-11.714z" fill-rule="evenodd"/>
 <path d="m425.974,166.129c4.561-.237 4.342,3.543 8.519,1.066-.755,3.948 1.82,4.569 1.064,8.519-4.856,1.307-3.364-3.733-6.388-4.259-2.376.155 1.38,2.684 0,5.325-1.689-2.929-3.66-5.57-3.195-10.651z" fill-rule="evenodd"/>
 <path d="m374.86 173.58c4.941-0.687 8.122 5.761 11.713 9.584 3.579 3.811 9.839 7.596 9.585 13.844-6.716-8.194-13.871-15.949-21.298-23.428z" fill-rule="evenodd"/>
 <path d="m12.78,174.648c1.72-.299 1.833,1.009 3.195,1.065-.483,5.099.77,8.459 3.194,10.651-2.938,8.298 9.946,18.928 6.39,24.491-8.481-7.192-11.892-24.948-12.779-36.207z" fill-rule="evenodd"/>
 <path d="m375.92 182.1c6.83 3.465 11.136 9.453 14.909 15.975-6.036-4.26-11.522-9.069-14.909-15.975z" fill-rule="evenodd"/>
 <path d="m379.12 192.75c2.136 1.771 4.949 2.859 5.325 6.39-4.425 0.596-7.047-4.135-5.325-6.39z" fill-rule="evenodd"/>
 <path d="m415.32 192.75c2.869 2.1 5.093 4.846 6.388 8.52-4.24-0.728-4.601-5.338-6.388-8.52z" fill-rule="evenodd"/>
 <path d="m152.29 199.14c5.619 5.03 9.17 12.129 11.714 20.234-4.788-5.862-9.358-11.941-11.714-20.234z" fill-rule="evenodd"/>
 <path d="m60.702,226.83c1.821.047 2.758-.79 3.194-2.13 2.602,3.08 2.363,8.998 3.196,13.844-9.264-3.158-9.744-15.104-11.714-25.558 3.219,3.17 4.241,8.536 5.324,13.844z" fill-rule="evenodd"/>
 <path d="m117.14 212.99c4.911 6.938 5.748 16.918 6.39 25.558-3.898-6.75-4.355-16.943-6.39-25.558z" fill-rule="evenodd"/>
 <path d="m260.91 220.44c0.197 3.006-4.192 2.669 0 4.259-2.406 3.427-7.865-6.885-2.13-3.193-0.597-1.534-1.662-2.6-3.195-3.195 1.719-3.329 3.372 2.183 5.325 2.129z" fill-rule="evenodd"/>
 <path d="m424.907,223.636c4.312,5.983 7.073,13.517 8.521,22.364-3.278-.746-2.047-.746-5.325,0-.921-6.533-4.685-10.226-5.324-17.038 4.653,2.799 4.475,10.433 7.454,14.907 2.907-7.186-5.754-11.977-5.326-20.233z" fill-rule="evenodd"/>
 <path d="m461.12 227.9c-8.345-0.533-15.05 0.57-22.363 1.066 3.031-3.558 19.871-7.254 22.363-1.066z" fill-rule="evenodd"/>
 <path d="m67.091,228.962c4.209-3.098 3.36,7.962 5.325,10.648-5.497.172-2.441-8.208-5.325-10.648z" fill-rule="evenodd"/>
 <path d="m417.46 231.09c4.396 0.928 5.827 9.297 5.323 11.714-3.663-2.018-3.574-7.786-5.323-11.714z" fill-rule="evenodd"/>
 <path d="m414.26 234.28c2.403 2.213 4.261 4.969 4.259 9.584-4.145-0.253-5.87-6.931-4.259-9.584z" fill-rule="evenodd"/>
 <path d="m450.47 239.61h-10.649c0.661-2.984 11.161-5.44 10.649 0z" fill-rule="evenodd"/>
 <path d="m362.077,256.649c-6.598-.655-23.741,1.323-26.624-1.066 3.758-1.71 7.878.891 13.844,0 3.129.105 11.81-3.771 12.78,1.066z" fill-rule="evenodd"/>
 <path d="m354.62 257.71c-1.825 3.501-8.966 1.683-13.845 2.129 1.232-4.091 9.329-1.32 13.845-2.129z" fill-rule="evenodd"/>
 <path d="m118.208,290.727c4.814.196 8.434,5.929 6.39,9.584-1.65-2.425-2.218-2.01-5.324-1.064 .753-3.95-1.82-4.571-1.066-8.52z" fill-rule="evenodd"/>
 <path d="m165.065,291.792c4.642,9.499 1.162,28.943 5.324,41.531-2.451-2.723-6.087-6.571-6.389-12.777 2.195.289.254,4.715 3.195,4.259 .854-3.695-1.586-4.093-1.065-7.454-1.036.028-.827,1.302-1.065,2.129-4.877-6.909.544-20.929 0-27.688z" fill-rule="evenodd"/>
 <path d="m277.95 310.96c3.972-2.159 9.717 3.032 11.714 6.39-4.398-1.636-7.672-4.4-11.714-6.39z" fill-rule="evenodd"/>
 <path d="m87.325,238.544c-1.766,2.881 1.632,9.692 2.13,13.847 4.341-.882 3.667-.165 8.52,0 2.062-4.403-2.164-6.828-3.195-10.651-6.633-24.586-5.24-51-7.454-75.61 3.101,1.563 2.92,6.709 3.194,9.584 1.361,14.235-.393,30.715 2.13,44.728 1.111,6.166 2.803,16.747 5.325,24.494-1.886-26.021-5.268-54.78-5.325-82.001 4.42,2.092 4.261,12.882 4.26,19.169-.001,5.126-1.32,10.174-1.065,14.909 .614,11.395 2.349,28.277 4.26,44.727 .433,2.053 4.128.842 3.195,4.261-2.737-2.854-1.522,2.853-4.259,0v6.391c4.955,1.403 3.563-3.536 8.519-2.132-7.785-20.872-7.416-48.392-8.519-73.479 5.881,3.164 2.383,16.763 3.194,27.688 .961,12.925 2.883,33.104 6.39,46.856 5.182,4.388 10.165-.195 14.909,2.13 2.352-.132.452-4.519 1.064-6.39 1.86.979 2.351,3.33 2.13,6.39 4.448.24 5.029-1.731 8.52,0 3.992-.839.067-3.724 2.129-5.325 2.129,1.422.14,6.96 5.326,5.325-.54,3.366-6.083,1.726-7.455,4.26 .563.857 1.111,1.729 1.065,3.194 5.058-1.746 2.452-4.589 8.52-5.325-1.269-1.471-2.828-11.941-4.259-6.388-5.044-21.688-18.637-40.883-28.753-60.701-1.802-13.289 1.72-23.077 4.259-33.012 1.955-7.645 2.292-15.553 4.26-21.3 1.218-3.557 4.236-6.552 5.325-9.583 1.324-3.69 2.489-7.319 3.194-10.651 .364-1.715-1.034-4.364-1.064-4.259 2.172-7.627 7.771-13.675 10.649-20.233 .394-4.223-.977-10.207 1.065-12.78-14.402-9.886-13.595-24.826-8.519-43.663-3.66,2.021-4.233,7.128-6.39,10.65-4.94-6.492 5.156-15.082 8.52-20.235 2.47.34 4.089-.169 5.325-1.064 7.01-8.251 12.894-17.632 23.425-22.365 11.489,9.195 30.592-1.64 40.467,9.584 1.585-2.674 4.49-4.029 7.455-5.323 6.472.176 15.293,6.871 18.104,12.779 1.001,2.104 2.301,8.75 2.13,10.649-.558,6.15-7.522,8.374-7.455,14.908 .264,1.341 2.118,1.074 2.13,0 .311,1.035-2.159,6.683 0,10.651-9.931,9.875 2.196,23.219 0,34.076-11.598-1.657-6.758,13.122-14.909,14.91 3.174,7.163 10.135,15.652 6.39,23.427 3.733,1.822 10.558-1.152 14.908-2.129 7.805-11.412 2.439-20.765 14.909-26.624 2.079-.978 2.649-4.827 4.26-6.389 .856-.829 3.426-.211 4.259-1.064 5.694-5.824 8.295-14.08 13.846-20.234 8.008-.712 20.81.375 27.688-4.259 12.648,2.686 23.833-.939 36.208,0-.104,5.856 2.066,9.112 6.389,12.78-8.008,10.094-21.754,14.451-25.558,28.751-4.862.463-11.728-1.076-14.91,1.065 4.007,3.351-8.895,5.208-8.519,11.715 16.58-3.721 32.671-5.152 50.051-9.585 2.607,2.512-1.589,1.981-1.064,5.326 1.991-.851 3.901-1.781 6.39-2.13-3.814-12.137 2.801-22.938-2.13-35.142 3.622-11.696-.438-21.352 4.259-33.014 .638-5.306-4.221-6.275 0-9.583 4.907-1.002 2.043,5.767 4.262,7.453 5.765-.624 8.312-.039 13.844-2.129 13.676,5.064 29.486.027 45.791,0 22.479-.036 46.468,4.679 69.221,2.129 3.36-3.738 3.52-10.679 9.584-11.714 2.202,3.983-1.557,5.505-3.194,8.521 1.324,16.898-2.887,32.694-2.13,47.92-.838,4.389 5.099,2.001 4.26,6.39-2.427-.298-4.003.256-4.26,2.13 2.571,15.179 2.267,33.231 4.26,48.986h-4.26c1.092,2.459 7.131-.03 6.389,4.259-21.756,1.82-48.915,4.188-72.415,7.455-2.454-.326-1.183,3.079-3.192,3.196 8.07,22.101 13.901,46.442 19.167,71.351 5.999.108 18.572-4.621 20.234,1.064-7.328-.229-13.693.504-19.17,2.129 2.295,12.63 6.313,29.934 6.39,38.338-2.809.324-2.747-2.224-3.193-4.26-15.617.439-19.491-.97-31.949-1.065-1.491.377-.092,1.875 1.066,2.129-3.53,3.288-17.28-5.011-13.846,3.196-5.773-.259-10.36-1.706-17.037-1.065 3.44,3.303 12.692.796 15.973,4.261 1.998,2.03-.631,1.927 0,5.323 1.092,2.459 7.129-.028 6.39,4.262-7.542-1.411-14.128-2.952-22.362-1.066 4.343,3.821 15.183,1.146 21.298,3.195 1.019,3.838-4.598,1.888-5.325,1.064 1.485,3.839 7.043,3.605 10.648,5.325-6.016,3.115-14.183,2.371-21.299,2.129-11.866-.403-27.738-1.28-40.466-2.129 .78.995 1.937,1.613 3.194,2.129-3.901,2.439-8.944-3.092-14.908-2.129 1.77,2.844 7.347,1.882 9.583,4.26-7.131,2.144-11.609-7.546-22.362-5.326 6.854,5.926 17.758,7.802 25.558,12.78-1.133,2.826-5.769-.206-7.455-1.066-8.205-4.181-17.048-12.054-30.883-11.714 11.448,5.946 26.45,8.34 36.208,15.976-2.951,2.881-7.031-2.144-9.584-3.195-1.339.264-1.074,2.116 0,2.13-3.65,3.845-9.395-7.862-11.715-2.13-11.746-4.938-22.48-10.887-36.208-13.844 2.934,6.781 19.496,5.177 19.169,11.715 4.689-1.835 13.026.903 14.91,5.324-2.324.679-3.389-3.018-3.195,1.063-8.345-3.012-16.136-6.582-24.493-9.584 3.382-3.311 6.373,2.803 10.648,2.13-6.066-4.993-11.659-4.562-15.974-4.259 3.838,6.812 13.604,7.694 21.3,10.649-12.572-.425-21.816-7.396-33.014-11.714 .263-1.156 2.117-.722 2.129-2.13-5.084-1.872-3.452,1.638-9.583,0 8.131,9.615 27.03,8.466 35.142,18.103-5.14-1.604-8.62-4.868-14.909-5.324 2.815,3.575 10.11,2.669 11.715,7.455-9.475-3.306-17.12-8.438-26.623-11.714-2.493,1.208 2.727,3.56 4.259,4.259-5.31,7.985 8.1,14.222 7.456,24.494-5.396-.286-3.102-8.259-6.39-10.65 .401,3.617-.814,5.229 0,10.65-2.879-3.221-6.575.959-6.391-5.326-1.527.117-5.551,4.677-5.324,0-1.497,4.538-5.016,7.054-11.715,6.39-1.226-1.257-1.204-3.763-1.065-6.39-2.352.133-.451,4.519-1.063,6.39-2.893.762.763-5.021-2.131-4.259-3.246,1.302 1.558,4.063-1.065,5.325-3.969-3.521-3.412-10.902-6.389-12.78-3.135,4.248 4.335,6.988 3.195,12.78-4.068-.903-3.559-6.38-5.324-9.585-2.381.458-.432,5.249-1.064,7.455-2.719-2.607-3.642-7.009-5.326-10.65-3.092,2.479 2,5.737 1.065,9.584-3.356-1.612-3.548-6.391-5.325-9.584-2.758,1.699 2.371,8.039-1.065,10.65-3.362-.543-2.946-4.864-4.26-7.455-3.121.903.637,3.429 0,5.325-2.349-.845-1.384-5.007-4.259-5.325 .479,3.846 2.73,5.155 1.065,8.519-5.806-2.003-6.426-9.191-9.584-13.844-1.6,2.365 3.869,6.74 3.195,11.714-4.3-2.088-3.564-9.213-7.455-11.714-3.07,3.144 1.496,7.682 0,12.78-3.005-2.13-8.28-11.158-4.259-10.65-.336-3.547-5.048,3.206-4.259-2.13-1.678,1.064.114,7.625 3.194,7.454-1.719,3.329-3.372-2.183-5.324-2.129 2.374,3.208 1.946,4.408 0,7.455-6.964-5.461-8.875-15.974-13.845-23.429-2.449,8.499 8.409,12.878 8.52,22.362-4.241-2.858-5.416-8.783-7.455-13.843-4.111,6.813 7.136,12.459 4.26,18.104-2.941.455-1-3.971-3.195-4.261-1.444.33-.883,2.668-1.064,4.261-5.551-10.586-3.228-31.736-7.454-40.467-.165-2.65 1.673-3.297 2.13-5.324-4.353-1.226-8.989-4.55-13.844-2.131-4.85,8.586-13.834,14.066-15.975,27.688-1.056,6.718.911,13.575 0,20.233-8.591,1.138-5.169-9.739-7.455-14.908h3.195c.51-11.559 5.155-18.985 3.195-33.014h-3.195c-2.325,4.744 1.152,8.621 0,17.037-2.542-.678-.395-15.204-4.26-18.103-2.945,7.58 2.065,16.379 2.13,24.494-2.174-2.843-1.937-3.123-6.39-2.13-2.704-6.172-6.756-10.994-7.455-19.168 2.227.966 3.247,3.142 3.195,6.388 3.195-9.957 2.829,10.064 8.52,10.651-3.014-5.152-.994-15.337-4.259-20.235-30.397.486-65.015.239-95.844-1.063-11.605-.493-24.036,1.62-33.013-3.196 9.254-4.353 20.349-2.182 34.078-3.195-13.604-5.371-31.954,5.519-39.409-5.323 3.153-3.604 6.129,2.05 10.649-2.131 10.467,5.367 40.543.119 52.182,0-21.6-2.624-30.955-1.375-53.247-1.064 .543-4.225 6.974-1.379 2.131-4.259 27.937-2.607 59.479,3.684 80.934,0-25.017-2.472-54.887-2.282-82-5.326-1.073-3.202 2.373-1.887 4.26-2.129-.16-1.971-3.606-.653-4.26-2.13 3.981-2.011 4.263-.787 2.13-5.325 30.849-.541 50.033,1.249 75.61,1.066-1.76-7.115-4.951-12.8-5.325-21.299 1.534.24.372,3.177 2.13,3.193-.336-22.022-4.826-46.833-3.195-73.48 3.567,23.057 2.409,50.838 6.39,73.48 2.689,4.055 4.556,8.934 4.259,15.974-1.64-4.036-1.702-9.654-5.323-11.714zm120.337-222.568c1.534.595 2.599,1.661 3.195,3.193-1.576.555-2.685,1.577-4.26,2.13-2.583-1.676-4.548-3.972-9.584-3.194 .046,1.466-.502,2.338-1.065,3.194 5.072,1.406 5.051,2.458 9.583,1.065 1.869,1.682 2.21,4.89 5.325,5.325 4.583,1.166-3.449-2.945 0-3.195 .362-.025 2.156.959 2.13,1.066 .967-3.968-4.26-8.3 2.129-4.261 .239-2.013-1.2-2.349-1.065-4.259 2.116.015 1.354,2.906 4.26,2.129 .278-3.117-2.408-3.271-2.129-6.388-4.192-.289-7.398.409-8.519,3.195zm-42.597,3.192c-4.971,1.833-8.367-1.324-10.649,3.195 6.897-1.395 11.133,3.288 17.038,1.064-.08,1.857.238,3.314 1.065,4.261 5.413-4.856 12.844-1.834 19.169-6.39-3.64-2.73-10.204-2.73-13.844,0-6.229-6.576-8.229-2.642-13.844-5.323-.046,1.466.501,2.337 1.065,3.193zm52.182,51.119c-3.076,3.667-3.944,9.544-9.585,10.647 .442-4.526 3.026-6.912 4.26-10.647-2.53-.667-4.958-1.434-5.325-4.261 1.901-6.972 10.473-7.276 14.909-11.715-1.008-5.381-2.988-9.791-2.13-17.037-6.395.95-15.544-2.116-24.493-4.261 2.026,9.991 6.8,14.397 4.259,22.364-2.339,7.339-5.642,9.979-10.649,13.844-.096,3.979-1.194,3.036 0,6.39-2.216.624-3.442,2.238-5.326,3.195-2.171-.313-2.088-2.881-4.259-3.195 .193,2.323-.871,3.389-3.195,3.195-1.941-2.674-7.278-1.95-7.455-6.39-.423-2.552 4.851.59 3.194-3.195-1.918-.92-3.338-2.339-4.259-4.259-1.477,1.719-.9,5.489-3.195,6.389-.595-5.21.104-9.125 4.26-9.584 2.924,1.691 4.917,4.311 8.52,5.324 .032-7.438-11.296-11.411-17.039-6.389-.613,12.68 5.564,18.574 11.714,24.493 3.865,1.026.895-4.784 4.26-4.26 2.966,1.584-2.251,4.76 2.129,4.26 2.397-.442-.159-5.839 3.195-5.323v6.389c19.705-4.663 4.324,35.47 24.493,23.428-1.472-8.217 5.223-8.267 6.39-13.844-1.896-.637-4.422,3.122-5.325,0 .345-4.271 6.528-2.701 7.454-6.39-1.309-3.913-6.412,2.581-7.454-1.065 3.145-1.115 2.036-6.483 6.39-6.389-.306,5.014 7.592,1.533 9.584,0-4.142-1.563-2.541-14.465-6.389-12.78 .652.059 1.262.159 1.067,1.066zm-55.377-34.079c-3.326,3.53-1.602,1.705-5.325,0-3.358-1.537-9.449,3.017-11.714-1.063-.239,2.012 1.2,2.349 1.065,4.259-3.939-1.937-8.244,9.219-10.65,2.129-1.269,2.967-1.22,6.48 1.065,8.519 .517-8.073 7.869-1.764 11.714-1.064-1.025-5.234 5.232-1.53 5.325-3.195-1.338-.436-2.176-1.373-2.13-3.195 1.767.226 8.008,4.178 5.325,2.13 .305-1.876-5.015-3.297-2.129-4.26 2.601.593 2.269,4.121 6.389,3.195-2.465-4.224 1.261-3.05 1.065-7.455zm28.753,15.974c.709-6.162 3.733-10.588-2.129-14.908 .929,3.413-1.64,3.329-3.195,4.259-2.672-1.232-3.566-4.243-7.455-4.259 3.229,8.07 9.916,6.28 12.779,14.908zm-2.129,5.325c-1.221-10.139-8.408-14.311-14.909-19.169 5.25,6.108 10.26,12.457 14.909,19.169zm236.413-12.779c-6.302-.059-4.639,3.719-7.452,5.324-9.171-.783-17.199-4.625-28.754-1.064 6.187.855 2.071,10.024-3.195,9.584-1.068-.09-2.522-2.725-4.26-3.195-2.307-2.728 6.74-3.083 5.324-4.259-1.548-.583-5.504,1.243-5.324-1.066 5.204-1.39 6.058-1.253 7.455-5.324-3.012,1.313-6.574,1.313-9.585,0 1.504,5.686-3.993,9.032-10.649,9.583 1.105.154-3.019,3.997-3.194,6.391-5.73.404-6.481-4.168-9.585-6.391 2.642.158 5.169.2 5.323-2.129-2.102-.736-2.838-2.84-3.193-5.323 5.437-.601 13.695,1.625 15.974-2.131-8.343-.535-15.049.57-22.362,1.065-6.347,6.078-2.99,21.858-5.326,31.949 44.496,1.284 94.017-1.581 133.116-8.521 1.165-7.71 2.74-15.009 3.195-23.428-1.854.08-3.312-.237-4.259-1.065 1.921,5.471-3.839,3.262-4.26,6.39 1.674.101 3.691-.143 3.193,2.13-2.168,2.425-7.308-2.141-11.714,1.063 3.98,1.592 6.1-1.125 7.454,2.13-.229,2.001-9.675.13-6.388,2.131 1.887.242 5.331-1.074 4.259,2.13-4.572.116-7.84,2.173-10.648-1.066 1.258-.516 2.414-1.135 3.193-2.129-5.557-1.042-13.515,2.375-19.169-2.13-5.41-.688-8.165,2.551-9.584-2.129 7.413-.398 16.601.979 22.364-1.066 2.012-.217 10.521.719 7.454-1.064-9.17.726-16.277.103-22.364,0-11.718-.201-20.821,4.773-23.429-1.066 4.229-.742 11.796,1.856 12.78-2.129-2.938-.966-7.478-.332-9.585-2.13 1.307.339 6.579-.172 3.195-1.065zm-113.946,26.623c-11.189-3.302-27.163,1.487-42.597,2.129-1.144,4.893-5.812,6.259-6.391,11.715 3.914-.346 5.892-2.627 9.583-3.194 .895,1.235 1.406,2.855 1.066,5.323 6.388-1.737 12.387,2.473 8.519,7.455-1.36-.058-1.475-1.364-3.193-1.064 .255-1.52 1.753-1.796 2.13-3.195-3.068-.127-6.973.582-8.521-1.064-1.187,8.042-11.118,7.339-13.843,13.844 11.099-1.686 20.656-.086 29.819-1.065 .828.235 1.236.891 1.063,2.129 5.385-.649 4.961-7.109 10.65-7.455 3.618-.068 1.629,5.47 5.323,5.326 3.53-.729 4.827-3.691 5.325-7.456 7.257-8.36 12.647-18.59 20.234-26.622-7.538-.085-14.12.785-19.167,3.194zm166.128,11.714c2.749.092 1.122,4.56 5.325,3.195-.438-3.335-3.843-4.353 0-6.389-2.03-.455-1.927-3.044-5.325-2.13-.65,4.522 3.865,2.846 0,5.324zm-335.453,8.52c16.513,10.463 31.041,22.916 46.857,34.076 1.705-3.127-.438-5.067-2.13-7.455-9.284-13.089-32.069-17.837-43.662-28.752 18.527,2.812 27.804,19.213 47.921,17.038 .249-6.639-1.736-11.042-3.194-15.974-17.278-.869-33.194-8.634-46.857-9.585 .289,3.617-.824,8.637 1.065,10.652zm205.531-9.584c-.644,10.358 1.332,23.34-1.064,31.947 4.168-.619 6.184.917 8.521,2.13 9.468-5.795 23.578-6.95 29.818-15.974 .732,7.895 2.862-4.037 6.389,1.066 1.656,3.785-3.616.642-3.195,3.193 6.583,4.068 12.494,8.807 17.039,14.91-10.17,12.902-18.75,27.396-26.624,42.597 10.015-3.213 22.052-1.974 31.949-5.325 1.92-.649 3.278-2.64 5.326-3.195 12.359-3.349 26.614-5.683 39.401-7.453 7.38-1.022 13.269-2.793 18.103,0-1.592.181-3.93-.382-4.259,1.064 2.541,2.227 6.821-.261 9.585-1.064-1.716-20.53 3.222-34.406 3.195-53.248-5.488,1.089-9.287-3.518-12.78-1.064 1.12-2.694-3.592-4.721-4.26-2.13 3.312-.504 3.995,2.867 1.064,3.194-4.379-.271-2.317-7.615-7.454-4.259-1.432,3.005 5.643,2.669 2.131,4.259-3.398-.631-3.295,1.999-5.325,0 .726-2.622 1.401-9.33-4.26-8.519-2.462,1.872 2.459,8.979 1.064,9.583h-4.26c-.633-2.207 1.316-6.997-1.065-7.454-1.493,3.476-3.856,6.083-6.389,8.519-1.875-4.717 1.859-9.17-3.196-9.584-2.511,1.897 3.086,4.654 1.066,9.584-2.722.814-4.896,1.569-6.39-1.064 .785-1.698 5.213.244 4.259-3.195-3.077-9.05-17-6.501-24.493-8.519-1.483,1.355-.463,5.216-3.193,5.323 .338-2.468-.173-4.088-1.066-5.323-19.737.529-40.825-3.138-59.637.001zm-89.453,8.519c-10.611,5.619-20.756,17.347-21.299,30.883 4.44.535 4.697-3.112 9.585-2.129 1.436-1.421 2.667-11.292 5.324-12.78-.627.353.664,3.858 1.065,3.195 .76-1.248-.446-3.909 0-5.325 2.671-8.46 19.916-9.362 15.976-17.039-3.638,2.999-6.279.88-10.651,3.195zm-105.428,10.65c-4.996-.36-8.794-7.498-13.845-4.261 5.43-.074 10.038,6.255 13.845,4.261zm11.714,9.585c-8.235-5.293-18.709-11.382-27.688-7.456 3.26.645 5.548,2.26 8.52,3.194 1.237-4.344 6.992-.699 8.52,1.065-1.593.181-3.931-.38-4.26,1.064 2.832-.599 5.423,4.381 7.455,1.066-1.299-.122-2.521-.318-2.129-2.13 2.665.935 7.771,4.935 9.582,3.197zm74.545,18.103c8.211-2.914 19.288-7.767 29.819-9.584 3.836-.663 7.737.984 11.714,0 8.524-2.112 14.998-7.54 15.974-15.974-6.861,4.851-11.385,12.043-20.233,14.908 1.22-3.349-1.674-2.588-2.131-4.259-16.774,5.235-35.168,8.851-50.052,15.974 .83.235 1.238.892 1.065,2.131 3.124,2.913 10.103-6.862 12.78-1.066-1.833-.056-2.731.82-3.196,2.13 5.451.835 7.736-1.493 12.779-1.064 .216-1.357 3.096-5.218 1.065-5.326-1.833,1.421-8.1,3.887-9.584,2.13zm-94.778-18.103c-3.914-.348-5.893-2.627-9.584-3.196 .104,3.836 8.917,6.545 9.584,3.196zm247.063,0c-2.652-.604-6.662-5.328-9.584-2.132 2.743.512 7.694,4.293 9.584,2.132zm-18.103,2.129c9.182,1.123 17.657,8.597 26.623,6.39-9.632-.672-17.37-8.888-26.623-6.39zm-6.391,2.13c6.733,2.851 15.997,3.171 21.299,7.455-9.297-1.463-18.716-8.115-28.753-5.326 4.315,6.69 11.408,10.602 18.105,14.91 5.877-3.708 14.053-5.118 18.104-10.651-9.07-1.48-20.867-10.733-28.755-6.388zm34.079,2.129c-7.702-1.537-15.749-8.374-23.428-6.388 7.189,2.05 16.936,7.185 23.428,6.388zm-250.26,3.194c.65-.061 1.261-.158 1.065-1.064-4.635-2.835-12.8-7.767-18.104-6.39 5.378,2.787 12.499,3.832 17.039,7.454zm-7.453,0c-1.187-2.764-7.666-5.761-9.585-4.259 3.658.957 4.628,4.603 9.585,4.259zm177.843,7.455c-.012-8.886 11.68-6.067 13.845-12.778-8.832-.791-22.164,6.53-13.845,12.778zm36.207,1.066c-.713,2.41-4.801,6.88-6.389,2.129 4.473-1.204 7.382-3.977 10.647-6.388-3.444-1.536-9.397,2.313-13.844,3.193 5.038,7.793-5.316,21.658-8.519,24.494 1.825-7.103 8.682-13.469 7.454-20.232-5.316,2.077-4.425,8.237-6.39,12.778-2.051,4.746-7.171,9.416-6.39,15.974-5.573,3.669-5.449,18.671-10.647,19.168 4.957-16.428 13.531-34.624 19.168-46.856-.007-3.899-6.248-1.562-5.324-6.39 2.948-5.215 12.19-4.137 14.909-9.584-7.254,1.267-11.338,5.704-18.105,7.456-1.474,4.59 5.438,3.098 2.13,6.388-3.738,2.417-3.501-2.246-6.39,0-3.844,17.456-10.224,36.194-14.908,52.182-1.306,4.453-.301,11.351-5.323,13.844 1.815-6.824 3.075-15.231 5.323-23.428 4.278-15.598 11.94-31.117 11.714-44.727-2.045,3.383-8.229,1.576-12.778,0-6.988,18.074-7.661,43.724-10.65,62.831-1.473-20.173 2.426-37.86 4.259-57.506 .271-3.819-3.196-3.902-3.193-7.455 5.297-.803 5.993.379 10.649-1.066 .933-2.971 2.549-5.26 3.195-8.519-9.27,1.82-27.388,3.787-36.209,9.584 2.936,11.27 4.216,24.203 4.26,34.078 .04,8.518 6.098,15.52 3.195,22.364 3.049,5.212 4.033,15.156 3.195,22.363-6.729-24.152-10.086-51.682-18.104-74.545-.198,1.578-2.573.976-4.26,1.066 .641,11.136 7.481,19.111 5.324,29.817 2.035,4.697 5.051,10.944 6.39,17.039 .343,1.556-1.274,3.765-1.063,5.323 1.244,9.245 9.694,17.514 7.455,26.624-8.885-23.75-16.908-52.921-24.495-74.544 3.229-.034 1.032,5.357 4.26,5.323-1.113-2.436-.676-6.424-2.129-8.519-1.867-2.395-8.195-.326-8.52-4.259 2.695,1.718 9.467-2.057 10.648,3.195 1.562-5.423 8.47-3.75 11.715-3.195-.327-6.005 6.111-5.248 7.454-9.584-8.841,1.46-24.262,5.551-35.144,8.519 4.566,8.292 12.312,18.82 10.65,29.819 3.714,5.516 7.298,11.159 7.454,20.233 4.782,8.357 11.452,20.489 12.78,28.753-9.095-17.083-18.73-39.656-26.624-58.57-1.999-4.789-5.775-16.956-12.779-11.714 12.61,18.626 19.635,42.841 31.947,61.766-16.158-18.983-25.394-44.891-43.662-61.766 .312-.655 2.649-4.1 0-4.259-5.983,4.218 1.494,9.892 4.26,13.844 18.345,26.206 37.436,54.68 54.312,79.87 4.312-1.145 7.402-1.145 11.714,0 17.49-32.917 36.937-63.877 57.506-93.713-.215,1.355-3.095,5.216-1.064,5.323 .829-2.772 3.956-8.752 5.326-7.455-6.351,12.822-14.556,23.782-20.235,37.273h-3.195c-14.49,22.426-28.283,45.551-42.597,68.155 1.566,3.759 3.168,7.482 8.521,7.455 18.739-28.826 35.784-59.352 55.374-87.324-.786-2.391-.081-7.075-3.193-9.585-2.159,3.195-4.849,11.44-7.454,10.648 4.521-9.28 14.277-19.804 14.909-28.753-3.515-.053-4.751,4.399-8.52,1.065zm8.52,6.388c1.988.851 3.899,1.781 6.39,2.13 .255-1.52 1.753-1.795 2.129-3.194-1.992-2.71-5.13,2.38-4.26-3.195-2.71.13-4.129,1.551-4.259,4.259zm-40.467-8.518c4.678-1.923 14.653-5.279 19.169-10.649-6.424,2.378-20.094,6.427-19.169,10.649zm-144.831-1.066c-4.156-1.195-9.274-7.015-12.779-5.324 4.336,1.017 9.467,6.823 12.779,5.324zm159.739,2.13c4.77.166 13.408-3.131 17.039-7.455-4.534-.364-13.19,3.653-17.039,7.455zm-199.141-6.39c-5.301-3.526-11.087,4.474-10.65,6.39 1.807-1.742 2.646-4.453 6.39-4.259-1.472,3.143-4.918,4.311-6.39,7.454 4.304-2.441 8.059-5.429 10.65-9.585zm4.259,2.131c-6.698-.288-11.329,7.1-11.714,9.584 3.403-3.697 8.7-5.499 11.714-9.584zm7.455,0c-3.536,1.637-4.024-5.04-6.39-1.064 1.258.516 2.415,1.135 3.194,2.13-4.41.591-10.702,4.872-9.584,7.455 2.253-2.718 6.008-3.934 9.584-5.326-1.655-3.785 3.618-.642 3.196-3.195zm88.389,60.699c-1.815-4.928-5.431-8.057-8.52-11.714 1.229,5.517 4.769,8.722 8.52,11.714zm11.714,12.781c3.836,5.42 8.021,10.626 11.715,15.974 7.432,10.767 12.86,23.023 22.363,31.949 1.706-3.265 5.654-4.287 6.39-8.521-25.102-35.599-49.206-72.196-74.545-107.557-2.597,2.728-6.37,4.279-9.584,6.388 15.192,20.266 29.526,41.796 43.661,61.767zm-48.987-17.039c1.179,3.285-.546,9.766 4.26,12.779-.529-4.337 1.613-8.392 1.065-12.779-1.588-12.705-8.835-16.064-15.974-24.492-9.491-11.208-11.616-17.152-21.299-23.429-6.762.354-13.031-1.878-19.168-1.066-10.869,1.437-25.603,16.222-27.689,25.558-4.824,21.594 10.391,28.688 10.649,42.598-3.447-7.558-7.006-15.002-12.779-20.233 2.98,10.51 8.404,18.574 13.844,26.623 .182-1.593-.38-3.931 1.064-4.26 4.254,21.661 12.027,39.8 22.364,55.377 1.137-.993.332-3.929 3.195-3.195-2.611,6.579 2.751,9.473 5.324,13.844-.013,1.407-1.867.974-2.13,2.129 4.129,2.617 4.131,9.359 9.584,10.651 5.774-4.075-.429-5.815-2.13-10.651 1.833-.419 2.73,1.582 3.195,0-2.046-4.699-6.822-6.667-8.52-11.713 1.465-.046 2.339.503 3.194,1.065-2.012-5.812-7.972-13.305-8.519-17.04 2.171.313 2.088,2.884 4.259,3.196-1.023-6.094-9.37-10.486-7.455-15.974 8.698,14.02 19.453,25.982 29.818,38.336-9.142-5.058-13.789-14.609-21.298-21.298 5.209,12.188 19.702,20.758 25.558,28.753-5.371-2.083-8.511-6.397-12.779-9.585 3.915,9.227 17.65,14.291 20.234,21.299-8.549-3.881-15.785-14.733-22.363-17.04 4.559,4.153 7.778,9.382 12.779,13.847 4.983,4.445 12.511,11.933 17.039,8.519-5.603-7.888-10.465-16.514-14.91-25.558 6.537,4.354 8.857,23.468 18.104,18.103-11.815-7.268-19.936-24.972-20.234-37.272 1.439-.179 2.129,5.416 3.195,2.131-2.852-6.568-4.881-14.781-5.325-21.3 7.491,13.1 11.515,29.662 20.234,41.531-3.091,5.14 3.256,5.512 3.195,10.651-5.211-1.889-4.748-9.45-9.585-11.715 1.76,6.052 6.311,9.31 8.52,14.91 2.656,2.047 4.376-1.627 6.39,1.063-.293,2.193-3.967,1.003-4.26,3.195 5.54.214 5.551-5.099 7.455-8.521 2.346,2.474-.211,6.047-1.065,8.521 9.169-.526.682-16.165 4.259-23.429-.618-2.933-2.651-4.448-3.194-7.454 5.595-1.936-2.417-6.062 1.064-8.521 4.43,5.854 9.271,23.551 5.325,27.689 1.042,1.442 3.59,1.379 4.259,3.193 2.586-3.449 3.024-9.045 6.39-11.714 .521,7.992-8.894,11.675-6.39,18.105 5.075-9.202 13.867-16.926 8.52-30.884 1.299-.121 2.522-.318 2.13-2.129 .099-3.354-3.955-8.032-1.064-10.651 12.277,4.183 8.437,26.927 5.324,38.339 10.873.668 6.904-17.076 8.52-22.364 1.799,4.235.836,11.233 1.065,17.039-.606,2.713-8.636,7.738-4.261,8.521 2.312-3.75 10.674-7.046 7.456-12.78-.104,1.674.141,3.693-2.131,3.195 .104-9.849 3.06-39.479-14.909-34.078-3.675-1.296-3.562-6.378-9.584-5.325-2.35,7.483 10.695,18.908 1.064,25.558-3.529-8.538-2.614-21.522-11.714-24.492 .462,2.369 2.447,5.774-1.064,6.389-5.793-17.26-16.661-33.369-17.039-50.051-5.888-8.317-10.656-23.414-10.65-34.078 1.076,8.991 6.635,14.128 9.588,22.364zm4.26,122.466v-5.323c-7.176-3.483-13.696-13.271-20.233-13.844 3.274,3.841 11.656,8.197 11.714,11.714-5.78-4.515-10.934-9.654-17.039-13.846 .583,1.549-1.244,5.505 1.064,5.325 1.77-.25 15.652,10.509 8.52,9.584 4.667,2.79 8.708,6.202 15.974,6.39zm36.208-30.882c-.335,1.44-1.516,2.035-1.065,4.261 1.44.335 2.034,1.515 4.259,1.064 .21-3.05.133-5.813-3.194-5.325zm4.259-118.208c-2.964-6.264-5.756-12.702-9.583-18.104-2.19,6.038 9.758,17.63 9.583,18.104zm170.389,21.298c.479-7.398-8.874-10.863-4.259-15.974-3.137-2.359-8.646.027-10.65,2.13 4.177,4.343 6.971,10.07 11.717,13.843-.9-4.781-4.915-6.445-6.391-10.648 5.358,1.386 5.225,8.265 9.583,10.649zm13.843,58.573c-4.127-19.043-8.328-38.714-18.103-50.052-5.521-6.405-13.793-19.973-20.234-21.299-5.843-1.204-11.868,3.978-18.104,2.13-3.493,4.67-6.006,10.322-9.585,14.909 .903,10.812 4.201,19.228 3.195,31.947-5.368,8.833-12.846,15.553-18.103,24.494 3.219.329 8.282-1.184 8.519,2.13-4.889.63-8.189-.331-10.65-2.13-1.263,7.611-8.204,9.544-10.648,15.974h21.299c-4.97-3.956-13.204,1.896-17.039-3.195h20.235c-.159,3.62 1.872,1.63 3.192,5.325-13.166-.218-34.726-5.559-39.401,7.454 38.908,1.204 74.468,2.49 111.818,3.195-2.28-9.932-3.913-19.457-6.391-30.882zm-12.777-47.922c-3.532-3.574-6.099-9.059-9.585-13.844-2.929-4.021-6.605-10.943-11.714-9.585 8.886,5.318 13.591,20.479 21.299,23.429zm-299.246-8.519c-.49-3.813 1.115-15.261-1.065-13.846 .49,3.813-1.116,15.26 1.065,13.846zm222.57,12.778c.012-1.072 1.868-1.338 2.13,0 .488,3.327-2.274,3.405-5.325,3.195-3.873,11.747-10.975,20.263-15.974,30.883 1.939,13.298-4.073,18.646-10.648,23.429v8.519c4.944-1.767 1.705,5.452 4.26,8.521 2.294-.9-.4-6.788 2.129-7.454 2.622,1.26-2.181,4.022 1.065,5.325 2.461-2.764-.32-4.014 2.131-7.455 1.027-1.444 5.413-2.137 6.388-3.195 .541-.586-.495-2.562 0-3.195 .411-.523 2.664.433 3.196,0 2.032-1.651.204-6.84 3.193-2.129 1.977-2.674-.354-10.289 5.325-6.39 .414-2.781.547-5.843 2.13-7.454 1.759.016.596,2.953 2.13,3.194 .32-3.51.392-10.79 4.259-7.455 3.675-13.367 18.894-22.989 13.847-44.727 1.271-1.851 4.149-7.531 0-8.521-4.663,7.408-6.226,17.915-7.456,28.753-4.963,4.27-8.507,9.952-13.844,13.845 3.204-1.074 1.888,2.373 2.13,4.261-.927,1.559-1.594,3.374-4.261,3.193-5.76-13.942 9.628-24.124 6.39-38.335-2.077-.507-5.446,2.864-3.195,3.192zm-72.415,39.404c-3.259-7.438-9.703-15.554-13.844-21.301-1.329-1.842-2.118-7.033-5.326-5.323 6.621,8.643 12.413,18.115 19.17,26.624zm-19.17-22.365c-.47,4.021 2.102,5 3.195,7.456-6.041,12.745 18.039,20.398 11.714,26.624 3.174,2.862 5.243,6.826 9.586,8.519 2.466-2.197-7.792-6.323-5.325-8.519 3.838,2.195 5.746,6.321 9.585,8.519-8.718-11.55-12.804-24.05-23.429-35.143-.121,1.299-.318,2.521-2.131,2.129 4.119-3.08.125-7.878-3.195-9.585zm5.326,21.299c-2.185,2.71 4.809,9.701 7.454,7.455-3.031-1.94-3.884-6.056-7.454-7.455zm6.389,15.973c-1.559-.927-3.375-1.594-3.193-4.259 1.258.154 2.413,1.896 3.193,0-1.769-1.78-2.788-4.312-6.389-4.26-.493,8.304 3.183,12.436 9.583,13.845 1.02-1.984-3.188-3.56 0-4.26 .881,1.35 3.731,6.072 5.324,3.193-2.26-2.577-8.139-9.243-8.518-4.259zm12.78,23.429c-.445-5.946-2.815-9.964-4.262-14.907h-6.388c3.772,11.319-2.182,23.507-7.455,31.946 4.611.351 2.621-5.897 7.455-5.325-.612,2.993-7.763,4.947-4.26,8.521 3.113-2.211 3.865-6.783 8.519-7.454 .189,8.722-12.08,10.619-11.714,15.973 6.915-3.732 10.452-10.845 15.974-15.973-1.583,4.805-4.389,8.39-7.455,11.714 15.011-4.406 4.385-24.095 3.195-36.209 4.297,1.738 3.718,8.354 6.391,11.714zm27.688,0c-.435.248.786,2.677 1.064,2.129 2.855-5.568 3.248-9.771 2.129-17.036 2.174-2.141 2.091.47 4.262,1.063v-6.39c-11.056,2.909-24.885,5.884-37.273,4.26 .805,4.379 3.748,15.263 6.391,21.299-1.931,5.54-7.118,13.449-6.391,18.104 4.81-5.13 5.533-14.345 9.584-20.233 3.225.838-.165,7.078 2.13,5.325 1.646-3.326 1.668-8.272 4.261-10.65 1.066,3.239 1.756,1.359 3.194,0 2.529.88-1.462,6.889 1.065,4.259 1.069-1.414 1.006-3.961 3.194-4.259-.319,2.094 1.438,2.111 2.131,3.195-.367,6.024-2.821,9.959-5.325,13.844-.936-3.847 4.158-7.104 1.063-9.584-1.891,3.788-2.464,8.896-6.389,10.65 2.083-2.533 2.061-7.169 4.26-9.585-.566-4.923-3.324,3.789-3.194,6.39-2.271,1.634-3.077,4.731-4.261,7.454 7.399.93 12.235-7.963 12.779-2.129-.02-1.595 3.958-4.357 1.066-5.325-1.587-.832.871-10.854 4.26-12.781zm5.326,18.105c1.97-2.289 7.834-.685 9.584-3.196-2.252-3.655-3.691-1.498-5.325-5.324 .336,2.905-4.925,5.61-5.325,4.259 3.119-6.354 6.6-12.217 4.259-21.299-6.673,1.848-5.458,11.58-8.519,17.04 4.548.066 2.561,6.669 5.326,8.52zm-259.845-29.82c-6.166-1.659-19.423-1.854-25.558,0 9.031-1.204 19.359,1.918 25.558,0zm30.883,3.196c3.585-.675 9.892,1.371 11.714-1.065-3.33-.154-10.405-3.247-11.714,1.065zm-5.325,3.196c6.13.159 14.57,1.654 17.039-2.132-26.936,2.086-50.73-4.643-75.61-1.063 19.293,3.2 39.505,2.699 58.571,3.195zm246,5.323c9.319-1.874 18.832,1.214 22.363-2.13-7.044,1.12-18.752-2.42-22.363,2.13zm-177.843,9.585c3.173.892 5.906,4.288 7.454,2.129-3.328-2.705-8.425-3.643-13.844-4.259-.723,3.877 4.556,1.616 6.39,2.13zm203.401,0c1.253.166 3.023-.184 3.194,1.065-2.375.464-3.796,1.881-4.259,4.259 3.682.222 5.02,1.515 7.454-1.065-1.872-.256-2.427-1.831-2.129-4.259 .827-.239 2.101-.029 2.129-1.064-1.768.125-9.643-.583-6.389,1.064zm-107.558,14.909c-1.534-6.535 6.055-9.521 3.195-13.844-.964,4.057-7.8,11.005-3.195,13.844zm-185.298-10.65c12.179-.601 27.18,1.623 36.208-2.13-12.236.183-30.974-.87-36.208,2.13zm273.688,7.455c-1.548.582-5.504-1.243-5.325,1.066 8.204-.411 15.995,2.119 23.429-1.066-4.638-.686-12.038,1.39-14.908-1.064 24.209-1.335 36.63,2.527 59.635,2.131 3.384-.895-1.889-1.406-3.194-1.066-16.179-3.002-43.746-4.719-64.961-2.13 .644,1.838 5.05-.083 5.324,2.129zm-178.909,9.585c.601-3.002 3.332-9.377 1.064-11.715-1.231,4.483-2.589,9.625-1.064,11.715zm161.87-9.585h-17.039c-.826.239-2.101.029-2.13,1.066 3.723,1.588 27.835-.497 19.169-1.066zm-126.728,14.91c-.752-4.219-2.2-7.74-5.324-9.585 1.021,3.949 1.817,8.122 5.324,9.585z" fill-rule="evenodd"/>
 <path d="m447.271,103.299c-3.202-1.072-1.888,2.373-2.13,4.259-2.272.498-2.028-1.522-2.129-3.195-1.859.981-2.351,3.33-2.13,6.392-1.254-1.587-2.675-3.008-4.262-4.262-4.58,5.473-11.352-1.785-14.908,2.129-.562-4.467 1.861-5.947 2.13-9.584 3.513.041 4.071,3.03 4.26,6.391 2.353-.134.452-4.518 1.066-6.391 4.521-.972 5.359,1.739 6.388,4.261-.033-2.987 2.896-5.033 3.196,1.064 3.122-.901-.638-3.428 0-5.325 2.862-.732 2.058,2.203 3.193,3.196 1.446-.33.885-2.666 1.066-4.26 2.649-.165 3.296,1.672 5.325,2.129-2.291,3.988 2.041,3.219 1.063,8.519-3.575,1.096-1.655-3.31-2.128-5.323z" fill-rule="evenodd"/>
 <path d="m470.7 126.73c2.325 3.626-12.869 2.183-17.039 3.194 4.967-3.126 10.606-0.532 17.039-3.194z" fill-rule="evenodd"/>
 <path d="m471.766,130.987c-2.768,2.801 1.722.838 1.063,4.259-18.57.599-33.322,5.017-50.051,7.456 14.909,1.652 34.469-6.545 48.987-5.325-11.046,3.508-25.257,3.852-37.273,6.391 12.278,1.558 22.574-2.75 37.273-3.195-15.215,4.347-38.245,6.431-52.182,8.519 .172-1.246 1.942-.898 3.194-1.064-1.953-1.537-9.729.165-12.779,1.064 .692,1.083 2.449,1.103 2.131,3.195-6.082.437-8.699,1.261-14.91,3.196 4.585-6.353-2.622.5-3.195-4.262 6.121.085 8.305-3.765 14.91-3.194 .423-2.553-4.851.589-3.194-3.195 5.361-.316 8.271-3.088 10.648-6.39 17.304-.446 28.192-7.304 46.856-6.388-.446,2.392-5.65.029-6.389,2.129 6.492,2.333 5.516-5.398 14.911-3.196zm-48.988,9.585c5.551-.839 11.693-1.086 15.975-3.195-6.411-.021-12.116.663-15.975,3.195z" fill-rule="evenodd"/>
 <path d="m76.676,232.156c-3.544,4.582 5.252,10.645 2.129,14.908-4.799-5.14-3.833-16.046-8.52-21.298 .119-3.772 3.521,2.261 3.195-1.066-.816-9.478-1.059-19.529-2.13-28.753-5.668,5.94.948,16.35 0,24.494-5.728-4.837-3.391-14.212-4.259-21.299-2.252-18.384-4.477-41.18-1.065-60.701 5.01,2.501 1.196,8.32 1.065,12.779-.183,6.173-.061,13.16 0,20.235 .083,9.531-1.304,17.996 3.194,23.428 4.585-10.679.985-29.542 2.13-43.663 3.929,4.355 2.061,11.036 2.129,15.975 .254,18.067-2.506,40.186 3.195,60.7-.066-16.081-2.927-51.108 0-73.48 4.866,2.799 1.41,8.979 1.065,12.78-.795,8.727.689,12.683 0,20.233-1.714,18.771 1.369,43.304 6.389,63.896-4.902-4.326-3.901-14.556-8.517-19.168z" fill-rule="evenodd"/>
 <path d="m149.09,217.246c-3.189.702 1.019,2.277 0,4.261-5.456-4.888-2.95-11.201-6.389-18.105 2.455-.325 1.183,3.078 3.195,3.195-8.663-15.833-15.105-36.559-18.104-52.181 6.68,5.39 5.569,18.57 11.714,24.494 .927,16.111 11.069,23.01 11.714,39.402 .12,2.621 6.607,8.164 2.13,8.519-.878-3.737-3.206-6.022-4.26-9.585z" fill-rule="evenodd"/>
 <path d="m149.09 224.7c4.883 2.585 9.434 14.698 10.65 24.495-6.366-7.373-6.684-16.476-10.65-24.495z" fill-rule="evenodd"/>
 <path d="m390.83,165.065c5.988.417 11.541,10.457 15.974,15.974 2.366,2.603 4.964,4.977 6.39,8.519-6.872-4.495-14.6-17.342-22.364-24.493z" fill-rule="evenodd"/>
 <path d="m381.246,171.455c-1.034-.029-.826-1.305-1.065-2.13 7.217,7.138 18.788,16.277 25.56,26.622 1.159,1.774 7.138,6.812 1.063,7.454-4.125.795-.394-1.556-1.063-3.192-4.053-9.896-18.18-19.287-24.495-28.754z" fill-rule="evenodd"/>
 <path d="m463.245,194.883c-.329-1.445-2.665-.883-4.26-1.065 2.417-2.031 9.33-4.025 14.91-4.26 2.38-.1 8.149-1.609 8.519,2.131-3.584.675-9.892-1.372-11.714,1.064 .202,1.51 7.865-1.688 9.584,1.064-12.972,1.415-21.115,2.822-35.143,4.261 4.157-2.943 11.755-2.446 18.104-3.195z" fill-rule="evenodd"/>
 <path d="m121.403,211.923c.893-3.384 1.403,1.889 1.064,3.192 .029,1.037 1.304.827 2.129,1.066 1.159,10.03 2.9,13.638-1.064,2.13-.7-2.032-3.532-3.786-2.129-6.388z" fill-rule="evenodd"/>
 <path d="m385.506,83.065c1.575.553 2.684,1.576 4.259,2.13-.457,3.447 1.402,9.211-2.13,9.584-5.18.782-3.362-9.44-2.129-11.714z" fill-rule="evenodd"/>
 <path d="m373.79 84.131c1.582 1.968 2.042 5.059 2.13 8.519-5.169-3.823-3.349 1.172-8.519 2.129 0.732-4.282-1.021-6.078-1.066-9.584 2.611-4.34 7.877 3.766 7.455-1.064z" fill-rule="evenodd"/>
 <path d="m48.987,175.714c.509,6.118 1.385,17.761 3.195,27.688-3.364-.184-2.888-4.212-3.195-7.454-4.332,6.87 3.914,18.507 5.324,26.624-4.551-.854-4.03-6.844-5.324-10.648-2.358-6.94-3.223-10.394-3.195-19.17 .057-17.486-8.955-40.076-3.195-55.376 4.075,2.745 1.644,8.401 2.131,12.78 .892,8.037 2.812,16.841 4.259,23.429 3.086-3.158-.408-8.769 0-12.78 3.943,2.688 2.183,10.715 3.195,15.975 2.035,10.583 4.619,24.547 7.455,37.272-5.085-3.952-5.465-20.521-7.455-30.884-.465-2.426-.132-6.931-3.195-7.456zm0,17.039c-1.395-4.284-.281-11.077-3.195-13.844 .542,5.137-.639,11.999 3.195,13.844z" fill-rule="evenodd"/>
 <path d="m19.169,157.611c5.442-.472 2.407,7.533 3.196,11.714 3.202,1.073 1.886-2.374 2.129-4.26 3.986.983 1.388,8.552 2.13,12.778 .171,1.248 1.941.899 3.194,1.065 2.114,13.149 7.594,22.935 10.649,35.144-8.967-4.877-7.088-20.601-11.714-29.82-4.794,7.919-.015,14.851 0,21.3-6.658-12.015-8.803-33.498-9.584-47.921z" fill-rule="evenodd"/>
 <path d="m489.87 181.04c1.243 4.791-5.948 1.149-4.259 6.39-10.931-1.479-24.297 2.266-36.208 3.195 2.612-4.488 11.455-2.745 17.04-4.259-10.392-2.568-26.785 3.727-35.144 3.192 2.609-5.411 9.688-3.579 14.908-4.259 12.37-1.61 27.363-4.648 43.663-4.259z" fill-rule="evenodd"/>
 <path d="m109.69 192.75c6.124 2.04 5.591 10.737 8.519 15.975-2.35 3.633-2.41-3.878-3.195-5.326-0.935 13.497 6.944 30.725 5.325 42.599-4.376-16.925-7.391-35.208-10.649-53.248z" fill-rule="evenodd"/>
 <path d="m448.338,207.661c-3.352-2.934-8.375,1.521-13.846,0 7.295-9.793 30.223-8.265 41.532-10.648 .301,1.721-1.006,1.833-1.064,3.196 3.504-.046 5.301-1.8 9.584-1.066-1.408,13.437-21.885,3.528-31.947,9.585 7.08,3.153 13.963-3.059 23.428-1.066-.118,2.722-3.565,2.115-6.388,2.131 .446,2.393 5.648.029 6.388,2.131-3.949,4.2-10.368,1.63-15.973,2.13-8.682.773-18.15,3.181-25.56,4.259 1.587-5.158 11.108-2.383 14.909-5.325-4.578-3.212-13.1,3.547-17.04,1.066 2.574-4.38 7.248-5.998 15.977-6.393zm10.647-2.129c6.128-1.327 14.422-.487 19.17-3.194-7.185-.419-17.691,1.451-19.17,3.194z" fill-rule="evenodd"/>
 <path d="m469.637,221.507c-8.628.742-20.195,3.755-27.69,2.129 .903-1.583 3.43-1.541 5.325-2.129-1.462-2.747-6.524-.237-8.519,0 1.759-3.975 30.346-10.106 30.884,0z" fill-rule="evenodd"/>
 <path d="m171.45 234.28c-3.186-1.784-5.064-4.874-7.454-7.455 3.345 9.086 12.235 21.838 22.363 27.689-7.478 1.213-12.214-7.733-18.104-15.976-4.33-6.058-9.354-12.031-10.65-15.973-0.804-2.446 2.022-1.394 2.13-2.13 0.423-2.888-5.932-5.096-3.195-7.455 5.621 6.453 10.649 13.493 14.91 21.3z" fill-rule="evenodd"/>
 <path d="m110.75 232.16c4.066-5.704-5.497-17.65 1.065-22.364-0.742 14.304 4.887 27.673 4.259 38.337-2.183-2.075-1.369-7.148-3.195-9.585-3.201 2.931 2.89 5.57 1.065 10.651-8.937-18.453-8.895-51.377-8.52-75.61 2.733 19.186 1.469 37.592 5.326 58.571z" fill-rule="evenodd"/>
 <path d="m364.207,239.61c-.789,3.998 2.325,3.02 4.26,6.39-6.235-1.221-13.707-1.203-21.3-1.064-.852-4.05 5.036-1.355 7.456-2.13 .179-2.311-3.777-.482-5.326-1.066 1.198-3.4 8.411-1.591 14.91-2.13z" fill-rule="evenodd"/>
 <path d="m152.286,308.831c.947.827 2.405,1.146 4.259,1.063 1.585,6.58 2.894,13.436 4.259,20.235-10.459-1.152-7.95-12.419-8.518-21.298z" fill-rule="evenodd"/>
</svg>
