<?xml version='1.0' encoding='utf-8'?>
<svg xmlns="http://www.w3.org/2000/svg" version="1.1" width="600px" height="976px" viewBox="0 0 600 976"> <g id="layer1"> <g style="fill:rgb(0,0,0); fill-opacity:1.0; stroke-linejoin: miter"> <path d="M415.92563,220.80566L398.87885,227.61147Q441.71408,332.55997,428.6122,371.61472Q425.22586,380.3644,419.08798,380.05203Q416.40927,380.18533,411.32715,379.24747Q386.0738,373.29874,383.0098,373.32138Q373.1815,372.09964,365.77063,373.3871Q352.56726,375.51886,343.06918,385.69952Q330.78885,398.69037,320.63626,428.97504Q314.64175,446.76123,308.1907,474.51813L301.79733,502.8462Q301.31253,504.90277,302.2217,507.71667Q304.44846,513.08093,310.3185,513.67676Q316.06784,513.76904,318.96292,508.75415Q332.87497,448.1184,339.40482,430.7456Q348.20175,405.35193,357.8546,396.8078Q364.10242,390.85522,374.6528,391.06287Q378.9805,391.1068,385.0312,392.22272L411.594,397.8869Q419.17056,398.92834,424.96542,397.77704Q439.3116,394.7826,445.5712,378.93802Q462.59158,334.8718,416.08176,221.20465 Z"/> </g> <g style="fill:rgb(0,0,0); fill-opacity:1.0; stroke-linejoin: miter"> <path d="M428.13974,270.7216Q420.8445,271.2651,419.10776,278.21402Q418.81674,279.62485,419.0732,281.37857Q421.9611,294.38638,422.72702,300.42667Q423.45578,305.78476,423.3809,309.76468Q423.30624,319.01364,418.22922,323.75534Q411.73297,329.85037,393.1964,333.06448Q385.2649,334.46323,373.8834,335.51987Q361.24384,336.721,336.2159,337.93408Q334.78665,338.0664,333.5516,338.5766Q327.12503,341.70807,328.0048,348.80347Q329.88785,355.74005,336.8312,356.25214Q381.18094,354.50003,399.74994,350.44394Q421.66653,345.98672,430.74857,337.1887Q442.52036,326.26065,441.707,306.00558Q441.47055,295.68362,436.7203,276.6649Q434.47916,271.20352,428.27084,270.72256 Z"/> </g> <g style="fill:rgb(0,0,0); fill-opacity:1.0; stroke-linejoin: miter"> <path d="M427.37814,268.41666Q421.2897,268.71658,419.0524,274.4023Q418.59384,275.7133,418.603,277.343Q419.7097,290.6343,419.61032,296.53793Q419.5834,301.9752,418.83328,305.98972Q417.29556,314.85776,410.76703,318.41483Q402.96338,322.7018,385.2644,323.07822Q376.986,323.2878,365.0639,322.66913Q358.75946,322.42303,331.96005,320.29468Q327.62808,320.68396,325.2205,324.14075Q322.8962,327.64563,324.20535,331.92578Q325.7695,336.01758,329.78232,337.38696Q358.6316,340.50635,378.36935,340.66Q399.9314,340.7869,412.1496,336.7736Q424.11978,332.93668,430.30215,323.77164Q438.454,311.90005,437.06223,288.9608Q436.8727,284.95395,436.07242,276.1393Q435.88144,274.66928,435.32632,273.50095Q432.80667,268.64957,427.46677,268.41708 Z"/> </g> <g style="fill:rgb(0,0,0); fill-opacity:1.0; stroke-linejoin: miter"> <path d="M385.98236,376.16696Q349.94965,375.727,336.64932,410.3871Q325.52603,435.6814,318.2772,509.83936Q318.34097,518.70355,327.48563,519.7851Q333.97806,519.39667,336.2076,513.2669Q342.39005,458.0943,346.87546,439.68243Q352.34747,415.08118,360.43372,404.96796Q366.63208,397.00958,377.40146,395.17694Q383.5524,394.06763,392.82538,394.90564Q397.1729,395.0786,419.62985,399.0545Q425.21445,398.62152,427.68216,393.39618Q430.21408,385.3885,422.63577,381.37283Q399.5938,376.0917,386.11554,376.16702 Z"/> </g> <g style="fill:rgb(0,0,0); fill-opacity:1.0; stroke-linejoin: miter"> <path d="M384.1176,137.57408Q402.95453,137.91579,416.05338,150.809Q428.98795,164.06505,429.28494,182.65852Q429.08322,201.23972,416.17978,214.5791Q403.1856,227.49129,384.32965,227.9405Q365.48718,227.702,352.31335,214.86867Q339.3044,201.66975,338.91928,183.07582Q338.94077,164.58849,352.04504,150.91435Q365.04968,138.00996,383.90598,137.57457 M384.12408,119.21916Q357.79156,119.63901,339.26144,137.73912Q321.00174,156.37096,320.56332,182.56383Q320.86496,208.77065,338.9473,227.46133Q357.75,245.92355,383.96353,246.29597Q410.29706,245.925,428.86447,227.8531Q447.15884,209.24829,447.6395,183.05522Q447.3796,156.84886,429.33255,138.13142Q410.56635,119.640465,384.3551,119.21959 Z"/> </g> <g style="fill:rgb(0,0,0); fill-opacity:1.0; stroke-linejoin: miter"> <path d="M403.46436,388.28418L402.4843,520.55585L480.4538,521.1595L481.48993,389.09717L481.46136,388.88806L403.49188,388.28436 Z"/> </g> <g style="fill:rgb(0,0,0); fill-opacity:1.0; stroke-linejoin: miter"> <path d="M469.9196,224.46825Q468.58926,224.234,467.79385,234.79599L467.20895,244.67337Q465.84183,277.47238,465.37717,284.44205Q464.58194,298.21335,463.5128,308.9282Q461.5887,328.5449,458.2662,341.46658Q449.5093,375.88602,427.91397,390.21686L473.81308,402.81427Q481.7245,388.94812,484.2303,376.14334Q487.2603,361.6628,486.75977,340.63492Q486.04114,312.44485,480.0072,269.74515Q473.60416,226.76505,469.92032,224.46825 Z"/> </g> <g style="fill:rgb(0,0,0); fill-opacity:1.0; stroke-linejoin: miter"> <path d="M595.85315,333.99594Q588.6243,334.30295,585.75195,341.1215Q559.665,421.24402,551.81775,455.31216Q539.375,504.03412,541.24426,562.3068Q541.8468,566.3705,544.1578,568.7993L544.1577,568.7993L559.66205,568.7993L559.66766,568.7993Q561.184,567.13904,562.1749,564.6432Q562.6433,563.0702,562.66437,561.7942Q562.339,534.5183,563.40826,519.57306Q564.4936,502.82593,567.2764,486.50104Q572.63617,454.11075,590.614,396.9722Q599.48236,477.05206,602.4619,563.3481Q603.1966,566.662,604.91125,568.79926L604.91113,568.79926L621.30023,568.79926L621.30646,568.79926Q623.2317,566.4356,623.80414,562.6384Q621.9786,512.38885,619.37585,476.4629Q616.6253,435.76376,606.47327,343.13745Q604.52075,334.6194,595.9228,333.99615L595.85315,333.99594 Z"/> </g> <g style="fill:rgb(0,0,0); fill-opacity:1.0; stroke-linejoin: miter"> <path d="M607.7461,189.71896Q599.476,190.30586,597.2753,198.15683Q592.2035,234.85864,589.5495,257.51804Q586.8779,280.3002,585.86163,295.49353Q583.99695,321.47668,585.327,353.43802Q587.20337,362.01526,595.9311,362.6621Q604.7512,362.04236,606.59576,353.3283Q606.7101,352.30072,606.6841,351.74597Q606.3095,338.8909,606.26,331.93835Q606.20355,325.354,606.30695,319.4893Q606.535,306.03082,607.64264,291.94635Q608.74976,277.712,611.2471,256.80783Q613.19055,240.27914,618.4584,201.30142Q618.7419,196.58974,615.6258,193.15111Q612.37805,189.78793,607.8128,189.71918"/> </g> <g style="fill:rgb(0,0,0); fill-opacity:1.0; stroke-linejoin: miter"> <path d="M508.9421,163.17242Q503.7708,163.32874,500.63388,167.09921Q497.55496,171.03023,498.37628,175.84906Q504.34747,211.23251,520.1246,224.9046Q529.78064,234.03964,548.6415,239.28528Q565.1998,244.1276,601.0772,247.449Q608.19214,247.03484,610.9988,240.59091Q613.2256,233.70882,608.24963,228.81343Q606.0076,226.7575,602.96204,226.16693Q570.4311,222.78685,557.81866,219.5363Q545.2925,216.54868,538.15063,211.8315Q530.86847,207.02252,526.82324,198.02467Q525.0236,194.11713,523.4736,188.80998Q521.8239,183.33104,519.3347,171.27118Q518.9755,169.82028,518.1714,168.4425Q515.1112,163.46432,508.95743,163.17244"/> </g> <g style="fill:rgb(0,0,0); fill-opacity:1.0; stroke-linejoin: miter"> <path d="M608.41785,96.67977Q627.5702,96.93839,641.2446,110.16064Q654.7515,123.90497,655.09344,143.04065Q654.98376,162.21347,641.64734,176.1036Q627.77606,189.69513,608.728,189.98691Q589.66327,189.92816,575.6347,176.50565Q562.1283,162.76083,561.78705,143.6251Q561.89746,124.45228,575.2343,110.56261Q589.1061,96.97156,608.1542,96.68051 M608.4082,76.55496Q581.02997,76.85995,561.16656,96.168396Q542.00574,115.77399,541.6617,143.54962Q542.0635,170.87988,561.2662,190.59868Q581.15594,209.86325,608.55457,210.11241Q635.93115,209.77376,655.7711,190.44173Q674.9075,170.68279,675.2191,143.2992Q674.8916,115.9676,655.7428,96.197365Q635.9057,76.879135,608.5094,76.55504"/> </g> <g style="fill:rgb(0,0,0); fill-opacity:1.0; stroke-linejoin: miter"> <path d="M466.23315,126.23688Q458.6584,126.77974,456.879,134.0926L456.8607,137.22517L460.71393,156.27794Q470.1869,202.7919,486.7233,222.4303Q507.6801,250.18533,566.65234,249.86296Q577.5148,250.0054,600.2962,249.07108Q601.6875,249.07985,603.48553,248.4421Q613.0393,242.96686,607.4455,233.61942Q604.5243,230.29768,600.5972,230.12161Q555.569,232.0865,537.90393,228.81917Q519.2906,225.82391,508.97766,217.84868Q499.15808,210.39145,492.37274,195.71622Q484.22507,179.55717,475.08176,132.33511Q472.43466,126.51157,466.38156,126.238045"/> </g> <g style="fill:rgb(0,0,0); fill-opacity:1.0; stroke-linejoin: miter"> <path d="M447.96783,128.89503L439.9415,121.69071L440.30905,122.57881L442.8184,124.48743L438.39185,121.78861L447.2252,128.34392 M419.03696,102.64041L417.7713,104.084625L418.4775,103.68004L422.3363,108.17593L429.25357,115.32522L437.9597,121.51312L428.87842,117.17916L420.1715,114.948555L415.1884,113.94363L414.54767,113.74824L414.46902,113.430466L413.7765,115.351974Q414.04843,114.43675,414.74994,114.395805L419.167,116.88183L427.2142,120.8265L437.88718,124.22844L445.3511,127.3707Q446.1749,127.89209,446.70792,126.84875L445.59882,125.148575L443.17163,124.68292L454.51202,138.05681L468.33878,148.93619L469.04126,148.23596L458.11734,135.4188L446.6829,126.30774L468.08786,131.1482Q471.0704,132.33563,473.09726,134.44878L473.43845,135.18237L472.36725,136.5175L472.93225,137.16612Q475.2967,136.79242,474.7009,134.15457L473.41614,131.78775L471.2092,129.4897Q467.10043,126.274124,462.14438,125.40776L455.44498,124.65437L444.04242,124.383125L445.95062,124.94081L446.9444,124.92925L438.4747,117.93731L432.62805,112.53903Q425.67575,107.54659,418.74847,103.21297 Z"/> </g> <g style="fill:rgb(0,0,0); fill-opacity:1.0; stroke-linejoin: miter"> <path d="M503.73465,79.49387L506.1407,166.45137L512.0466,167.67604Q512.1099,134.33646,512.2514,127.89052L524.63336,121.669876L511.6937,118.181145L524.48834,113.249886L510.80746,108.1935L525.58655,101.97568L508.84442,98.88609L523.87726,92.7561L509.36255,86.48043L524.7593,79.78957L503.75067,79.4941"/> </g> <g style="fill:rgb(0,0,0); fill-opacity:1.0; stroke-linejoin: miter"> <path d="M181.27252,62.621086Q171.21733,65.081474,164.59055,88.89428Q158.27289,111.97181,157.28325,150.63654Q154.55896,217.15828,171.24947,411.0974L210.75229,344.2955Q212.81583,178.43832,206.5255,125.56542Q200.04333,62.59377,181.40843,62.59724"/> </g> <g style="fill:rgb(0,0,0); fill-opacity:1.0; stroke-linejoin: miter"> <path d="M250.29706,331.81134L138.2464,332.32394L138.82504,568.79944L138.82504,568.79944L250.77505,568.7994L250.77505,568.7994L250.29794,332.18243L250.29706,331.81134 Z"/> </g> <g style="fill:rgb(0,0,0); fill-opacity:1.0; stroke-linejoin: miter"> <path d="M286.83334,511.44446L286.8334,568.69476L287.23135,568.69476L490.5846,568.6947L490.5846,539.7341L490.58453,511.4444L287.23132,511.44446"/> </g> <g style="fill:rgb(0,0,0); fill-opacity:1.0; stroke-linejoin: miter"> <path d="M454.902,211.7408Q449.36728,212.08023,445.2549,218.65141Q441.763,224.93199,443.97574,230.56029Q445.74487,234.98904,452.0728,239.86217Q457.31754,244.03229,471.1822,251.54333L470.1136,224.80246Q464.65128,217.30536,461.58713,214.76518Q458.08017,211.73497,454.9276,211.74084"/> </g> </g> </svg>