<?xml version="1.0" encoding="UTF-8"?>
<svg enable-background="new 0 0 319.375 247.753" viewBox="0 0 319.375 247.753" xmlns="http://www.w3.org/2000/svg">
 <path d="m242.75 2.135c3.38 7.3 4.881 16.478 6.407 25.63-2.943-7.735-5.096-16.262-6.407-25.63z" fill-rule="evenodd"/>
 <path d="m239.189,4.271c1.15-.2 1.226.673 2.137.712 2.531,19.538 9.335,34.806 9.967,56.243-4.202-18.818-6.934-39.105-12.104-56.955z" fill-rule="evenodd"/>
 <path d="m97.516,7.119c2.735.824.882,6.237 1.424,9.255-2.736-.824-.882-6.237-1.424-9.255z" fill-rule="evenodd"/>
 <path d="m93.956 8.543c2.011 6.49 3.31 12.602 2.848 19.934-2.405-5.19-2.157-13.032-2.848-19.934z" fill-rule="evenodd"/>
 <path d="m263.396,11.391c.828-.116 1.267.157 1.424.712 2.605,7.239 2.22,21.551 2.848,29.901 .119,1.575 2.943,6.059 0,4.983-1.663,2.427-.547-4.203-.711-7.12-.533-9.402-2.392-22.639-3.561-28.476z" fill-rule="evenodd"/>
 <path d="m257.701,12.815c3.377,2.792 1.122,11.217 2.848,15.662-2.152-1.415-3.266-2.012-2.848,2.136-1.153-1.192-1.599-10.589-2.137-15.663 3,1.034.317,7.751 2.137,9.967 2.721-1.717-.444-8.106 0-12.102z" fill-rule="evenodd"/>
 <path d="m280.48 27.053c2.524 2.222 1.97 7.523 2.136 12.103-2.027-3.03-0.568-7.519-2.136-12.103z" fill-rule="evenodd"/>
 <path d="m8.523 29.189c4.609 1.186 2.065 6.625 2.848 11.391-2.226-2.519-2.231-7.261-2.848-11.391z" fill-rule="evenodd"/>
 <path d="m19.915,33.46c-.798,2.287-1.532,4.639-2.136,7.119-3.035-1.12.689-4.825-2.848-5.695 1.059-2.667 1.173-2.152.712-5.696 3.01-.162.19,5.506 4.272,4.272z" fill-rule="evenodd"/>
 <path d="m20.627,29.901c1.694,2.722 2.698,8.172 1.423,12.815-.589-3.848-2.728-9.386-1.423-12.815z" fill-rule="evenodd"/>
 <path d="m254.853,33.46c1.943,3.04-.684,10.651 2.136,12.815 2.113-1.93-.401-5.253 0-7.832 2.58,1.691.979,7.563 1.424,11.391-.542-.488-2.259-3-2.136,0-2.367-3.383-1.453-12.855-1.424-16.374z" fill-rule="evenodd"/>
 <path d="m14.931,42.004c-3.1.879-3.132-7.814-.712-7.831 .792,2.162-.185,4.555.712,7.831z" fill-rule="evenodd"/>
 <path d="m1.404 36.309h2.136c1.848 7.997 2.326 15.239 3.56 24.917-2.203-8.153-5.125-17.237-5.696-24.917z" fill-rule="evenodd"/>
 <path d="m239.19 36.309c4.363 10.587 6.391 23.511 7.832 37.02-2.883-12.067-5.432-24.469-7.832-37.02z" fill-rule="evenodd"/>
 <path d="m92.532,43.428c1.104.813 2.654,7.298 2.136,12.103-2.904-3.427-1.314-7.078-2.136-12.103z" fill-rule="evenodd"/>
 <path d="m.692,49.123c3.051.034 1.898,4.272 2.136,7.12-2.969.028-3.453-5.106-2.136-7.12z" fill-rule="evenodd"/>
 <path d="m43.408,53.395c.828-.116 1.268.157 1.424.712 .131,13.248-.34,23.431.713,34.885-2.914-10.286-.532-25.841-2.137-35.597z" fill-rule="evenodd"/>
 <path d="m18.491,56.955c4.583,2.298.997,12.766 2.136,18.51-3.056-5.072.143-13.971-2.136-18.51z" fill-rule="evenodd"/>
 <path d="m17.067 60.514c1.556 6.276 1.477 14.186 1.424 22.07-2.457-3.668-1.191-16.661-1.424-22.07z" fill-rule="evenodd"/>
 <path d="m64.055,63.362c3.708,2.257 2.77,7.082 3.56,10.679 2.243,10.207 6.547,22.426 7.831,34.173 .301,2.751-.339,5.646 0,8.543 1.241,10.615 3.095,24.951 2.136,37.732-1.574-32.288-5.839-62.457-13.527-91.127z" fill-rule="evenodd"/>
 <path d="m94.667,66.921c2.423,1.136.742,6.377 2.136,8.543-2.911-.648-.666-6.452-2.136-8.543z" fill-rule="evenodd"/>
 <path d="m75.446,69.769c4.745,18.772 10.274,40.479 8.543,63.362-.546-23.423-5.261-42.676-8.543-63.362z" fill-rule="evenodd"/>
 <path d="m79.717,72.617c3.45-.204 1.49,6.318 2.136,10.679-1.9-2.372-1.123-7.421-2.136-10.679z" fill-rule="evenodd"/>
 <path d="m239.189,72.617c1.352,1.073 2.928,8.542 0,9.255 .626-3.577-.185-4.768 0-9.255z" fill-rule="evenodd"/>
 <path d="m301.128,79.024c1.783,1.462 1.708,5.567.713,7.831-1.63-1.218-.262-5.434-.713-7.831z" fill-rule="evenodd"/>
 <path d="m88.973,79.736c1.683,3.3 1.924,8.042 2.136,12.815-2.738-2.246-.894-9.074-2.136-12.815z" fill-rule="evenodd"/>
 <path d="m159.454,90.415c1.627.352 4.101-3.067 7.118-2.136-6.629,6.184-16.612,9.017-24.205,14.239-.464-2.153 2.89-4.187 4.984-5.696 2.19-1.578 5.079-2.687 7.119-4.271 1.188-.923 4.644-3.51 7.119-4.272-.398,1.026-1.11,1.738-2.135,2.136z" fill-rule="evenodd"/>
 <path d="m44.832,89.703c2.378-.158 1,4.954 1.424,8.543-1.101,2.177-.627-3.087-.711-4.271 .016-1.677-1.227-2.097-.713-4.272z" fill-rule="evenodd"/>
 <path d="m90.396 94.687c1.778 2.532 1.346 13.835 2.135 19.934-3.352-4.997-1.079-12.115-2.135-19.934z" fill-rule="evenodd"/>
 <path d="m287.602,98.958c.176-.896 1.416-.718 1.424,0 1.379,6.951 3.319,16.456 2.848,26.341-.061,1.261 1.147,4.937-1.424,4.983 .403-13.15-.772-21.816-2.848-31.324z" fill-rule="evenodd"/>
 <path d="m281.194,101.094c2.978,10.43 3.07,34.261 4.271,49.123 .132,1.627 1.854,5.101-.713,5.695-2.768-.163-.676-3.272-.711-4.271-.54-15.117-1.909-32.763-2.847-50.547z" fill-rule="evenodd"/>
 <path d="m264.107,103.23c1.07,14.343 3.644,24.989 4.272,37.02 .149,2.871 1.1,8.859-1.424,10.68 .614-15.86-4.038-32.12-2.848-47.7z" fill-rule="evenodd"/>
 <path d="m284.75 105.36c3.548 9.505 2.65 23.454 2.849 36.31-2.505-5.356-0.956-14.562-1.425-22.783-0.276-4.86-1.467-9.159-1.424-13.527z" fill-rule="evenodd"/>
 <path d="m23.475,110.349c1.839.72 2.293,5.182 1.424,6.408-2.038-.523-1.863-5.613-1.424-6.408z" fill-rule="evenodd"/>
 <path d="m26.322 110.35c2.3 2.587 3.849 9.249 2.848 12.815-3.979-1.242-1.547-8.894-2.848-12.815z" fill-rule="evenodd"/>
 <path d="m34.153,111.061c.115-.834 1.298-.601 2.136-.712 1.299,11.081 3.399,22.996 3.56,34.173 .044,3.059.256,7.052-2.136,8.542-.054-15.132.718-31.093-3.56-42.003z" fill-rule="evenodd"/>
 <path d="m30.594 112.48c4.306 5.173 6.204 18.777 4.271 25.629-2.809-1.984-1.201-6.771-1.424-9.966-0.38-5.454-1.684-10.92-2.847-15.663z" fill-rule="evenodd"/>
 <path d="m66.902 118.18c1.978 9.382 4.003 26.714 2.848 39.157-1.077-12.924-1.875-26.128-2.848-39.157z" fill-rule="evenodd"/>
 <path d="m85.413,123.876c2.953,1.991-.145,3.911 1.424,6.407-2.887.277-.784-4.436-1.424-6.407z" fill-rule="evenodd"/>
 <path d="m94.667 135.98c0.773 1.019 2.408 8.591 2.136 13.526-1.449-3.771-2.16-8.28-2.136-13.526z" fill-rule="evenodd"/>
 <path d="m261.26,135.268c4.562,1.735-.548,9.678.712,14.949-3.742-3 .61-9.68-.712-14.949z" fill-rule="evenodd"/>
 <path d="m96.804 137.4c2.926 1.345 0.717 7.826 2.136 10.679-2.03-2.243-1.291-7.253-2.136-10.679z" fill-rule="evenodd"/>
 <path d="m241.326,140.962c1.43.795.816,5.508 0,6.407-1.564-1.954-1.521-4.635 0-6.407z" fill-rule="evenodd"/>
 <path d="m241.326,149.506c1.54,1.307 1.499,4.197 1.424,7.119-1.415-1.186-.905.063-2.848,0 .412-2.312-.485-3.312-.713-4.983 2.225.779 2.278.728 2.137-2.136z" fill-rule="evenodd"/>
 <path d="m244.89 151.64c2.086 3.61 1.838 9.553 2.136 14.95-1.639-4.057-1.936-9.454-2.136-14.95z" fill-rule="evenodd"/>
 <path d="m182.95 173c2.59-1.722 1.193 3.164 1.424 4.984 0.365 2.878 1.135 6.396 0.712 8.542-2.201-3.018-0.481-9.959-2.136-13.526z" fill-rule="evenodd"/>
 <path d="m205.729,185.102c-2.174-1.802-.369-6.637 0-8.543 1.508-7.768-.391,2.879.713,6.408-.836.114-.601,1.297-.713,2.135z" fill-rule="evenodd"/>
 <path d="m239.902,177.983c.993.924 1.345,8.606 1.424,12.814-1.156-.326-1.383-7.361-2.137-3.56-2.633-4.676 1.969-3.786.713-9.254z" fill-rule="evenodd"/>
 <path d="m244.174,187.95c2.414,2.156 1.208,6.825 1.424,10.679 .204,3.667 2.501,8.438-.712,10.679 .546-7.903-.918-13.796-.712-21.358z" fill-rule="evenodd"/>
 <path d="m247.02 189.37c2.089 4.318 1.259 11.557 1.423 17.799-3.023-4.931-0.319-11.192-1.423-17.799z" fill-rule="evenodd"/>
 <path d="m194.339,192.222c1.547.369.319,9.633.711,13.526-1.548-.369-.32-9.633-.711-13.526z" fill-rule="evenodd"/>
 <path d="m67.615,192.222h1.423c-.412,2.003-3.468,1.941-4.983,2.135-8.514,1.094-21.486-.273-29.189-.711 9.276-2.115 23.467.684 32.749-1.424z" fill-rule="evenodd"/>
 <path d="m185.08 195.07c1.274 8.202 1.942 23.924 1.425 35.596-0.082 1.842 1.222 5.884-1.425 6.409 1.795-11.736-0.456-27.354 0-42.005z" fill-rule="evenodd"/>
 <path d="m188.643,194.356c3.369,12.295.056,31.27 2.137,44.853-3.727-1.266-1.346-6.207-1.424-9.966-.21-10.018-1.159-23.98-.713-34.887z" fill-rule="evenodd"/>
 <path d="m136.672,201.477c-10.516,1.732-22.291-1.437-34.173-.711-1.21.261-1.342-.557-1.423-1.425 10.392-.624 23.753,1.847 35.596,2.136z" fill-rule="evenodd"/>
 <path d="m124.569,199.341c3.13-.622 8.1-1.408 12.103,0 2.504.88-9.588.699-12.103,0z" fill-rule="evenodd"/>
 <path d="m201.46 200.05c1.638 3.95-0.438 7.473 0 11.392-1.667-2.645-0.47-8.518 0-11.392z" fill-rule="evenodd"/>
 <path d="m51.952,202.188c4.283.034 12.347.541 18.51.712 2.435.066 6.165-1.254 7.12,1.424-6.886-1.002-17.489,1.338-23.494,0-1.077-.239-2.509-.229-2.136-2.136z" fill-rule="evenodd"/>
 <path d="m84.701,206.461c-7.288,3.781-18.339-.511-27.766.711 2.944-2.39 7.878-.771 12.103-.711 5.343.074 10.964-1.224 15.663,0z" fill-rule="evenodd"/>
 <path d="m200.034,213.579c.419-2.053 1.954,6.548 2.136.713 .938,3.331.901,3.926 0,6.406-.187.512-.943-1.446-.712-1.423-1.727-.168-1.483,4.104-1.424,5.695 2.854-3.124-.029,8.316-2.848,8.542 1.092-6.499 2.981-12.205 2.848-19.933z" fill-rule="evenodd"/>
 <path d="m135.96,219.986c-16.537,2.932-40.072-.341-59.802-.711 .311-.876.911-1.463 2.136-1.425 18.059,2.084 37.895.61 57.666,2.136z" fill-rule="evenodd"/>
 <path d="m174.404,241.344c1.4-6.429.423-15.238.712-22.781 1.592.307.288,3.51.712,4.984 .316,4.528 2.74,15.564-1.424,17.797z" fill-rule="evenodd"/>
 <path d="m170.13 220.7c0.549 5.483 2.103 13.427 1.424 17.799-2.178-3.796-1.627-11.925-1.424-17.799z" fill-rule="evenodd"/>
 <path d="m172.269,239.922c1.71-4.276.321-11.098 0-15.663 1.113-.067 2.112,5.221 2.136,8.543 .02,2.802 1.059,7.16-2.136,7.12z" fill-rule="evenodd"/>
 <path d="m133.112,227.106c-2.394,2.858-8.96,1.979-14.951,2.137-13.82.357-31.153-1.49-41.292-.713-.828.115-1.267-.157-1.424-.713-.116-.827.157-1.266.712-1.423 18.346.079 36.883,2.307 56.955.712z" fill-rule="evenodd"/>
 <path d="m134.536,230.665c-1.515,2.199-4.959.627-7.831.713-15.708.468-36.998,1.707-51.259,1.424 2.249-2.756 7.48-1.26 12.103-1.424 9.08-.323 19.704-1.017 28.477-1.424 6.064-.283 12.629.024 18.51.711z" fill-rule="evenodd"/>
 <path d="m167.28 232.09c1.574 1.985 1.743 5.375 2.135 8.542-2.515-1.045-1.688-5.432-2.135-8.542z" fill-rule="evenodd"/>
 <path d="m138.095,241.344h-3.559c1.112,1.737 3.835,1.86 4.272,4.272-7.241,3.085-9.027-3.062-15.663-1.424 .251-.935 1.253-1.12 1.424-2.136h-20.646c.099-3.088 4.723-1.422 6.408-1.424 5.603-.006 13.645-.563 19.222-.711 3.317-.089 8.081-1.512 8.542,1.423z" fill-rule="evenodd"/>
 <path d="m85.413,150.217c-1.179.72-.773,3.024-1.424,4.272-1.371-1.188-.91-6.565 0-7.831 .966.221.59,1.782.712,2.848 2.46-3.856-.509-12.68 1.424-18.51 1.579,1.268 2.584,3.111 2.136,6.406 1.623-5.604-.542-11.864-.712-19.222-.966.22-.59,1.783-.712,2.848-2.227-2.044.979-4.676 2.136-5.695-.985-2.812-1.031-6.564-1.424-9.968 1.932,4.238 2.374,9.967 2.848,15.663-.774-.176-.483-1.416-1.424-1.424-.012,3.097-.236,6.406.712,8.544 1.572-.09.302-3.021.712-4.272 2.369,10.137 3.515,22.26 4.271,32.036-1.057-1.316-1.363-3.382-1.424-5.695-1.629,1.22-.261,5.436-.712,7.831-1.235-1.137-1.542-3.204-1.423-5.694-1.167,1.942-1.153,5.488-.712,7.12-4.107-2.301-.855-11.961-2.848-16.375-2.614,6.35 2.472,15.56-1.424,22.069 2.528,2.788 3.842-1.328 5.695,2.137 1.606-.531.278-3.994.712-5.696 .843-1.479 1.031,3.659 1.424,4.983 1.213,2.109 4.895,1.751 7.12,2.848-.652-8.002.594-20.936 0-29.189 .282-1.706-3.243.396-2.136-2.136h2.136c-.107-1.316-2.411-.437-2.848-1.424 .22-.966 1.782-.59 2.848-.711 .816-4.471-2.647-2.024-2.136-7.12 .834.115.601,1.298.712,2.137 2.092-10.486-.653-25.809 1.424-36.309-.575-1.324-.921-2.877-2.136-3.56-1.356-16.029-.708-31.622-3.56-44.852 .834.115.601,1.298.712,2.136 4.582-3.687.501-11.963 0-17.087 2.693,2.29 2.491,7.476 2.848,12.103 2.86-11.299 1.048-23.793 2.848-37.732 4.421,1.336 3.477-2.693 6.407-2.848-.514,11.115 1.268,24.524-1.424,33.461 14.629-1.55 23.703.451 37.732,0 1.575-6.044.312-16.764.712-24.206 .153-2.84-1.872-7.681 2.848-7.12-.187,7.227.657,19.93-.712,30.614 7.899.704 17.997-.434 27.765,0 4.255-7.612 9.836-13.896 17.086-18.511 1.574-6.579-3.955-15.856 2.848-17.086 .982,4.221-.437,11.79-.711,17.086 8.927,1.749 20.587-11.817 27.765-1.424 .346,3.905-.498,6.621-2.136,8.543 1.776,3.605 3.191,9.19 2.849,12.815 1.386.369 5.623-2.867 9.255-.712 .962-5.973.985-13.303.711-19.935-.234-5.682-2.87-12.454 1.424-16.374 3.786,4.001 2.13,10.543 2.137,16.374 .006,5.334-.265,11.284 0,17.086 .546,12.045.018,25.976 2.136,34.885-3.29,5.49.483,18.045-2.849,23.494 2.002.103 2.054-1.743 2.136-3.56 3.938.378 3.479-3.64 5.695-4.984 .024-11.889-3.012-20.718-5.695-29.901 1.712-1.052 2.99,4.751 3.561,7.119 1.512,6.287 2.464,14.956 3.56,21.358 1.812-1.512 1.713-4.932 2.136-7.832 1.572.089.302,3.02.712,4.272 8.8-5.258 2.002-23.878 4.983-29.901-1.478-3.331-3.695-17.153-2.849-19.223 .517,3.044 1.36,5.76 2.137,8.543 1.086-8.903-3.361-21.458-4.983-32.037 3.437,3.378 3.499,10.863 4.271,17.086 2.552-4.331-1.584-15.349 2.136-18.511 2.61,1.072.138,3.962 0,6.408v18.51c1.213.448 1.172,2.151 2.136,2.848-.399,2.062-1.11-1.092-2.136-.712-.598,4.757.478,9.908.712,14.951 .278,5.978-1.172,12.35.712,16.375 2.63-1.643-.22-5.803.712-9.967-.157-3.982 1.26-.846.712,1.424 .269,2.704.208,5.328.712,9.255 .624,2.285-1.846,1.476-2.136,2.848 .306,1.118 2.238.608 1.424,2.848 3.43-5.005.944-11.336 2.136-17.798 1.646,2.625.248,8.295.713,12.103 5.058-5.98-.379-18.114.711-27.053-.349-3.353 1.283-1.722.713.712 .793,7.08 1.959,15.819 1.423,22.07 3.493-4.215 2.852-11.127 2.136-18.511-1.036-10.699-2.432-20.423-4.271-30.613 2.677,2.539 3.064,7.629 3.56,11.391 1.328,10.067 1.492,20.087 2.137,32.749 1.291,1.244 3.735-2.399 2.848-5.695 2.141-.718 1.262,1.585 1.424,2.847 3.57-11.066-1.362-30.448-2.137-41.292 3.34,3.957 2.193,9.516 2.848,14.238 1.079,7.784 2.107,16.125 1.424,26.342 1.18-.72.774-3.023 1.425-4.271 2.016-.117-.592,4.388 1.424,4.271 1.307-9.667-1.328-26.297-3.56-37.02 3.93,2.579 2.714,10.175 3.56,16.374 .674,4.943 2.222,12.98 1.424,20.646 6.829.59 1.2-7.201 2.848-12.103 3.059,2.399-.972,11.888 3.56,12.815 .387-.749.624-2.893.711-5.695 .773.176.483,1.416 1.424,1.424 .496-2.827-1.24-7.886 1.424-8.543 4.124,1.713-.896,9.056-2.135,12.103 2.816,4.304 10.416,3.823 14.95,6.408-2.112,9.041-6.224,16.083-10.679,22.782h-2.848c-.647,1.859 3.857,4.666 6.407,5.695 8.475-15.731 10.705-37.706 12.103-60.515-2.932-2.525-8.679-2.237-12.814-3.559-.951,2.824-2.025,7.465-1.424,8.543 1.989,3.565 5.154,1.001 7.119,4.984-2.267,1.747-5.543-.255-7.119-1.424-1.021.878-1.349,2.448-1.424,4.271-1.592-.307-.288-3.508-.712-4.983-4.423-5.82-9.896-14.257-8.543-23.494 3.667-.479 1.089,2.682 1.424,4.272 1.079,5.124 3.715,11.879 7.119,14.95 2.581-.504.981-5.188 1.424-7.831 4.181-4.163 11.023-.123 16.374.712-.516,2.177 1.229,2.094.713,4.271 5.079.141 9.213,1.229 12.814,2.848 1.688,4.401-1.758,8.34-4.272,15.663-2.155,6.28-2.594,10.231-4.271,17.798-3.495,15.772-1.533,37.436-1.424,57.667 2.802,1.141.248-3.074 2.137-2.847 .234-10.426-2.012-25.182 0-37.021 2.769,1.886 1.226,7.021 1.424,11.391 .462,10.169 1.351,19.366 0,29.189h-2.848c1.172,3.864 1.146,12.824-3.56,10.68 .499,1.768 2.175,7.473-1.424,7.118-.298-14.421-.311-32.965-2.137-44.851-2.469-.571-2.736,1.06-4.983.712 1.398,17.683 1.7,29.51 1.424,48.411 3.756-3.119 2.136-9.694 2.136-14.95 0-9.835-.44-20.322-.712-29.901 2.89,6.157 1.102,14.227 1.425,21.358 .401,8.898 1.718,18.019.711,26.341-2.009-.363-3.023-1.723-4.983-2.135-.981-14.562 1.444-32.375-.712-44.853-.215-1.241-.02-3.182-2.136-3.559-3.498,2.844-.351,7.565 0,11.39 .67,7.323.433,15.701.713,23.494-1.985-2.996-1.859-8.443-2.137-12.814-.428-6.773.338-14.528-2.136-20.646-2.603.958-6.066,1.053-8.543,2.136-1.707-.282.395,3.243-2.136,2.136 .165-11.319-2.464-19.843-6.408-27.054 3.354,12.451 5.386,37.304 6.408,59.802 .47,10.355 2.191,20.585 0,28.478-1.634-2.732-.712-7.791-.712-13.527 0-25.401-2.002-55.167-7.12-74.041-1.708,1.946-.296,4.979 0,7.12 2.984,21.503 3.888,47.555 4.271,76.888 .761,3.701 3.144,4.229 0,7.12-3.265-1.345-1.365-4.34-1.424-6.407-.364-12.951.319-27.159-.711-41.292-.932-12.749-2.018-27.181-4.272-42.004-2.176.909-3.558,2.613-6.407,2.848-.18,2.553 2.139,2.608 2.136,4.983-1.102,1.383-5.19,3.002-2.848,7.832-1.451-.397-1.396-2.142-2.847-.712 1.051,14.04 2.377,30.688 2.135,40.581-1.124-1.487-1.476-3.745-1.424-6.408-2.056,1.741-1.28,6.313-1.424,9.967-1.803-1.078-.582-4.938-.711-7.831-.369-8.225-1.539-19.336-.713-23.494 .967.22.591,1.782.713,2.847 1.932-4.041.793-7.75.711-12.814-1.636.974-3.133,2.087-4.983,2.847-.61,3.3 1.121.747 1.424,2.136-1.265,18.585-1.735,30.49-2.136,46.276 2.66-5.564 1.123-11.176 2.136-17.799 2.284,6.056 1.571,16.691-2.136,23.493 1.528,20.296 1.038,38.871 0,59.803-2.105-1.028-.614-1.59-1.424-4.271-2.137,1.588-.035,3.289-1.424,4.983-1.614-3.965.225-9.504 0-12.814 .773.175.483,1.416 1.424,1.424-.1-14.686.146-31.646 0-44.14-.287-2.877-4.562,6.955-2.849,1.424-1.341,4.329-.043,6.982.713,12.814-2.731-.315-1.225-3.761-1.424-4.982-.972-5.946-2.571-12.714-2.848-20.646-1.025-.797-1.737-.768-2.136.712-1.21-.8 1.313-3.859 2.848-4.272v3.561c2.867-.791-.29-3.919.712-7.12 2.087,2.897 1.11,8.857 2.135,12.815 2.207-4.125-.78-9.172 0-14.238 2.393,1.643 2.266,5.802 2.137,9.966 .483-7.06 2.241-18.17.712-22.781-1.623.987-.266,4.956-.712,7.119-.981,2.267-.704-2.516-.712-3.559-5.513,2.555-5.605,10.532-9.967,14.237-1.752-1.396-3.943,1.328-5.696,2.136 .639,1.393.929-.928 1.425,1.425 1.442,6.84-.635,16.802 2.135,23.494-4.071,5.907-1.438,13.898-1.424,21.357 .015,7.405-.802,14.859 0,22.069 2.826-2.632.821-10.094 1.424-14.949 .981-2.268.706,2.515.713,3.559 2.214-.159 1.202-3.543 1.424-5.695 2.551,3.77.115,11.697-1.424,16.374 12.824.585 44.484,5.491 29.188,18.511 .75,4.263 3.406,10.385 0,12.813-1.436,1.447-2.408-1.203-2.848-2.847-1.888-.227.667,3.989-2.136,2.847-.304-3.255-1.083-6.036-.712-9.966-4.275,1.043-9.899,3.397-14.238,2.135-1.368,5.307 2.753,12.752-1.424,14.24-2.991-.806-.559-7.035-2.136-9.256-3.393,1.461 1.354,7.864-2.848,9.256-3.45-2.838.081-8.828-.713-13.527-2.463-.19-7.229-.942-12.103-.713-2.164,1.159 1.247,7.893-2.848,7.12 .681-2.899 1.546-7.5-1.423-8.542-1.943-.065-1.434,1.185-2.848,0-1.383,2.694.099,3.853-.713,7.118-2.403-1.254.02-3.648-.712-7.118-1.062-2.838-3.196-.898-4.983-2.137-1.242,4.217-.885,10.031-2.136,14.238-3.352.108-3.568-3.707-5.695-2.849-.844-2.109.465-4.833 0-8.542-3.227-2.092-1.665,1.852-4.272,2.136 1.346-3.75 2.492-10.821 0-14.239 .936.251 1.12,1.254 2.137,1.425 .76-3.769 3.758-10.279 1.424-14.239 3.218-3.717 2.379-10.198 1.424-17.798-1.662,4.168-2.066.229-2.848-2.136-2.432,5.4-.618,15.043-2.848,20.646-1.868-4.718 1.166-10.351.711-14.24-2.208-.072-2.03,2.24-4.983,1.426 .516,2.175-.727,2.593-.711,4.271-1.009-2.461.302-5.091-.713-9.255-.724.462-.735,1.637-2.135,1.424v-4.271c1.642-1.412.791.178 2.135.712 3.113-4.737-1.369-9.861 0-17.087-3.225-1.09.378,4.649-2.848,3.561-.224-3.812-.476-7.593-1.424-10.679-1.513-2.095-2.651-.148-4.271-2.137-1.021,1.539.618,5.178.711,7.832-2.848-1.424-1.177-7.367-3.559-9.257-1.545-.118-.323,2.526-.713,3.562-.577-4.171-5.343-4.15-4.983-9.256-1.926,1.871-1.875,5.719-4.983,6.407-.281,3.366.229,5.941.712,8.544-3.078-.245-.362-6.282-2.136-7.832-1.419,2.482.195,9.535.712,14.238 1.572-.089.303-3.02.712-4.271 1.338-2.196.087,4.118 1.423,4.271 2.097-4.014-.992-8.959 0-14.238 2.941,4.196.875,12.978.713,18.511 1.025-.796 1.737-.768 2.137.711 1.156-4.728-.137-13.144-.713-18.51 1.983,2.939 1.925,7.064 2.136,10.679 .693,11.875.275,25.267 2.136,39.156 .168,1.252-.391,2.409 1.424,2.849-1.769,2.944-.565,15.145-.712,23.493-.028,1.658 2.059,5.877-1.424,5.696 .377-16.296-.178-31.312-.712-46.276-.15-4.214-.247-8.883-2.135-12.814-2.325,1.154-.115,3.617 0,5.695 .094,1.719-.838,3.834-.713,5.694 .085,1.261 1.257,2.438 1.424,3.562 1.252,8.378.775,18.348.712,28.478-.019,2.997 1.264,7.146-1.423,9.254-.83-4.408 2.198-8.69 0-12.103-2.684,3.013 2.045,13.438-2.85,14.238 2.617-12.019.424-23.85-1.423-38.444-.299-1.6-3.778-.02-4.271-1.423-2.575,7.328 1.721,13.934 1.424,21.357-1.261-2.062-1.194-5.451-2.137-7.831-1.592.306-.288,3.508-.711,4.983-4.438-8.651-.908,9.717-6.407,7.831 1.029,4.312 1.26,12.812 0,17.086-5.787-.146-2.84-9.026-3.561-14.238-2.566,1.791.24,6.896-.711,11.39-3.642-1.104.355-9.848-2.136-12.101-4.103.812 2.402,9.428-2.136,10.679-.461-3.337.931-8.526-.712-10.679-3.986.74.273,5.808-2.136,8.542-3.08-1.073.327-4.462-.712-7.831-1.959-1.126-4.939-1.23-7.119-2.137-.183,4.733 1.874,8.901-.712,12.104-2.361-.251-1.117-4.104-1.424-6.409-1.896,1.189.395,6.566-1.424,7.831-2.159.023-.689-3.58-2.848-3.559-9.882.893-26.535,1.95-41.292,1.424-1.729-.062-5.654,1.267-6.407-1.424 15.916-.573 32.302-.294 49.123-1.424-20.333-1.411-40.697-.562-58.379,0 3.451-3.947 11.126-1.934 17.799-2.136 14.746-.444 24.104-.669 39.869,0 2.049-4.438-.306-10.6-.713-14.95-11.119-3.812-33.177-1.616-46.987-2.136-2.531,1.106-.43-2.419-2.136-2.137-5.676.74-15.105,1.498-20.646,0-6.355,4.086-4.94,15.943-4.983,26.341-4.559-1.227 1.541-13.391-2.848-16.373-3.144,1.127-.604,7.938-1.424,11.391-2.332-1.745-.271-3.482-1.424-6.407-2.008,3.927.137,9.816 0,14.238-2.141.718-1.262-1.586-1.423-2.849-1.315,1.534-2.082,3.614-5.696,2.849v-14.949c-.966.22-.59,1.781-.712,2.848-.945-1.192-2.754-1.519-2.136-4.273-2.333,1.158-2.722-.16-5.695,0 .228,5.117-2.026,3.854-2.136,9.257-1.211.261-1.343-.557-1.424-1.425-.94,4.519-2.928,7.988-6.407,9.967-2.607-1.398-1.045-2.331-4.272-.711-.977-11.369 2.481-20.221-1.424-25.63 1.965-10.778.041-27.988.712-42.005-.224-2.623-4.021-1.674-5.696-2.848-.797-3.689-3.369-7.86-1.423-12.103 4.032-4.651 15.474-1.889 21.358-2.847 1.851-16.693.005-34.225-2.136-49.125 4.466,8.676 2.5,19.381 4.271,30.613 .311,1.057.911-.28 2.137,0-.784,2.747.74,5.505.711,7.831-.032,2.566-.162,6.406-2.136,7.832 1.096-2.465.63-6.49.712-9.967-2.637,2.347-1.483,8.483-2.847,12.103 1.951,2.196 5.937,2.321 9.967.713 3.242-14.396 3.502-38.45 1.424-53.396-1.715-.291-1.548,1.301-3.56.713 2.019,11.521 2.731,26.103 2.136,36.309 .201,1.271-.673,1.46-.712.712v-2.849c-.561-8.438-.584-22.246-2.136-33.46-1.181-1.192-4.18-.567-6.407-.712 2.054,12.833 2.883,20.272 2.848,33.46-3.031-10.998-1.593-23.115-4.272-33.46-9.748-.143-23.052,2.565-31.325-.713 1.574-17.523-1.796-26.886-3.56-44.14 2.712.136.437,5.259 2.135,6.408 2.734-11.842-4.036-26.873-4.271-37.732 2.825,1.879 3.021,7.448 3.56,11.391 .741,5.417 1.198,10.771 1.424,17.798 2.576-4.068.98-12.309 1.423-18.51 1.707,4.896 9.955,2.161 14.951,2.136 1.69-3.182-.97-5.441-.712-9.255 4.723-.451-.132,8.674 3.56,9.255 3.14-1.062-.017-4.19.712-7.119 3.051.034 1.898,4.271 2.136,7.119 7.971-.097 14.965-1.171 23.494-.712-2.995,29.641-.549,65.259 1.424,93.264 2.166-14.647 2.125-31.882-1.424-45.564 4.884,6.761 2.927,25.458 4.271,34.173 1.888.227-.666-3.988 2.136-2.848 1.504,9.113.462,19.884-.712,28.477 2.348-.736 1.537-4.633 2.848-6.406 1.64,2.853-1.115,7.408-2.136,9.967 2.002.728 3.033.809 2.848-2.136 1.616.758.271,4.475.712,6.406 2.542,2.356 3.898,1.832 7.831,2.137 1.916-32.055-5.253-61.193-11.391-87.568 4.385,2.497 2.193,11.571 5.695,14.951 2.798,20.723 7.835,45.304 7.832,71.193 1.358,1.777 3.091-.887 4.983.713 3.386-28.681-3.632-64.029-9.967-92.552 2.88,2.121 2.563,7.94 3.56,12.815 3.688,18.031 7.288,38.627 8.543,61.938 .283,5.257-.497,10.768 0,15.662 .275,2.711.028,6.689 2.848,8.543 1.935-3.53.34-9.965.708-15.667zm7.119-.711c-.079-6.566-.323-12.966-2.135-17.799 .23,6.414.292,12.996 2.135,17.799zm-2.136,2.136c-.079-4.208-.431-11.891-1.424-12.814 .213,5.721-.456,10.135 1.424,12.814zm107.501-113.198c1.481.417 2.302,1.497 3.561,2.136 .61-2.271-1.121-2.202-1.424-3.559-2.47-.571-2.736,1.06-4.984.711-.745,6.441 3.065,8.326 4.984,12.103h4.983c-1.82,1.905.43,3.754 0,6.408 3.232,1.039 7.131,1.412 6.407,6.407h9.967c-1.479-3.812 1.252-5.142 0-7.832-3.758.515-4.361,4.182-7.832,4.983 1.042-2.043.965-5.206 2.849-6.407 2.117-.73 5.691-.004 6.408-2.136-.556-.157-.829-.596-.713-1.424-1.781-1.793-2.795.817-4.983.712 1.013-1.598.529-4.691 2.848-4.983 2.003,1.83 4.325,1.443 6.407.712-1.667-3.079-3.229-6.264-5.695-8.543-.614,2.945-1.69,5.428-4.271,6.408 .306-1.356 1.534-1.789 1.424-3.56-1.819-.317-3.272-.998-4.272-2.136 .561-2.763 4.627-2.018 6.408-3.559-2.913-1.704-4.169,1.858-6.408,0 1.072-2.014 3.691-2.481 6.408-2.848 .259-2.818-2.305-5.17-.712-7.12-3.896-.098-7.091.504-9.967,1.425 1.496,7.903-3.732,9.083-2.848,16.374h-3.561c-1.805,1.739 1.502,1.517.713,4.271-2.891.28-4.961-.26-4.983-2.848 .897-.132 2.14-3.119.711-1.424-2.353,2.826-4.354-3.925-1.425-4.271zm107.502-4.984c1.091,1.282 2.611,2.135 4.272,2.848-3.78,8.085-6.139,17.592-7.12,28.477 3.025-1.118 2.895-5.429 3.561-7.831 3.012-10.876 6.271-19.221 10.678-27.054-4.179-.329-7.086-1.931-11.391-2.136v5.696zm-77.6,14.239c-.605,1.056-1.792,1.531-3.559,1.424-.661,5.647 1.234,11.729-2.849,15.663-3.532.898-8.666-1.671-9.256.712 2.228,1.976 3.532.642 7.12.712-.04,3.125 2.355,3.814 2.848,6.407-6.356,8.413 1.519,17.513 9.968,20.646 3.162-11.172.771-31.711.711-44.852-.011-2.352 1.095-3.62.713-5.696-2.305-.571-7.919-1.538-8.544-1.424 1.144,1.944 3.118,3.052 2.848,6.408zm-61.938-6.407c-3.808.464-9.479-.935-12.103.712 3.808-.464 9.478.934 12.103-.712zm140.251,24.206c3.854-4.047 3.303-12.402 4.983-18.51 .62-2.259 3.342-3.539 1.424-5.696-2.389,7.344-6.819,16.433-6.407,24.206zm-199.341-20.646c2.848,19.721-.675,43.532 1.424,65.498 .329-4.517 5.431.108 7.831-1.424 7.511-9.813 19.429-15.218 27.766-24.206 .115-14.953-.908-21.737-.712-37.732 .287-1.374 3.261-.062 2.136-2.848-13.813.365-24.364-.373-38.445.712zm39.868,38.443c9.908-5.517 18.096-12.753 30.612-15.662 2.208-5.149 7.311-7.404 8.544-13.527-1.629-.744-4.294-.452-5.694-1.424 .671-4.707-2.32-5.75-3.561-8.543-10.893-1.387-20.604.748-29.901-.712-.401,14.377 1.632,23.685 0,39.868zm-110.35,9.256c1.063,5.673.261,4.745.712,10.679 4.152.501-.375-3.548 2.136-4.984 1.186.95.238,4.034 1.424,4.984h5.695c.121-1.065-.254-2.627.712-2.848-.308,3.661 1.504,1.877 2.848,2.848 .584-13.097 1.138-31.687.712-49.124-.052-2.144 1.266-5.884-1.424-7.119-2.134,12.816.71,30.611-1.424,43.428 .009-15.574.053-32.462-.712-43.428-10.208.217-22.805-.792-33.461.711 .212,14.406-.149,33.884 0,50.547v3.56c-.16,1.21.803,1.761.712,0 .447-2.164-.912-6.132.712-7.119-.012,3.096-.235,6.405.712,8.543 2.747,1.117 8.103,1.151 9.255-1.424-1.977-3.812.375-8.274-2.136-10.679-1.017,4.126 1.991,7.944 0,10.679-.602-2.957-.166-6.953-2.135-8.543-1,2.947 2.03,5.499 0,7.119-.908-6.375-3.133-11.054-1.424-17.087 1.642,2.023-1.339,6.563 2.135,7.832-.008-4.024-1.54-10.827-.711-14.951 2.312.537-1.264,6.959 2.135,6.408 .449-10.81-.811-15.713-.712-25.629 2.652-2.237 15.186-1.648 18.511-.712 .432,6.009.021,8.487 0,14.951 .17,1.334 1.172-.404 1.424.712 .008,6.28.309,8.437 0,14.238-.714.002-.848-.577-1.424-.712 1.78,1.604 2.884,5.101 1.424,8.543v-4.272c-3.729.921-1.456,5.694-5.696,2.849zm63.362-14.239c.338-7.488 1.025-19.522.712-29.901h-2.136c.15,10.293-.632,21.516 1.424,29.901zm88.992-22.782c6.06.416 13.773,3.439 14.238-3.56-2.187-.186-3.201-1.544-4.983-2.136-1.001,3.984-5.675,4.293-9.255,5.696zm69.769,14.951c3.118,7.701 11.614,1.861 14.951-2.136 1.504-1.106 4.408-.812 3.559-4.271-3.699.012-8.324,3.711-10.679.712 2.203-3.646 2.693-7.06 6.407-9.255 2.391-1.413 5.486-.459 7.832-2.848-15.601-2.311-17.094,9.484-22.07,17.798zm22.07-14.951c-.02,2.855-4.656,4.8-2.848,7.12 2.07-1.675 7.497-1.411 7.831,2.136-2.191.53-1.368-1.954-3.561-1.424-.813,2.638-.068,4.127-.711,5.695-1.951-2.655-4.536.034-7.12.712 1.986,3.71 6.992,4.399 10.679,6.407 5.038-4.929 9.807-10.127 12.104-17.798-5.182-1.453-9.854-4.799-16.374-2.848zm-256.295,2.848c.466,4.28-.938,10.43.712,13.527 .666-3.146 6.938-11.763 8.543-4.984-1.468.431-4.946-1.149-4.271,1.424 1.479,1.606 3.321,2.849 6.407,2.848 1.741-1.983-1.733-4.231 0-5.696 1.725.648 1.885,2.861 2.136,4.984-2.792,2.948-4.732,4.708-4.272,8.543 2.883,1.863 5.084,4.409 5.696,8.543 1.677-6.402-.317-18.263 0-29.189-.15-.799-.791-1.109-1.424-1.424-2.999,2.548-9.22.622-13.527,1.424zm181.542,17.086c.208-3.768-1.842-5.277-1.424-9.255 1.183-1.192 4.181-.567 6.408-.712-.04-2.333-2.025-2.722-1.424-5.696-7.17-1.373-14.987-2.099-22.781-2.847 5.826,6.75 13.291,11.863 19.221,18.51zm-17.797-7.831c-.803-2.046-3.106-2.589-2.137-6.408 .841.103 1.614,1.268 2.137,0-4.671-3.644-6.827,5.425-9.968,7.832-25.708,10.363-45.777,26.365-63.362,44.852 .465,4.044-.936,9.954.712,12.814 1.075-3.714 1.019-2.009 3.56-.711 2.602-4.281 4.255-9.509 11.391-9.256-1.087-3.615 2.81-4.38 0-5.696 2.499-.824 3.045-3.599 6.408-3.559 .444-6.438 11.324-2.439 17.086-3.56 3.613-3.749 10.876-7.625 11.391-12.103-.079.566-2.354,2.158-2.137.712 1.154-2.644 5.426-2.169 5.696-5.696-5.936.417-11.005-1.609-15.663-4.271 7.396-.513 14.224.901 22.07,0 .958-2.009-3.772-1.785-1.424-2.848 1.475-.423 4.677.88 4.982-.712-3.56-1.186-9.369-.122-11.39-2.848 5.433-3.517 14.185-2.167 19.934-2.136-2.031-1.766-4.317-3.276-6.407-4.983 2.044-.679.465-2.363 1.424-2.848 1.345.079.494,2.354 2.136,2.136 .978-1.623-1.835-2.676 0-2.848 1.291.609 1.964,1.836 3.561,2.137zm73.328,11.391c-.997-3.274-2.1-6.443-5.695-7.119-.158,2.831-.699,5.277-3.56,3.559-.446,3.588-3.476,4.593-4.983,7.12-.75,2.681 3.085,3.242 0,4.271-1.872.211-.561-2.762-2.848-2.136-3.545,3.101-3.815,9.474-10.679,9.255 2.237,2.983 5.046,5.394 7.831,7.831 3.062-4.131 4.495-13.441 11.391-11.391 .111-.838-.123-2.021.712-2.136 1.298,1.55.685,5.011 2.848,5.696-.266-2.376-1.966-7.011-.712-8.543 1.221,1.627.677,5.019 2.137,6.407 .867-4.212-2.589-7.825-.713-10.679 1.176.011.398,1.975 1.424,2.135-.926-5.578 1.167-2.428 1.424-6.407 .725.118.697,4.347 1.423,2.137zm34.174,13.527c2.745-.101 3.288-2.406 6.407-2.136-.938-4.822 1.934-2.247 1.424-.712 1.518-4.566-.043-11.834-.713-14.951 .106,1.768-.367,2.955-1.424,3.56-.397-3.395 1.239-4.69 0-5.696-1.411,7.133-3.839,13.248-5.694,19.935zm-108.215-16.375c-2.721-.155-6.796-2.66-9.255-.712 2.5.375 7.634,1.822 9.255.712zm5.696,4.984c-2.43-2.381-10.348-5.848-13.527-2.848 3.957.078 7.558.51 9.968,2.136-3.03,4.448-10.176.924-12.815,4.983 2.162-.014 5.708-2.305 7.119-.712-.816.234-4.701.855-2.848,1.424 1.268.425 2.956-2.086 3.56,0-.907.991-3.487.31-3.56,2.136 3.082.994 4.715-3.095 5.696,0 .336,1.388-1.916,3.641-2.137,2.136-.072-.798 1.034-1.108 0-1.424-1.085,1.062-4.424-.851-4.271,2.848 2.303.88.543-2.303 2.847-1.424 .037,1.305-3.647,2.411-1.424,3.56 .21-.633 1.926-3.118 2.136-1.424-.145,6.025-3.807,8.533-5.695,12.814 2.437-.153 2.14-2.347 3.56,0 .737-.98 2.822-4.22 3.56-2.847-.002,1.489-3.879,2.676-2.136,3.559 1.865-.982 2.451-3.245 4.984-3.559-.825,1.054-.825,1.794 0,2.847 4.024-.025 6.302-5.542 8.542-4.983-1.252,3.968-5.395,5.047-7.831,7.831-.072-.799 1.035-1.108 0-1.423-.005,2.842-4.33,1.364-5.695,2.847 .433,1.229 3.378-.054 3.561,1.424-2.164.446-6.133-.912-7.12.712 1.215,1.871 5.452.718 7.12,2.136-2.847,2.562-7.387-3.011-9.257-1.424 3.01,1.262 5.242,3.302 9.257,3.56 1.075-1.535 2.253-2.967 4.271-3.56-1.664-1.42-4.012,1.329-5.696-.712 7.248-.346 8.251-6.938 13.527-9.255-.027-2.584.398-5.62-1.424-6.408-.289,1.773-2.761.042-2.137-1.423 .911.039.986.913 2.137.711-1.692-3.799-.097-7.854-3.561-10.679 2.405,3.744-3.99,7.684 0,8.543-1.959,3.262-2.694,7.746-7.831,7.831-.28-1.225 1.058-1.825 0-2.136-.209.632-1.926,3.117-2.136,1.424 1.734-2.813-.794.527-1.424-1.424 3.555-3.565 4.894-9.345 6.407-14.951-.07,2.207.323,3.95 1.424,4.984 .647-1.964.222-5 1.424-6.407 .823,6.764-3.174,12.477-2.848,16.375 2.921-4.436 4.129-10.585 4.273-17.798zm25.629,19.934c2.853,4.614 4.994,9.964 7.831,9.967-3.589-8.276-7.629-16.101-12.815-22.782 4.185-1.371.692-9.021-.711-11.391-1.552,1.534-1.789,4.382-2.848,6.407 1.739,1.109 1.837,3.859 3.559,4.984-3.712,2.474 2.273,8.429 4.984,12.815zm71.905-12.815c-.157.555-.596.828-1.424.712 .102-.841 1.269-1.614 0-2.136-4.07.025-5.909-8.322-11.391-9.255-.522,3.606 2.2,3.969 4.271,4.983-.066,3.814 3.113,3.896 4.984,5.695 1.92,1.845 3.286,7.2 6.407,4.272-3.23-.315-2.088-2.884-2.847-4.271zm-8.544,2.848c-.348-2.247 1.284-2.514.713-4.983-2.305.879-.544-2.304-2.848-1.424 1.053,1.167 1.414,9.533 2.135,6.407zm-255.583-.712c2.526.832 10.697,1.876 12.103-.712-2.939-.146-3.392-2.779-5.695-3.56-.207,3.354-4.218,2.902-6.408,4.272zm144.522.712c-.102.841-1.268,1.614 0,2.136 .985-2.101 3.288-2.883 4.272-4.984h-5.696c-.816,2.24 1.118,1.73 1.424,2.848zm37.021,2.136c3.271-.404 2.045-3.716.712-4.984-.227,1.672-1.125,2.672-.712,4.984zm74.753,2.847c2.644-.441 4.891-1.279 7.119-2.135-2.098-1.937-3.173-4.896-6.408-5.696-.09,3.668-.452,5.967-.711,7.831zm-47.699,11.392c-.82-3.276-1.972-4.248 0-7.12-3.226-4.606-7.707-7.956-12.103-11.391 4.258,6.582 4.119,17.483 12.103,18.511zm-33.461-9.968c2.188-1.377-.601-2.678-.712-4.271-.041-.569 3.501-3.925-.712-3.56 .733,3.851-.803,6.402 1.424,7.831zm-174.424,5.696c3.122-.2.002-6.642 2.136-7.832v7.832c2.228-.145 5.227.48 6.407-.712-.608-5.473 1.266-9.051-2.847-10.679-.158.555-.597.828-1.424.712-1.001,2.947 2.03,5.499 0,7.119-1.249-1.6-.341-5.355-1.424-7.119-1.651.227-2.733-.115-3.56-.712-2.175,1.895-2.26,10.314.712,11.391zm219.987.712c2.593.003.88-3.607 2.847-.712-.578-3.559-.642-4.431 2.137-5.696-1.646-.728-1.474-3.273-1.424-5.695-2.576,2.407-3.396,6.571-5.695,9.255-2.493-.121-2.241,2.504-3.56,3.56 3.253,3.458 5.149,10.288 5.695,15.662 .152,1.5-1.988,3.111.712,3.56 3.085-2.146-2.399-8.616-.712-11.391 .991.907.31,3.487 2.136,3.56 .111-.838-.122-2.021.711-2.136-.037,1.225.55,1.825 1.425,2.136 .121-1.065-.255-2.627.712-2.848-.106,1.768.367,2.954 1.424,3.56 1.13-1.516 2.273-4.534 0-5.696-.409,1.252.861,4.183-.712,4.272-.556-3.241-.414-7.18-3.56-7.831-.681,3.053 1.997,2.749 2.136,4.983-2.794-1.478-3.86-4.683-4.272-8.543zm59.091,26.341c2.012-.208 1.995-2.635 2.135-3.56 1.481-9.83-2.233-24.208-1.424-34.172h-2.135c-1.006,11.247 2.441,24.11 1.424,37.732zm-127.437-27.765c.414-1.959 1.773-2.974 2.137-4.984-1.347-.159-1.57.803-2.848.712 .41,1.252-.86,4.183.711,4.272zm-19.933,4.272c3.038-.76 3.576-4.019 7.12-4.272-.625,2.223-3.357,2.337-4.272,4.272 2.604.468 2.731-1.541 4.983-1.425-1.121-3.883 2.649-5.003 2.137-7.119-3.053,2.653-9.122,6.056-9.968,8.544zm54.107,2.135c-1.141-2.801 3.075-.248 2.848-2.135-1.332-2.213 1.03-6.743-.711-8.544-.398,1.739-2.756,1.517-2.137,4.272 1.225.281 1.825-1.057 2.137,0v2.136c-2.621-.903-3.497,3.548-2.137,4.271zm-8.544-7.119c3.915,1.325-2.787,4.668 2.137,4.984-.751-3.797 2.095-6.802-1.424-7.832 .159,1.346-.802,1.571-.713,2.848zm34.884,7.119c.064-3.149-1.031-5.138-2.847-6.407 .161,2.925 1.508,4.663 2.847,6.407zm-39.155-1.423c2.633.496 3.145-1.127 2.847-3.56-2.002.133-3.032,1.239-2.847,3.56zm-47.7-2.137c-2.932,2.693-9.455-.561-9.967,3.56-1.044.007-5.826-.269-3.559.712 1.118.068 2.468-.095 2.135,1.424-2.207-.071-3.949.323-4.983,1.424-1.712,5.177-15.797,7.927-14.239,16.375 .122-1.065-.254-2.627.712-2.847 .342,6.302 2.737,10.551 3.56,16.373-.799.072-1.109-1.035-1.424,0 1.305.277 2.41,1.13 3.559,0-2.244-4.908 4.647-2.422 4.984-7.118 .098,1.325.468,2.379 1.424,2.847v-4.983c3.368-1.281 3.112-1.982 5.695-4.271 3.734,6.384-3.943,16.557 2.848,20.646 .495-5.479-.712-9.256-.712-14.238 1.309,1.462 3.976-6.202 1.424-6.408-1.633.74.337,5.083-1.424,5.695-.577-3.972 1.589-6.296 0-9.255 2.638-.447 5.675-.496 6.408-2.848-2.537.786-4.307,2.338-7.832,2.136-.277-1.016-.854-1.201 0-2.136-1.888.011-4.192-.395-4.271,1.424 1.119.068 2.469-.096 2.136,1.424-1.761,4.119-7.814,10.105-12.815,6.407 3.004-2.936 9.405-6.246 9.255-9.967-3.671,1.787-4.449,6.469-8.543,7.831 3.038-4.803 4.73-12.659 11.39-15.662 1.93,3.963-1.823,4.987-.712,7.119 6.333-1.736 12.917-3.221 17.087-7.119-.869-.081-1.686-.213-1.424-1.424-2.461.625-4.932,1.239-6.407,2.848 1.583.314 3.86-2.199 4.271-.712-2.717,2.315-9.503,4.405-10.679-.712 5.411-1.005 13.345-3.259 12.103-8.545zm3.56,2.137c-1.934.438-3.334,1.412-4.272,2.847 2.453,1.761 7.705-2.216 6.408-1.424-1.954.105-3.671.133-2.136-1.423zm61.226,6.407c3.474.476 2.903-3.026 1.424-4.272-.633,1.266-1.987,1.81-1.424,4.272zm25.63,7.119c.178-4.464-.243-12.078-3.561-10.679 1.623,3.124.52,8.974 3.561,10.679zm-134.556,25.63c-.929,9.02-.13,18.15-2.136,24.205 12.695,1.963 27.908,7.081 42.004,9.968 .071-2.208-.871-3.402-1.424-4.984-3.512-.426-4.32,1.851-7.831,1.424-4.647-3.896-7.766-9.32-12.103-13.526v-4.271c-11.347-8.651-14.503-30.433-13.527-46.989-2.47.571-2.737-1.06-4.984-.712-3.149,10.004 1.216,23.094.001,34.885zm59.802-21.358c2.719,10.375 4.008,21.075 2.848,31.325 1.651-4.519 3.179-9.161 4.984-13.526-.762-2.583-2.679-7.733-.712-10.68 1.655,1.431.725,5.445 3.559,5.695 .027-10.471-9.393-15.282-9.255-23.493 3.355,2.956 5.838,13.092 10.681,9.967-5.917-1.916-6.904-8.76-10.681-12.815-6.692,2.533-3.067,7.251-1.424,13.527zm22.07-9.255h5.696c-.015-1.065 2.645-2.912.711-3.56-.791,2.53-4.859,1.785-6.407,3.56zm46.277-2.848c.87,4.027-.252,5.98 2.847,7.119-.231-2.615-.815-4.88-2.135-6.407 .773-.17 1.709-1.173.711-1.424-.158.555-.596.828-1.423.712zm-29.191,2.848c.83.12.774,1.125.713,2.135h3.56c-.22-1.664-1.394-2.941 0-4.271-1.776.36-2.926,1.346-4.273,2.136zm-4.271-.712c-.497,2.633 1.127,3.145 3.561,2.847 .422-2.271-1.337-2.201 0-3.559-2.013-.588-1.845,1.004-3.561.712zm-5.694,1.424v2.847c3.711-.821 1.961,3.311 2.848,3.56 .157-.555.596-.828 1.424-.712 1.016-3.151-2.409-1.863-2.137-4.272 .645-1.253 2.621-1.176 2.849-2.847h-2.849c.621,2.47-1.095,2.442-2.135,1.424zm14.949,2.847c2.088-.048 2.645-1.627 3.561-2.847-1.414-.009-.905-1.943-2.848-1.424 .092,1.755.107,3.43-.713,4.271zm-49.123-2.847c-4.977,2.378-7.647,7.065-10.679,11.392 .672,9.158 5.293,20.818 1.424,29.899 3.718,5.301 3.433,14.604 9.254,17.799 9.902-17.47 7.051-41.601.001-59.09zm14.238,2.135c-.007.941-1.247.651-1.423,1.424 3.453,2.243 6.034,5.358 9.967,7.12 .976-2.244-4.674-1.385-2.136-2.848 2.121.079 4.754,3.731 5.696.712-1.819-.317-3.273-.999-4.272-2.136 2.294.316 3.857,1.364 6.407,1.424-1.134-2.88-6.067-1.68-4.982-4.984-3.999.89-6.081-3.854-8.544-2.135 1.641,1.445 3.615,2.555 4.983,4.271-3.089.214-4.417-5.039-6.407-3.56 .435.041.843.107.711.712zm17.799-.712c-2.137-3.367-10.558.168-12.814-.711 4.459,2.956 6.792.814 12.814.711zm29.19,9.256c.563-2.462-.793-3.005-1.424-4.271 1.979-.394 1.993-2.752 2.848-4.272-1.943.519-1.434-1.415-2.848-1.423-.728.935-.698,2.624-1.425,3.56 3.565.555-2.003,5.999 2.849,6.406zm-12.815-3.56c1.668,1.459 5.257.522 4.271-2.848-2.613-.239-3.653,1.094-4.271,2.848zm5.695.712c-1.156-.213-1.92.961-.712,1.425 .12-.83 1.125-.774 2.136-.713 .159.553.021,1.404.712,1.424 1.388-1.597.383-5.117-2.136-4.983v2.847zm-18.51,2.848c1.766.369 2.535,1.736 3.56,2.848 .505-2.641-1.217-3.056-.712-5.695h-2.137c.16,1.346-.801,1.569-.711,2.847zm-141.675,11.391c-.615-3.455-.746.831-.711.711-.774,2.744-1.77,9.091-2.136,14.239 2.242-.798 1.612-.064 4.271,0 1.627-6.593 2.813-21.106 0-27.054-.188,3.309.25,6.664 0,9.967-.192,2.543-.135,6.823-2.135,7.832-.144-2.117.934-4.444.711-5.695zm123.166-5.696c-.307-3.153 4.148-1.546 4.271-4.271-2.463.745-3.788-3.255-5.696-.711 1.554-.131 2.266.582 2.137,2.135-1.225.281-1.825-1.056-2.137,0 1.933-.51-.51,3.357 1.425,2.847zm34.884-2.135c.409-.434 1.665-3.378 0-3.561-.172,1.835-1.226-.979-2.85,0 .404,1.734.611,3.663 2.85,3.561zm-91.128,7.831c-2.354-2.867-2.208-8.235-4.983-10.679 1.007,3.75 3.084,10.188 4.983,10.679zm88.992-5.696c-.062,1.323-1.277,4.41.711,4.983 1.858-1.938 2.694-4.899 6.408-4.983 .515-2.176-.728-2.595-.712-4.271-3.058-.244-1.927,2.594-1.424,4.271-2.281,1.723-2.51.865-4.983,0zm8.543,5.696c2.941-.225 3.677-8.354 1.425-9.256-1.47,3.991.896,5.403-1.425,9.256zm-16.374-4.272c-.517-2.178 1.228-2.094.711-4.271-4.537-.205-3.507,3.354-.711,4.271zm-73.33,19.934c-4.905-4.541-10.114-17.007-12.103-19.222 1.952,8.019 7.283,16.445 12.103,19.222zm81.161-14.951c.3,1.362.258,3.065 2.137,2.848-.409-5.149 2.06-4.241 4.982-4.983 .121-1.78-1.094-2.229-2.136-2.848-1.376,2.636-2.74,5.006-4.983,4.983zm-66.922,2.848c-.098,1.326-.468,2.381-1.424,2.848-.085-1.183.389-6.447-.712-4.271 .447,2.164-.912,6.132.712,7.119 .276-5.969 2.641,3.767 1.424,3.561-1.175-.012-.398-1.975-1.424-2.136-.38,2.753 1.271,3.476.712,6.406-2.845.953-3.715,3.878-6.407,4.983-3.024.063-4.489,1.682-4.272,4.984 .552.159 1.404.019 1.424.712 10.332-4.009 19.166-16.767 14.238-31.324-.442,4.247-2.581,9.172-2.847,11.391-1.404-.495.175-3.973-1.424-4.273zm64.786-2.136c-.769-7.11-6.261,2.679 0,0zm19.934,29.902c-.929,1.681-4.521.7-4.272,3.559-.269,8.55 1.577,18.005 2.136,26.342 .264,3.94-1.627,10.04 2.848,11.392 3.366-1.795 2.153-7.313 2.137-10.679-.101-19.798.048-45.8-.713-57.667-2.108-1.69-3.527-4.067-6.407-4.984-1.363,12.239-2.797,25.27 4.271,32.037zm-34.173-28.477c1.931.383 1.772.57 4.272,1.424 .146-2.046-.182-3.617-1.425-4.271-.801,1.095-2.044,1.751-2.847,2.847zm22.782,2.136c1.13-1.064 1.041-4.06-1.424-3.561-1.13,1.064-1.041,4.06 1.424,3.561zm-84.008,3.558c-2.608-1.435.368-5.219-2.136-5.694-.608,1.651-1.363-1.058-2.848,0-.598.426-1.361,2.376-2.136,2.848 2.079,4.328 5.498,7.316 7.832,11.39-.944,1.192-1.886,2.386-1.424,4.983 3.296-1.951 8.361-8.018 5.695-11.39 .621,2.281-1.096,2.226-2.136,2.848-.725-2.265-1.379-4.597-4.271-2.848 .281-1.226-1.057-1.825 0-2.137 .799-.072 1.108,1.036 1.424,0zm68.346-2.136h2.848c.035-2.17-.647-3.624-2.137-4.271-1.447.519-2.039,3.011-.711,4.271zm-12.104.713c.98.03 1.563-.336 2.136-.713-.129,1.553.583,2.266 2.137,2.136 .517-2.177-1.229-2.094-.713-4.271-2.322-.187-2.056,2.215-3.56,2.848zm22.07,2.135c-.128-2.729.583-.258 2.137-.712-.246-1.652-.461-3.336-2.848-2.847-.97.908-1.1,3.488.711,3.559zm-16.373.712c1.651.228 2.732-.114 3.56-.712-.098-1.326-.469-2.378-1.425-2.848-.639,1.259-1.718,2.079-2.135,3.56zm-9.255,3.561c.564-1.571 3.346-.926 3.559-2.848-1.372-.29-.562-2.761-2.848-2.137 .223,3.819-2.474,2.456-.711,4.985zm4.983,0c3.995,1.203 4.506-3.287.711-2.848-.224.963-1.014,1.359-.711,2.848zm-6.407,2.135c-.445-1.69-.958-3.314-2.849-3.56-1.12,1.206.074,4.11 2.849,3.56zm28.477,1.423c-.263-2.159 2.318-1.477 3.559-2.135-.162-1.262.717-3.565-1.424-2.848 1.075,3.022-4.876,2.655-2.135,4.983zm-25.63.713c.185-1.001 1.562-.812 2.135-1.424 .121-1.782-1.094-2.229-2.135-2.848-1.001.93-2.559,3.769 0,4.272zm12.815-.713c1.765.106 3.455.133 3.559-1.423-1.344-.079-.493-2.354-2.135-2.136-.304,1.358-2.034,1.289-1.424,3.559zm-28.478-2.135c-.695,2.868 4.255,2.868 3.559,0-1.355-1.335-1.787-.079-3.559,0zm23.495,3.56v2.137c2.038.14 3.885.087 3.56-2.137-.937-.914-2.626-.914-3.56,0zm8.542,4.983h2.849c-.109-1.771 1.118-2.203 1.424-3.56-2.212.4-4.372.85-4.273,3.56zm-133.843,4.272c1.905,1.82 3.754-.43 6.408,0 .125-1.206 3.192-4.953 0-4.983-2.418,1.379-6.129,1.465-6.408,4.983zm142.386-1.424c1.812-.087 2.761-1.036 2.848-2.848-.91-.038-.986-.911-2.135-.712-.403,1.482-2.035,2.302-.713,3.56zm-158.048-.711c4.224-1.14 1.471,4.698 5.695,3.559-.515-2.175.728-2.595.712-4.271-1.628-1.42-5.019-.285-6.407.712zm-26.342,4.27c.723-2.257-.402-4.189 2.848-4.982h-4.272c.122,2.014-.612,4.883 1.424,4.982zm6.407-.711c2.207-.167 2.222-2.524 2.848-4.271-1.035.389-3.68-.832-3.56.713 1.545-.122.323,2.523.712,3.558zm6.408.711c-.413-2.31.485-3.312.711-4.982-3.331-.649-3.693,5.125-.711,4.982zm5.695,0v-4.982c-1.065.121-2.627-.255-2.847.713 1.803,1.22-1.841,5.059 2.847,4.269zm22.07-.711c-.094-1.755-.107-3.431.712-4.271-1.251.41-4.183-.859-4.272.713 1.424.947.093,4.651 3.56,3.558zm125.301,1.423c2.159.263 1.477-2.319 2.135-3.56-2.303.88-.543-2.304-2.848-1.423-.571,2.47 1.061,2.737.713,4.983zm-22.071,10.68c.092-4.616-.357-12.439-1.424-13.527 .715,4.268-1.569,11.536 1.424,13.527zm-6.407,11.391c-2.408-3.973-7.651-3.37-12.103-4.984-1.811-.655-3.026-2.759-4.984-3.559-4.661-1.905-11.741-2.992-17.798-4.272-12.553-2.652-24.665-5.579-36.309-8.542-5.983-1.523-12.95-4.814-17.798-.713 30.305,6.242 60.888,16 88.992,22.07zm-29.902-23.494c-.52,2.428 2.205,7.108 6.408,7.12-2.777-2.984-3.357-5.06-2.848-7.831-.87,2.17-2.717-1.042-3.56.711zm66.211,18.509c2.175-.514 2.595.729 4.271.713 .973-6.239-1.214-11.226 2.136-14.95-3.229-.806-4.278-3.791-7.831-4.272-.495,4.055 1.206,5.913.711,9.968-.961.224-1.359,1.014-2.847.711-.141,2.039-.089,3.886 2.136,3.561 1.976-1.066-1.236-2.912.711-3.561 .851,1.995.783,4.913.713,7.83zm-147.37-17.086c-10.294.439-22.257.558-33.461,1.424 2.959,3.711 9.107,2.208 13.527,2.136 9.837-.158 18.38-.51 26.342-.711 2.797-.072 7.873,2.913 8.543-1.425-3.74-2.218-10.576-1.61-14.951-1.424zm110.348,24.207c-30.582-7.816-62.333-16.301-91.838-24.206-.714-.002-.847.577-1.424.713v2.136c7.584,3.815 16.525,5.538 25.63,7.831 21.64,5.451 45.17,10.906 66.922,16.374 3.795.953 9.651,5.283 11.39,1.424-2.216-3.566-7.327-3.416-10.68-4.272zm2.848-12.815c-6.564.701-10.96-9.163-14.238-9.256-2.322-.064-3.902,2.189-5.696,4.983 1.102,1.035 1.495,2.777 1.424,4.983 3.669,1.553 6.912,3.531 12.103,3.56 2.291,3.168 5.029,5.888 8.544,7.833-.01-4.515-5.888-6.911-5.695-9.257 3.26.301 3.405,3.714 5.695,4.984 4.176-3.896-3.057-4.996-4.271-7.831 1.224-.28 1.823,1.058 2.134.001zm-2.848-8.543c-.118,2.016-1.305,2.966-1.423,4.982 1.937-.729.873-2.159 3.56,0-.82-1.552-.142-4.604-2.137-4.982zm44.141,14.95c3.51-1.407.396-6.63 3.56-9.255-.406-1.967-.754-3.992-3.56-3.561-.225,5.565.535,8.434 0,12.816zm-147.37-9.967c6.927-.673-3.662-.466-4.984-1.424-.432,1.229-3.376-.054-3.559,1.424 3.174-.152 6.402.208 8.543,0zm-17.087,0c-5.74-.26-12.375-.918-17.086,1.424 8.914.259 19.674.43 28.477.713 3.077.098 6.963,2.04 8.543-.713-5.912-.172-12.969-1.109-19.934-1.424zm122.453,27.764c-8.958-3.011-21.209.757-31.326-2.847 8.555-.25 15.349,1.263 24.206.712 3.174-1.025-2.383-.729-2.135-.712-7.686-.516-17.67-.217-21.359-2.136 7.46-.104 14.472.242 20.646,1.424-.311-2.065-3.412-1.88-4.983-2.136-19.529-3.187-44.232-1.216-62.65-2.848 15.92-.801 33.215-.956 46.275-.711 3.404.062 6.758,2.603 9.256-.713-18.072-2.9-37.034.415-51.26,0-2.582-.076-6.562.942-7.831-2.135 12.322,1.231 29.579,1.323 39.157-.713-11.742-2.353-33.043.86-46.988-1.424 3.901-1.558 10.604-.314 15.663-.712 .75-.039.561-.914-.712-.713-6.844-.541-10.162.462-16.374-.711-1.176.011-.399,1.974-1.424,2.136-9.062-1.258-22.18-.488-32.75-.712-2.464-.053-6.551,1.247-7.831-1.424 12.926-1.151 29.76,2.248 38.445-1.424-8.309-.474-18.507.945-25.63-.713 8.57-.971 18.076,1.52 25.63-1.424-15.894-1.103-29.064-.843-43.428-2.847 6.748-2.395 16.267.129 25.629-.713h3.56c1.034-.39 3.679.832 3.56-.711-11.181-.448-22.247-1.011-34.173-.712-1.705,8.549.383,22.448-.712,32.748 20.668.286 41.193-.287 60.515,0 1.705.026 4.303,2.259 5.695-.712-1.345-.315-4.291.968-3.56-1.424 5.425-.148 6.455.626 10.679.713 .455,1.553-2.018,2.265.713,2.135 11.569-1.9 26.242,1.525 40.58-.712-3.208-1.062-8.548.007-11.391-1.423 10.081-.152 19.664,1.677 29.188,0 .426-1.268-2.086-2.956 0-3.561 3.122-.921 6.669,1.816 7.12-.712-2.393-.961-3.766.385-4.983-.711 1.271-.861 4.141-.127 4.983-1.422zm5.695-13.525c.326-2.521 1.583-4.112 1.424-7.12-1.414-.009-.905-1.941-2.848-1.423 1.908,2.964-1.69,7.008 1.424,8.543zm-86.143-5.696c-2.541.07-4.889.331-5.696,2.136 3.008-.788 9.27,1.676 9.967-1.425-2.978-1.761-3.802.15-1.423-2.848-1.252.41-4.183-.859-4.272.712 .868.083 1.685.214 1.424,1.425zm113.197,7.121c.11-.84-.123-2.022.712-2.137 .158.552.02,1.403.711,1.424 1.413-1.346.347-3.364 0-4.983h-3.56c1.614,2.044.524,3.104 2.137,5.696zm22.782,9.253c-.521-4.479-1.265-13.703-1.424-8.543 .304,6.103.736,12.077 1.424,17.799h3.559c-.011-1.889.396-4.192-1.424-4.272-.162,1.262.717,3.565-1.424,2.848 1.195-1.915-.298-4.262-.711-7.832zm-2.136,9.967c1.338-4.35 1.052-12.795-1.424-15.662 .763,4.933-1.639,13.03 1.424,15.662zm13.526-1.424c.15-2.664 2.605-8.424 0-12.103-1.048,2.532-1.281,9.609 0,12.103zm-71.192-7.831c2.207-.242 3.4,1.648 4.982,0 .571-4.813-4.896-2.512-4.982,0zm12.813,2.848c2.507,2.241.576,8.916 2.137,12.103-.22,1.42.113,7.401.713,3.56-.222-8.814-.222-10.407 0-19.222-.911-.039-.986-.912-2.137-.712 .514,2.174-.729,2.593-.713,4.271zm33.462,15.662c1.572-2.207 2.914,1.777 4.272,2.137 .079-.869.213-1.686 1.423-1.424 4.837.97 5.536,4.579 9.967,2.848-.338,3.362.888,1.325 2.136.711 .413,2.312-.484,3.312-.712,4.983 3.082.235.33-5.364 3.56-4.983 .806,2.804-2.146,4.947.713,5.696 .205-2.168-.114-4.859 2.135-4.983 .571,2.469-1.06,2.737-.711,4.983 3.14,1.004.011-4.261 2.135-4.271 1.599-.548.02,5.538 1.425,2.848-.913-3.999 3.548-2.622 6.406-2.848-.409,1.488-1.765,2.032-1.424,4.271 2.958.347 1.116-4.104 3.561-4.271 .59,1.858-2.153,3.906 0,4.984 1.223-.915.014-4.259 2.136-4.273 .675,1.773-2.543,4.296.711,4.273 1.766-.848.015-5.208 2.849-4.984-.502,1.776-.701,2.925.712,4.271 1.229-.432-.055-3.377 1.424-3.561 .658,1.241-.024,3.821 2.136,3.561 .409-1.252-.861-4.183.712-4.271 2.167,1.063-1.524,4.059 1.425,3.559 .408-1.25-.861-4.183.711-4.271 1.229.432-.055,3.377 1.424,3.56 1.57-1.04-.417-5.64 2.136-5.695 .424,1.475-.88,4.677.712,4.984 .487-2.579.863-4.438 2.849-2.137 .389-1.035-.832-3.68.711-3.56 .39,1.034-.832,3.68.713,3.56 .954-2.594.533-4.439 2.848-4.272-1.589-.104.924-1.793 0-3.559-14.13-7.386-42.753-8.712-59.091-2.136 .833,1.886-1.369,4.192-.004,4.27zm-174.424-3.559c3.678-.831 10.755,1.737 12.103-1.423-1.554-2.732-10.816-1.505-13.527-.712 1.279-.093 1.667.707 1.424,2.135zm102.519-2.848c-2.631.455-7.092-.922-8.544.713 1.829,1.096 8.135,3.088 8.544-.713zm10.678,2.848c2.571,1.359 9.624,1.101 10.679-1.423-1.625-2.63-10.665-2.116-10.679,1.423zm-110.349,5.696c4.551.042 9.613.595 9.967-3.561-2.489-.66-7.755.506-11.391-.711-.121,2.021 2.408,1.389 1.424,4.272zm107.502-1.424c1.014,1.938 3.948,1.005 7.831,1.424-.082-4.695-6.371-4.349-7.831-1.424zm11.391,2.848c-3.146-.479-8.938-.784-10.679,1.424 3.732,2.009 6.402,1.044 12.103,1.423 .287-1.374 3.26-.062 2.135-2.847-2.881,1.729-.908.402-3.559,0zm91.127-72.617c.1-2.947-.196-5.499-1.424-7.12 .38,2.467-1.057,6.752 1.424,7.12zm12.103-28.478c-.329-7.149.542-11.64-1.424-16.374-.381,5.477-1.167,12.187 1.424,16.374z" fill-rule="evenodd"/>
 <path d="m276.21 19.222c2.123 4.521 2.346 10.944 2.848 17.087-2.3-4.346-1.872-11.419-2.848-17.087z" fill-rule="evenodd"/>
 <path d="m239.9 21.358c4.213 14.297 7.396 29.624 9.255 46.275-3.326-15.184-6.745-30.275-9.255-46.275z" fill-rule="evenodd"/>
 <path d="m291.161,46.987c2.518,1.721 4.951.118 6.407,3.56-2.133-1.189-5.702-.942-6.407-3.56z" fill-rule="evenodd"/>
 <path d="m2.116,56.955c2.802,2.459 2.876,7.808 3.56,12.103 .694,4.359.71,9.271 1.424,13.527 .601,3.584 1.772,11.612 1.423,17.798-.817-14.924-6.078-29.783-6.407-43.428z" fill-rule="evenodd"/>
 <path d="m57.647 71.193c3.032 2.543 2.097 6.851 2.848 10.679 2.242 11.417 5.94 23.754 6.407 35.597-3.05-1.928-1.61-6.299-2.135-9.967-1.621-11.326-5.44-25.044-7.12-36.309z" fill-rule="evenodd"/>
 <path d="m56.224,76.888c4.443,13.152 3.588,26.498 6.407,39.869 .981,4.654 3.556,7.907 3.56,12.814 .003,5.051-.149,13.954.711,21.358-2.34-1.22-1.125-5.994-1.423-9.255-1.118.306-.608,2.239-2.848,1.424 2.768-7.23 2.367-18.459-.712-24.918-1.252.172-1.623,1.225-1.424,2.848-1.541-.905-.78-5.47 1.424-4.983-1.729-14.999-4.59-25.806-5.695-39.157z" fill-rule="evenodd"/>
 <path d="m268.38,81.16c2.129,7.948 3.078,20.501 2.848,28.477-2.384-1.414-.535-7.059-2.137-9.255-1.643,2.154-.25,7.343-.711,10.679 .209,2.48 1.926-.06 2.135,1.424 1.761,10.258 1.309,22.679 2.136,32.038 .301,1.361.258,3.063 2.137,2.847-2.786,1.486-.304,8.24-2.137,10.679-3.475-12.549-.626-26.924-2.136-40.579-.158-1.435-1.316-2.132-.711-3.56-1.606.53-.278,3.993-.713,5.695-2.429-3.655-1.646-9.802-2.135-14.95-.353-3.697-.551-6.858-.713-12.103-.037-1.201-1.272-4.117.713-4.272-.552,4.348.933,6.662.711,10.679 4.436-2.885.214-12.114.713-17.799z" fill-rule="evenodd"/>
 <path d="m189.36 103.94c1.476-2.558 4.052-4.016 4.271-7.832 5.23 1.923-1.593 7.053-4.271 7.832z" fill-rule="evenodd"/>
 <path d="m18.491,97.534c-2.359-1.912-1.924-6.619-2.136-10.679-.796-1.479-.768-1.508.712-.712 .373,4.041.337,6.868 1.424,11.391z" fill-rule="evenodd"/>
 <path d="m262.684,91.839c2.693.629.26,6.386 2.136,7.832-1.695,1.183-2.137-4.955-2.136-7.832z" fill-rule="evenodd"/>
 <path d="m46.256,108.925c2.404,12.755 3.585,29.264 2.136,45.564 .109-1.222.794,3.877-.712,1.423v-3.559c.88-13.896-1.288-28.448-1.424-43.428z" fill-rule="evenodd"/>
 <path d="m96.804,151.642c4.528,1.743-.122,8.249 2.136,12.103-1.823-.096-1.228-8.725-2.136-12.103z" fill-rule="evenodd"/>
 <path d="m242.75,162.32c-.967.221-.591,1.782-.713,2.848-1.54-1.308-1.499-4.197-1.424-7.12 .82-2.303.806,1.913.713,2.848 1.479-.182.194-3.127 1.424-3.559 1.376,5.031 1.716,11.098 2.136,17.086-1.036,2.285-.479-6.083-2.136-1.424-1.125-1.485-1.476-3.744-1.424-6.407 1.449.687 1.537,2.734 1.424,4.983 2.521-.859.157-6.61 0-9.255z" fill-rule="evenodd"/>
 <path d="m247.021,168.727c.829.854 2.299,7.179 2.136,11.393 1.623-.987.265-4.956.711-7.12 1.905,6.092 2.62,16.613 1.425,23.494-1.358-10.127-3.12-16.686-4.272-27.767z" fill-rule="evenodd"/>
 <path d="m189.355,171.575c3.74,16.17 4.567,34.822 3.56,51.972 3.605-3.278 1.235-7.341 1.424-13.527 3.175,1.571.582,8.911 1.424,12.814-5.361,1.716-.358,9.518-4.272,12.815 1.673-13.691.575-31.748-.711-46.276-.257-2.889 1.017-6.336-1.424-8.542-1.63,1.218-.262,5.434-.713,7.831 .589,1.688-1.003,3.279-.711.711v-4.271c-2.162-4.382-.14-7.603-1.424-11.391 2.806-.196.205,5.015 2.135,5.696 3.582-.826-.2-5.088.712-7.832z" fill-rule="evenodd"/>
 <path d="m192.2 172.29c1.218 1.488 1.798 10.654 2.137 15.662-1.997-5.225-1.565-10.271-2.137-15.662z" fill-rule="evenodd"/>
 <path d="m57.647,198.629c-2.495-1.283-7.718.806-12.102,0 .941-3.977 4.656-1.361 7.119-1.425 8.281-.207 18.584-1.098 26.341-2.135-3.777,4.528-14.993,1.619-21.358,3.56 7.894.84 21.732-.451 32.038-1.425-1.005,2.753-5.965,2.596-9.968,2.849-5.562.353-12.591-.006-17.798,0-2.291.003-5.687,2.157-5.695-.712 .576-.136.709-.714 1.423-.712z" fill-rule="evenodd"/>
 <path d="m197.897,208.597c.796,1.793-.199,8.884-.711,14.237-.423,4.415-.046,9.862-2.848,11.392 2.088-7.644 2.08-17.379 3.559-25.629z" fill-rule="evenodd"/>
 <path d="m91.108,20.646c-1.215,2.896.619,8.857.711,12.814 1.606-.53.278-3.993.712-5.695 1.069.614 1.771,7.705 2.136,11.391-1.056-.604-1.53-1.792-1.424-3.559-2.083,1.815.68,4.773-.712,6.407-2.593-6.663-2.331-16.18-4.271-23.494-1.913,13.879 3.566,31.145 3.559,47.7 2.508-2.364-1.632-6.951.712-9.255 1.703,12.318 1.664,22.132 1.424,32.037 1.586-.728-.931-3.273 0-5.696 1.824.788 1.398,3.823 1.424,6.408 1.573-.089.302-3.02.712-4.271 1.944,1.615 1.335,5.784 1.424,9.255-1.101,2.176-.627-3.088-.712-4.272-3.423,2.071.452,7.061-.712,11.391 .016,3.107-1.227.12-.712-1.424-1.208-2.826-.007-8.062-1.424-10.679-.552,5.307.461,15.195.712,22.07-3.457-22.971-3.131-48.941-6.407-72.617-3.012,13.626.92,24.268 1.424,39.157-1.256-3.254-2.064-6.954-2.136-11.391-2.379,11.711 2.114,26.261.712,37.021-1.544.12-.323-2.525-.712-3.56-2.761,3.031.479,10.92-1.424,13.527-2.154-28.626.439-53.498 0-78.312-.139-7.849-1.296-16.38 1.424-24.206 2.423.425 1.542,4.153 2.136,6.407 1.635-3.134-.093-5.422-.712-9.255 4.926,2.193 2.469,11.769 3.559,17.799-1.056-1.319-1.363-3.385-1.423-5.698z" fill-rule="evenodd"/>
 <path d="m2.116,76.888c1.15-.2 1.226.673 2.136.712 .718,4.815 1.116,11.165 1.424,17.086 .157,3.021 3.088,9.838-2.848,9.967-1.097-6.621-.858-11.215-.712-15.662 1.52-.333 1.356,1.017 1.424,2.136 1.83-4.3-3.408-9.554-1.424-14.239z" fill-rule="evenodd"/>
 <path d="m106.771,207.172c2.705-1.764 7.578-1.026 10.679-.711 7.929.804 15.94,3.062 25.63,1.423-10.335-1.767-21.665-2.54-32.037-4.271 10.04-.492 20.627-.571 29.901,1.422 2.161.466 5.362,2.173 9.967,1.426 2.926-.475 4.185-1.413 8.544-.713 .812.131 3.899-1.088 3.559,1.424-18.547,4.219-35.969,2.67-56.243,0z" fill-rule="evenodd"/>
 <path d="m82.565,220.698h1.424c13.803.788 29.951,1.816 45.563,1.425 2.176-.056 5.651-2.299 7.12.711-4.773-.825-1.963,1.508-4.271,2.848-13.466.29-23.361.539-39.869,0-1.642-.054-5.444,1.289-6.407-1.423h28.477c-6.307-1.846-15.756-.889-23.493-1.425-2.771-.191-6.986-.065-8.544-2.136z" fill-rule="evenodd"/>
</svg>
