<?xml version='1.0' encoding='utf-8'?>
<svg xmlns="http://www.w3.org/2000/svg" version="1.1" width="600px" height="976px" viewBox="0 0 600 976"> <g id="layer1"> <g style="fill:rgb(0,0,0); fill-opacity:1.0; stroke-linejoin: miter"> <path d="M251.4083,358.2309C251.40694,358.23093,251.40556,358.231,251.40417,358.23108C251.21567,358.23108,247.04736,359.40405,242.10406,360.8284C237.1817,362.25275,232.99243,363.46765,232.82489,363.5305C232.55258,363.63522,233.11813,364.2636,235.0452,366.1278L237.62155,368.59946L231.56812,373.81506C228.23767,376.68472,222.41461,381.7118,218.64429,384.9794C214.88272,388.22147,211.69849,390.84485,211.50563,390.84485C211.5041,390.84485,211.50276,390.8447,211.50162,390.84436C211.33405,390.8025,207.16577,387.99567,202.18057,384.6024C197.21631,381.20908,192.73383,378.15094,192.18921,377.8158C191.53902,377.41095,190.78104,377.2001,190.06256,377.2001C189.55432,377.2001,189.06586,377.3056,188.6493,377.52258C188.04187,377.85767,185.08846,380.55975,171.70381,393.02277C168.37337,396.14377,165.52467,398.72015,165.3571,398.783C165.35107,398.78558,165.34294,398.78683,165.33281,398.78683C165.09647,398.78683,163.76428,398.09488,162.27802,397.19107C160.74893,396.24847,159.42932,395.49445,159.34554,395.49445C159.26175,395.49445,159.24081,397.31677,159.26175,399.5161L159.32458,403.55872L161.90097,405.10873C163.87086,406.30475,164.99954,406.82022,165.92827,406.82022C166.38208,406.82022,166.78816,406.69714,167.22131,406.47025C167.64024,406.23987,170.55176,403.6844,173.6937,400.75195C176.85658,397.81946,181.86273,393.14844,184.85803,390.38354C187.81874,387.61047,190.40588,385.3563,190.61551,385.3563C190.61647,385.3563,190.61739,385.35635,190.61826,385.35645C190.9115,385.35645,193.63449,387.17877,206.28601,395.87146C208.15024,397.14917,209.9516,398.34314,210.30771,398.51068C210.74324,398.7379,211.30289,398.8496,211.86668,398.8496C212.5502,398.8496,213.23985,398.68546,213.72192,398.36407C214.1199,398.09174,217.63889,395.09644,221.55582,391.72412C225.45181,388.3308,230.35324,384.09967,232.42691,382.31924C234.50058,380.51788,237.64252,377.79486,239.42294,376.2658L242.64865,373.45898L244.70139,375.51172C245.7943,376.60464,246.73076,377.4629,246.84944,377.4629C246.85359,377.4629,246.85674,377.46185,246.85886,377.45972C246.90076,377.41785,248.03186,373.06104,249.35144,367.78256C251.32608,359.92563,251.6919,358.23587,251.41081,358.2309 Z M171.49435,406.177C171.4315,406.177,170.90785,406.63782,170.27946,407.20337C168.89702,408.46014,167.68213,409.08853,166.34158,409.2561C166.13959,409.27988,165.94138,409.29227,165.74374,409.29227C164.54774,409.29227,163.37247,408.83856,161.50299,407.7061C160.47664,407.09863,159.555,406.59595,159.42932,406.59595C159.2827,406.59595,159.21986,411.7068,159.21986,422.3056L159.21986,438.0153L171.57813,438.0153L171.57813,422.09613C171.57813,413.34064,171.53624,406.177,171.49435,406.177 Z M218.45578,397.58905C218.41388,397.58905,217.70169,398.21744,216.86386,398.95056C214.89493,400.71002,213.9314,401.19183,212.19287,401.31747C211.91273,401.33713,211.67757,401.34872,211.46843,401.34872C210.78624,401.34872,210.38107,401.2254,209.59552,400.85666C208.9462,400.56342,207.94077,399.97693,207.39618,399.57892C206.85156,399.18097,206.34888,398.84583,206.26508,398.84583C206.20224,398.84583,206.1394,407.66418,206.1394,418.43054L206.1394,438.0153L218.49768,438.0153L218.49768,417.8022C218.49768,406.6797,218.47672,397.58905,218.45578,397.58905 Z M190.74393,388.22607L187.76956,390.97003L184.7952,393.714L184.77426,415.97986L184.77426,438.22473L190.9115,438.18286L197.0278,438.12L197.0278,415.30957L197.0278,392.47815L193.88586,390.34167L190.74393,388.22607 Z M240.65878,378.3185C240.61688,378.33948,239.56958,379.24017,238.29187,380.3503C237.0351,381.4395,234.27017,383.84833,232.17554,385.67065L228.3424,389.0011L228.3424,413.6129L228.3424,438.22473L240.70068,438.22473L240.70068,408.2716C240.70068,391.78693,240.67972,378.3185,240.65878,378.3185 Z M345.22156,388.69452C343.8952,388.69452,342.43005,388.83185,340.94006,389.11C338.60492,389.53894,336.93695,390.15845,335.7932,391.01624C333.71878,392.61926,332.11075,395.06174,332.81485,395.57526L332.81152,395.57526C332.59573,395.8854,332.39368,396.2173,332.1937,396.58508C331.32245,398.18488,330.90103,400.4345,331.2666,401.49683C331.46277,402.05804,331.50565,401.97107,329.8825,404.3529C328.54138,406.33093,328.138,407.05737,328.05673,407.63788C327.99268,408.0218,328.01904,408.11194,328.23813,408.33734C328.52435,408.61536,329.25436,408.92963,329.66925,408.9453C329.72607,408.94736,329.79715,408.95743,329.87146,408.9721L329.86813,408.9721C330.08115,409.17365,330.26132,409.40274,330.4087,409.6579L330.4054,409.6579C330.40085,409.69095,330.3958,409.7262,330.3904,409.76385C330.34875,410.07892,330.24432,410.48083,330.14877,410.65515C329.86215,411.17944,329.91064,411.4677,330.34158,411.84015L330.73465,412.17157L330.46133,412.60638C330.1982,413.01172,330.18732,413.05176,330.32675,413.28406C330.41086,413.41528,330.52527,413.52814,330.57468,413.53064C330.6241,413.5324,330.77536,413.71637,330.91513,413.93884C331.18582,414.3753,331.18335,414.4442,330.86697,416.00543C330.7079,416.82013,330.70752,416.82983,330.9372,417.28363C331.34705,418.08472,332.20505,418.57092,333.24725,418.60852C333.29083,418.6101,333.33475,418.6109,333.37894,418.61096C333.49002,418.61096,333.6029,418.6059,333.71722,418.59558C334.08478,418.56073,335.09677,418.49,335.94992,418.42316C336.15475,418.40744,336.3329,418.39404,336.48825,418.38303L336.49164,418.38303C336.51358,418.39462,336.53497,418.40646,336.55573,418.41858C337.69946,419.0381,338.93854,421.5639,338.93854,423.37488C338.93854,423.62415,338.96097,423.8439,339.008,424.0338L339.0046,424.0338Q337.94165,425.56448,336.97595,427.0086L336.97256,427.0086C334.0503,427.92535,327.99747,430.13293,327.73932,430.42798C327.64398,430.52332,326.4049,433.0014,324.92758,435.95605C323.1643,439.48267,322.3065,441.6748,322.49713,442.29437C322.7354,442.96155,322.1635,443.96234,320.49554,445.96387C317.95157,448.96658,316.466,451.02042,316.1346,451.96567L316.1346,451.96567Q304.96628,445.78873,298.63165,442.0812L298.6287,442.0812C297.17984,441.05557,296.10138,440.34045,296.00027,440.34045C295.94406,440.34045,295.8763,440.36136,295.79843,440.40103L295.79843,440.40103Q294.38736,439.5508,293.34042,438.8866L293.3375,438.8866C292.0007,437.19397,289.37848,434.542,288.47058,434.1928C287.8034,433.90686,285.9448,433.4303,284.4198,433.19202C281.84637,432.76312,281.32214,432.47717,278.2245,429.52246C270.1553,421.86084,266.75607,418.66003,262.27493,414.46625L262.2723,414.46625L249.03418,401.08008Q248.7837,400.83383,248.4773,400.83383Q248.34116,400.83383,248.19398,400.88245L248.15048,400.90045Q247.41385,401.31097,247.90067,402.12817L281.59622,436.17392L281.5934,436.17392C281.42676,436.9367,282.06277,438.56473,283.3237,440.4358C284.2153,441.73267,287.24365,443.85663,288.8918,444.4631L288.88892,444.4631Q288.81546,444.68015,288.73907,444.90332L288.73828,444.9234Q288.59518,445.81122,290.79117,447.0769L290.78824,447.0769C290.50198,447.6522,290.3292,448.11942,290.3292,448.3944C290.3292,449.58582,306.15103,460.83264,311.5362,463.5014C313.2016,464.3008,314.3807,464.71738,315.49295,464.71738C316.76776,464.71738,317.95474,464.17014,319.6854,463.02484C321.07407,462.0841,322.25226,461.39603,322.4678,461.39603C322.48157,461.39603,322.49142,461.39883,322.49713,461.40454C322.5924,461.49988,322.02057,465.503,321.30573,470.3639C319.06586,485.28033,317.63617,499.4342,318.39868,499.4342C318.54163,499.4342,319.11353,499.10065,319.5901,498.71936C320.11432,498.33813,321.01978,498.00452,321.63928,498.00452L322.7354,498.00452L322.7354,509.77563C322.78305,516.3045,322.9737,523.0717,323.21198,524.9303C323.4979,526.7413,324.11743,532.03107,324.64166,536.6061C325.2135,541.1811,325.976,546.185,326.35727,547.66235C327.35803,551.71313,327.35803,578.16235,326.30963,579.6397C325.92834,580.21155,325.5948,581.117,325.5948,581.64124C325.5948,582.3084,324.54633,583.4998,322.5924,585.0725C319.19073,587.77924,318.25955,588.46466,315.96344,588.46466C315.26797,588.46466,314.44727,588.40173,313.39478,588.3131C312.19525,588.211,311.21442,588.1568,310.42114,588.1568C308.25198,588.1568,307.48544,588.5624,307.48544,589.5046C307.48544,590.88654,310.29715,592.7452,313.72836,593.60297C315.42697,594.03595,316.89282,594.2362,319.45987,594.2362C320.5659,594.2362,321.87634,594.19904,323.4979,594.12726C325.11832,594.0637,326.4263,594.0319,327.46417,594.0319C329.5397,594.0319,330.53516,594.159,330.7893,594.41315C331.1893,594.8131,332.81207,595.00586,334.53174,595.00586C336.4999,595.00586,338.59503,594.7534,339.12915,594.2702C339.844,593.6983,339.9393,593.1264,339.65338,590.2194C339.51038,588.40845,339.31976,585.64435,339.2721,584.1194C339.17682,582.0225,338.98618,581.21234,338.31897,580.8787C337.5565,580.40216,337.5565,580.3069,338.6526,579.02014C339.9393,577.4475,340.12994,575.6842,340.6065,560.4342C340.8886,551.4536,341.7738,541.1277,342.25513,541.1277C342.26166,541.1277,342.2681,541.1296,342.27448,541.1334C342.4651,541.22876,342.8463,542.51544,343.17993,543.9928C343.51352,545.47015,344.8479,549.235,346.1346,552.33264C347.42133,555.4303,348.4698,558.52795,348.4698,559.1951C348.4698,559.86237,348.04086,561.1014,347.5643,561.9592C346.75415,563.34125,346.61118,564.5803,346.51587,571.8717C346.3729,580.0686,346.42053,580.2592,347.6596,582.6897C349.0893,585.5014,349.2799,586.7405,348.27914,587.5506C347.8979,587.8842,347.469,589.21857,347.27838,590.5053C346.99243,592.41156,347.08774,593.0788,347.75494,593.79364C348.4698,594.6038,348.42212,594.8421,347.2307,597.65375C346.56354,599.3217,345.13385,602.1335,344.0854,603.84906C343.0846,605.61237,342.13147,607.7569,341.94086,608.71C341.60727,610.9975,343.0846,611.9983,346.94476,612.04596C346.98645,612.0464,347.0281,612.04663,347.06973,612.04663C351.59592,612.04663,355.71957,609.49023,356.3807,606.2319C356.52368,605.5647,357.1432,603.992,357.76276,602.8006C358.6682,601.085,358.95416,599.846,358.95416,597.41547C358.95416,595.6999,359.14478,594.2702,359.38306,594.2702C360.47913,594.2702,361.3846,588.78973,360.33618,588.4561C359.95493,588.3131,359.95493,587.6936,360.38385,586.2639C361.47992,582.1178,362.2901,572.8725,362.2901,564.34204C362.2901,554.95374,361.24164,545.66077,359.38306,538.27405C358.52524,534.9381,358.42993,533.5561,358.71588,527.5514C359.04944,519.59283,359.24008,518.4967,360.05023,518.4967C361.57526,518.4967,362.43304,517.16235,362.95728,513.9217C363.43384,511.15765,363.67212,510.63342,364.48227,510.49048C365.3401,510.34747,365.5307,509.8233,366.05493,505.72485C366.76978,500.33966,367.19867,498.19513,368.77133,493.09595C369.39087,491.0467,369.9151,488.8069,369.9151,488.09204C369.9151,487.3772,370.48694,484.5655,371.15414,481.89673C372.1549,477.7506,372.34555,475.70142,372.44086,469.26782C372.48853,465.02643,372.2979,458.3069,371.9643,454.39905C371.6307,450.20532,371.58307,446.24988,371.82135,444.8678C372.34555,441.57953,371.58307,433.90686,370.48694,431.81C369.96274,430.8092,368.81897,429.66547,367.7229,429.09363C366.67444,428.56934,364.6729,427.235,363.24323,426.13892C361.81354,425.04285,359.71664,423.8037,358.62054,423.37488C357.09555,422.80298,356.2854,422.04047,355.37994,420.5155C354.71274,419.3717,353.95026,418.41858,353.71198,418.41858C353.67737,418.41858,353.61966,418.45377,353.5419,418.52002L353.5419,418.52002Q353.48038,418.45444,353.4124,418.39795L353.40887,418.39795Q353.30603,417.64322,353.15024,416.32727L353.14703,416.32727C353.10028,416.33917,353.05997,416.34546,353.0248,416.34546C353.0214,416.34546,353.018,416.3454,353.01468,416.34534C352.79156,416.33728,352.78314,416.0581,352.63852,415.32373C352.26395,413.4136,352.178,412.4183,352.36746,411.54932L352.36392,411.54932C352.48856,411.20407,352.6254,410.84195,352.77472,410.46164L352.7712,410.46164C352.98013,410.02936,353.2752,409.46136,353.57288,408.91852C354.6457,406.96985,354.8201,406.55164,355.11963,405.1676C355.2832,404.43475,355.3928,403.7173,355.44977,403.01846L355.44623,403.01846C355.58368,402.14102,355.61823,401.22757,355.61823,399.9756C355.57056,394.54285,353.9979,391.73108,349.6612,389.4912C348.66077,388.96326,347.07693,388.69452,345.22156,388.69452 Z"/> </g> </g> </svg>