<?xml version='1.0' encoding='utf-8'?>
<svg xmlns="http://www.w3.org/2000/svg" version="1.1" width="600px" height="976px" viewBox="0 0 600 976"> <g id="layer1"> <g style="fill:rgb(0,0,0); fill-opacity:1.0; stroke-linejoin: miter"> <path d="M178.67586,321.1114C178.75194,321.1114,178.8373,321.12457,178.93433,321.1422C179.4245,321.2472,179.59955,321.77246,179.8096,323.80304C179.94965,325.20343,180.33475,327.19904,180.61484,328.17932C180.92993,329.19464,181.38507,331.89044,181.70013,334.20105C181.98022,336.51172,182.50537,339.03253,182.8555,339.80273C183.2406,340.60797,184.04584,342.56848,184.64102,344.17902C185.27121,345.82452,185.9014,347.3299,186.07645,347.505C186.21649,347.7151,186.67163,348.7303,187.09174,349.78064C187.51187,350.83093,188.24707,352.5465,188.73724,353.63184C190.0326,356.32764,190.0326,360.07373,188.80725,361.12402C186.11145,363.46973,178.65424,375.37317,176.7637,380.41467C176.23853,381.74512,175.53833,383.63562,175.15323,384.58087C174.80313,385.52618,174.48804,386.57648,174.48804,386.92657C174.48804,387.27667,174.24295,388.4671,173.92786,389.5874C173.61276,390.70764,173.22766,392.2832,173.05261,393.1234C172.87756,393.96368,172.52747,395.15405,172.28238,395.74915C171.44214,397.70978,170.987,399.3553,170.987,400.4756C170.987,401.0708,170.84695,401.63092,170.6719,401.73596C170.53186,401.84094,170.2868,402.68127,170.18176,403.59143C169.72662,407.58264,169.16644,410.2085,168.71133,410.94366C168.43124,411.36377,168.18616,412.16907,168.18616,412.72913C168.18616,413.74362,167.62679,414.47833,166.94138,414.47833C166.82253,414.47833,166.69986,414.45624,166.57568,414.40967C166.12054,414.23468,166.05054,413.8496,166.22559,412.34406C166.54068,409.5083,166.92578,407.65265,168.2562,402.29614C168.50128,401.3509,168.6413,398.6551,168.57129,395.64417C168.22119,378.83917,168.88638,364.23987,170.25177,357.4829C170.84695,354.54205,171.6872,351.076,172.38739,348.5553C172.59747,347.78503,172.91257,346.59473,173.08762,345.9295C173.26266,345.26428,173.54276,344.14404,173.7528,343.47882C174.453,341.09814,175.85342,335.21637,176.27356,333.15076C176.48361,331.99542,176.7637,330.80505,176.93875,330.49C177.0788,330.20996,177.39389,328.1443,177.63898,325.9386C178.06734,321.74646,178.14807,321.1114,178.67586,321.1114 Z M269.05545,328.83716Q269.3501,329.9103,269.56934,330.8532Q270.29065,333.85535,270.4319,336.3934Q270.50952,337.5748,270.44946,339.21344Q269.87216,345.91605,269.98605,346.86017Q270.05826,349.67606,270.75693,351.9933Q271.26047,353.7312,272.28964,356.03363Q277.5872,366.791,278.26276,368.76938Q279.93945,372.8894,280.9017,377.06055Q283.42407,387.7893,283.42947,407.88593L287.7415,407.78973L287.74435,407.78973C287.74506,407.80243,287.74573,407.81512,287.74643,407.82776C287.74652,407.82965,287.74664,407.83157,287.74673,407.83347L287.74387,407.83347L286.18515,408.27322L287.6588,413.7406L287.65594,413.7406C287.63037,413.8669,287.60217,413.98477,287.5713,414.09454C287.32626,415.07483,287.18622,417.73566,287.2563,420.50146C287.29126,423.0923,287.32626,425.6129,287.32626,426.10315C287.32626,426.94336,286.94116,428.16876,285.96088,430.54944C285.86026,430.80652,285.7311,431.03506,285.56314,431.24304L285.56314,431.24304Q285.27786,429.34723,284.9925,427.59076Q282.08746,408.58963,277.76157,395.32538Q274.80624,385.11487,264.94672,367.06256Q263.72766,364.38556,263.29446,360.85397Q261.7118,353.1778,269.05276,328.83716 Z M219.51642,157.1251Q214.03539,157.2081,210.09511,161.02432Q206.27411,164.94637,206.179,170.4462Q206.2464,175.07878,208.96104,178.60086L208.95895,178.60086Q202.92856,187.9936,200.27061,192.81696Q193.87982,203.88364,194.28078,210.23264Q194.563,217.30048,202.22855,222.6721Q206.83122,225.89847,215.67297,226.62386L215.67082,226.62386C215.54005,228.06984,215.29384,228.31653,213.90964,229.52026C212.12411,231.0957,211.94907,231.23572,208.44803,232.6712C205.9273,233.7215,205.64722,233.96655,205.64722,235.43701C205.64722,237.1175,202.67133,239.67322,198.12,241.91388C195.98438,242.96417,193.95377,243.90948,193.56866,244.04944C193.18353,244.18958,191.78314,244.8197,190.41772,245.44995C187.12677,246.95538,186.95169,247.02539,183.9408,248.04065C182.50537,248.53082,180.1947,249.44104,178.82932,250.14124C177.4639,250.80646,175.53833,251.57672,174.59308,251.85675C172.38739,252.52197,168.6063,254.4126,167.55597,255.39288C166.50568,256.3031,165.1753,258.89386,164.08997,262.07983C162.82959,265.75592,161.18411,272.30286,161.18411,273.6333C161.18411,274.2984,160.86902,276.04895,160.51892,277.55432C160.13379,279.05988,159.64365,281.23047,159.4336,282.3858C159.18854,283.54114,158.69836,285.36163,158.31326,286.412C157.57806,288.4776,155.65247,295.75977,155.4074,297.37024C155.33739,297.89532,155.12732,298.5255,154.98729,298.77063C154.84723,298.9807,154.60216,300.52112,154.46213,302.16663C154.32208,303.81213,154.04199,306.15784,153.83194,307.4182C153.65689,308.67853,153.3418,310.95422,153.13174,312.4947C152.46654,317.92126,152.11644,320.1969,151.97638,320.8971C151.87137,321.28223,151.59128,322.5426,151.38121,323.698C151.13615,324.85333,150.3659,328.31934,149.6307,331.4002C146.33972,345.3343,146.44476,344.5641,145.35944,355.03223C144.62424,361.99927,145.07935,389.72742,145.9196,391.05774C146.09465,391.3379,146.30472,393.15845,146.33972,395.08398C146.58481,401.84094,147.07495,406.28723,147.98521,409.12317C148.47537,410.66357,148.9655,412.5542,149.10556,413.32434C149.45566,415.25,149.87578,417.4906,150.40092,419.97638C150.96109,422.67218,150.96109,438.917,150.40092,443.81836C150.19086,445.74396,149.94579,447.70447,149.9108,448.15967C149.84076,448.82483,150.08585,449.13995,151.06613,449.59503L152.3265,450.22522L152.57156,453.30615C152.74663,455.54688,152.64159,456.91223,152.25647,458.41766C151.17114,462.5489,151.59128,464.12433,154.74222,468.32556C156.87784,471.1964,158.03317,471.93164,160.76398,472.2467C160.78201,472.24887,160.79993,472.251,160.81772,472.2532L160.8161,472.2532Q162.16913,473.29517,163.18753,475.0938L163.1859,475.0938C163.31403,476.2634,163.36752,477.94183,163.42477,480.36914C163.56482,485.62067,163.49478,486.95105,163.07468,487.79132C162.58453,488.73657,162.58453,489.1217,163.10968,491.6775C163.42477,493.25293,163.80988,495.10846,163.98492,495.77368C164.51007,497.9093,164.75516,500.07996,164.72015,502.3556C164.68515,503.58093,164.8952,505.33148,165.1753,506.20673C165.34914,506.72827,165.46902,507.2918,165.5424,508.02133L165.54076,508.02133Q163.34334,531.47815,153.9638,587.0968Q153.08049,592.8563,154.19328,595.0614Q155.1642,597.0177,157.01332,597.53845Q159.15123,597.2349,160.9373,597.2349Q164.31671,597.2349,166.43657,598.32153Q169.5486,606.9794,185.05817,611.97046Q196.1417,615.67725,205.70949,617.7387L205.70744,617.7387C205.85379,620.3921,206.11232,623.08594,206.2774,623.9114C207.46774,629.338,207.85284,631.85876,208.48303,637.9155C209.25327,645.79285,209.49835,649.1539,209.77844,655.07056C209.91846,658.4316,210.19855,661.44244,210.3736,661.72253C210.79373,662.31775,211.17883,678.38745,211.17883,696.2077C211.21387,706.18567,211.31888,708.70636,211.73901,709.7217C212.05408,710.49194,212.19415,711.5072,212.05408,712.38245C211.94907,713.18774,212.05408,714.9032,212.29916,716.23364C212.54425,717.529,212.7893,719.06946,212.89435,719.6646C212.96436,720.2248,213.34949,721.6252,213.73459,722.7455C214.08469,723.8308,214.39978,725.0212,214.39978,725.37134C214.39978,725.72144,214.60986,726.28156,214.88992,726.6667C215.13501,727.05176,215.4851,727.85706,215.59015,728.4872C216.1503,730.97296,220.49158,737.0297,222.41714,738.01C223.99261,738.81525,230.25946,740.88086,231.69489,741.09094C233.4196,741.362,237.90134,741.54626,240.64938,741.54626C241.80615,741.54626,242.65573,741.5136,242.86316,741.44104C243.2833,741.266,244.0185,741.09094,244.50864,741.0209C249.16504,740.3557,250.46039,739.44543,250.46039,736.74963C250.46039,735.1742,249.34009,730.5878,248.53485,728.76733C247.55453,726.56165,246.25916,723.0956,246.25916,722.57043C246.25916,722.2904,245.87402,721.2751,245.38391,720.32983C244.89377,719.3845,244.33359,718.05414,244.12354,717.3889C243.91351,716.72375,243.45834,715.67346,243.10825,715.07825C242.79315,714.51807,242.16296,712.9426,241.70786,711.5772C241.28772,710.2468,240.69254,708.7764,240.37744,708.28625C240.06235,707.79614,239.71225,706.8158,239.53717,706.1156C238.94202,703.3498,238.62692,702.12445,238.38184,701.5643C238.0264,700.67566,239.19966,699.98755,240.86266,699.98755C241.16525,699.98755,241.48407,700.0103,241.81284,700.05884C243.10684,700.26514,246.21902,700.371,249.16928,700.371C251.72678,700.371,254.1626,700.29144,255.18677,700.12885C258.47778,699.6037,260.05322,699.00854,261.13855,697.9232C262.50397,696.5578,263.65927,694.3522,263.48422,693.33685C263.37924,692.6016,261.2086,690.431,258.1277,687.9803C256.58722,686.7199,254.1015,685.52954,250.98557,684.5143C249.62018,684.05914,248.63986,683.3589,246.3642,681.01324C243.91351,678.4925,243.17822,677.4422,241.35773,673.8361C240.2024,671.4904,238.62692,668.7946,237.85669,667.84937C236.67061,666.3416,235.46144,664.68384,234.64677,663.4791L234.64442,663.4791L237.97656,618.38495L237.97418,618.38495Q239.09222,617.98944,240.15784,617.5121Q243.06494,616.1703,245.34079,614.4957L254.62265,607.1205Q257.48245,605.21783,260.96375,603.9564Q261.98315,602.9497,281.2972,599.8885Q284.5997,599.16705,287.21637,597.9961Q293.9845,595.04083,298.33545,586.7755Q292.82166,488.9119,287.27335,443.86755L287.27048,443.86755C288.63013,443.2263,290.6371,442.953,294.04828,442.6631C294.516,442.62964,294.88608,442.6082,295.19418,442.6082C295.28226,442.6082,295.3653,442.60995,295.4441,442.61368L295.44113,442.61368L384.43976,772.80615L384.4359,772.80615Q381.21777,776.77936,381.14514,781.94855Q381.15775,783.0463,381.3079,784.088L381.30408,784.088L345.35016,791.4671L345.25787,791.486Q340.18118,792.9914,340.4867,798.25885L344.49426,817.34924Q345.92798,820.63324,349.6077,821.1094Q349.85553,821.1283,350.0993,821.1283Q350.76675,821.1283,351.4039,820.9863L452.53436,800.2304L456.85785,799.32007Q457.97583,798.9793,458.8328,798.3081Q461.1811,796.3747,461.1783,793.4217L457.14722,773.6771Q455.64795,770.22943,451.9473,769.82056Q451.75903,769.8015,451.54617,769.8015Q451.02676,769.8015,450.36093,769.915L409.7482,778.25024L409.7482,778.25024Q408.79633,774.6318,406.02765,771.75165Q402.735,768.5221,398.39984,767.71356L398.39584,767.71356L320.49417,481.34476L320.49097,481.34476C320.48444,481.22055,320.48105,481.10483,320.48105,480.99933C320.48105,479.984,320.306,478.58362,320.13095,477.9184C317.82025,469.23584,316.875,465.62976,316.62988,464.6145C316.48984,463.94928,315.9297,462.05872,315.40454,460.4132C313.3767,453.95795,312.27057,450.45535,311.53888,448.41333L311.53577,448.41333L307.3171,432.90543L307.31403,432.90543C307.32617,432.7874,307.33887,432.66736,307.35214,432.54504C307.56226,430.65442,307.4922,430.23438,306.61694,428.51886C305.4616,426.31323,304.97144,421.9369,305.0415,415.07483C305.28656,395.71417,305.1115,359.0584,304.7614,355.38232C303.99115,346.48975,303.8161,345.54443,301.4354,338.40234C300.59515,335.8816,299.6499,332.7306,299.2998,331.4002C298.6346,328.6344,296.18384,321.07227,295.44867,319.4967C294.6434,317.71124,290.09204,304.79248,289.917,303.7071C289.84702,303.357,289.42685,301.85156,289.00677,300.41614C287.39624,295.12952,287.1512,294.25427,286.97617,293.06396C286.9062,292.39874,286.41602,290.50818,285.92587,288.86267C285.4707,287.2173,284.98056,285.57178,284.91058,285.18665C284.8055,284.80157,284.59546,283.92627,284.4204,283.26105C284.24536,282.59583,283.93027,281.23047,283.7202,280.28516C283.4751,279.30493,283.02002,277.58936,282.63486,276.43408C282.3981,275.6527,281.9692,274.21494,281.53226,272.73788L281.52945,272.73788Q280.71436,259.96835,276.64636,254.81032Q273.96906,251.0086,268.77982,248.52087Q266.5894,247.4672,263.55963,246.53143Q262.74542,246.19116,253.0667,243.78969Q250.96439,243.19456,249.0992,242.4585Q247.66537,241.90495,246.24817,241.2147L246.24571,241.2147C246.8749,240.42506,247.76991,239.21967,248.42981,238.27277C249.20004,237.1175,250.67047,235.29694,251.65076,234.21155C252.63104,233.16125,253.96143,231.58582,254.59164,230.71057C255.2218,229.87036,256.27216,228.46985,256.9023,227.59473C257.56747,226.71936,258.79285,224.5838,259.66815,222.86829C261.03354,220.17249,261.3136,219.29718,261.52368,216.9165C261.54172,216.68478,261.56125,216.46498,261.58273,216.2563L261.5801,216.2563Q262.46542,215.94243,262.84988,215.75601Q272.27634,211.64484,271.85712,199.95638Q270.6974,184.80592,261.2542,173.45282Q255.22293,166.34953,244.69566,163.81987Q238.8871,162.34764,229.91933,162.13174L229.91702,162.13174Q229.473,161.57483,228.96196,161.04385Q225.03444,157.22066,219.54893,157.12515L219.51642,157.1251 Z"/> </g> </g> </svg>