<?xml version="1.0" encoding="UTF-8"?>
<svg width="512" height="512" version="1.1" viewBox="0 0 512.00001 512" xmlns="http://www.w3.org/2000/svg">
 <g transform="translate(0 -540.36)">
  <ellipse cx="269.5" cy="784.39" rx="175" ry="177.54" fill="#008080"/>
  <path transform="translate(0 540.36)" d="m336.92 129.23l-133.93 229.66 51.484 61.93a175 175 0 0 0 15.027 0.75195 175 175 0 0 0 175 -175 175 175 0 0 0 -2.5156 -29.498l-105.06-87.844z" fill="#1a1a1a" opacity=".31"/>
  <rect x="194.93" y="666.07" width="150.65" height="237.17" ry="20.43" fill="#0b1728"/>
  <rect x="210.16" y="689.17" width="120.19" height="190.98" ry="5.2849" fill="#fc0"/>
  <rect x="245.14" y="674.89" width="50.216" height="8.1226" ry="4.0613" fill="#fc0"/>
  <ellipse cx="218.93" cy="679.19" rx="4.0716" ry="4.5032" fill="#fc0"/>
  <ellipse cx="270.25" cy="891.73" rx="6" ry="6.6361" fill="#fc0"/>
 </g>
</svg>
